<?xml version="1.0" encoding="UTF-8" standalone="no"?>
<!-- Created with Inkscape (http://www.inkscape.org/) -->

<svg
   xmlns:dc="http://purl.org/dc/elements/1.1/"
   xmlns:cc="http://creativecommons.org/ns#"
   xmlns:rdf="http://www.w3.org/1999/02/22-rdf-syntax-ns#"
   xmlns:svg="http://www.w3.org/2000/svg"
   xmlns="http://www.w3.org/2000/svg"
   xmlns:sodipodi="http://sodipodi.sourceforge.net/DTD/sodipodi-0.dtd"
   xmlns:inkscape="http://www.inkscape.org/namespaces/inkscape"
   version="1.1"
   id="svg2"
   width="1920"
   height="469.65491"
   viewBox="0 0 1919.9999 469.6549"
   sodipodi:docname="banner-turquoise.svg"
   inkscape:version="0.92.2 5c3e80d, 2017-08-06">
  <metadata
     id="metadata8">
    <rdf:RDF>
      <cc:Work
         rdf:about="">
        <dc:format>image/svg+xml</dc:format>
        <dc:type
           rdf:resource="http://purl.org/dc/dcmitype/StillImage" />
        <dc:title></dc:title>
      </cc:Work>
    </rdf:RDF>
  </metadata>
  <defs
     id="defs6" />
  <sodipodi:namedview
     pagecolor="#ffffff"
     bordercolor="#666666"
     borderopacity="1"
     objecttolerance="10"
     gridtolerance="10"
     guidetolerance="10"
     inkscape:pageopacity="0"
     inkscape:pageshadow="2"
     inkscape:window-width="1920"
     inkscape:window-height="1046"
     id="namedview4"
     showgrid="false"
     fit-margin-top="0"
     fit-margin-left="0"
     fit-margin-right="0"
     fit-margin-bottom="0"
     inkscape:zoom="0.47111122"
     inkscape:cx="596.6624"
     inkscape:cy="291.49816"
     inkscape:window-x="0"
     inkscape:window-y="0"
     inkscape:window-maximized="1"
     inkscape:current-layer="svg2" />
  <path
     inkscape:connector-curvature="0"
     id="path4552"
     d="m -3.3889794,235.97588 c 0,-78.78646 0,-157.572922 0,-236.35937017 641.8411494,0 1283.6822794,0 1925.5234794,0 0,157.57291017 0,315.14581017 0,472.71872017 -641.8412,0 -1283.68233,0 -1925.5234794,0 0,-78.78645 0,-157.57291 0,-236.35935 z"
     style="fill:#06f1cc;fill-opacity:1;stroke-width:0.95433515" />
  <path
     inkscape:connector-curvature="0"
     id="path4550"
     d="M -3.3889794,287.74338 C -2.2186924,215.78579 -31.188129,80.47195 74.437984,78.930794 c 56.406506,25.296476 5.82465,75.768016 -20.58177,92.665686 -13.491287,85.15197 126.703376,48.67748 77.863376,-24.45955 37.22548,-83.274875 65.65876,45.89322 116.31728,41.43019 76.06544,28.73999 160.64146,-32.89235 136.71351,-117.4015 C 406.26869,-45.992931 527.89167,5.655437 605.93997,-0.44537186 908.96691,1.8028485 1212.0053,-2.536658 1515.0291,0.57436808 1536.4868,75.021629 1523.5828,208.9839 1634.0442,201.97603 c 53.6798,-0.757 144.2611,-127.943161 143.8883,-23.83337 6.429,54.62687 109.8813,67.90369 75.217,3.19187 -56.9538,-35.74437 -18.844,-149.241424 44.271,-83.806736 61.2201,74.384526 2.1479,178.995946 29.5416,266.098326 21.0687,109.3613 -88.6653,122.1982 -165.5129,109.14989 -548.1551,-1.4596 -1096.54818,0.46634 -1644.55157,-0.46843 -85.233045,22.80097 -146.756649,-15.5636 -120.2865892,-108.85269 0,-25.23717 0,-50.47432 -2.02e-5,-75.71151 z M 1776.0865,186.33072 l -0.044,2.36343 z M -3.0755865,89.262567 c 3.33256565,-3.103498 -1.6543194,5.241657 0,0 z"
     style="fill:#0fe1c0;fill-opacity:1;stroke-width:0.95433515"
     sodipodi:nodetypes="cccccccccccccccccccccc" />
  <path
     inkscape:connector-curvature="0"
     id="path4548"
     d="M -3.3745869,331.6336 C -10.060595,292.76059 -8.4705015,178.74321 39.415245,260.3466 119.00252,307.94285 204.09401,219.9474 290.32089,242.58831 373.65075,232.35363 460.76007,164.3487 457.55866,70.999655 426.26741,-34.750865 574.4098,-3.7097653 632.2739,7.4570907 c 122.82665,7.0931973 245.26818,-14.7211483 368.1408,-8.8919364 97.0274,-3.7032652 194.1318,11.6159177 290.7179,9.6493189 56.2037,-10.1242328 171.9798,-51.4087932 173.3246,42.6166248 -21.811,103.260982 80.0641,201.859072 178.6559,180.379272 77.0723,0.37142 151.1309,78.16844 227.083,31.06663 30.084,-39.81817 59.9569,-37.37718 49.5806,17.17777 2.5188,61.23806 23.1539,137.51908 -25.729,185.04215 -52.0658,20.95218 -110.8096,3.50428 -165.8399,7.9336 -577.1955,-0.17039 -1154.39786,-0.0631 -1731.5967794,-0.0955 0.00505,-46.90049 0.00909,-93.80094 0.014443,-140.70141 z M 1461.438,53.321407 c 4.167,-4.206239 -1.0002,6.596035 0,0 z"
     style="fill:#4cd9be;fill-opacity:1;stroke-width:0.95433515"
     sodipodi:nodetypes="cccccccccccccccccc" />
  <path
     inkscape:connector-curvature="0"
     id="path4546"
     d="M -3.3487511,414.69842 C -0.96469665,315.84013 121.57223,345.97617 179.56739,370.84449 264.50489,375.89999 295.71453,250.18075 383.43373,264.7888 464.47457,288.84744 578.39418,210.62175 545.61443,117.25467 538.82671,24.75635 649.8633,34.781995 710.4328,42.702779 799.0104,27.405918 888.10457,-25.58061 981.76571,-1.4534674 1067.7554,-19.631304 1142.3785,41.576447 1224.8177,52.938925 c 74.613,-56.3066407 177.5581,15.742523 144.6931,105.651575 19.4077,89.59048 122.7421,122.69701 201.5765,108.16106 75.3222,24.10604 133.6367,160.71375 220.712,84.14211 56.7681,-27.18877 165.5827,13.84775 126.4542,90.72166 -41.2799,52.5681 -116.9432,36.58965 -174.3986,30.33278 -69.6215,-8.19467 -139.0636,5.86146 -209.0595,0.65268 -512.7499,-0.6578 -1025.50033,-0.0476 -1538.2504839,-0.26556 z M 151.36489,322.67325 c -12.76769,-57.52622 61.86675,8.13471 0,0 z m 1612.81311,1.69521 c -80.8558,-7.02809 32.5891,-52.58834 0,0 z m 156.6879,-60.75401 c -5.3722,-6.80631 4.2261,0.54148 0,0 z m -0.081,-4.67397 1.1441,-0.70712 z m -1.4706,-4.07524 c -17.3952,-12.28993 9.8744,-15.99893 0,0 z m 1.8019,-26.39669 0.2475,-4.098 7e-4,-0.0139 -0.2473,4.09802 z"
     style="fill:#36d3be;fill-opacity:1;stroke-width:0.95433515"
     sodipodi:nodetypes="cccccccccccccccaacccccccccczccc" />
  <path
     inkscape:connector-curvature="0"
     id="path4544"
     d="M -0.56839285,471.26768 C 87.380862,443.15145 180.26077,458.5369 270.55256,452.71646 335.34416,390.10574 383.48676,291.38815 484.54333,288.91142 565.54983,278.08085 620.14785,199.9511 593.80388,119.83467 621.59785,28.551925 737.07422,118.1868 797.74025,73.310024 872.28201,66.784968 935.95243,-39.97659 1010.5253,22.308064 c 64.9546,51.681473 145.1484,68.838932 225.4137,56.906805 46.9579,-2.214603 118.0299,-2.095995 84.8358,62.498291 -14.0088,80.56001 48.8965,152.59488 126.937,148.26637 78.2294,23.88194 142.2681,82.5741 187.6714,150.9294 67.4123,41.89537 193.4193,-11.45154 233.9412,28.60052 -277.4849,5.88354 -555.0816,0.61028 -832.6135,2.7898 -345.75991,0.14166 -691.52062,0.0532 -1037.27929285,-1.03157 z M 103.49825,444.97312 c -15.920055,-16.60366 19.19338,-1.27063 0,0 z M 94.0977,431.9935 c -24.557822,-12.30141 20.57486,-12.59576 0,0 z"
     style="fill:#00cfb2;fill-opacity:1;stroke-width:0.95433515"
     sodipodi:nodetypes="ccccccccccccccccc" />
  <path
     inkscape:connector-curvature="0"
     id="path4542"
     d="m 471.32601,469.68457 c -3.94226,-51.27658 -66.71418,-168.3008 32.99188,-150.01811 90.56398,5.63624 164.37526,-86.56738 126.96485,-174.82219 37.72005,-81.923483 132.3235,9.22334 194.67418,-10.22083 72.28637,-11.06384 152.16303,-45.458815 221.07708,-3.11149 72.9725,33.88956 184.1234,-53.809652 232.354,0.97889 -2.4616,62.52881 -1.308,155.06524 70.4081,174.79295 73.8093,-28.67353 165.2763,45.05085 109.7335,123.70783 -67.6713,74.74896 -175.5613,31.5791 -261.5572,38.42232 -241.29316,5.49774 -482.91712,0.002 -724.33552,2.59771 l -2.31078,-2.32779 z"
     style="fill:#00c8af;fill-opacity:1;stroke-width:0.95433515"
     sodipodi:nodetypes="cccccccccccc" />
  <path
     inkscape:connector-curvature="0"
     id="path4540"
     d="m 609.14935,471.36654 c 1.77076,-5.29914 1.77076,5.29915 0,0 z m 6.53454,0.078 c 20.92321,-89.27847 9.58596,-194.04408 74.37048,-266.38306 84.61283,-22.70017 168.53536,17.54802 242.94012,55.25281 97.19011,11.76436 175.41081,-94.64027 274.98191,-57.59361 68.7051,43.98315 95.9618,150.3601 83.36,227.05074 -46.7022,74.2682 -135.2979,36.58032 -204.8238,41.58551 -156.94324,-0.8975 -313.89081,2.55141 -470.82871,0.0877 z m 145.94832,-129.288 c 53.26275,19.96309 116.31615,-82.51738 26.92426,-60.64575 -23.39666,6.58058 -49.98143,37.7121 -26.92426,60.64575 z m 398.94269,-4.80744 c 46.6751,-84.87799 -149.2107,-39.63887 -47.9465,-8.28982 15.5703,4.60731 31.5579,9.24712 47.9465,8.28982 z m -4.701,-120.74691 c -0.4311,-5.47598 -2.2153,3.99769 0,0 z m 151.8418,254.76438 c 1.7708,-5.29914 1.7708,5.29915 0,0 z M 652.94274,288.68853 c 3.30515,2.18646 -5.49898,2.11294 0,0 z"
     style="fill:#28c1a8;fill-opacity:1;stroke-width:0.95433515"
     sodipodi:nodetypes="cccccccccccccccccccccc" />
  <path
     inkscape:connector-curvature="0"
     id="path4538"
     d="m 658.50971,471.45725 c -53.85003,-80.51803 66.00939,-168.4689 110.26316,-73.55478 68.82815,50.67823 153.29399,-7.11006 197.61131,-47.32544 48.04382,37.76263 96.84472,122.3498 160.76312,53.52466 42.3004,-45.14434 166.269,-79.77872 137.6233,24.34422 -45.1252,84.54756 -152.0896,34.92693 -225.7196,43.46942 -126.84621,-1.06938 -253.70585,2.42236 -380.54129,-0.45808 z"
     style="fill:#00bda0;fill-opacity:1;stroke-width:0.95433515"
     sodipodi:nodetypes="ccccccc" />
  <path
     inkscape:connector-curvature="0"
     id="path4493"
     d="m 929.57448,390.05505 c -8.28381,-1.33457 -9.65348,-1.88737 -13.49522,-5.44706 -1.70155,-1.57665 -3.37546,-2.06948 -5.54298,-1.63199 -5.31705,1.07322 -13.56712,-1.42528 -17.92325,-5.42803 -2.21545,-2.03571 -6.41642,-4.62739 -9.33546,-5.75926 -2.91904,-1.13188 -6.45973,-3.46899 -7.8682,-5.19359 -1.40847,-1.72457 -4.16009,-3.98765 -6.1147,-5.02907 -5.11895,-2.72731 -7.87032,-5.92815 -7.87032,-9.15599 0,-1.64142 -0.91968,-3.32238 -2.20571,-4.0315 -1.21316,-0.66894 -2.9211,-2.64154 -3.7954,-4.38353 -2.65271,-5.2852 0.10039,-9.06257 14.13187,-19.39117 19.56656,-14.40279 59.12651,-50.59788 57.77116,-52.85733 -0.3441,-0.57365 -2.02554,-1.04301 -3.73651,-1.04301 -1.71099,0 -4.4257,-1.06557 -6.03269,-2.36795 -3.6733,-2.97696 -6.92782,-2.51176 -6.46077,0.92351 0.18678,1.37327 -0.20287,3.54104 -0.86581,4.81723 -1.14103,2.19662 -2.00485,2.29388 -16.20279,1.82435 -8.24863,-0.27271 -16.6888,-1.0711 -18.75587,-1.77398 -2.49628,-0.84878 -5.01231,-0.92122 -7.49243,-0.21558 -3.63798,1.03493 -11.50152,0.27839 -15.59468,-1.50007 -1.11857,-0.48604 -4.61837,-0.245 -7.77735,0.53585 -5.30483,1.31118 -6.41454,1.18758 -14.52664,-1.61808 -6.17175,-2.13455 -9.965,-2.83198 -12.75843,-2.34572 -2.98487,0.51957 -6.04044,-0.17505 -12.26309,-2.78748 -5.69768,-2.3921 -10.19317,-3.48853 -14.38497,-3.50845 -6.52755,-0.0311 -14.32875,-3.00076 -18.51235,-7.04717 -1.84203,-1.7816 -3.19653,-2.16046 -5.54296,-1.55036 -8.02361,2.08617 -10.90855,1.9046 -17.51701,-1.10246 -3.65836,-1.6647 -7.89875,-4.2081 -9.42306,-5.65192 -1.52432,-1.44392 -4.76696,-2.96944 -7.20587,-3.39009 -2.4389,-0.42068 -7.57436,-1.81738 -11.41214,-3.10377 -6.0208,-2.0181 -7.06367,-2.78139 -7.60411,-5.56546 -0.56458,-2.90848 -1.18828,-3.299 -6.32537,-3.96098 -11.50129,-1.48211 -18.65093,-3.24656 -20.95943,-5.17252 -2.30089,-1.9196 -2.31159,-2.0581 -0.39265,-5.07551 1.08502,-1.70614 1.7428,-3.33902 1.46176,-3.62859 -0.2811,-0.28959 -3.86799,-1.06496 -7.97092,-1.7231 -4.10292,-0.65813 -11.4726,-2.68952 -16.37709,-4.51422 -4.90447,-1.82468 -9.0899,-3.31764 -9.30091,-3.31764 -0.21092,0 -0.38369,-1.05685 -0.38369,-2.34859 0,-1.68523 1.40904,-2.99078 4.98867,-4.6222 2.74377,-1.25049 4.98869,-2.49334 4.98869,-2.7619 0,-1.64992 -7.85699,-4.09193 -16.35759,-5.08405 -9.71177,-1.13352 -29.53482,-6.35539 -34.48254,-9.08357 -5.76295,-3.17769 -1.97155,-4.07806 18.50515,-4.39457 11.07725,-0.17132 20.14042,-0.73277 20.14042,-1.2479 0,-1.8454 -7.38554,-4.78424 -17.73751,-7.05807 -13.96725,-3.06798 -38.18167,-10.93936 -39.78845,-12.93408 -0.70361,-0.87348 -2.64001,-1.88716 -4.30308,-2.25258 -4.92344,-1.08186 -10.72799,-5.26522 -9.31936,-6.71654 0.86935,-0.89569 4.23969,-0.40877 12.06541,1.74311 30.14547,8.28919 65.73456,13.68991 65.73456,9.97532 0,-0.60399 -2.12018,-1.64935 -4.71152,-2.32298 -24.69363,-6.41947 -50.5844,-18.30026 -60.14126,-27.59779 -1.8292,-1.77956 -6.76165,-6.4958 -10.961,-10.48054 -4.19935,-3.98472 -7.43784,-7.85493 -7.19663,-8.60047 0.26246,-0.81138 5.55234,2.16427 13.17814,7.41301 21.20839,14.59748 41.34446,23.42267 67.61509,29.63427 18.68706,4.41846 21.09213,3.27838 4.60092,-2.18103 -19.63468,-6.50002 -37.41672,-17.51305 -51.19017,-31.70386 -8.73274,-8.99737 -18.81784,-22.263095 -18.81784,-24.752574 0,-0.921861 5.95814,4.242367 13.24036,11.476034 19.93798,19.80504 37.56433,31.00549 63.22519,40.17564 13.1771,4.70895 21.16718,5.3114 11.80399,0.89002 -2.97373,-1.40423 -5.94011,-2.55312 -6.59199,-2.55312 -0.65188,0 -2.95809,-1.2078 -5.12493,-2.68401 -2.1668,-1.47618 -6.434,-4.31345 -9.48264,-6.30503 -7.65435,-5.00035 -21.44465,-19.26018 -25.72786,-26.60394 -3.63686,-6.235515 -7.38724,-14.663237 -6.52522,-14.663237 0.26411,0 3.08713,3.726381 6.27337,8.280852 12.18247,17.414005 35.09576,37.421725 51.30008,44.794825 8.86104,4.03186 22.27433,7.45802 29.29033,7.48164 3.49912,0.0115 11.03355,1.2856 16.74317,2.83076 10.71574,2.89994 46.71305,6.12121 53.1118,4.75281 2.83407,-0.60607 10.11682,-0.21245 50.13808,2.70899 8.84104,0.64539 20.31503,2.17141 25.49771,3.39115 9.87759,2.32472 20.74947,4.13017 47.99156,7.96976 17.90933,2.52424 24.06713,2.85547 24.06713,1.29452 0,-0.55908 2.7274,-3.87181 6.06091,-7.36164 3.33349,-3.48982 6.35733,-7.78676 6.71959,-9.54873 1.20575,-5.86409 3.5103,-8.88791 8.97039,-11.76997 4.56425,-2.40922 6.93896,-2.85548 15.19507,-2.85548 h 9.7854 l 3.51774,4.12239 c 6.41987,7.52329 19.61027,24.86457 20.27936,26.66109 0.87357,2.34554 4.58317,2.26342 24.48867,-0.54218 27.2421,-3.83959 38.1141,-5.64504 47.9916,-7.96976 5.1827,-1.21974 16.6567,-2.74576 25.4977,-3.39115 40.0213,-2.92158 47.304,-3.31506 50.138,-2.70899 6.3989,1.3684 42.3962,-1.85287 53.1119,-4.75281 5.7096,-1.54516 13.244,-2.819 16.7432,-2.83076 7.0159,-0.0228 20.4293,-3.44978 29.2903,-7.48164 16.2043,-7.3731 39.1176,-27.38082 51.3001,-44.794825 3.1862,-4.554471 6.0092,-8.280852 6.2733,-8.280852 0.8621,0 -2.8883,8.427722 -6.5251,14.663237 -4.2833,7.34376 -18.0735,21.60361 -25.7279,26.60394 -3.0487,1.99158 -7.3159,4.82885 -9.4827,6.30503 -2.1668,1.47621 -4.473,2.68401 -5.1248,2.68401 -0.652,0 -3.6185,1.14889 -6.5921,2.55312 -9.3631,4.42138 -1.373,3.81893 11.804,-0.89002 25.6608,-9.17015 43.2871,-20.3706 63.2251,-40.17564 7.2824,-7.233667 13.2405,-12.397895 13.2405,-11.476034 0,2.489479 -10.0852,15.755204 -18.8179,24.752574 -13.7735,14.19081 -31.5555,25.20384 -51.1902,31.70386 -16.4912,5.45941 -14.0862,6.59949 4.6008,2.18103 26.2708,-6.2116 46.4069,-15.03679 67.6153,-29.63427 7.6257,-5.24874 12.9156,-8.22439 13.1781,-7.41301 0.2412,0.74554 -2.9973,4.61575 -7.1967,8.60047 -4.1993,3.98474 -9.1317,8.70098 -10.9609,10.48054 -9.5569,9.29753 -35.4477,21.17832 -60.1413,27.59779 -2.5914,0.67363 -4.7116,1.71899 -4.7116,2.32298 0,3.71459 35.5892,-1.68613 65.7346,-9.97532 7.8257,-2.15188 11.1962,-2.6388 12.0654,-1.74311 1.4086,1.45132 -4.3958,5.63468 -9.3194,6.71654 -1.663,0.36542 -3.5993,1.3791 -4.3031,2.25258 -1.6067,1.99472 -25.821,9.8661 -39.7883,12.93408 -10.352,2.27383 -17.7376,5.21267 -17.7376,7.05807 0,0.51513 9.0632,1.07667 20.1405,1.2479 20.4767,0.31651 24.2679,1.21688 18.5051,4.39457 -4.9478,2.72818 -24.7708,7.95005 -34.4825,9.08357 -8.5007,0.99212 -16.3576,3.43413 -16.3576,5.08405 0,0.26841 2.2449,1.51141 4.9887,2.7619 3.5796,1.63142 4.9886,2.93697 4.9886,4.6222 0,1.29174 -0.1726,2.34859 -0.3836,2.34859 -0.2109,0 -4.3965,1.49296 -9.3009,3.31764 -4.9046,1.8247 -12.2742,3.85609 -16.3771,4.51422 -4.103,0.65814 -7.6899,1.43351 -7.9709,1.7231 -0.281,0.28957 0.3767,1.92245 1.4616,3.62859 1.9191,3.01743 1.9082,3.15591 -0.3926,5.07554 -2.3084,1.92596 -9.458,3.69038 -20.9593,5.17249 -5.1373,0.66198 -5.7609,1.05254 -6.3254,3.96098 -0.5405,2.78407 -1.5834,3.54736 -7.6041,5.56546 -3.8378,1.28639 -8.9734,2.68309 -11.4122,3.10377 -2.4389,0.42067 -5.6816,1.94622 -7.2059,3.39009 -1.5243,1.44387 -5.7646,3.98722 -9.423,5.65192 -6.6085,3.00708 -9.4934,3.18863 -17.5171,1.10246 -2.3464,-0.6101 -3.7008,-0.23131 -5.543,1.55038 -4.1835,4.04639 -11.9847,7.01609 -18.5122,7.04718 -4.1919,0.0201 -8.6874,1.11635 -14.385,3.50845 -6.2227,2.61249 -9.2782,3.30702 -12.2631,2.78747 -2.7934,-0.48624 -6.5867,0.21131 -12.7584,2.3457 -8.1121,2.80568 -9.2219,2.92929 -14.5266,1.61811 -3.159,-0.78076 -6.6589,-1.02192 -7.7774,-0.53588 -4.0932,1.77862 -11.9567,2.53503 -15.5947,1.5001 -2.4801,-0.70557 -4.9961,-0.63311 -7.4924,0.21558 -2.0671,0.70287 -10.5073,1.50114 -18.7559,1.77395 -14.1979,0.46953 -15.0618,0.37227 -16.2028,-1.82435 -0.6629,-1.27616 -1.0525,-3.44392 -0.8658,-4.81723 0.467,-3.43527 -2.7875,-3.90047 -6.4608,-0.92351 -1.607,1.30238 -4.3217,2.36795 -6.0326,2.36795 -1.7111,0 -3.3925,0.46936 -3.7366,1.04303 -1.3553,2.25943 38.2046,38.45457 57.7712,52.85733 14.0317,10.32858 16.7846,14.10599 14.1319,19.39118 -0.8744,1.74201 -2.5823,3.71459 -3.7954,4.3835 -1.2861,0.70914 -2.2057,2.39008 -2.2057,4.03153 0,3.22782 -2.7515,6.42865 -7.8703,9.15596 -1.9547,1.04142 -4.7063,3.3045 -6.1148,5.02907 -1.4084,1.7246 -4.9491,4.06171 -7.8682,5.19359 -2.919,1.13187 -7.12,3.72355 -9.3354,5.75926 -4.3562,4.00275 -12.6062,6.50125 -17.9233,5.42803 -2.1796,-0.43995 -3.8319,0.0547 -5.543,1.65916 -4.8205,4.5204 -10.6897,5.9344 -27.26689,6.56927 -8.64214,0.33094 -12.87813,-0.86329 -18.11336,-5.1066 l -3.03312,-2.45847 -3.61843,2.75688 c -1.99015,1.51629 -4.61619,3.17031 -5.83564,3.67565 -3.37311,1.39774 -16.80049,1.3889 -25.52618,-0.0172 z M 969.1798,145.97672 c -0.71134,-0.7329 -1.66138,-0.95337 -2.11117,-0.48993 -0.4498,0.46341 -0.0984,1.30067 0.78085,1.86056 2.07041,1.31834 3.00531,0.35512 1.33032,-1.37063 z"
     style="fill:#00a98f;fill-opacity:1;stroke-width:1.1252656" />
  <path
     style="fill:#00967f;fill-opacity:1;stroke-width:1.1252656"
     d="m 936.25454,387.77488 c -26.08583,-6.00408 -52.93384,-13.64044 -72.09763,-35.18106 -19.77296,-21.85109 21.84842,-31.23105 32.30631,-46.90117 12.28027,-13.37327 54.07206,-38.34778 14.75165,-42.5776 -9.46092,19.98172 -40.98959,4.44276 -59.51298,5.62606 -25.51834,3.38456 -51.28414,-7.26101 -75.67323,-13.54438 -18.10228,-4.85824 -41.03248,-8.22457 -59.14906,-22.3881 -7.88359,-9.3345 -34.19506,-0.57253 -26.82632,-17.84528 -12.35,-1.66538 -49.6486,-10.62089 -18.42372,-15.32397 -13.8777,-12.99986 -36.73787,-7.28466 -51.70349,-17.02012 11.89603,-1.47593 57.75983,1.443 22.98824,-11.55036 -10.29428,-3.22949 -48.3026,-11.38155 -42.34878,-14.97769 16.61037,1.2057 53.31352,17.55211 59.69364,2.7022 -17.61988,-5.13435 -57.79593,-19.39416 -59.37256,-27.06053 21.15948,8.487 56.01802,27.72788 73.12262,18.3923 14.07795,-1.81355 42.49427,5.0845 61.3007,8.31943 47.41623,5.82083 96.02004,0.21274 142.64567,13.08763 22.23686,1.05957 48.35313,10.16616 67.53564,10.26329 -21.60231,-4.87193 -1.33298,-25.16277 5.25932,-32.79092 3.52726,15.70787 14.61527,-5.86266 19.9472,12.3789 7.27829,16.94629 15.58682,-13.73504 24.86659,11.08742 -29.27473,21.48803 17.91615,1.16979 30.79215,2.6443 36.8409,-5.10418 73.1381,-14.84095 110.6524,-13.40741 33.406,1.43921 65.9378,-5.37496 98.6935,-10.41316 14.4651,-3.52906 17.944,-2.87863 25.1033,2.64844 23.4525,-1.58651 54.6914,-17.8813 69.7474,-21.71264 -14.6172,17.32466 -56.1078,15.37743 -61.3385,32.15442 16.1489,4.4944 58.1396,-11.71556 59.9326,-6.07079 -13.715,8.185 -55.8828,10.0332 -53.9263,22.59987 9.2169,0.97354 50.8787,-0.33645 21.499,6.42322 -14.0442,1.70419 -57.3891,10.22532 -24.7108,18.20704 -14.2905,7.43635 -37.2082,5.0998 -35.1775,20.35791 -23.5895,2.44664 -43.2701,18.07475 -63.8046,26.74267 -21.4267,-4.64621 -41.3469,14.00318 -64.8702,13.66129 -22.2235,6.27704 -44.8586,2.69536 -67.0309,5.91818 -13.7177,5.44666 -19.1198,-2.1504 -25.9629,-9.1421 -36.99808,7.6797 10.0156,31.19597 20.1814,45.06152 12.1378,14.69654 50.2992,25.12322 28.0534,46.75008 -20.0429,19.20943 -44.6256,27.33209 -70.12519,32.65484 -17.47903,5.55347 -28.46271,-14.90738 -43.10454,0.47595 -4.62944,0.35698 -9.30246,0.34073 -13.91353,-0.24958 z m -3.26005,-127.46063 c -2.51725,-12.16122 -9.23696,5.41516 0,0 z m 67.74051,-0.53828 c -1.47025,-11.47421 -9.65301,7.33534 0,0 z M 720.63275,200.52645 c -1.92251,-4.06483 -5.58684,2.78635 0,0 z m 491.10765,0 c -1.9226,-4.0648 -5.5866,2.78627 0,0 z m -258.27204,-26.9677 c 7.1934,-14.52635 -25.87909,7.95639 -1.85567,1.80773 z m 33.19515,1.24569 c -3.81594,-8.91254 -19.71095,5.05109 0,-7e-5 z m -9.13691,-22.43623 c -3.67725,-8.78876 4.35247,0.42112 0,0 z m -322.30097,-10.1607 c -8.33354,-6.10752 14.62614,6.32046 0,0 z m 616.22907,-0.0447 c 14.3376,-5.68709 -8.9302,5.33563 0,0 z m -622.88065,-2.81065 c -3.78509,-3.97883 8.94542,4.25765 0,0 z m 629.68205,0 c 8.6507,-4.09814 -3.4181,3.82647 0,0 z m -641.3223,-5.84413 c -23.57209,-14.43264 22.00599,10.77647 0,0 z m 647.9738,3.02066 c 12.1266,-8.5807 22.2312,-9.99518 2.361,-0.63738 z"
     id="path4489"
     inkscape:connector-curvature="0" />
</svg>
