<?xml version="1.0" encoding="UTF-8" standalone="no"?>
<!-- Created with Inkscape (http://www.inkscape.org/) -->

<svg
   xmlns:dc="http://purl.org/dc/elements/1.1/"
   xmlns:cc="http://creativecommons.org/ns#"
   xmlns:rdf="http://www.w3.org/1999/02/22-rdf-syntax-ns#"
   xmlns:svg="http://www.w3.org/2000/svg"
   xmlns="http://www.w3.org/2000/svg"
   xmlns:sodipodi="http://sodipodi.sourceforge.net/DTD/sodipodi-0.dtd"
   xmlns:inkscape="http://www.inkscape.org/namespaces/inkscape"
   version="1.1"
   id="svg2"
   width="1920"
   height="384"
   viewBox="0 0 1919.9999 383.99999"
   sodipodi:docname="banner-blue.svg"
   inkscape:version="0.92.2 5c3e80d, 2017-08-06">
  <metadata
     id="metadata8">
    <rdf:RDF>
      <cc:Work
         rdf:about="">
        <dc:format>image/svg+xml</dc:format>
        <dc:type
           rdf:resource="http://purl.org/dc/dcmitype/StillImage" />
        <dc:title></dc:title>
      </cc:Work>
    </rdf:RDF>
  </metadata>
  <defs
     id="defs6" />
  <sodipodi:namedview
     pagecolor="#ffffff"
     bordercolor="#666666"
     borderopacity="1"
     objecttolerance="10"
     gridtolerance="10"
     guidetolerance="10"
     inkscape:pageopacity="0"
     inkscape:pageshadow="2"
     inkscape:window-width="1920"
     inkscape:window-height="1046"
     id="namedview4"
     showgrid="false"
     fit-margin-top="0"
     fit-margin-left="0"
     fit-margin-right="0"
     fit-margin-bottom="0"
     inkscape:zoom="0.49858584"
     inkscape:cx="967.31284"
     inkscape:cy="163.86085"
     inkscape:window-x="0"
     inkscape:window-y="0"
     inkscape:window-maximized="1"
     inkscape:current-layer="g6166"
     inkscape:snap-object-midpoints="true"
     inkscape:snap-center="true" />
  <path
     inkscape:connector-curvature="0"
     id="path4552"
     d="m -3.3889799,192.93843 c 0,-64.38011 0,-128.760249 0,-193.14035668 641.8411599,0 1283.6822799,0 1925.5234799,0 0,128.76024668 0,257.52046668 0,386.28071668 -641.8412,0 -1283.68232,0 -1925.5234799,0 0,-64.38012 0,-128.76025 0,-193.14036 z"
     style="fill:#86a7ca;fill-opacity:1;stroke-width:0.86268258" />
  <path
     inkscape:connector-curvature="0"
     id="path4550"
     d="M -3.3889799,235.2401 C -2.2186878,176.44016 -31.188125,65.868868 74.43799,64.609511 c 56.4065,20.670936 5.824653,61.913619 -20.581778,75.721489 -13.49128,69.58168 126.703378,39.77666 77.863378,-19.98704 37.22548,-68.047831 65.65876,37.5015 116.31728,33.85455 76.06544,23.48481 160.64146,-26.87788 136.71351,-95.934289 C 406.26869,-37.471544 527.89168,4.7327587 605.93999,-0.25250188 908.96693,1.5846373 1212.0053,-1.9613779 1515.0291,0.58077732 1536.4868,61.41514 1523.5828,170.88202 1634.0442,165.15556 c 53.6798,-0.61858 144.2611,-104.548375 143.8883,-19.47536 6.429,44.63818 109.8813,55.4873 75.217,2.60823 -56.9538,-29.20841 -18.844,-121.952209 44.271,-68.482439 61.2201,60.783089 2.1479,146.266009 29.5416,217.441469 21.0687,89.36427 -88.6653,99.85389 -165.5129,89.19151 -548.1551,-1.19271 -1096.54817,0.38107 -1644.55157,-0.38278 -85.233047,18.63175 -146.756652,-12.71774 -120.2865871,-88.94865 0,-20.6225 0,-41.24495 -2.28e-5,-61.86744 z M 1776.0865,152.37104 l -0.043,1.93127 z M -3.075587,73.052085 c 3.33256817,-2.536019 -1.6543194,4.283199 0,0 z"
     style="fill:#7da1c7;fill-opacity:1;stroke-width:0.86268258"
     sodipodi:nodetypes="cccccccccccccccccccccc" />
  <path
     inkscape:connector-curvature="0"
     id="path4548"
     d="M -3.3745874,271.10486 C -10.060593,239.3399 -8.4705021,146.17093 39.415249,212.8529 119.00252,251.74603 204.09401,179.84082 290.32089,198.34177 373.65074,189.97853 460.76008,134.4085 457.55866,58.128595 426.26741,-28.285126 574.40982,-2.9199792 632.2739,6.2049723 c 122.82668,5.7961907 245.26814,-12.0293355 368.1408,-7.2660118 97.0274,-3.026115 194.1318,9.4919134 290.7179,7.8849054 56.2037,-8.272971 171.9798,-42.0085319 173.3246,34.8240571 -21.811,84.379417 80.0641,164.948547 178.656,147.396397 77.0723,0.3035 151.1308,63.8751 227.0829,25.386 30.0841,-32.5373 59.9569,-30.54265 49.5806,14.03677 2.5189,50.04049 23.1539,112.37331 -25.729,151.20664 -52.0658,17.12101 -110.8096,2.86352 -165.8399,6.48292 -577.1955,-0.13923 -1154.39785,-0.0516 -1731.5967799,-0.078 0.00453,-38.3246 0.00954,-76.64916 0.014393,-114.97374 z M 1461.4379,43.68287 c 4.1671,-3.437117 -1.0002,5.389935 0,0 z"
     style="fill:#759ac2;fill-opacity:1;stroke-width:0.86268258"
     sodipodi:nodetypes="cccccccccccccccccc" />
  <path
     inkscape:connector-curvature="0"
     id="path4546"
     d="m -3.348749,338.98104 c 2.38404922,-80.78177 124.920989,-56.1562 182.916139,-35.83512 84.9375,4.13109 116.14714,-98.60002 203.86634,-86.66308 C 464.47458,236.14228 578.39419,172.22039 545.61444,95.925752 538.82672,20.341016 649.8633,28.53344 710.43281,35.00589 799.01043,22.506109 888.10455,-20.791683 981.76572,-1.0762547 1067.7554,-15.930221 1142.3785,34.085511 1224.8177,43.370319 c 74.613,-46.0107961 177.5581,12.863968 144.6931,86.332891 19.4077,73.20859 122.7421,100.2615 201.5766,88.38348 75.3221,19.69818 133.6366,131.32677 220.7119,68.75648 56.7681,-22.21722 165.5828,11.31565 126.4543,74.13294 -41.2799,42.95587 -116.9433,29.89913 -174.3987,24.78634 -69.6215,-6.69626 -139.0636,4.78968 -209.0595,0.53333 -512.7499,-0.53751 -1025.50031,-0.0389 -1538.2504793,-0.21699 z M 151.3649,263.78294 c -12.7677,-47.00738 61.86674,6.64726 0,0 z m 1612.8131,1.38524 c -80.8558,-5.74299 32.5892,-42.97241 0,0 z m 156.6879,-49.64496 c -5.3722,-5.56176 4.2261,0.44247 0,0 z m -0.081,-3.81932 1.1442,-0.57783 z m -1.4706,-3.33008 c -17.3952,-10.04267 9.8745,-13.07347 0,0 z m 1.802,-21.56997 0.2475,-3.34867 7e-4,-0.0113 -0.2473,3.34867 z"
     style="fill:#6a92bb;fill-opacity:1;stroke-width:0.86268258"
     sodipodi:nodetypes="cccccccccccccccaacccccccccczccc" />
  <path
     inkscape:connector-curvature="0"
     id="path4544"
     d="M -0.56839093,385.20645 C 87.380865,362.23134 180.26077,374.80352 270.55256,370.04737 335.34415,318.8852 383.48676,238.21841 484.54333,236.19456 565.54984,227.34439 620.14786,163.5009 593.8039,98.033993 621.59785,23.442567 737.07422,96.687442 797.74026,60.016507 c 74.5417,-5.331924 138.21218,-92.571819 212.78514,-41.676097 64.9545,42.231374 145.1483,56.25153 225.4136,46.501229 46.9579,-1.809663 118.0299,-1.712735 84.8358,51.070301 -14.0088,65.82938 48.8966,124.69245 126.937,121.15542 78.2294,19.51504 142.2682,67.47519 187.6714,123.33152 67.4123,34.23467 193.4193,-9.3576 233.9413,23.37083 -277.485,4.80772 -555.0817,0.49869 -832.6136,2.27968 -345.7599,0.11575 -691.52061,0.0435 -1037.27929093,-0.84294 z M 103.49825,363.71991 c -15.920051,-13.56762 19.19338,-1.03828 0,0 z M 94.0977,353.11366 c -24.557818,-10.05206 20.57486,-10.29259 0,0 z"
     style="fill:#658db6;fill-opacity:1;stroke-width:0.86268258"
     sodipodi:nodetypes="ccccccccccccccccc" />
  <path
     inkscape:connector-curvature="0"
     id="path4542"
     d="m 471.32602,383.91281 c -3.94226,-41.90051 -66.71419,-137.5265 32.99188,-122.58687 90.56397,4.60565 164.37526,-70.73827 126.96485,-142.85543 37.72004,-66.943534 132.3235,7.53683 194.67415,-8.35191 72.28641,-9.04079 152.16306,-37.146553 221.0771,-2.54256 72.9726,27.69276 184.1234,-43.9704 232.354,0.79991 -2.4616,51.09522 -1.308,126.7111 70.4081,142.83154 73.8093,-23.43049 165.2763,36.81317 109.7335,101.08749 -67.6713,61.08089 -175.5613,25.80476 -261.5572,31.39669 -241.29319,4.49245 -482.91712,0.002 -724.33551,2.12271 l -2.31078,-1.90215 z"
     style="fill:#5784b1;fill-opacity:1;stroke-width:0.86268258"
     sodipodi:nodetypes="cccccccccccc" />
  <path
     inkscape:connector-curvature="0"
     id="path4540"
     d="m 609.14935,385.28722 c 1.77077,-4.33018 1.77077,4.33019 0,0 z m 6.53454,0.0638 c 20.92321,-72.95365 9.58597,-158.56256 74.37048,-217.67414 84.61281,-18.54938 168.53533,14.33932 242.94009,45.14967 97.19014,9.61321 175.41084,-77.33501 274.98194,-47.06244 68.7051,35.94069 95.9618,122.8663 83.36,185.53383 -46.7022,60.68804 -135.2979,29.89151 -204.8237,33.98148 -156.94334,-0.73338 -313.89092,2.08488 -470.82881,0.0717 z M 761.6322,279.70365 c 53.26278,16.31278 116.31617,-67.42883 26.92428,-49.55649 -23.39668,5.3773 -49.98143,30.81632 -26.92428,49.55649 z m 398.9427,-3.92839 c 46.6751,-69.35779 -149.2107,-32.39078 -47.9465,-6.774 15.5704,3.76486 31.5579,7.55626 47.9465,6.774 z m -4.701,-98.66797 c -0.4311,-4.47469 -2.2153,3.2667 0,0 z m 151.8418,208.17995 c 1.7708,-4.33017 1.7708,4.33019 0,0 z M 652.94274,236.01243 c 3.30515,1.78665 -5.49897,1.72658 0,0 z"
     style="fill:#4a7baa;fill-opacity:1;stroke-width:0.86268258"
     sodipodi:nodetypes="cccccccccccccccccccccc" />
  <path
     inkscape:connector-curvature="0"
     id="path4538"
     d="m 658.50971,385.36134 c -53.85002,-65.79506 66.0094,-137.66386 110.26314,-60.10507 68.82819,41.41157 153.29398,-5.80996 197.6113,-38.67185 48.04385,30.85763 96.84475,99.97779 160.76315,43.73752 42.3004,-36.88955 166.2691,-65.19093 137.6233,19.89282 -45.1252,69.08779 -152.0896,28.54043 -225.7196,35.52091 -126.84621,-0.87385 -253.70587,1.97942 -380.54129,-0.37433 z"
     style="fill:#3c75aa;fill-opacity:1;stroke-width:0.86268258"
     sodipodi:nodetypes="ccccccc" />
  <g
     id="g6166"
     transform="matrix(0.90233418,0,0,0.95729003,192.1139,19.979148)">
    <g
       id="g827"
       transform="translate(53.588509,-401.88753)">
      <path
         sodipodi:nodetypes="cccccccsccccsccccccccsccccccccscsccccssscscscscccccsccccscssssscscccsccccccccscccscccccccscccscccscssscsscccccscccccscccscssccccccccsssccccccccccccccscsccscscsscccccccc"
         inkscape:connector-curvature="0"
         id="path4493"
         d="m 770.95624,699.19998 c -6.67745,-1.04413 -7.78152,-1.47664 -10.87828,-4.26166 -1.37159,-1.23353 -2.72091,-1.61911 -4.46811,-1.27683 -4.286,0.83967 -10.93624,-1.1151 -14.44765,-4.24676 -1.78584,-1.59269 -5.17217,-3.62037 -7.52517,-4.50592 -2.35299,-0.88556 -5.20708,-2.71406 -6.34243,-4.06334 -1.13534,-1.34928 -3.35338,-3.11985 -4.92896,-3.93463 -4.1263,-2.13379 -6.34414,-4.63805 -6.34414,-7.16345 0,-1.2842 -0.74134,-2.59936 -1.77799,-3.15415 -0.97791,-0.52337 -2.35465,-2.06668 -3.05942,-3.42958 -2.1383,-4.13501 0.0809,-7.09035 11.39148,-15.17121 15.7723,-11.26841 47.66095,-39.58664 46.56842,-41.35439 -0.27737,-0.4488 -1.63275,-0.81601 -3.01194,-0.81601 -1.3792,0 -3.56748,-0.83369 -4.86285,-1.85264 -2.96099,-2.32911 -5.58441,-1.96514 -5.20793,0.72254 0.15057,1.07442 -0.16353,2.77043 -0.69791,3.76889 -0.91977,1.71859 -1.61608,1.79468 -13.06082,1.42732 -6.64909,-0.21336 -13.45257,-0.838 -15.11881,-1.38791 -2.01221,-0.66407 -4.04034,-0.72075 -6.03952,-0.16867 -2.93253,0.80971 -9.2712,0.21782 -12.57063,-1.17361 -0.90167,-0.38028 -3.7228,-0.19169 -6.2692,0.41923 -4.27614,1.02584 -5.17066,0.92913 -11.7097,-1.26595 -4.97495,-1.67003 -8.03263,-2.21568 -10.28437,-1.83524 -2.40606,0.40651 -4.8691,-0.13695 -9.88508,-2.18086 -4.59281,-1.87152 -8.21656,-2.72935 -11.5955,-2.74494 -5.26175,-0.0243 -11.55018,-2.34772 -14.92251,-5.51353 -1.48484,-1.39389 -2.57667,-1.69031 -4.4681,-1.21298 -6.4677,1.63218 -8.79321,1.49012 -14.12018,-0.86254 -2.94895,-1.30242 -6.36705,-3.29231 -7.59578,-4.42193 -1.22873,-1.12968 -3.84257,-2.32322 -5.80854,-2.65233 -1.96596,-0.32913 -6.10557,-1.42187 -9.19915,-2.42831 -4.85326,-1.57892 -5.69391,-2.1761 -6.12955,-4.3543 -0.4551,-2.27552 -0.95785,-2.58107 -5.09878,-3.09899 -9.27101,-1.15956 -15.03422,-2.54003 -16.89507,-4.04685 -1.85471,-1.50184 -1.86333,-1.61022 -0.3165,-3.97097 0.87461,-1.33484 1.40484,-2.61237 1.17829,-2.83892 -0.22658,-0.22657 -3.11792,-0.83321 -6.42523,-1.34812 -3.30729,-0.5149 -9.24788,-2.10421 -13.20131,-3.53181 -3.95342,-1.4276 -7.32722,-2.59566 -7.49732,-2.59566 -0.17001,0 -0.30928,-0.82686 -0.30928,-1.83748 0,-1.31849 1.13581,-2.33992 4.02129,-3.61631 2.21171,-0.97836 4.0213,-1.95073 4.0213,-2.16084 0,-1.29086 -6.33339,-3.20144 -13.18559,-3.97766 -7.8285,-0.88683 -23.80756,-4.97231 -27.79583,-7.10677 -4.64543,-2.48616 -1.58924,-3.19059 14.9167,-3.43821 8.9292,-0.13404 16.23488,-0.5733 16.23488,-0.97632 0,-1.44381 -5.95337,-3.7431 -14.29793,-5.52209 -11.25878,-2.40032 -30.77763,-8.5587 -32.07283,-10.11933 -0.56718,-0.68339 -2.12807,-1.47648 -3.46865,-1.76237 -3.96871,-0.84642 -8.64766,-4.11939 -7.51219,-5.25487 0.70076,-0.70076 3.41755,-0.31981 9.72573,1.36377 24.29979,6.48528 52.9876,10.71068 52.9876,7.80447 0,-0.47255 -1.70905,-1.29041 -3.79789,-1.81745 -19.90514,-5.02244 -40.77528,-14.31771 -48.47892,-21.59189 -1.47448,-1.39229 -5.45045,-5.08216 -8.83548,-8.19974 -3.38504,-3.11755 -5.99553,-6.14552 -5.8011,-6.72881 0.21157,-0.6348 4.47566,1.69328 10.6227,5.79978 17.09575,11.42073 33.32711,18.32536 54.50345,23.18518 15.06334,3.4569 17.00203,2.56492 3.70873,-1.70639 -15.8272,-5.08547 -30.16103,-13.70182 -41.26358,-24.80438 -7.03933,-7.03934 -15.16877,-17.41815 -15.16877,-19.36586 0,-0.72124 4.80276,3.31913 10.67285,8.97859 16.07168,15.49501 30.28001,24.25799 50.96482,31.43251 10.62185,3.68418 17.06253,4.15552 9.51501,0.69634 -2.39708,-1.09864 -4.78823,-1.99751 -5.3137,-1.99751 -0.52547,0 -2.38447,-0.94496 -4.13112,-2.0999 -1.74663,-1.15493 -5.18635,-3.37476 -7.64381,-4.93292 -6.17005,-3.91216 -17.28619,-15.06873 -20.73882,-20.81432 -2.93162,-4.87852 -5.95474,-11.47219 -5.25988,-11.47219 0.2129,0 2.48849,2.91544 5.05687,6.47876 9.82009,13.62432 28.29014,29.2779 41.35218,35.04645 7.14274,3.15444 17.95499,5.83499 23.61047,5.85347 2.82059,0.009 8.89397,1.00583 13.49641,2.21472 8.63779,2.26884 37.65465,4.7891 42.81258,3.71849 2.2845,-0.47417 8.15501,-0.16621 40.41551,2.11945 7.12663,0.50494 16.37563,1.69886 20.55331,2.65316 7.96217,1.81881 16.72582,3.23135 38.68524,6.23537 14.43643,1.97491 19.40013,2.23404 19.40013,1.0128 0,-0.43742 2.19851,-3.02922 4.88561,-5.75958 2.68707,-2.73036 5.12454,-6.09219 5.41655,-7.47071 0.97194,-4.58794 2.8296,-6.95371 7.23089,-9.20856 3.67917,-1.88492 5.59339,-2.23406 12.24851,-2.23406 l 6.11965,0.83334 4.6038,2.39192 c 5.17496,5.88606 15.80753,19.45348 16.34688,20.85904 0.70419,1.83509 3.69447,1.77084 19.73997,-0.42419 21.95943,-3.00402 30.72308,-4.41656 38.68525,-6.23537 4.17767,-0.9543 13.42665,-2.14822 20.55328,-2.65316 32.26052,-2.28578 38.13101,-2.59362 40.41551,-2.11945 5.15794,1.07061 34.17482,-1.44965 42.8126,-3.71849 4.60242,-1.20889 10.67581,-2.20552 13.49641,-2.21472 5.6555,-0.0179 16.4677,-2.69903 23.6105,-5.85347 13.062,-5.76855 31.532,-21.42213 41.3522,-35.04645 2.5683,-3.56332 4.8439,-6.47876 5.0568,-6.47876 0.6949,0 -2.3282,6.59367 -5.2598,11.47219 -3.4527,5.74559 -14.5688,16.90218 -20.7389,20.81432 -2.4575,1.55816 -5.8972,3.77799 -7.6438,4.93292 -1.7466,1.15494 -3.6056,2.0999 -4.1311,2.0999 -0.5255,0 -2.9167,0.89887 -5.3137,1.99751 -7.5475,3.45918 -1.1068,2.98784 9.515,-0.69634 20.6848,-7.17452 34.8931,-15.9375 50.9648,-31.43251 5.8701,-5.65946 10.6729,-9.69983 10.6729,-8.97859 0,1.94771 -8.1295,12.32652 -15.1688,19.36586 -11.1026,11.10256 -25.4364,19.71891 -41.2636,24.80438 -13.2933,4.27131 -11.3546,5.16329 3.7087,1.70639 21.1764,-4.85982 37.4078,-11.76445 54.5035,-23.18518 6.147,-4.1065 10.4111,-6.43458 10.6227,-5.79978 0.1944,0.58329 -2.4161,3.61126 -5.8011,6.72881 -3.385,3.11758 -7.361,6.80745 -8.8355,8.19974 -7.7036,7.27418 -28.5738,16.56945 -48.4789,21.59189 -2.0889,0.52704 -3.7979,1.3449 -3.7979,1.81745 0,2.90621 28.6878,-1.31919 52.9876,-7.80447 6.3082,-1.68358 9.025,-2.06453 9.7257,-1.36377 1.1355,1.13548 -3.5434,4.40845 -7.5122,5.25487 -1.3406,0.28589 -2.9014,1.07898 -3.4686,1.76237 -1.2952,1.56063 -20.814,7.71901 -32.0728,10.11933 -8.3446,1.77899 -14.298,4.07828 -14.298,5.52209 0,0.40302 7.3057,0.84235 16.2349,0.97632 16.506,0.24762 19.5621,0.95205 14.9167,3.43821 -3.9883,2.13446 -19.9673,6.21994 -27.7958,7.10677 -6.8522,0.77622 -13.1856,2.6868 -13.1856,3.97766 0,0.21 1.8096,1.18248 4.0213,2.16084 2.8855,1.27639 4.0213,2.29782 4.0213,3.61631 0,1.01062 -0.1392,1.83748 -0.3093,1.83748 -0.17,0 -3.5439,1.16806 -7.4973,2.59566 -3.9535,1.4276 -9.894,3.01691 -13.2013,3.53181 -3.3073,0.51491 -6.1987,1.12155 -6.4252,1.34812 -0.2266,0.22655 0.3036,1.50408 1.1782,2.83892 1.5469,2.36077 1.5382,2.46913 -0.3165,3.97099 -1.8608,1.50682 -7.624,2.88727 -16.895,4.04683 -4.141,0.51792 -4.6437,0.82349 -5.0988,3.09899 -0.4356,2.1782 -1.2763,2.77538 -6.12957,4.3543 -3.09356,1.00644 -7.2332,2.09918 -9.19916,2.42831 -1.96597,0.32913 -4.57981,1.52268 -5.80854,2.65233 -1.22873,1.12965 -4.64682,3.11951 -7.59577,4.42193 -5.32697,2.35268 -7.65246,2.49472 -14.12019,0.86254 -1.89143,-0.47733 -2.98324,-0.18096 -4.4681,1.213 -3.3723,3.16579 -9.66076,5.48922 -14.92251,5.51354 -3.37894,0.0157 -7.00266,0.87342 -11.59547,2.74493 -5.01598,2.04396 -7.47905,2.58735 -9.88509,2.18086 -2.25177,-0.38043 -5.30942,0.16532 -10.28436,1.83522 -6.53905,2.1951 -7.43359,2.29181 -11.7097,1.26598 -2.54639,-0.61086 -5.36754,-0.79954 -6.2692,-0.41926 -3.29943,1.39154 -9.63811,1.98335 -12.57064,1.17363 -1.99918,-0.55201 -4.0273,-0.49533 -6.03951,0.16867 -1.66625,0.54991 -8.46972,1.17447 -15.11882,1.38789 -11.44474,0.36736 -12.14105,0.29127 -13.0608,-1.42732 -0.53435,-0.99844 -0.84842,-2.69444 -0.69793,-3.76889 0.37648,-2.68768 -2.24694,-3.05165 -5.20793,-0.72254 -1.29537,1.01895 -3.48365,1.85264 -4.86284,1.85264 -1.3792,0 -2.73458,0.36721 -3.01195,0.81603 -1.09252,1.76773 30.79612,30.08599 46.56843,41.35439 11.31072,8.08084 13.52978,11.0362 11.39147,15.17121 -0.70477,1.36291 -2.0815,2.90622 -3.05941,3.42956 -1.03665,0.55481 -1.778,1.86995 -1.778,3.15417 0,2.52539 -2.21783,5.02964 -6.34413,7.16343 -1.57559,0.81478 -3.79362,2.58535 -4.92897,3.93463 -1.13535,1.34928 -3.98943,3.17778 -6.34243,4.06334 -2.35299,0.88555 -5.73933,2.91323 -7.52516,4.50592 -3.51142,3.13166 -10.16166,5.08643 -14.44766,4.24676 -1.75693,-0.3442 -3.08887,0.0429 -4.46811,1.2981 -3.88577,3.53666 -8.61679,4.64294 -21.97944,5.13964 -6.96629,0.25893 -10.38086,-0.67542 -14.60089,-3.99529 l -2.44495,-1.92345 -2.91676,2.15693 c -1.60423,1.1863 -3.72104,2.48038 -4.70402,2.87574 -2.719,1.09356 -13.54261,1.08664 -20.57625,-0.0134 z"
         style="fill:#11749b;fill-opacity:1;stroke-width:0.89362109" />
      <path
         sodipodi:nodetypes="cccccccccccccccccccccccccccccccccccccccccccccccccccccccccc"
         style="fill:#0c536f;fill-opacity:1;stroke-width:0.89362109"
         d="m 776.34093,697.41604 c -21.02737,-4.69747 -42.66913,-10.67198 -58.11676,-27.52487 -15.93867,-17.0958 17.61167,-24.43448 26.04161,-36.69443 9.89893,-10.46294 43.58663,-30.00243 11.89107,-33.31175 -7.6263,15.63325 -33.04106,3.47593 -47.97247,4.40172 -20.56993,2.648 -41.33934,-5.68086 -60.999,-10.59683 -14.59196,-3.80097 -33.07564,-6.43471 -47.67913,-17.51595 -6.35483,-7.30309 -27.5641,-0.44793 -21.62427,-13.96174 -9.95514,-1.30296 -40.02095,-8.30955 -14.85107,-11.98912 -11.18659,-10.1708 -29.61382,-5.69936 -41.67737,-13.31617 9.58921,-1.15473 46.55929,1.12898 18.53046,-9.03674 -8.29805,-2.52667 -38.93596,-8.90466 -34.13668,-11.71819 13.38935,0.9433 42.97518,13.73237 48.1181,2.11413 -14.2031,-4.017 -46.58838,-15.17355 -47.85928,-21.17154 17.05632,6.64003 45.15523,21.69366 58.94298,14.38971 11.34802,-1.41888 34.25397,3.978 49.41353,6.50894 38.22148,4.55409 77.40024,0.16644 114.98443,10.23947 17.92478,0.82897 54.53601,14.63208 51.24419,8.02976 -14.21806,-4.33548 1.33487,-17.27934 6.64881,-23.24743 6.87203,-2.76946 12.567,-6.99425 16.86499,7.27753 5.86691,13.25839 12.56429,-10.74599 20.04456,8.67454 -23.59789,16.81176 14.44193,0.91522 24.82111,2.06884 29.69684,-3.99339 58.95547,-11.61122 89.19507,-10.48964 26.92816,1.12599 53.1515,-4.20526 79.55539,-8.14703 11.6601,-2.76106 14.4643,-2.25217 20.2353,2.07209 18.9047,-1.24126 44.0859,-13.98993 56.2223,-16.98749 -11.7827,13.55442 -45.2276,12.03095 -49.444,25.1569 13.0174,3.51631 46.8654,-9.166 48.3107,-4.74965 -11.0554,6.40375 -45.0462,7.84974 -43.4691,17.68163 7.4295,0.76167 41.0125,-0.26324 17.33,5.02538 -11.3208,1.33332 -46.2605,8.00006 -19.919,14.24477 -11.5193,5.81803 -29.993,3.98997 -28.356,15.92757 -19.01517,1.9142 -34.8794,14.14128 -51.43195,20.92286 -17.27166,-3.63509 -33.32903,10.95577 -52.29079,10.68829 -17.91403,4.91101 -36.15989,2.10877 -54.03254,4.63024 -11.05769,4.26136 -15.41221,-1.68242 -20.92836,-7.15257 -29.82353,6.00842 8.07351,24.40703 16.26793,35.25512 9.7841,11.49824 40.54545,19.65584 22.61342,36.5762 -16.15629,15.02903 -35.97201,21.38402 -56.52681,25.54841 -14.08957,4.34491 -22.94334,-11.66319 -34.74589,0.37237 -3.73172,0.27931 -7.49857,0.26658 -11.21548,-0.19526 z m 13.87579,-167.59787 c 5.79849,-11.36508 -20.86073,6.22489 -1.49583,1.41432 z m -240.40876,-24.5285 c -6.71753,-4.77839 11.7899,4.94498 0,0 z m 496.73254,-0.0351 c 11.5573,-4.44945 -7.1985,4.17448 0,0 z m -502.09427,-2.19899 c -3.05111,-3.11294 7.21076,3.33109 0,0 z m 507.57677,0 c 6.9732,-3.20628 -2.7553,2.99375 0,0 z m -516.95979,-4.57231 c -19.00109,-11.29177 17.73867,8.43127 0,0 z m 522.32149,2.3633 c 9.775,-6.71335 17.9202,-7.82001 1.9031,-0.49866 z"
         id="path4489"
         inkscape:connector-curvature="0" />
    </g>
  </g>
</svg>
