<?xml version="1.0" encoding="UTF-8" standalone="no"?>
<!-- Created with Inkscape (http://www.inkscape.org/) -->

<svg
   xmlns:dc="http://purl.org/dc/elements/1.1/"
   xmlns:cc="http://creativecommons.org/ns#"
   xmlns:rdf="http://www.w3.org/1999/02/22-rdf-syntax-ns#"
   xmlns:svg="http://www.w3.org/2000/svg"
   xmlns="http://www.w3.org/2000/svg"
   xmlns:sodipodi="http://sodipodi.sourceforge.net/DTD/sodipodi-0.dtd"
   xmlns:inkscape="http://www.inkscape.org/namespaces/inkscape"
   version="1.1"
   id="svg2"
   width="1920"
   height="469.65491"
   viewBox="0 0 1919.9999 469.6549"
   sodipodi:docname="banner-blue.svg"
   inkscape:version="0.92.2 5c3e80d, 2017-08-06">
  <metadata
     id="metadata8">
    <rdf:RDF>
      <cc:Work
         rdf:about="">
        <dc:format>image/svg+xml</dc:format>
        <dc:type
           rdf:resource="http://purl.org/dc/dcmitype/StillImage" />
        <dc:title></dc:title>
      </cc:Work>
    </rdf:RDF>
  </metadata>
  <defs
     id="defs6" />
  <sodipodi:namedview
     pagecolor="#ffffff"
     bordercolor="#666666"
     borderopacity="1"
     objecttolerance="10"
     gridtolerance="10"
     guidetolerance="10"
     inkscape:pageopacity="0"
     inkscape:pageshadow="2"
     inkscape:window-width="1920"
     inkscape:window-height="1046"
     id="namedview4"
     showgrid="false"
     fit-margin-top="0"
     fit-margin-left="0"
     fit-margin-right="0"
     fit-margin-bottom="0"
     inkscape:zoom="0.49858584"
     inkscape:cx="1023.3438"
     inkscape:cy="146.73576"
     inkscape:window-x="0"
     inkscape:window-y="0"
     inkscape:window-maximized="1"
     inkscape:current-layer="svg2" />
  <path
     inkscape:connector-curvature="0"
     id="path4552"
     d="m -3.388976,235.97588 c 0,-78.78646 0,-157.57292 0,-236.35937035 641.841146,0 1283.682276,0 1925.523476,0 0,157.57291035 0,315.14580035 0,472.71871035 -641.8412,0 -1283.68233,0 -1925.523476,0 0,-78.78645 0,-157.57291 0,-236.35934 z"
     style="fill:#86a7ca;fill-opacity:1;stroke-width:0.95433509" />
  <path
     inkscape:connector-curvature="0"
     id="path4550"
     d="M -3.388976,287.74338 C -2.218689,215.7858 -31.188125,80.471953 74.437988,78.930792 c 56.406502,25.296478 5.82465,75.768018 -20.58178,92.665688 -13.491267,85.15196 126.703372,48.67747 77.863382,-24.45955 37.22547,-83.274875 65.65876,45.89322 116.31728,41.43019 C 324.10231,217.30711 408.67832,155.67477 384.75038,71.165618 406.26869,-45.992928 527.89167,5.655434 605.93997,-0.44537305 908.96691,1.8028453 1212.0054,-2.5366592 1515.0291,0.57436587 1536.4868,75.021633 1523.5828,208.98388 1634.0442,201.97603 c 53.6798,-0.757 144.2611,-127.94316 143.8883,-23.83337 6.429,54.62687 109.8812,67.90369 75.217,3.19187 -56.9538,-35.74437 -18.8441,-149.241425 44.271,-83.806735 61.22,74.384515 2.1479,178.995945 29.5416,266.098325 21.0687,109.3613 -88.6653,122.1982 -165.5129,109.14989 -548.1551,-1.45961 -1096.54818,0.46633 -1644.55158,-0.46844 -85.233031,22.80098 -146.756645,-15.5636 -120.2865758,-108.85268 0,-25.23718 0,-50.47432 -2.02e-5,-75.71151 z M 1776.0865,186.33072 l -0.044,2.36343 z M -3.0755831,89.262566 c 3.33256569,-3.103502 -1.6543194,5.241661 0,0 z"
     style="fill:#7da1c7;fill-opacity:1;stroke-width:0.95433509"
     sodipodi:nodetypes="cccccccccccccccccccccc" />
  <path
     inkscape:connector-curvature="0"
     id="path4548"
     d="M -3.3745835,331.6336 C -10.060592,292.76059 -8.4704981,178.74321 39.415249,260.3466 119.00252,307.94285 204.09401,219.9474 290.32089,242.58831 373.65074,232.35363 460.76008,164.3487 457.55866,70.999651 426.26741,-34.750867 574.40981,-3.7097665 632.27389,7.4570877 755.10054,14.550287 877.54206,-7.2640588 1000.4147,-1.4348468 c 97.0274,-3.7032611 194.1318,11.6159188 290.7179,9.64932 56.2037,-10.124231 171.9798,-51.4087952 173.3246,42.6166248 -21.8111,103.260982 80.0641,201.859062 178.6559,180.379272 77.0724,0.37142 151.1308,78.16843 227.0829,31.06663 30.0841,-39.81817 59.957,-37.37718 49.5807,17.17777 2.5188,61.23806 23.1538,137.51908 -25.729,185.04215 -52.0658,20.95217 -110.8096,3.50428 -165.8399,7.93359 -577.1955,-0.17039 -1154.39786,-0.0631 -1731.596776,-0.0954 0.00505,-46.90049 0.00909,-93.80094 0.014443,-140.70141 z M 1461.4379,53.321406 c 4.1671,-4.206237 -1.0002,6.596035 0,0 z"
     style="fill:#759ac2;fill-opacity:1;stroke-width:0.95433509"
     sodipodi:nodetypes="cccccccccccccccccc" />
  <path
     inkscape:connector-curvature="0"
     id="path4546"
     d="M -3.3487477,414.69841 C -0.96470331,315.84012 121.57222,345.97617 179.56739,370.84448 c 84.9375,5.05551 116.14714,-120.66374 203.86634,-106.05569 81.04084,24.05865 194.96045,-54.16704 162.1807,-147.53412 -6.78772,-92.498321 104.24886,-82.472675 164.81837,-74.551891 88.57759,-15.29686 177.67177,-68.283391 271.3329,-44.1562496 85.9896,-18.1778294 160.6128,43.0299176 243.052,54.3923956 74.613,-56.3066429 177.5581,15.742526 144.693,105.651575 19.4077,89.59048 122.7422,122.69701 201.5766,108.16106 75.3222,24.10603 133.6367,160.71375 220.712,84.14211 56.768,-27.18878 165.5827,13.84774 126.4542,90.72165 -41.2799,52.56811 -116.9433,36.58966 -174.3986,30.33278 -69.6215,-8.19467 -139.0636,5.86147 -209.0596,0.65268 -512.7498,-0.65779 -1025.50024,-0.0476 -1538.2503805,-0.26556 z M 151.36489,322.67325 c -12.76769,-57.52622 61.86675,8.13471 0,0 z m 1612.81301,1.69521 c -80.8557,-7.02809 32.5892,-52.58834 0,0 z m 156.6879,-60.75402 c -5.3721,-6.80631 4.2262,0.54149 0,0 z m -0.081,-4.67396 1.1441,-0.70713 z m -1.4707,-4.07524 c -17.3951,-12.28993 9.8745,-15.99894 0,0 z m 1.8021,-26.3967 0.2474,-4.09799 7e-4,-0.0139 -0.2473,4.09802 z"
     style="fill:#6a92bb;fill-opacity:1;stroke-width:0.95433509"
     sodipodi:nodetypes="cccccccccccccccaacccccccccczccc" />
  <path
     inkscape:connector-curvature="0"
     id="path4544"
     d="M -0.56838941,471.26768 C 87.380866,443.15145 180.26077,458.53688 270.55255,452.71645 c 64.7916,-62.61071 112.9342,-161.3283 213.99078,-163.80503 81.0065,-10.83058 135.60452,-88.96032 109.26055,-169.07675 27.79396,-91.282746 143.27033,-1.64787 203.93637,-46.52465 74.54174,-6.525053 138.21217,-113.286612 212.78505,-51.001955 64.9546,51.681474 145.1483,68.838931 225.4137,56.906803 46.9579,-2.214601 118.0299,-2.095997 84.8358,62.498282 -14.0088,80.56002 48.8965,152.59489 126.937,148.26637 78.2295,23.88195 142.2681,82.57411 187.6714,150.9294 67.4122,41.89538 193.4193,-11.45153 233.9412,28.60052 -277.4849,5.88355 -555.0816,0.61028 -832.6135,2.78981 -345.75992,0.14166 -691.52064,0.0532 -1037.27928941,-1.03157 z M 103.49825,444.97311 c -15.920048,-16.60366 19.19337,-1.27063 0,0 z M 94.0977,431.99349 c -24.557818,-12.3014 20.57487,-12.59576 0,0 z"
     style="fill:#658db6;fill-opacity:1;stroke-width:0.95433509"
     sodipodi:nodetypes="ccccccccccccccccc" />
  <path
     inkscape:connector-curvature="0"
     id="path4542"
     d="m 471.32602,469.68457 c -3.94227,-51.27659 -66.71419,-168.30081 32.99187,-150.01812 90.56398,5.63624 164.37525,-86.56737 126.96485,-174.82218 37.72004,-81.923484 132.32349,9.22334 194.67417,-10.22083 72.28637,-11.06384 152.16304,-45.458818 221.07709,-3.11149 72.9725,33.88955 184.1234,-53.809652 232.354,0.97889 -2.4617,62.52881 -1.308,155.06524 70.4081,174.79294 73.8093,-28.67352 165.2763,45.05086 109.7334,123.70783 -67.6712,74.74897 -175.5613,31.57911 -261.5571,38.42232 -241.29317,5.49775 -482.91713,0.002 -724.33552,2.59771 l -2.31078,-2.32779 z"
     style="fill:#5784b1;fill-opacity:1;stroke-width:0.95433509"
     sodipodi:nodetypes="cccccccccccc" />
  <path
     inkscape:connector-curvature="0"
     id="path4540"
     d="m 609.14934,471.36653 c 1.77077,-5.29914 1.77077,5.29916 0,0 z m 6.53455,0.0779 c 20.92321,-89.27848 9.58595,-194.04408 74.37047,-266.38307 84.61284,-22.70017 168.53536,17.54803 242.94013,55.25281 97.19001,11.76437 175.41081,-94.64026 274.98191,-57.5936 68.7051,43.98315 95.9618,150.3601 83.36,227.05074 -46.7022,74.26818 -135.2979,36.58032 -204.8238,41.5855 -156.94325,-0.8975 -313.89082,2.55142 -470.82871,0.0878 z M 761.6322,342.1565 c 53.26276,19.9631 116.31615,-82.51737 26.92427,-60.64574 -23.39667,6.58058 -49.98144,37.7121 -26.92427,60.64574 z m 398.9427,-4.80744 c 46.6751,-84.87798 -149.2107,-39.63887 -47.9465,-8.28981 15.5703,4.60729 31.558,9.24712 47.9465,8.28981 z m -4.701,-120.7469 c -0.4311,-5.47598 -2.2153,3.99769 0,0 z m 151.8417,254.76437 c 1.7709,-5.29914 1.7709,5.29916 0,0 z m -654.77286,-182.678 c 3.30514,2.18645 -5.49899,2.11293 0,0 z"
     style="fill:#4a7baa;fill-opacity:1;stroke-width:0.95433509"
     sodipodi:nodetypes="cccccccccccccccccccccc" />
  <path
     inkscape:connector-curvature="0"
     id="path4538"
     d="m 658.5097,471.45724 c -53.85002,-80.51802 66.00939,-168.46889 110.26316,-73.55477 68.82816,50.67823 153.29399,-7.11006 197.61131,-47.32545 48.04373,37.76263 96.84463,122.34981 160.76313,53.52466 42.3005,-45.14434 166.269,-79.77872 137.6233,24.34422 -45.1252,84.54757 -152.0896,34.92693 -225.7196,43.46942 -126.84622,-1.06938 -253.70585,2.42237 -380.5413,-0.45808 z"
     style="fill:#3c75aa;fill-opacity:1;stroke-width:0.95433509"
     sodipodi:nodetypes="ccccccc" />
  <path
     inkscape:connector-curvature="0"
     id="path4493"
     d="m 929.57447,390.05504 c -8.28381,-1.33456 -9.65348,-1.88737 -13.49522,-5.44706 -1.70155,-1.57664 -3.37546,-2.06947 -5.54298,-1.63199 -5.31706,1.07322 -13.56712,-1.42527 -17.92325,-5.42803 -2.21545,-2.0357 -6.41642,-4.62738 -9.33546,-5.75926 -2.91904,-1.13188 -6.45973,-3.46899 -7.8682,-5.19359 -1.40847,-1.72456 -4.16009,-3.98764 -6.11469,-5.02906 -5.11895,-2.72732 -7.87033,-5.92816 -7.87033,-9.15599 0,-1.64142 -0.91967,-3.32239 -2.20571,-4.0315 -1.21316,-0.66895 -2.9211,-2.64155 -3.7954,-4.38353 -2.65271,-5.2852 0.10039,-9.06257 14.13187,-19.39118 19.56656,-14.40278 59.12651,-50.59787 57.77116,-52.85734 -0.3441,-0.57363 -2.02554,-1.04299 -3.73652,-1.04299 -1.71098,0 -4.42569,-1.06557 -6.03268,-2.36795 -3.6733,-2.97697 -6.92782,-2.51176 -6.46078,0.92351 0.1868,1.37327 -0.20286,3.54104 -0.8658,4.81723 -1.14102,2.19663 -2.00485,2.29388 -16.20279,1.82434 -8.24863,-0.2727 -16.68879,-1.0711 -18.75587,-1.77397 -2.49628,-0.84878 -5.01231,-0.92123 -7.49242,-0.21558 -3.63799,1.03493 -11.50152,0.27839 -15.59469,-1.50007 -1.11857,-0.48604 -4.61837,-0.245 -7.77734,0.53584 -5.30483,1.31119 -6.41454,1.18759 -14.52665,-1.61807 -6.17175,-2.13455 -9.965,-2.83198 -12.75843,-2.34572 -2.98487,0.51957 -6.04044,-0.17505 -12.26309,-2.78748 -5.69768,-2.3921 -10.19317,-3.48853 -14.38497,-3.50846 -6.52754,-0.031 -14.32875,-3.00075 -18.51234,-7.04717 -1.84205,-1.78159 -3.19653,-2.16046 -5.54297,-1.55035 -8.02361,2.08617 -10.90855,1.9046 -17.51701,-1.10246 -3.65836,-1.6647 -7.89874,-4.2081 -9.42306,-5.65192 -1.52432,-1.44392 -4.76696,-2.96944 -7.20587,-3.39009 -2.4389,-0.42068 -7.57436,-1.81738 -11.41214,-3.10377 -6.02079,-2.0181 -7.06367,-2.78139 -7.60411,-5.56546 -0.56458,-2.90848 -1.18828,-3.299 -6.32537,-3.96099 -11.50129,-1.4821 -18.65093,-3.24655 -20.95944,-5.17251 -2.30088,-1.91959 -2.31158,-2.05811 -0.39264,-5.07551 1.08502,-1.70614 1.7428,-3.33902 1.46176,-3.62859 -0.2811,-0.28959 -3.86799,-1.06496 -7.97092,-1.7231 -4.10292,-0.65813 -11.4726,-2.68951 -16.37709,-4.51422 -4.90447,-1.82469 -9.08989,-3.31764 -9.30091,-3.31764 -0.21091,0 -0.38368,-1.05685 -0.38368,-2.34859 0,-1.68524 1.40904,-2.99078 4.98866,-4.62221 2.74378,-1.25048 4.9887,-2.49333 4.9887,-2.76189 0,-1.64992 -7.85699,-4.09193 -16.35759,-5.08406 -9.71177,-1.13352 -29.53484,-6.35539 -34.48254,-9.08356 -5.76296,-3.17769 -1.97155,-4.07806 18.50514,-4.39457 11.07725,-0.17132 20.14043,-0.73277 20.14043,-1.2479 0,-1.8454 -7.38555,-4.78424 -17.73752,-7.05807 -13.96725,-3.06798 -38.18166,-10.93936 -39.78844,-12.93409 -0.70361,-0.87347 -2.64001,-1.88715 -4.30308,-2.25257 -4.92344,-1.08186 -10.72799,-5.26522 -9.31936,-6.71654 0.86933,-0.89569 4.23969,-0.40878 12.0654,1.74311 30.14548,8.28919 65.73457,13.6899 65.73457,9.97532 0,-0.604 -2.12019,-1.64935 -4.71153,-2.32298 -24.69363,-6.41947 -50.58439,-18.30026 -60.14126,-27.59779 -1.82918,-1.77957 -6.76164,-6.4958 -10.96099,-10.48055 -4.19935,-3.98471 -7.43784,-7.85492 -7.19664,-8.60047 0.26247,-0.81137 5.55235,2.16428 13.17816,7.41302 21.20838,14.59747 41.34445,23.42267 67.61507,29.63427 18.68705,4.41846 21.09212,3.27838 4.60093,-2.18103 -19.63468,-6.50002 -37.41673,-17.51305 -51.19017,-31.70386 -8.73274,-8.99737 -18.81784,-22.263101 -18.81784,-24.752577 0,-0.921858 5.95814,4.24236 13.24036,11.476037 19.93797,19.80504 37.56432,31.00549 63.22518,40.17563 13.1771,4.70896 21.16718,5.31141 11.80399,0.89003 -2.97373,-1.40423 -5.94011,-2.55312 -6.59198,-2.55312 -0.65189,0 -2.9581,-1.20781 -5.12494,-2.68401 -2.1668,-1.47618 -6.434,-4.31346 -9.48263,-6.30503 -7.65436,-5.00035 -21.44465,-19.26018 -25.72787,-26.60394 -3.63686,-6.235515 -7.38724,-14.663243 -6.52522,-14.663243 0.26411,0 3.08713,3.726385 6.27338,8.280858 12.18246,17.414005 35.09576,37.421725 51.30007,44.794815 8.86104,4.03187 22.27434,7.45803 29.29033,7.48165 3.49912,0.0114 11.03355,1.2856 16.74317,2.83076 10.71575,2.89994 46.71305,6.12121 53.1118,4.75281 2.83407,-0.60607 10.11682,-0.21245 50.13807,2.70899 8.84105,0.64539 20.31504,2.17141 25.49772,3.39115 9.87759,2.32472 20.74947,4.13017 47.99156,7.96976 17.90933,2.52424 24.06712,2.85544 24.06712,1.29452 0,-0.55909 2.72741,-3.87181 6.06092,-7.36164 3.33348,-3.48983 6.35732,-7.78676 6.71959,-9.54873 1.20575,-5.86409 3.5103,-8.88791 8.97039,-11.76998 4.56425,-2.40921 6.93896,-2.85547 15.19507,-2.85547 h 9.78539 l 3.51775,4.12239 c 6.41987,7.52329 19.61027,24.86457 20.27937,26.66109 0.87357,2.34554 4.58317,2.26342 24.48867,-0.54218 27.2421,-3.83959 38.114,-5.64504 47.9916,-7.96976 5.1827,-1.21974 16.6567,-2.74576 25.4977,-3.39115 40.0213,-2.92158 47.304,-3.31506 50.138,-2.70899 6.3988,1.3684 42.3961,-1.85287 53.1119,-4.75281 5.7095,-1.54516 13.244,-2.819 16.7432,-2.83076 7.0159,-0.0228 20.4293,-3.44978 29.2903,-7.48165 16.2043,-7.37309 39.1175,-27.38081 51.3001,-44.794815 3.1862,-4.554473 6.0092,-8.280858 6.2733,-8.280858 0.8621,0 -2.8883,8.427728 -6.5251,14.663243 -4.2833,7.34376 -18.0735,21.60361 -25.728,26.60394 -3.0487,1.99157 -7.3159,4.82885 -9.4826,6.30503 -2.1668,1.4762 -4.473,2.68401 -5.1249,2.68401 -0.6519,0 -3.6184,1.14889 -6.592,2.55312 -9.3631,4.42138 -1.373,3.81893 11.804,-0.89003 25.6608,-9.17014 43.2871,-20.37059 63.2251,-40.17563 7.2822,-7.233677 13.2404,-12.397895 13.2404,-11.476037 0,2.489476 -10.0851,15.755207 -18.8179,24.752577 -13.7734,14.19081 -31.5554,25.20384 -51.1901,31.70386 -16.4912,5.45941 -14.0862,6.59949 4.6008,2.18103 26.2708,-6.2116 46.4069,-15.0368 67.6152,-29.63427 7.6258,-5.24874 12.9157,-8.22439 13.1782,-7.41302 0.2412,0.74555 -2.9974,4.61576 -7.1967,8.60047 -4.1993,3.98475 -9.1318,8.70098 -10.961,10.48055 -9.5568,9.29753 -35.4477,21.17832 -60.1413,27.59779 -2.5913,0.67363 -4.7115,1.71898 -4.7115,2.32298 0,3.71458 35.5892,-1.68613 65.7346,-9.97532 7.8257,-2.15189 11.1961,-2.6388 12.0654,-1.74311 1.4086,1.45132 -4.3958,5.63468 -9.3194,6.71654 -1.6631,0.36542 -3.5994,1.3791 -4.303,2.25257 -1.6068,1.99473 -25.8211,9.86611 -39.7884,12.93409 -10.352,2.27383 -17.7376,5.21267 -17.7376,7.05807 0,0.51513 9.0632,1.07667 20.1405,1.2479 20.4767,0.31651 24.2679,1.21688 18.5051,4.39457 -4.9478,2.72817 -24.7708,7.95004 -34.4825,9.08356 -8.5006,0.99213 -16.3576,3.43414 -16.3576,5.08406 0,0.26841 2.2449,1.51141 4.9886,2.76189 3.5797,1.63143 4.9887,2.93697 4.9887,4.62221 0,1.29174 -0.1726,2.34859 -0.3837,2.34859 -0.2109,0 -4.3964,1.49295 -9.3009,3.31764 -4.9045,1.82471 -12.2741,3.85609 -16.377,4.51422 -4.103,0.65814 -7.6899,1.43351 -7.971,1.7231 -0.281,0.28957 0.3768,1.92245 1.4617,3.62859 1.919,3.01743 1.9083,3.15592 -0.3926,5.07553 -2.3084,1.92596 -9.4581,3.69039 -20.9594,5.17249 -5.1372,0.66199 -5.7607,1.05253 -6.3253,3.96099 -0.5405,2.78407 -1.5834,3.54736 -7.6042,5.56546 -3.8377,1.28639 -8.9733,2.68309 -11.4121,3.10377 -2.4389,0.42067 -5.6816,1.94622 -7.2059,3.39009 -1.5243,1.44387 -5.7647,3.98722 -9.423,5.65192 -6.6085,3.00708 -9.4934,3.18863 -17.5171,1.10246 -2.3464,-0.61011 -3.7009,-0.23131 -5.543,1.55038 -4.1835,4.04639 -11.9847,7.01609 -18.5122,7.04718 -4.1919,0.0201 -8.6874,1.11636 -14.385,3.50845 -6.2227,2.61249 -9.2782,3.30702 -12.2631,2.78747 -2.7934,-0.48625 -6.5867,0.21131 -12.7584,2.3457 -8.1121,2.80568 -9.2219,2.92929 -14.5266,1.61811 -3.159,-0.78076 -6.6589,-1.02192 -7.7774,-0.53588 -4.0932,1.77861 -11.9567,2.53503 -15.5947,1.5001 -2.4801,-0.70557 -4.9961,-0.63312 -7.4924,0.21557 -2.0671,0.70288 -10.5073,1.50114 -18.7559,1.77395 -14.198,0.46954 -15.0618,0.37229 -16.2028,-1.82434 -0.6629,-1.27616 -1.0525,-3.44392 -0.8658,-4.81723 0.467,-3.43527 -2.7875,-3.90048 -6.4608,-0.92351 -1.607,1.30238 -4.3217,2.36795 -6.0326,2.36795 -1.7111,0 -3.3925,0.46936 -3.7366,1.04303 -1.3553,2.25943 38.2046,38.45457 57.7712,52.85732 14.0317,10.32859 16.7846,14.10599 14.1319,19.39118 -0.8744,1.742 -2.5823,3.7146 -3.7955,4.38351 -1.286,0.70913 -2.2056,2.39008 -2.2056,4.03152 0,3.22782 -2.7515,6.42865 -7.8703,9.15597 -1.9547,1.04142 -4.7063,3.3045 -6.1148,5.02906 -1.4084,1.7246 -4.9491,4.06171 -7.8682,5.19359 -2.919,1.13188 -7.12,3.72356 -9.3354,5.75926 -4.3562,4.00276 -12.6062,6.50125 -17.9233,5.42803 -2.1796,-0.43994 -3.8319,0.0547 -5.543,1.65917 -4.8205,4.52039 -10.6897,5.9344 -27.2669,6.56927 -8.64214,0.33093 -12.87814,-0.8633 -18.11336,-5.1066 l -3.03311,-2.45848 -3.61844,2.75689 c -1.99015,1.51628 -4.61619,3.17031 -5.83564,3.67565 -3.3731,1.39773 -16.80049,1.3889 -25.52618,-0.0173 z m 39.60532,-244.07832 c -0.71134,-0.7329 -1.66138,-0.95338 -2.11117,-0.48994 -0.4498,0.46342 -0.0984,1.30068 0.78085,1.86057 2.07041,1.31834 3.00531,0.35512 1.33032,-1.37063 z"
     style="fill:#11749b;fill-opacity:1;stroke-width:1.1252656" />
  <path
     style="fill:#0c536f;fill-opacity:1;stroke-width:1.1252656"
     d="m 936.25453,387.77488 c -26.08583,-6.00409 -52.93384,-13.64044 -72.09763,-35.18106 -19.77295,-21.85109 21.84843,-31.23106 32.30631,-46.90118 12.28027,-13.37326 54.07206,-38.34777 14.75165,-42.57759 -9.46092,19.98171 -40.98959,4.44276 -59.51297,5.62606 -25.51834,3.38456 -51.28414,-7.26101 -75.67324,-13.54439 -18.10227,-4.85823 -41.03248,-8.22456 -59.14906,-22.3881 -7.88358,-9.33449 -34.19507,-0.57252 -26.82632,-17.84528 -12.35,-1.66537 -49.64859,-10.62088 -18.42371,-15.32396 -13.8777,-12.99987 -36.73788,-7.28466 -51.7035,-17.02013 11.89604,-1.47592 57.75983,1.44301 22.98825,-11.55036 -10.29428,-3.22948 -48.30261,-11.38154 -42.34878,-14.97768 16.61036,1.2057 53.31351,17.55211 59.69364,2.7022 -17.61988,-5.13435 -57.79593,-19.39417 -59.37256,-27.06053 21.15948,8.487 56.01801,27.72788 73.12261,18.3923 14.07795,-1.81355 42.49428,5.0845 61.3007,8.31943 47.41623,5.82083 96.02004,0.21274 142.64568,13.08763 22.23686,1.05957 48.35312,10.16616 67.53563,10.26328 -21.60231,-4.87193 -1.33298,-25.16276 5.25931,-32.79091 3.52727,15.70787 14.61528,-5.86266 19.94721,12.3789 7.27829,16.94629 15.58682,-13.73504 24.86658,11.08741 -29.27472,21.48804 17.91617,1.1698 30.79217,2.6443 36.8409,-5.10417 73.1381,-14.84094 110.6524,-13.4074 33.406,1.43921 65.9378,-5.37496 98.6935,-10.41316 14.4651,-3.52906 17.944,-2.87863 25.1033,2.64844 23.4525,-1.58651 54.6914,-17.8813 69.7473,-21.71264 -14.6171,17.32466 -56.1077,15.37743 -61.3384,32.15442 16.1489,4.49439 58.1396,-11.71556 59.9325,-6.07079 -13.7149,8.18499 -55.8827,10.0332 -53.9262,22.59987 9.2168,0.97354 50.8786,-0.33645 21.499,6.42322 -14.0442,1.70418 -57.3891,10.22532 -24.7108,18.20704 -14.2905,7.43635 -37.2083,5.0998 -35.1775,20.35791 -23.5896,2.44664 -43.2701,18.07475 -63.8046,26.74266 -21.4267,-4.6462 -41.3469,14.00319 -64.8702,13.6613 -22.2235,6.27704 -44.8586,2.69535 -67.0309,5.91818 -13.7178,5.44666 -19.1198,-2.15041 -25.9629,-9.1421 -36.99809,7.67969 10.0156,31.19597 20.1814,45.06152 12.1378,14.69654 50.2992,25.12322 28.0533,46.75008 -20.0428,19.20943 -44.6255,27.33209 -70.1251,32.65484 -17.47903,5.55347 -28.46271,-14.90738 -43.10454,0.47594 -4.62944,0.35699 -9.30246,0.34074 -13.91353,-0.24957 z m -3.26004,-127.46063 c -2.51726,-12.16122 -9.23697,5.41516 0,0 z m 67.74051,-0.53828 c -1.47026,-11.47421 -9.65302,7.33534 0,0 z M 720.63274,200.52645 c -1.9225,-4.06483 -5.58683,2.78635 0,0 z m 491.10766,0 c -1.9227,-4.0648 -5.5867,2.78627 0,0 z m -258.27205,-26.9677 c 7.1934,-14.52636 -25.8791,7.95638 -1.85567,1.80772 z m 33.19515,1.24568 c -3.81594,-8.91253 -19.71095,5.05109 0,-6e-5 z m -9.13691,-22.43622 c -3.67725,-8.78876 4.35247,0.42112 0,0 z m -322.30097,-10.1607 c -8.33353,-6.10753 14.62615,6.32046 0,0 z m 616.22908,-0.0447 c 14.3376,-5.68709 -8.9302,5.33563 0,0 z m -622.88066,-2.81065 c -3.78509,-3.97883 8.94542,4.25765 0,0 z m 629.68206,0 c 8.6507,-4.09814 -3.4182,3.82647 0,0 z m -641.32231,-5.84413 c -23.57208,-14.43265 22.00599,10.77647 0,0 z m 647.97381,3.02066 c 12.1266,-8.5807 22.2312,-9.99518 2.3609,-0.63738 z"
     id="path4489"
     inkscape:connector-curvature="0" />
</svg>
