<?xml version="1.0" encoding="UTF-8" standalone="no"?>
<!-- Created with Inkscape (http://www.inkscape.org/) -->

<svg
   xmlns:dc="http://purl.org/dc/elements/1.1/"
   xmlns:cc="http://creativecommons.org/ns#"
   xmlns:rdf="http://www.w3.org/1999/02/22-rdf-syntax-ns#"
   xmlns:svg="http://www.w3.org/2000/svg"
   xmlns="http://www.w3.org/2000/svg"
   xmlns:sodipodi="http://sodipodi.sourceforge.net/DTD/sodipodi-0.dtd"
   xmlns:inkscape="http://www.inkscape.org/namespaces/inkscape"
   version="1.1"
   id="svg2"
   width="256"
   height="256"
   viewBox="0 0 256 256"
   sodipodi:docname="logo.svg"
   inkscape:version="0.92.1 r"
   inkscape:export-filename="/home/quetzal/Projects/pseudorook/logo.png"
   inkscape:export-xdpi="18.000002"
   inkscape:export-ydpi="18.000002">
  <metadata
     id="metadata8">
    <rdf:RDF>
      <cc:Work
         rdf:about="">
        <dc:format>image/svg+xml</dc:format>
        <dc:type
           rdf:resource="http://purl.org/dc/dcmitype/StillImage" />
        <dc:title />
      </cc:Work>
    </rdf:RDF>
  </metadata>
  <defs
     id="defs6" />
  <sodipodi:namedview
     pagecolor="#ffffff"
     bordercolor="#666666"
     borderopacity="1"
     objecttolerance="10"
     gridtolerance="10"
     guidetolerance="10"
     inkscape:pageopacity="0"
     inkscape:pageshadow="2"
     inkscape:window-width="1920"
     inkscape:window-height="1046"
     id="namedview4"
     showgrid="true"
     inkscape:zoom="1.3037282"
     inkscape:cx="129.47253"
     inkscape:cy="129.18766"
     inkscape:window-x="0"
     inkscape:window-y="0"
     inkscape:window-maximized="1"
     inkscape:current-layer="svg2"
     fit-margin-top="0"
     fit-margin-left="0"
     fit-margin-right="0"
     fit-margin-bottom="0">
    <inkscape:grid
       type="xygrid"
       id="grid4530" />
  </sodipodi:namedview>
  <path
     inkscape:connector-curvature="0"
     id="path4856"
     d="M 0,127.99999 V 0 h 127.99999 128 v 127.99999 128 h -128 H 0 Z"
     style="fill:#e4e4e4;stroke-width:0.31999999" />
  <g
     id="g4528">
    <g
       transform="translate(-0.2934536,-0.410703)"
       id="g4818">
      <g
         transform="translate(-8.7738449,-0.31771463)"
         id="g4510">
        <path
           style="fill:#8997b5;fill-opacity:1;stroke-width:0.31999999"
           d="m 114.69875,255.64562 c 0.77977,-6.67576 0.52802,-12.98135 1.18451,-19.03853 -2.61459,-1.9372 -0.99293,8.7739 -5.49912,5.16113 1.42639,4.06503 -5.15529,4.65413 -6.70779,5.3081 -0.84737,-9.59541 3.71841,-9.06015 8.40989,-15.07632 5.7322,-6.79058 11.4637,-14.29005 15.88261,-22.27619 -11.3564,-9.41502 -22.51678,-19.47875 -29.65529,-32.63631 -5.535463,-9.5605 -10.906142,-19.15964 -16.754462,-28.50548 -3.522769,-10.28751 -11.282076,-18.62155 -11.717179,-29.98851 -2.070451,-10.83705 3.74989,-22.0996 -0.17523,-32.059363 -9.298918,-7.372359 -22.437267,-4.227445 -33.34012,-7.342879 -7.412957,-2.892086 5.615485,-5.827435 8.267322,-5.916569 4.387308,-2.104177 5.878452,0.04219 9.512776,-0.104699 -4.068511,1.105654 11.930248,0.161684 15.586865,0.493614 8.082317,2.405263 -22.020932,-0.09576 -7.322604,2.691752 4.802832,-0.782336 8.793985,6.245611 14.337026,3.900082 10.392106,-2.178304 -6.458872,-2.371974 1.600555,-4.164803 -5.317691,-0.681477 -1.557899,-1.857314 -4.078227,-5.908928 6.550056,-1.66448 -7.146289,1.22428 -0.675388,-2.472022 C 70.6884,65.221493 61.905431,63.524613 69.6081,61.063771 74.029944,49.071406 87.792327,47.918043 97.902635,52.793923 c 12.556155,0.510327 16.404585,14.539543 23.338415,22.568395 5.87038,7.061725 15.63527,11.158528 22.3007,15.273461 9.69694,6.598648 19.77304,13.430411 25.32106,24.097921 1.44269,3.56795 9.39383,13.608 1.47061,6.02624 0.87725,3.64826 -7.6758,-4.88352 -0.31758,2.69571 5.22897,7.47941 13.7879,13.50844 20.18371,21.52794 4.88841,6.63252 17.76574,13.64446 15.99757,21.62911 -5.46004,-0.13174 5.79314,11.29198 7.98931,15.89561 6.65316,9.41389 13.14008,18.83562 21.01553,27.20414 2.00769,9.77373 16.18303,15.67007 12.9514,26.3233 -11.50383,-2.3548 13.51823,14.92822 -1.08175,13.69959 -10.70589,2.63818 -19.04457,-4.83811 -27.4564,-11.2661 -11.52728,-9.71664 -22.04213,-20.5727 -31.96518,-31.95101 -4.81083,-3.37658 -17.72758,-13.8855 -15.39387,-1.39423 -7.95384,-1.04444 -3.73531,14.25351 -13.01029,7.31793 -6.3891,2.83968 -16.70615,18.72346 -3.40585,18.59649 6.83506,1.40425 5.11614,17.20589 0.26334,5.44156 -10.59307,-0.7238 -4.56614,12.43581 -5.77065,19.1655 -9.05681,0.51341 -19.38845,0.52364 -28.88635,0.0242 -2.62502,1.19762 -4.74695,-2.92727 -6.74761,-0.0241 z M 135.2,228.8 c 6.50071,-3.91911 13.19835,-10.36277 15.29044,-16.96 -5.11951,-3.91171 -12.9941,-13.539 -14.8104,-1.43108 -3.09246,3.0261 -15.61718,13.39622 -7.11608,17.25461 2.88476,-1.25316 4.86125,0.2158 6.63604,1.13647 z m -2.08,-58.70874 c -3.36175,-3.29662 -5.57856,0.0462 0,0 z m -16.96,-2.42913 c -5.24565,-3.53991 -16.353959,-21.73188 -14.2493,-9.31051 3.05371,3.36748 9.07973,8.41108 9.21701,6.50098 1.41247,0.30699 3.83625,3.44724 5.03229,2.80953 z m 38.89884,-5.91231 c -5.00827,-1.94866 1.86552,2.12405 0,0 z M 175.36,161.45236 c -6.62927,-7.19026 -15.80461,-11.5434 -23.3714,-17.73006 -14.38127,-0.47811 5.48057,9.84965 10.2514,11.87971 4.28973,1.39689 9.03973,6.01411 13.12,5.85035 z m -24,-1.12697 c -5.18568,-4.50069 -3.0251,1.15474 0,0 z m 5.68128,-0.24922 c -4.50281,-4.61561 -7.31759,-0.11273 0,0 z M 165.1175,145.04 c -2.74872,-2.77061 -3.91911,0.42222 0,0 z m 8.6425,-2.73982 c -4.22559,-6.6669 -15.73213,-5.7683 -18.57346,-4.93684 4.86489,5.22649 9.47107,-1.09537 15.51815,4.10143 1.28423,-0.74945 2.14666,2.19923 3.05531,0.83541 z m -92.218842,-1.02153 c -1.531587,-2.50103 1.043612,2.73696 0,0 z M 80.176531,138.16 c -2.683577,-8.23366 -3.062604,-1.8136 0.467214,1.61854 z M 163.28,134.82348 c -0.77682,-5.54095 -9.50223,1.98318 0,0 z m -82,-1.72452 c -2.664203,-6.82676 -4.840718,-1.95212 0,0 z m 82.54423,-2.85052 c 2.11674,-3.51519 4.25249,1.87676 1.28179,-4.5039 -4.90755,-3.90375 -9.15105,1.05959 -1.28179,4.5039 z M 157.12,123.14115 c -4.49543,-7.44717 -4.3158,2.39815 0,0 z m 19.84,6.11996 c 0.92167,-0.60977 0.74678,1.09914 0,0 z M 69.92,78.4 c 0.386996,-1.169969 0.789213,1.139931 0,0 z m -28,-5.12 c 1.230163,-1.147266 0.820207,1.185244 0,0 z m 30.88,0 c 1.190554,-1.201655 1.748988,1.171492 0,0 z M 61.6,72 c -9.845033,0.07957 3.740687,-7.013768 0.430269,-0.768333 l 0.694876,0.952236 z m 8.809267,-0.627501 c -1.099628,-1.80383 2.351558,1.311289 0,0 z m -4.59871,-1.828608 c -0.757274,-2.069803 2.508622,-0.271596 0,0 z"
           id="path4826"
           inkscape:connector-curvature="0"
           sodipodi:nodetypes="ccccccccccccccccccccccccccccccccccccccccccccccccccccccccccccccccccccccccccccccccccccccccccccccccccc" />
        <path
           style="fill:#7987a4;stroke-width:0.31999999"
           d="m 118.16,255.67003 c -2.69125,-4.20451 4.22471,1.22688 0,0 z m 3.76,-0.16129 c -2.52821,-6.42597 5.42848,-8.3571 7.2418,-10.98214 -0.81553,-2.44827 7.36747,1.20514 2.88718,-5.12433 5.25578,-3.68484 -4.17907,-5.79574 -1.06344,-1.25049 0.94027,5.05748 -4.17444,3.96444 -5.83489,5.09847 3.50761,-4.30608 -2.88493,-6.63653 2.26886,-9.0612 -7.42827,-3.61409 -13.93367,1.63771 -16.38411,6.87133 -1.30115,3.53098 -5.01254,5.05692 -7.50783,5.12073 1.78204,-6.31222 5.5884,-10.73512 11.10587,-14.49639 2.62752,-7.88048 10.22175,-13.861 14.06108,-21.44274 -10.93277,-9.90652 -22.56028,-19.4376 -29.67908,-32.65799 -2.963108,-5.25299 -12.522069,-20.22505 -9.909513,-19.34372 3.928348,3.68393 11.413653,4.96547 2.54337,-0.45709 -4.610654,-1.86663 -12.938948,-15.7203 -10.713323,-15.10149 0.433343,5.72219 19.024141,17.81767 8.610173,6.89207 -3.974252,-4.61229 -11.693068,-18.06319 -0.678685,-9.85456 -2.445116,-3.51257 -9.848113,-11.40642 -2.162631,-4.40243 3.794505,3.39395 14.492679,15.96778 16.021919,12.51184 -4.354785,-4.29543 -13.232702,-10.61116 -13.975466,-14.61754 5.925479,4.15083 17.938356,15.76785 20.340316,16.03034 -7.26205,-4.134 -14.057122,-14.39512 -18.890781,-18.04141 3.994253,-0.73472 10.325511,-2.87191 3.559181,1.59611 7.0019,6.30003 13.83732,16.05642 23.38789,17.52717 -3.06267,-2.6732 -19.185631,-15.43931 -7.22631,-8.24988 0.84863,-4.54045 16.28245,13.1116 17.19374,5.12633 -3.72991,-1.69056 -16.30795,-12.62926 -12.12897,-11.20405 3.6425,2.79461 15.17615,11.86164 14.86891,9.83059 -4.3738,-3.28088 -13.66488,-14.41077 -3.95581,-5.02916 2.50059,4.86059 12.23702,7.46324 13.5029,9.07815 -5.63767,-2.57018 -17.54481,-0.15636 -6.35845,3.65976 13.21883,7.5271 27.62847,13.20198 42.20585,17.27758 0.32479,-3.06914 -20.23214,-8.64569 -7.60198,-5.47003 4.78106,2.62391 19.13243,5.5608 6.69239,1.02468 -7.12763,-2.25839 -1.67925,-2.79733 -10.14058,-6.32124 -8.64602,-4.45755 -10.79323,-4.93287 -13.84162,-9.18178 -6.80315,-7.11252 11.4846,6.44136 16.0792,7.35086 4.11966,2.32388 23.38756,11.69918 10.59564,3.17258 -3.09796,-2.74372 -17.19973,-12.5237 -5.99283,-5.69059 10.06113,5.21653 19.67626,13.02536 31.16375,14.24627 5.91331,-1.99236 10.62559,14.65873 16.53523,19.12533 4.55661,9.30707 13.0236,15.17438 17.78141,24.14756 1.72926,6.58136 19.00304,18.85471 8.56298,22.78309 -4.00018,-1.87602 -13.08131,-9.22882 -5.96657,-0.98325 1.71813,4.90407 11.73039,12.57051 10.40864,14.88875 -10.53071,0.79613 -18.96084,-2.14152 -27.29901,-9.60519 -12.8017,-10.58957 -24.50855,-22.48214 -35.33241,-35.13414 -6.01913,-3.72039 -16.04274,-11.38274 -15.44089,-0.42686 -7.24002,0.48347 -3.72859,13.30554 -12.78591,7.37349 -3.8458,1.86387 -13.61349,13.60676 -8.62863,19.21648 5.89412,-3.50894 10.86802,4.6525 9.96922,9.49491 -4.40652,-9.28759 -14.73643,-2.23558 -10.70717,6.93758 3.17958,7.74521 -2.20999,10.06828 -8.89346,7.80339 -4.23061,1.02449 -0.24762,-2.81979 -5.1294,0.41988 -4.99227,-0.16114 -7.26016,-0.64588 -11.23524,-0.0844 0.44604,-0.94114 -2.23078,0.42699 -2.12251,-0.39123 z m 9.01247,-1.01032 c 3.7563,-8.32481 -9.26967,-0.37355 0,0 z m -6.49147,-0.38754 c 0.86148,-2.53962 -2.65779,1.24505 0,0 z m 22.055,-4.49826 c -1.45073,-7.82357 -1.47079,6.1007 0,0 z m -18.87159,-1.61433 c 2.1382,-3.37665 -3.95983,2.45647 0,0 z m 3.57559,0.055 c -0.94403,-2.73787 -1.73874,2.23575 0,0 z m 4.33723,-2.96121 c -0.50922,-2.36866 -2.36501,1.38591 0,0 z M 151.15572,234.72 c -1.84474,-1.87254 -0.17501,1.62726 0,0 z m 1.65744,0.13871 c 0.31836,-1.71639 -1.4902,1.3759 0,0 z m 2.70684,0.20018 c -0.74678,-1.09914 -0.92167,0.60977 0,0 z m -16.96,-1.79417 c -3.34359,-5.05372 -1.82524,0.69111 0,0 z M 150.4,232.8 c -1.39834,-1.80294 -1.14337,1.30811 0,0 z m -16.96,-0.256 c -0.38378,-5.17901 9.5879,-1.17493 8.80799,-8.15161 4.27338,-5.09009 14.58331,-13.93957 5.28862,-16.39151 -5.54654,-0.63597 -8.30874,-9.90345 -11.40528,-0.29095 -2.20524,5.78444 -11.52316,10.64258 -10.80153,18.03578 3.95831,4.85819 9.80254,-0.34013 5.0702,5.10572 1.11065,-0.0271 1.88607,3.30326 3.04,1.69257 z m 7.04,-6.784 c 1.35139,-3.46162 1.34648,2.5268 0,0 z m 5.99333,7.00667 c -1.17816,-0.36284 -0.58775,0.55739 0,0 z M 155.2,232.64 c -1.24902,-1.169 -1.24902,1.169 0,0 z m -29.44,-1.08082 c -1.91003,-4.84918 -3.76655,3.49996 0,0 z m 22.72,-1.19342 c -1.15524,-2.02049 -1.78795,1.95851 0,0 z M 119.84,227.2 c -3.26877,-1.38529 -0.80545,1.23091 0,0 z m 1.3778,-2.23635 c 3.6698,-6.74903 -2.53378,1.34239 0,0 z M 216.96,203.84 c -0.78922,-1.13993 -0.38699,1.16997 0,0 z m 3.36,-0.32 c -1.23017,-1.14727 -0.8202,1.18525 0,0 z m -2.88527,-2.81944 c -1.25515,-0.74076 -0.0105,3.41494 0,0 z M 216.81302,198.8 c -1.78208,-6.19189 -8.52095,-6.47423 -6.34912,-3.67753 -6.66441,2.78315 6.95382,4.6606 6.34912,3.67753 z M 175.04,193.28 c -3.90635,-2.1666 2.0361,2.26972 0,0 z m 6.88,0.32 c -1.14825,-1.2183 -0.3974,1.26156 0,0 z m 26.55322,-4.48 c 0.47142,-10.61485 -9.2886,-5.75001 -4.95322,0.41077 -3.44738,4.7445 8.20186,-4.39501 2.15178,2.79082 2.04878,3.87304 2.79544,-1.55457 2.80144,-3.20159 z M 180.48,192.8261 c -3.53701,-3.36654 -3.2917,-0.13707 0,0 z m 15.17759,-0.14984 c -3.74114,-3.62297 -7.73983,-0.47491 0,0 z m -23.85226,-1.31604 c -7.99225,-4.98677 -19.95601,-12.52371 -25.97982,-15.06288 7.6963,5.11298 20.33647,12.85354 25.97982,15.06288 z m 14.28519,0.33681 c -3.26852,-3.30826 -14.32678,-8.29842 -4.8573,-2.34524 1.44481,0.64525 3.87198,2.39427 4.8573,2.34524 z m 25.37675,-0.53521 c -4.15735,-2.5477 2.5569,2.80084 0,0 z M 177.6,190.94018 c -8.74898,-5.23156 -17.70312,-11.03414 -26.85106,-15.90018 -5.24131,-1.72698 -16.97166,-11.21813 -5.14894,-4.78809 10.10705,5.06001 20.04425,10.49426 30.11392,15.60345 -11.75742,-7.67297 -24.62953,-13.69682 -36.67792,-20.93563 -6.49997,4.97022 12.067,10.58654 16.24846,14.30732 7.33362,3.6045 15.22283,9.40183 22.31554,11.71313 z m 14.72,-4.44129 c -1.32409,-4.81779 -20.49853,-7.95205 -8.60284,-1.63571 1.59077,0.66534 8.57753,5.36065 8.60284,1.63571 z m -39.36,-0.0943 c -5.83656,-3.76226 -4.9185,-1.3106 0,0 z M 199.26403,185.36 c 4.44261,-3.69475 0.22019,-10.83102 -0.71224,-2.29756 0.61738,1.67133 -2.88754,2.89686 0.71224,2.29756 z m -11.152,-4.60211 c -0.89363,-4.1146 -10.11096,-0.60569 -1.06901,0.67019 z m -48.99695,-0.46948 c -3.39842,-2.16923 -11.58593,-5.22684 -3.17509,-0.91847 -0.16107,-0.35494 3.45823,1.85304 3.17509,0.91847 z m 6.60064,-0.92841 c -1.63173,-1.60277 0.441,1.63131 0,0 z m 49.03739,-1.40887 c 1.57458,-2.10802 -7.45927,0.0393 0,0 z m -54.78292,-0.6229 c -10.54806,-4.86966 -19.56398,-12.6374 -28.93019,-19.52133 -4.17373,-2.71584 -8.40524,-7.83662 -1.28,-2.11775 8.94162,4.77321 16.97444,16.23459 26.82574,16.12199 -9.35699,-3.0298 5.92967,-8.46352 -3.65363,-10.98479 -1.78494,0.57931 3.25668,10.31591 -3.00665,3.84797 -6.96374,-3.07993 -5.02713,-4.63824 -1.95122,-7.38888 -2.72985,-0.37917 -3.1088,3.19746 -7.79839,-1.97183 -2.79536,-6.15788 -3.0037,2.00701 -8.03186,-3.25521 -10.07636,-4.4366 10.83834,10.41559 -0.23113,3.49317 -4.74335,-5.93678 -8.2092,-0.82131 -10.69262,-3.35126 -2.611031,7.16319 6.82482,12.96885 12.52781,15.21535 3.74478,1.91938 14.8495,10.12416 5.98291,2.19502 -12.50617,-10.27492 16.97272,11.49853 4.65773,1.45016 -4.65238,-3.92307 -19.5118,-15.10068 -17.26819,-14.82084 10.19905,7.14384 19.17696,16.59494 30.86081,21.26253 l 1.29647,0.13433 0.6924,-0.30863 z M 125.12,165.92 c -0.5147,-1.78491 1.99867,1.86883 0,0 z m -3.31398,-2.57466 c -5.12337,-4.40005 5.55815,3.90154 0,0 z m -3.10533,-2.29857 c -6.81659,-5.22739 3.19183,0.58476 0,0 z m 51.24885,14.37645 c -3.4771,-2.4312 -20.35662,-10.62438 -7.99504,-3.24028 1.5122,0.85465 8.48439,4.61827 7.99504,3.24028 z M 124.8,173.95424 c -1.34895,-1.05643 -0.80465,0.56615 0,0 z m 50.82048,-0.84841 c -4.48778,-1.31869 -25.93923,-10.40254 -11.82916,-3.60541 3.48823,1.50173 8.95821,4.22952 11.82916,3.60541 z M 114.08,168 c -1.14825,-1.2183 -0.3974,1.26156 0,0 z m 23.2,-10.69275 c -3.42927,-4.06083 -18.23837,-8.33079 -6.34824,-2.42725 2.22268,0.45725 4.04843,2.45005 6.34824,2.42725 z M 96.024,150.952 c 0.135893,-2.75642 -1.418601,0.9224 0,0 z m 19.05502,103.18388 c 0.0919,-3.73028 0.75801,2.74752 0,0 z m 5.39277,-1.09588 c 1.88408,-6.466 0.28275,5.73854 0,0 z m -4.46315,-1.18603 c -4.45448,-2.52809 6.05939,0.30207 0,0 z m 5.52525,-5.45772 c 1.25145,-7.71348 7.15898,3.44718 0,0 z M 119.36,241.95777 c 0.52803,-1.494 1.11059,0.55164 0,0 z M 122.95985,241.2 c 1.71607,-1.73822 1.04796,1.51188 0,0 z m -5.47185,-2.144 c 0.82151,-1.19513 0.75282,0.98512 0,0 z m 6.56533,0.0907 c -0.81492,-2.38643 1.98804,0.52826 0,0 z m -4.19966,-0.40456 c 0.11683,-1.57604 1.02001,1.06459 0,0 z M 204,165.47841 c -8.50743,-7.50501 -18.39041,-13.29346 -25.12,-22.65286 -5.55709,-6.57397 -10.48799,-13.10284 -14.93142,-20.45352 -3.12187,-0.62432 -2.40205,-10.42872 1.61961,-2.2243 13.69014,14.78988 28.44848,28.67833 41.28283,44.21306 0.17945,1.4991 -1.74372,2.46483 -2.85102,1.11762 z m -44.15773,-2.59475 c 0.80986,-0.5852 1.27395,1.03084 0,0 z M 194.56,161.12 c -0.5147,-1.78491 1.99867,1.86883 0,0 z m -3.74511,-2.68873 c -9.1856,-7.2012 9.2934,5.84367 0,0 z M 85.451258,154.58104 c -1.197448,-3.3042 2.26781,2.47837 0,0 z M 183.31918,152.72 c -1.07043,-1.52778 1.9471,1.88546 0,0 z m -34.3649,-0.60483 c -5.26042,-3.69691 5.46339,2.8797 0,0 z m -6.47627,-4.16777 c -0.5167,-2.01936 2.74552,0.85825 0,0 z m 1.84689,-1.6274 c 0.84793,-3.07386 1.75426,1.22641 0,0 z m -1.2849,-2.29859 c -8.09902,-3.1136 2.67906,-2.4277 1.48668,0.58685 z m 21.36,-1.80444 c -3.11079,-2.50974 4.0067,1.64928 0,0 z m -31.04381,-0.54839 c 0.32437,-4.92131 -10.19521,-12.74249 -0.54399,-5.24679 3.46556,5.06708 11.5645,3.59412 0.54399,5.24679 z M 162,140.90807 c -1.5725,-2.19524 2.98581,1.14703 0,0 z m -53.46166,-2.23574 c -4.07393,-5.2893 5.16596,4.21453 0,0 z m -4.99548,0.0248 c -1.42186,-2.27471 2.27471,1.42186 0,0 z M 75.642493,135.6 c -6.212037,-10.19237 -6.098868,-22.91104 -4.505552,-34.36844 3.5843,-10.150903 -0.86867,-19.862749 -12.65571,-19.513367 -6.408967,-1.845627 -22.406751,-0.08348 -23.268917,-4.863973 4.394615,-2.798915 21.39052,-3.284044 7.564741,-0.395052 9.883451,0.01992 19.853717,-1.158107 28.703764,4.18217 6.633001,6.027963 14.158101,-4.164823 5.204442,-5.526804 1.382248,-5.903887 -3.118434,-9.175906 -9.323167,-11.43886 C 71.84757,60.247948 75.089618,53.163905 81.6,51.71887 c 4.794643,-0.01487 7.02058,-0.952277 11.147483,1.60768 10.656027,-1.42146 18.428977,6.573375 23.040197,15.284454 2.99402,6.519619 17.17955,15.129164 4.82347,16.860103 -3.91391,-0.383198 -5.49829,-2.165755 -9.82513,0.616023 -4.43267,1.750551 -19.291158,4.922536 -7.10602,4.778428 -3.929952,2.239987 -12.922702,5.947725 -2.86282,4.866168 6.78216,-2.239665 18.31243,3.94009 9.98281,2.947205 -5.47785,-0.67713 -11.169006,-0.854321 -19.081257,1.232081 -8.550785,2.871188 -0.149199,6.914758 2.018664,8.879628 4.450176,-0.28206 8.118443,1.27867 8.629853,3.67761 1.35947,-0.0693 0.49177,-11.8739 -3.219512,-4.78717 -1.741503,0.843 -14.547019,-4.58531 -4.127247,-4.57246 2.998328,2.74454 8.147559,-0.95758 12.280889,0.88355 5.75666,-0.79191 9.59446,2.74792 4.4783,8.00782 -6.20052,-5.29925 -4.93556,8.08141 1.89051,1.21659 -0.81113,-7.37236 12.04986,-9.71784 11.7698,-3.27886 4.90901,2.10019 12.34774,0.88686 3.01148,3.65772 -3.72307,4.42943 8.34799,0.56714 8.12451,-0.40787 0.0125,6.21484 -9.73772,3.06088 -8.17598,6.33106 -11.14591,-2.13318 7.81559,6.96184 -2.57364,3.39894 -9.64198,4.46195 -16.34081,-6.44462 -25.52167,-4.61146 -1.364944,-6.916 -9.407394,-5.03658 -13.742979,-7.58775 -5.044193,-3.2517 -11.664116,0.0648 -10.476263,7.20141 3.294399,2.66912 6.851734,3.66641 9.480328,3.99332 -3.678937,0.96931 -5.904913,2.39218 -8.888002,3.80285 -0.03089,1.28117 1.874468,13.50843 -1.035281,9.88406 z m -0.412483,-5.77799 c -1.528568,0.15747 1.373206,2.58463 0,0 z m -0.931344,-3.81134 c -1.398151,-0.28339 0.990966,1.44641 0,0 z m -0.118391,-3.50603 c -1.503607,-3.99707 -0.528869,3.44865 0,0 z M 79.495248,122.32 c -6.375003,-9.87062 -3.380859,4.3713 0,0 z m 41.527362,-0.62052 c 11.9519,-12.85278 -14.34546,2.1539 0,0 z m -47.068079,-3.39195 c 1.306101,-4.91811 -2.987625,4.97948 0,1e-5 z M 114.384,117.72629 c -4.26977,-1.27837 -4.84487,1.63646 0,0 z m 2.74893,-0.84629 c 2.21878,-10.14232 -4.93345,2.88327 1e-5,0 z M 102.08,117.15424 c -1.97162,-2.22226 -0.56563,1.46696 0,0 z M 75.074544,115.6 c 1.575845,-2.72544 -1.154274,-1.03826 -0.651386,0.56 z m 30.424726,-4.8 c 5.99021,-10.62493 -4.55675,-3.65637 0,0 z m -22.702848,-3.28 c 8.155756,-1.99873 -1.978555,-4.03368 -1.821473,0.62949 z M 88,105.92 c -0.720052,-2.21809 -0.593575,2.22102 0,0 z m 8.64,-15.68 c -0.817582,-1.147985 -0.817582,1.147985 0,0 z m 22.08,-9.6 c -0.81758,-1.147985 -0.81758,1.147985 0,0 z m 1.92,-1.101114 c -0.74678,-1.099133 -0.92167,0.609786 0,0 z M 72.16,61.12 c -0.386996,-1.169969 -0.789213,1.139931 0,0 z m 7.760691,73.85787 c -1.676318,-4.92912 2.291794,3.58206 0,0 z M 107.84,135.04 c 1.23017,-1.14727 0.8202,1.18525 0,0 z m 30.56,-1.28 c 0.3974,-1.26156 1.14825,1.2183 0,0 z m -1.44,-0.96 c -1.18206,-1.45666 1.93096,0.69329 0,0 z m 23.68,-0.39578 c -2.36636,-1.42956 4.44339,0.81442 0,0 z m -77.567626,-1.25511 c 3.36841,0.57803 1.414424,-4.21322 0.449332,-5.48127 3.375676,-1.54305 5.181138,9.18898 -0.449332,5.48127 z m 72.594466,-0.9304 c 2.99443,-4.15793 4.1424,-0.39844 0,0 z M 109.28,129.92 c 1.59627,-1.16163 0.84885,1.23414 0,0 z m -29.567562,-1.08092 c 0.06091,-2.05855 2.263038,1.23691 0,0 z M 123.04,127.04 c 0.78922,-1.13993 0.38699,1.16997 0,0 z m 18.64,-0.13101 c -0.75814,-3.03332 8.39097,1.46755 0,0 z m 4.69926,-0.47543 c 3.73832,-2.81856 4.80802,-3.82252 7.26245,-0.21934 -2.3343,-0.0278 -5.08026,0.648 -7.26245,0.21934 z M 90.4,124.8 c 1.249018,-1.169 1.249018,1.169 0,0 z m 44.48,-0.61779 c -1.12028,-0.87199 10.12894,-7.45978 2.3041,-0.11084 l -0.68484,0.35152 z m 9.83985,-0.10221 c 1.71607,-1.73822 1.04796,1.51188 0,0 z m -35.21146,-0.49725 c 0.5148,-2.3498 4.95918,1.3901 0,0 z M 93.84,123.07454 c 5.451951,-6.57157 -0.398979,2.97417 0,0 z m 56.56517,-1.14487 c -1.14295,-3.4171 1.69926,2.09603 0,0 z M 91.8932,120.60508 c -5.99773,-4.74733 3.038855,-1.8099 1.791012,0.99881 z m 12.71634,-0.16179 c -7.355748,-0.76888 2.78438,-2.24357 0,0 z M 87.12,119.94403 c -3.94221,-3.76923 5.037292,2.43031 0,0 z m 49.2,0.37597 c 1.24902,-1.169 1.24902,1.169 0,0 z m -54.480595,-2.04863 c -0.247687,-5.39884 3.782643,2.66989 0,0 z m 17.170118,0.6446 c -7.396176,-3.9582 2.336927,-0.75063 0,0 z m 40.887017,-0.0529 c 1.39412,-2.01587 0.84241,1.9919 0,0 z M 150.4,118.49884 c 0.33811,-2.20398 1.05719,2.84568 0,0 z m -4.60871,-0.97422 c -0.64597,-1.6706 2.17812,0.28248 0,0 z m 19.49693,-0.70873 c -1.66642,-4.7571 3.27008,3.13404 0,0 z m -80.284822,-0.36803 c -2.843078,-3.63481 3.896853,3.27199 0,0 z M 92.864,117.056 c -1.228073,-2.25812 3.383674,1.73971 0,0 z m 50.436,-0.7946 c 1.78896,-0.27621 -0.55025,0.54841 0,0 z m -55.189891,-0.9039 c -0.459041,-2.66722 1.916698,2.80899 2e-6,0 z m 52.201251,0.29931 c -4.07918,-6.85567 3.35783,0.61809 0,0 z M 91.36,115.2 c 0.386996,-1.16997 0.789213,1.13993 0,0 z m -9.91441,-0.94238 c -0.207915,-5.91424 2.258383,2.4545 0,0 z m 82.60774,-0.23095 c -0.98557,-1.4492 1.40795,0.27369 0,0 z m -1.28,-1.6 c -0.89382,-2.61719 1.42703,-0.02 0,0 z m -27.768,-2.00802 c -2.95916,-2.94279 3.93359,2.19281 0,0 z M 154.97,110 c -0.84738,-6.39836 2.84992,2.15208 0,0 z m 8.23,0.08 c 1.19054,-1.20166 1.749,1.17149 0,0 z m -19.77867,-3.544 c 1.08068,-1.24599 1.08068,1.24599 0,0 z m 10.84393,-0.48267 c 0.20584,-1.23325 0.32471,1.45656 0,0 z M 133.12,105.6 c 0.8202,-1.18525 1.23017,1.14727 0,0 z m 26.1296,-1.5452 c -1.97868,-3.71314 3.00524,2.57959 0,0 z m -4.3326,-2.32621 c -1.4148,-6.615026 3.69561,3.76187 0,0 z m -15.57016,0.0101 c 0.14113,-2.511983 1.97839,1.99092 0,0 z M 151.108,99.14 c -2.14662,-5.057473 3.58318,1.24041 0,0 z m 1.852,-0.26 c 1.19054,-1.201657 1.749,1.17149 0,0 z m -37.61723,-0.667882 c 0.76318,-2.614923 3.83836,1.532591 0,0 z M 138.624,97.536 c -1.34781,-3.782376 4.5239,2.161322 0,0 z m 6.63012,-0.519587 c -7.32597,-5.29918 7.22846,-0.587675 0,0 z m -37.05216,-2.725856 c 3.95101,-4.611696 7.68157,0.515259 0,0 z M 113.6,94.24 c 2.24642,-1.464421 -0.18341,1.738384 0,0 z m 9.69365,0.125648 c -6.67391,-3.587894 7.04117,-3.330472 3.59484,-9.542901 6.00497,3.427646 -4.53179,8.757947 -3.59484,9.542906 z M 123.2,92.16 c -1.24902,-1.169003 -1.24902,1.169003 0,0 z m -17.05272,1.6 c -9.165833,-0.498005 8.79041,-4.124581 0.0193,0.509436 z m 26.66544,0.01462 c 0.166,-3.955337 4.75824,1.439244 0,0 z m 6.49631,-0.260781 c 0.10105,-3.808961 3.27061,0.32327 0,0 z m -24.00521,-1.058034 c 0.20725,-3.491889 6.21482,1.311067 0,0 z m 14.15781,0.05918 c 4.44816,-5.03264 7.76758,-0.711651 0,0 z m -17.5596,-2.159635 c -0.23469,-2.563162 1.92823,1.16614 0,0 z M 118.4,90.144 c 2.51999,-3.439222 2.59902,0.964724 0,0 z m -13.36,-0.141296 c -1.50772,-2.421373 3.28785,0.133539 0,0 z m 4.29333,-0.936038 c -1.12862,-3.221839 3.18587,1.31713 0,0 z m 23.68,-0.96 c -0.89522,-3.82992 2.68473,0.984752 0,0 z M 120.32,87.68 c 3.19162,-4.193605 5.37318,1.118908 0,0 z m -3.69316,-0.34129 c 0.0397,-2.412055 1.48944,1.921529 0,0 z M 114.64,86.32 c 1.80392,-1.500141 1.12467,1.636823 0,0 z M 58.88,74.24 c 4.045187,-1.314492 8.288699,1.356152 0,0 z m 9.86,0.101405 c 1.788971,-0.27625 -0.550202,0.548597 0,0 z M 69.92,74.24 c 1.677708,-1.179119 1.677708,1.179119 0,0 z M 58.88,71.364288 c -3.652406,-4.219807 5.906846,1.010774 0,0 z"
           id="path4824"
           inkscape:connector-curvature="0"
           sodipodi:nodetypes="cccccccccccccccccccccccccccccccccccccccccccccccccccccccccccccccccccccccccccccccccccccccccccccccccccccccccccccccccccccccccccccccccccccccccccccccccccccccccccccccccccccccccccccccccccccccccccccccccccccccccccccccccccccccccccccccccccccccccccccccccccccccccccccccccccccccccccccccccccccccccccccccccccccccccccccccccccccccccccccccccccccccccccccccccccccccccccccccccccccccccccccccccccccccccccccccccccccccccccccccccccccccccccccccccccccccccccccccccccccccccccccccccccccccccccccccccccccccccc" />
        <path
           style="fill:#667091;stroke-width:0.31999999"
           d="m 124.32,255.68 c 1.14825,-1.2183 0.3974,1.26156 0,0 z m 4.48323,-0.005 c 1.29079,-0.61697 0.72495,1.11166 0,0 z M 131.2,255.50144 c 1.68535,-1.76861 3.10762,1.74281 0,0 z m 2.61341,-0.59222 c -1.48877,-7.02732 6.71646,-8.10284 2.67801,-0.007 0.11394,1.31906 -3.38324,1.76947 -2.67801,0.007 z m 7.38659,0.741 c -3.24336,-3.41044 -1.65152,-8.66162 -6.8,-8.88575 8.10976,-2.59422 -5.02013,-4.45962 1.35932,-7.59026 -2.17943,-2.81167 -4.34274,-8.08454 -0.20273,-6.88725 1.05327,2.71187 8.38921,3.28479 1.52866,-1.04636 -2.18776,-3.21128 5.53427,0.18555 6.10613,-7.12137 4.8554,-4.79308 9.00768,-12.20656 11.58881,-18.33234 -4.47341,13.82765 -13.42297,-11.6632 -18.37053,0.90062 -3.20498,5.95101 -9.58259,10.46066 -11.84962,18.05996 4.61875,6.31043 2.54019,3.76658 -2.41395,5.96721 1.99837,4.49145 -12.19349,1.90483 -10.68489,9.91462 -1.29772,3.18411 -12.236713,8.6101 -5.5475,1.24892 3.81187,-2.04567 4.85978,-8.208 9.25281,-10.2608 -0.10043,-3.26259 11.07979,-7.15585 6.59349,-9.71804 -0.5333,-2.99347 13.24551,-12.68768 1.88412,-16.59509 C 112.5164,196.31207 103.32031,185.3203 96.402627,172.8 c -2.942094,-5.63825 -11.603912,-16.86448 0.352474,-10.8671 -2.162251,-3.35005 -12.547943,-11.71246 -2.977441,-6.86191 4.140286,-2.1188 3.738138,2.40893 4.11442,-4.67442 -3.51476,-6.45984 -8.328554,-8.25526 -5.530521,-0.82447 -5.27636,-1.02995 -14.033429,-17.51577 -2.978727,-9.23742 4.560339,2.59384 12.239208,9.32922 14.196778,11.25999 -7.927993,-1.26182 -0.21203,12.00939 6.7221,14.68666 4.73677,2.68545 18.92223,11.6868 18.71373,9.89985 -9.51087,-7.18251 7.14206,5.11503 10.83159,5.42134 8.05278,0.9317 -8.52352,-5.20161 -10.06377,-7.0812 -5.70541,-3.72705 -6.70269,-5.79788 -0.45653,-1.00431 3.43353,5.32054 19.00455,5.57766 6.96682,0.24304 3.6011,-6.02938 2.62292,0.30445 8.42766,-0.0666 16.91016,9.12877 33.18904,19.50808 50.6972,27.4746 -11.32885,-8.42036 -23.85422,-15.09409 -35.61065,-22.84268 16.39684,7.63793 31.30898,18.13287 47.589,25.96479 8.83496,-1.90823 -8.42766,-6.48885 -11.83614,-8.04497 -11.0102,-6.49258 -21.72514,-13.50465 -33.04349,-19.48174 -10.0686,-5.06751 -15.83217,-11.09475 -25.87713,-15.19944 -5.06804,-4.31583 -15.78242,-6.05419 -17.38837,-9.40998 0.4204,-4.2403 -15.03513,-10.64649 -3.09414,-5.42045 -0.082,-1.79718 17.58836,6.62603 4.42467,3.91646 6.7506,5.97627 18.07236,8.69222 26.29784,14.00431 10.34558,4.46623 19.65398,12.40867 31.18191,13.4451 11.76308,-4.0114 -9.06877,-0.43848 -11.90758,-5.53465 -4.32233,-1.46005 -12.9253,-7.18986 -3.58649,-3.08299 4.63959,2.13917 15.80096,6.71644 18.04842,2.95138 -5.36298,1.76369 -21.41371,-6.49823 -7.61554,-1.52912 3.37067,0.90198 8.9229,-1.46882 8.70126,-2.5645 -10.73557,-4.88192 -20.91609,-11.22623 -30.59894,-17.86493 11.18965,5.67342 22.07441,12.34501 34.01696,16.28805 -3.81656,-2.73408 -17.23855,-12.46386 -6.02164,-5.91602 8.07034,5.2238 18.57943,9.17708 26.53653,9.71418 6.2802,10.59105 14.63287,19.96314 20.75328,30.55934 8.78339,8.14463 9.89358,15.83553 18.3726,24.47993 5.54755,3.28961 4.17789,15.65155 -3.38753,8.04347 -5.18402,-4.38927 -8.94908,-4.67888 -2.86253,1.42278 4.52523,4.64979 13.05628,18.90081 6.69247,12.88702 -1.40516,-3.80384 -13.76825,-12.45461 -5.59179,-3.19228 8.62019,9.55692 -10.34445,2.73307 -13.67416,-2.1291 -15.5027,-11.00018 -27.85121,-25.76625 -40.97889,-39.29812 -5.85387,-2.70631 -14.61262,-9.56531 -13.5487,0.80736 -7.31217,0.53654 -4.09021,13.02609 -12.34241,7.2102 -5.08295,1.86163 -10.23111,12.07931 -11.38074,18.20342 -8.807,-0.85852 -5.19801,4.28084 -0.81266,2.89302 -4.95027,-3.99562 4.49248,2.72155 6.09348,3.38833 0.22218,-5.68696 5.93362,1.47297 1.71022,-1.0882 -4.30348,2.03341 -7.62867,5.49928 -5.87087,12.55622 -1.48737,11.47358 -2.15277,-10.56062 -3.99476,1.78791 1.27467,4.19809 6.18569,8.37314 -2.7914,6.81621 l -0.82029,-0.25804 z M 137.28,240.32 c -1.19054,-1.20166 -1.749,1.17149 0,0 z m 2.24,-1.92 c -0.81758,-1.14798 -0.81758,1.14798 0,0 z m 7.2256,-2.6961 c -1.5996,-4.09551 -0.097,5.30307 0,0 z m -1.54286,-1.53568 c -5.08577,-2.98866 -2.50522,1.86206 0,0 z m -26.54023,-4.17895 c 0.43322,-3.16499 -2.64337,1.60641 0,0 z M 145.28,229.28 c -1.5138,-1.83061 -1.04752,1.65059 0,0 z m -2.56,-0.62111 c -0.74678,-1.09914 -0.92167,0.60977 0,0 z m -18.24,-9.79778 c -0.99396,-1.16049 -0.60722,1.61134 0,0 z m 103.13546,-4.77063 c -2.43287,-9.31968 -10.3885,-10.62043 -12.72523,-19.1286 -5.80153,-3.39335 -10.25718,-22.05248 -14.58225,-7.70957 -4.70875,7.7476 -15.71443,0.24837 -21.26334,-3.36238 -13.73001,-7.89333 5.91718,4.71492 10.28147,6.99444 7.38926,5.6289 17.24955,6.67839 19.42761,0.70612 4.06646,-0.14983 -8.41814,8.90451 1.27022,9.45049 3.10089,4.74815 11.85732,0.45137 7.05171,6.61394 2.58055,1.67413 7.82133,8.14425 10.53981,6.43556 z M 203.52,194.88 c 0.81758,-1.14798 0.81758,1.14798 0,0 z m -19.96521,2.96 c -12.97215,-8.42836 -26.55516,-15.87927 -39.85723,-23.76 5.35191,6.90869 16.37058,10.46401 23.9824,15.9126 5.01278,2.74394 10.78775,6.51433 15.87483,7.8474 z m 14.53774,-10.33273 c 6.83187,-3.91766 2.44378,-16.69378 -3.53002,-7.58681 -7.74089,3.20652 9.91367,-7.04478 -2.06909,-6.10221 -2.949,-0.60833 -8.14397,-0.28771 -3.43638,2.79044 -3.59162,-2.65137 -11.72872,4.69075 -11.43692,4.90016 5.56719,3.20961 14.10857,10.70307 20.47241,5.99842 z m -8.25253,-4.6792 c -1.02053,-2.04221 3.06494,0.61479 0,0 z m -28.70305,5.48037 c -5.74111,-2.7894 -13.86558,-9.78052 -17.85257,-10.43836 4.50501,4.57211 13.75249,8.71141 17.85257,10.43836 z m -6.91776,-1.61059 c -3.45325,-3.3562 -14.38206,-6.12075 -4.53548,-1.32082 0.43151,-0.01 6.53977,3.72271 4.53548,1.32082 z M 111.36,173.47918 c -1.50462,-2.72219 -2.35728,1.26433 0,0 z m 6.4,-2.59918 c -0.78922,-1.13993 -0.38699,1.16997 0,0 z m 32.96,-2.0735 c -3.48204,-2.86576 -2.79868,-0.0357 0,0 z m -52.667795,-9.64946 c 0.680607,-8.87134 -2.594483,2.80653 0,0 z m 1.468163,-6.67644 c -4.74487,-3.93519 1.878372,4.89632 0,0 z M 124.48,251.53889 c 1.68778,-3.74799 1.77489,2.85 0,0 z M 132.96,251.2 c 2.26106,-1.31071 -0.29557,-0.26718 0,0 z m -7.0091,-1.23001 c 0.85163,-2.53986 0.96929,1.0386 0,0 z M 133.92,249.28 c 0.78922,-1.13993 0.38699,1.16997 0,0 z m -6.24,-0.64 c 0.81758,-1.14798 0.81758,1.14798 0,0 z m -3.2,-0.32 c 0.81758,-1.14798 0.81758,1.14798 0,0 z m 5.28,-6.72 c 0.15782,-2.58471 1.43668,0.96002 0,0 z m -2.72,-1.72082 c 1.57825,-4.2615 1.86125,2.83787 0,0 z m 32.32,0.26193 c 0.99396,-1.16049 0.60722,1.61134 0,0 z M 129.2137,238.48 c -4.10307,-1.98959 -0.46552,-5.5011 -2.59501,-7.18882 6.05826,-6.47964 1.07153,2.87878 3.94154,7.57293 0.13919,0.97729 -1.65001,0.24666 -1.34653,-0.38411 z m -20.70844,-1.22667 c 0.20584,-1.23325 0.32471,1.45656 0,0 z m 49.16515,-2.89056 c -3.7767,-5.43278 4.37393,3.08884 0,0 z M 130.88,233.61889 c 0.5608,-1.68305 0.49743,1.17591 0,0 z m 20.4748,-1.55875 c -2.37454,-4.20399 5.66644,1.41627 0,0 z M 131.84,228.16 c 0.78922,-1.13993 0.38699,1.16997 0,0 z m -12.92928,-3.52023 c 5.71231,-4.45132 -3.58921,5.50867 0,0 z m 21.88928,0.998 c 0.52803,-1.494 1.11059,0.55164 0,0 z M 123.04,172.16 c -1.03035,-2.23621 3.34833,2.30198 0,0 z m 2.67476,-3.76 c -4.84741,-3.28425 -7.50515,-6.16685 -0.79832,-1.05247 1.88013,1.23347 4.48994,3.98961 0.79832,1.05247 z m 9.24837,0.78583 c -3.71322,-3.79726 4.4765,2.25167 0,0 z m 41.27687,0.19358 c -2.03834,-1.71381 2.84598,0.73756 0,0 z m -10.63773,-0.73575 c 0.80986,-0.5852 1.27395,1.03084 0,0 z M 144.8,166.72 c 0.3974,-1.26156 1.14825,1.2183 0,0 z m 7.46,-1.1786 c 1.78896,-0.27621 -0.55025,0.54841 0,0 z m 51.53384,-0.79072 c -6.65462,-6.79263 -17.11488,-11.61347 -20.03311,-20.66456 -8.28902,-5.31191 -13.11744,-13.55738 -18.77541,-21.34797 -6.54328,-9.059 7.53747,4.206 9.37277,7.1192 11.10069,11.16295 22.19076,22.54263 32.2318,34.5845 0.43124,1.63849 -2.36685,1.83101 -2.79605,0.30883 z m -56.13268,-1.0605 c -1.23059,-1.68185 4.08886,1.7495 0,0 z M 140.24,160.56944 c -2.25574,-2.56197 4.14637,1.37186 0,0 z M 113.33836,151.2 c -4.24476,-1.63901 -15.156521,-12.2285 -5.54217,-4.46242 1.14007,2.85584 16.11977,6.92551 5.54217,4.46242 z m -6.92621,0.17967 c -0.0353,-2.83024 -17.146453,-15.67206 -4.71873,-6.54187 0.94754,1.75299 9.86871,5.48759 4.71873,6.54187 z M 92.8,145.26111 c 0.921672,-0.60977 0.746781,1.09914 0,0 z M 75.440237,135.12 c -4.040658,-3.53048 -4.485839,-20.42158 -1.480871,-6.8 -0.361912,0.97585 4.618133,8.94901 1.480871,6.8 z M 75.870605,130 c -2.770914,-5.45964 0.861542,-11.38437 0.565066,-2.00171 0.108199,0.61385 0.580709,7.02364 -0.565066,2.00171 z M 111.44,120.54271 c -7.31308,-6.26488 10.75682,3.43776 0,0 z M 72,116.99777 c 0.383722,-2.07679 1.176942,1.16627 0,0 z m 31.53522,-0.17315 c -7.74633,-3.53238 7.41247,-0.68485 2.10255,0.29538 z M 73.284899,115.28 c 0.735136,-3.58073 1.264278,1.77399 0,0 z m -0.818381,-3.30181 c -4.287102,-2.79856 4.695352,-0.45735 0,0 z M 88.72,109.86807 c -1.519735,-3.43402 4.877987,1.24835 0,0 z m -11.127955,-0.99872 c -5.121292,-7.31861 6.259464,0.42975 0,0 z M 72,106.56 c -0.459804,-3.29355 4.437008,-0.0782 1.125542,-3.92542 C 70.603385,94.865843 76.31863,90.692137 69.321479,84.724855 58.53909,79.489968 45.720858,81.620091 34.428883,78.039679 c 7.296215,-1.365048 20.118876,-2.920041 26.766683,0.725109 6.64002,-0.830844 22.43236,10.664171 19.465346,-2.716828 -0.608743,-2.974997 -1.563427,-0.484574 -3.464572,-3.969709 3.745997,-4.152604 -13.090818,-7.650434 -5.527898,-9.909206 7.270983,-3.026595 4.269041,-5.943971 9.516816,-8.610453 -1.264317,4.426365 5.394082,-3.711293 4.507394,1.76442 2.693375,-1.821119 2.942881,0.05434 7.058089,-0.972014 -0.229576,3.400824 9.104819,-2.21607 9.805899,1.649002 5.79526,3.585734 8.20775,5.88036 12.63404,12.982541 -4.13291,-2.963226 7.83736,8.47373 -0.25521,4.455363 6.91926,5.78426 0.51038,5.346878 -2.93547,9.73543 -5.53759,1.646508 -7.24863,4.119102 -13.742069,4.970467 -6.65747,-2.094169 -3.923888,5.274404 -3.272296,6.05121 -8.547655,2.426257 7.767565,2.615876 -2.402384,3.723203 C 87.204224,96.942156 74.848527,112.13262 81.508812,100.61938 76.548828,101.15006 75.272739,108.60141 72,106.56 Z m 2.56,-5.76 c 7.785376,-4.655397 -2.912622,-2.556526 -0.410636,0.311 z M 99.898666,86.010666 c -1.407944,-0.273691 0.985584,1.449196 0,0 z M 59.188742,78.741037 c 0.59554,-3.158553 -2.712596,1.799744 0,0 z M 115.84,76.519181 c 0.51316,-3.098915 -10.71008,-2.673817 0,0 z m -4,-5.799181 c -2.40246,-1.865525 1.67287,2.59871 0,0 z m 3.04,0.32 c -0.78922,-1.139933 -0.38699,1.169971 0,0 z M 82.7964,68.279251 c 2.116477,-1.86819 -5.531157,0.954067 0,0 z M 108.96,67.84 c -1.14825,-1.218303 -0.3974,1.261557 0,0 z m -26.4,36.03918 c 0.87416,-1.73082 1.411923,0.46214 0,0 z M 91.58,98.86 c 1.523144,-1.86725 0.475359,1.14633 0,0 z M 110.4,97.6 c -4.5124,-2.227605 6.76771,-0.07386 0,0 z m -10.08,-0.227136 c -8.587425,-1.144348 8.86616,-0.714191 0,0 z M 94.473334,89.54 c 1.162805,-1.678732 1.075884,1.423898 0,0 z M 120.64,83.2 c -9.251,-2.111579 4.60328,-0.58686 0,0 z m -6.86008,-0.825798 c -0.27998,-3.386367 3.63296,1.367043 0,0 z m 9.74008,0.279923 c -5.58251,-2.545789 1.56321,-2.229158 1.12087,0.03781 z m -1.78668,-5.040803 c -3.32693,-4.005593 4.47569,3.768556 0,0 z m -3.50786,-1.278778 c -3.38674,-6.107934 5.85908,2.944559 0,0 z M 40.394787,75.658547 c 7.695736,-2.576432 10.773775,0.191643 0,0 z m 18.017485,-4.730003 c -0.805102,-3.396615 5.098621,1.808576 0,0 z M 93.76,55.36 c 0.789213,-1.139931 0.386996,1.169969 0,0 z M 82.08,52.8 c 1.230163,-1.147266 0.820207,1.185244 0,0 z"
           id="path4822"
           inkscape:connector-curvature="0" />
        <path
           style="fill:#35383f;stroke-width:0.31999999"
           d="m 131.2,255.68 c 0.81758,-1.14798 0.81758,1.14798 0,0 z m 3.2,-0.0533 c 0.80089,-0.99335 1.18761,0.96387 0,0 z m 7.52,0.0255 c 0.52623,-0.60263 3.42499,0.80748 0,0 z m 3.1192,-0.3722 c 3.18331,-2.69551 0.0519,2.93152 0,0 z m -10.00805,-2.65067 c 0.25557,-3.89581 2.89763,2.29455 0,0 z m 6.8443,-1.27005 c 0.28558,-6.07093 3.8098,2.12549 0,0 z m 93.69515,-2.41363 c -10.05619,-6.65415 -19.76902,-13.8617 -28.30605,-22.50209 -7.5933,-7.83163 -14.77479,-16.13952 -22.31408,-23.96124 -5.83418,-2.11084 -15.2889,-10.03185 -14.39047,0.88814 -7.34526,-0.6681 -3.29601,13.20303 -9.78576,7.27871 -8.90235,-0.48221 -9.52982,16.04521 -15.3154,17.98071 -6.38739,-2.24918 1.62873,-6.96172 1.99726,-6.29981 2.22522,-5.38555 7.2952,-13.63618 7.91856,-17.68385 -4.87006,12.84027 -14.95254,-11.56233 -19.77063,2.40536 -3.72992,6.37222 -13.59236,14.52006 -10.17513,21.58497 -12.23464,4.16841 1.43288,-8.47122 1.77107,-14.55649 5.86885,-7.71607 -12.58045,-13.23085 -12.91718,-20.27256 3.96746,7.41958 -6.01887,-2.33406 -2.1708,-1.82755 -4.43337,-1.27785 -13.545027,-13.95227 -5.23202,-8.32659 -0.19337,2.93761 9.59106,8.61257 3.45767,0.72708 -2.48479,-3.6337 -3.67712,-4.96591 -5.58295,-3.19092 0.0129,-6.29916 -14.456546,-11.35572 -5.930252,-11.76018 -0.542619,-1.00185 -8.639414,-3.15993 -3.551134,-3.75661 -5.986304,-4.13043 -2.030734,-2.37419 2.794084,-4.77458 0.408199,-6.09691 -0.561852,-8.73218 3.124302,-1.86551 11.7042,11.05745 26.10359,19.55904 41.73119,23.46663 -0.54128,-5.88843 8.19129,0.69473 1.81868,0.34394 1.97071,1.78475 16.04882,8.94246 10.29841,3.33302 3.97839,2.39858 19.22708,8.98404 7.67717,2.33863 -4.19927,-2.28178 -22.75002,-13.87145 -9.15244,-6.46239 11.0347,6.04927 21.40385,14.02524 33.63527,17.44329 -5.10195,-3.94156 -16.57204,-9.90677 -18.2546,-11.6689 18.64538,11.01789 38.76731,19.25525 57.45972,30.11692 4.24983,1.28107 -0.85551,-2.12085 5.35976,0.65936 -2.54054,-10.47086 -13.7576,-16.59352 -18.45466,-26.1879 -6.28141,-6.36781 -9.88578,-15.42063 -17.7305,-19.19182 -9.80259,-4.39845 -14.95264,5.4027 -24.91101,0.78321 -14.63762,-7.5845 9.343,5.68032 12.46662,-2.30104 -10.74811,-2.86473 12.37945,-0.72725 -0.82475,-4.04407 -5.35584,-1.60701 -23.13588,-12.39817 -9.07357,-5.36088 4.34738,2.74796 21.77013,9.08691 9.10122,1.49685 -8.72624,-5.8755 8.60906,3.9127 11.45174,4.85399 7.94207,1.54105 13.56909,0.87085 16.77003,9.95327 7.3039,8.68858 12.08369,19.38165 19.8903,27.42415 2.22891,3.17246 9.10313,10.38637 1.44155,4.58943 3.20001,5.71342 15.44556,13.04813 10.66609,19.58123 0.22103,3.46025 8.37394,7.25584 -0.51676,3.49297 -6.75519,-6.02119 -14.15686,-7.64694 -10.48082,0.59493 3.79656,4.95805 -6.07633,-1.66242 -0.19653,6.05489 1.12624,2.82096 15.00817,11.43255 4.2068,8.6033 z M 213.76,226.70124 c -3.3575,-6.33786 -3.94506,-1.71538 0,0 z m -3.52,-4.16276 c -1.75508,-3.72373 -13.76521,-14.5255 -5.31717,-5.08202 1.73415,1.36361 3.34569,4.45825 5.31717,5.08202 z M 129.92,207.36 c -0.78922,-1.13993 -0.38699,1.16997 0,0 z m 95.47231,-7.20889 c -2.37911,-3.96674 -0.76248,2.22673 0,0 z M 122.46996,195.44 c -1.57433,-8.71667 -1.32137,4.3787 0,0 z m -3.11116,-1.6 c -2.07569,-4.35541 -7.89503,-8.78543 -2.49679,-2.00549 -0.48095,1.14525 2.04695,2.65669 2.49679,2.00549 z m 7.0412,0.21036 c -1.34512,-6.73645 -4.2178,-5.86627 -1.40312,-0.58827 l 1.04491,0.71174 z m -3.75069,-4.38685 c -1.07172,-2.71668 -4.25616,-2.50397 -4.10061,-6.62351 7.26546,5.34862 -4.2427,-11.50855 -7.50874,-11.9923 -4.6742,-5.9064 -6.43216,-2.49956 -4.30382,2.05892 0.49472,5.39437 -9.318003,-2.46308 -1.65112,4.31067 3.82671,2.92212 11.3662,9.84794 6.81368,0.59698 3.74252,2.87756 2.27855,9.51208 9.23548,12.46852 -0.21249,2.60555 3.00185,0.59914 1.51513,-0.81928 z M 109.12,189.31918 c -0.87416,-1.73082 -1.41192,0.46214 0,0 z m 16.32,-5.61301 c -1.1204,-3.99972 -1.53919,1.25184 0,0 z m -1.6,-1.60728 c -0.60722,-1.61134 -0.99396,1.16049 0,0 z m -21.17086,-11.09908 c -5.690766,-3.30809 3.43435,3.94422 0,0 z M 245.76,248.32 c 0.8202,-1.18525 1.23017,1.14727 0,0 z m -98.24,-2.06111 c 0.60722,-1.61134 0.99396,1.16049 0,0 z m -0.39831,-1.67435 c -5.33453,-0.1518 -2.90997,-7.44355 -8.06144,-8.25585 3.46677,-4.037 10.99401,2.25525 8.56735,8.61016 z M 104.64,243.53889 c 0.60722,-1.61134 0.99396,1.16049 0,0 z m 2.88,-0.75799 c 1.37958,-2.27733 0.819,1.32505 0,0 z m 2.24197,-2.3809 c 0.91847,-9.36824 4.91746,0.90023 0,0 z m -1.38864,-0.29333 c -0.67028,-1.87256 1.87256,0.67028 0,0 z M 148.34544,237.44 c -2.02408,-12.38166 4.5722,5.92014 0,0 z M 112.64,235.38617 c 0.69521,-0.73683 6.44176,-10.83341 4.48301,-4.97007 16.41715,2.52216 -4.1777,1.60462 -4.48301,4.97007 z m 20.72,0.0819 c -2.06416,-4.61261 7.46366,1.62141 0,0 z m 20.3986,-1.23033 c 1.29544,-2.70455 1.43845,1.69252 0,0 z m -15.16034,-1.8125 c -1.03175,-5.81756 8.8879,3.86689 0,-3e-5 z m -10.52488,0.0548 c 1.44984,-2.70478 0.85543,2.71948 0,0 z M 142.24,229.76 c 0.8202,-1.18525 1.23017,1.14727 0,0 z m 67.2,-22.38654 c -10.44183,-4.14356 -19.54516,-11.01583 -28.85003,-17.1901 12.03342,4.67986 22.16882,16.63255 35.81003,15.46195 3.20767,0.7943 -6.14045,3.49367 -6.96,1.72815 z m -9.96393,-10.22116 c -4.19025,-0.55545 -16.17029,-9.35276 -6.04115,-3.25355 4.55906,4.28626 21.60769,0.89303 7.71347,3.66753 l -1.67232,-0.41401 z m -13.0738,-7.06864 c 0.80986,-0.5852 1.27395,1.03084 0,0 z m 13.92263,-4.65509 c 0.31297,-1.92239 1.52704,-0.34743 0,0 z m -98.98033,-5.59987 c -4.414562,-6.94916 4.07323,3.70363 0,0 z m 74.91273,-0.15439 c -10.10567,-1.6551 -20.38792,-9.38023 -28.2573,-13.54797 10.73227,3.7733 20.44667,13.38601 32.3766,11.80821 5.75918,-3.718 1.21281,2.4525 -1.97582,1.84567 z M 143.6,176.45697 c -5.28418,-3.09213 6.44082,1.75848 0,0 z m 40.18747,-1.59848 c 2.34992,-3.71825 2.99537,0.0538 0,0 z M 144.16,164.47093 c -3.66112,-1.59182 -13.15135,-6.7564 -3.72205,-2.41133 2.82997,0.94012 11.08845,6.35553 3.72205,2.41133 z m 58.62928,-1.79139 c -9.45646,-6.42074 -15.00633,-16.22351 -23.26928,-23.8762 -5.44636,-5.81167 -12.90602,-12.90523 -15.83788,-19.44334 12.74652,12.90657 25.66271,25.81506 37.80462,39.38446 3.36905,1.76196 7.22634,10.38884 1.30254,3.93508 z M 120.56,149.85941 c -1.79544,-2.0008 3.6773,0.83729 0,0 z M 74.861571,133.55153 c -1.027819,-3.74989 2.010861,3.11646 0,0 z M 72.702384,127.52 c 0.348776,-1.51971 0.187664,1.92751 0,0 z M 79.36,99.04 c 4.42436,-3.549197 0.310129,-6.778688 -2.523241,-4.964204 2.558506,-1.699408 2.960974,-4.946374 1.040735,-6.370391 -2.667086,4.908638 -1.120923,5.14725 -4.394339,3.197821 -0.338671,-3.277691 -6.884721,-9.850378 -13.599135,-9.395433 -6.482841,-1.683377 -22.896561,-0.744819 -23.704445,-4.316212 10.935018,0.57833 21.693382,1.92568 32.466425,3.462272 6.064008,3.794303 16.461832,4.386434 11.372291,-5.224458 C 82.598103,71.19272 71.447281,66.444 69.755136,62.72 c 5.752171,1.071493 9.282624,-6.94727 16.105588,-5.110839 3.011679,4.278033 5.342287,-2.022548 4.492655,2.172093 -0.09244,3.000262 5.864263,-0.868839 8.148631,1.320477 -6.200435,1.968601 9.32093,2.897438 0.19904,2.547611 -10.699871,0.676847 7.49752,1.215552 -2.274431,2.739975 4.622451,2.250953 2.372934,9.325937 -0.215341,14.506858 -4.711992,4.927478 -4.672756,11.536698 -5.098267,14.098371 C 86.503723,97.848226 84.822898,100.25107 79.36,99.04 Z m 2.88,-10.919181 c -2.008649,-1.684359 -0.896968,2.994588 0,0 z M 85.12,83.52 c -2.583822,-0.08052 1.061386,1.502135 0,0 z M 82.84,68.6 c 3.567586,-3.421876 -7.546337,1.192601 0,0 z m 11.066333,-6.497888 c -0.499039,-1.795557 -1.555306,1.13613 0,0 z M 77.76,91.261162 c 0.979503,-3.221248 2.153547,1.109221 0,0 z m 25.49333,-7.954496 c -0.67028,-1.872552 1.87255,0.670295 0,0 z M 105.44,81.28 c -10.110601,-3.936705 1.91977,-0.91521 0,0 z m -1.82248,-4.649142 c -9.301583,-2.834261 6.83874,0.414072 0,0 z M 104.88,74.02807 c 1.76218,-0.519385 0.31982,0.560075 0,0 z m 3.09664,-1.5412 c 0.47664,-0.714532 -0.30053,-0.354374 0,0 z M 58.453334,70.826666 c -0.06742,-2.445076 3.67469,1.559814 0,0 z m 46.850386,-0.707389 c -3.78471,-2.844755 3.85441,1.18793 0,0 z M 106.88,68.461114 c 0.92167,-0.609786 0.74678,1.099133 0,0 z m -1.28,-2.051072 c 0.74132,-1.212101 1.25043,1.551234 0,0 z m -4.62397,-1.155972 c 3.99435,-1.405886 3.44046,0.106509 0,0 z M 109.6,65.28 c 0.38699,-1.169971 0.78922,1.139933 0,0 z m -5.6,-1.6 c 3.12062,-1.292015 4.82674,1.453861 0,0 z m 2.56,-1.245763 c 1.18709,-1.921762 2.51266,1.453893 0,0 z m -5.11073,-1.301738 c -0.22534,-1.885856 4.30452,1.408007 0,0 z"
           id="path4820"
           inkscape:connector-curvature="0" />
      </g>
    </g>
  </g>
</svg>
