<?xml version="1.0" encoding="UTF-8"?>
<!-- Created with Inkscape (http://www.inkscape.org/) -->
<svg id="svg2" width="128" height="128" version="1.1" viewBox="0 0 128 128" xmlns="http://www.w3.org/2000/svg" xmlns:cc="http://creativecommons.org/ns#" xmlns:dc="http://purl.org/dc/elements/1.1/" xmlns:rdf="http://www.w3.org/1999/02/22-rdf-syntax-ns#">
 <metadata id="metadata8">
  <rdf:RDF>
   <cc:Work rdf:about="">
    <dc:format>image/svg+xml</dc:format>
    <dc:type rdf:resource="http://purl.org/dc/dcmitype/StillImage"/>
    <dc:title/>
   </cc:Work>
  </rdf:RDF>
 </metadata>
 <g id="g830" transform="matrix(.88774 0 0 .88774 14.369 14.369)">
  <path id="path827" d="m-16.186 55.907v-72.093h144.19v144.19h-144.19z" fill="#e4e4e4" stroke-width=".39234"/>
  <g id="g883" transform="translate(6.997 15.442)" stroke-width=".3483">
   <path id="path825" d="m49.314 111.12c-4.6581-5.6589-7.3549-12.578-8.3584-19.796-1.308-5.932-1.0115-12.059-0.17442-17.995-0.67008-6.7937 4.2328-15.263-1.4264-20.747-6.1044-4.8407-14.373-4.2662-21.689-5.3558-5.3254-0.51048-10.69-1.029-15.854-2.5014 0.09598-6.4202 8.7211-4.1654 12.764-6.2945 6.0809 0.51301 12.092 1.4958 18.248 0.82856 2.3019-0.03202 8.749-0.16567 8.2915 1.1705-3.1326 0.87316-11.975-0.78965-11.59 1.0009 6.0411 0.29155 10.721 4.8049 16.303 5.7615 2.5036 1.0642 8.5105-3.9781 3.2047-2.8368-4.717-1.5553 3.7589-2.8151-1.6233-2.8689-3.3068-1.0509 1.4098-1.7361-1.8716-3.1728-1.8666-2.5332 4.2032-4.785-0.85565-3.6208-4.092 1.5679 2.2471-4.9934-3.4973-4.2275-4.0202 0.42342-6.398-4.5291-1.3367-4.765 3.9926-3.3343 5.0429-10.356 10.984-11.104 7.1204-2.941 14.243 0.69009 21.151 1.9386 6.6491 0.68342 11.586 5.4915 15.133 10.784 4.4155 6.7231 8.0061 14.279 14.689 19.128 5.2099 5.2735 14.025 6.0479 18.068 12.319 1.6139 5.5826 0.50817 11.525 0.89561 17.269 0.0491 11.655-0.24341 23.313 0.0924 34.966-5.6004 2.9467-12.151 0.082-18.153 1.127-16.336 0.10791-32.691-9e-3 -49.013-0.25032-1.4351 0.24389-3.4902 0.86704-4.3821-0.75624zm-17.797-73.622c-6.1868 1.5579-1.9439-6.3671 0.75214-2.9807-0.46344 0.74395 0.6043 4.2064-0.75214 2.9807z" fill="#9ba9cd"/>
   <path id="path823" d="m53.925 112.05c-1.0403-2.0053-4.8664-10.702-1.3734-4.7901 0.55618 1.4541 2.3654 3.178 1.3734 4.7901zm0.92167-1.8732c-2.4635-5.5779 9.9634 4.9905 4.4215-1.4647-3.3125-2.1328-6.9711-7.5306-2.199-9.0756-0.13437-5.4658-11.312-7.6504-8.5983-0.39077 1.4765 3.5077-0.75013 12.297-3.354 5.0343-5.2423-11.094-4.7313-23.81-3.4131-35.717 0.12104-5.529 3.0948-12.117-1.9306-16.458-6.0331-4.0941-13.81-4.1312-20.831-4.9856-5.0828-0.80599-14.713-0.55307-16.685-3.5831 3.6242-3.0807 12.601-4.4471 15.166-2.6594-2.5909 0.73211-7.8078 1.7592-1.6877 1.5088 7.1671-0.56548 14.583-1.0141 21.273 2.149 4.0067 1.4026 10.539 5.2033 13.775 3.0232-0.82034-0.65817 3.6594-4.5302-0.30865-6.1563-3.0918-0.1505-5.3695-5.2191-2.7013-5.9601-0.78404-4.4654-9.965-4.9804-9.2913-7.674 4.9749-4.2231 7.1247-11.94 14.645-12.687 6.1201-1.342 11.673 1.5948 17.565 2.3234 5.8642-0.30954 10.539 3.464 13.937 7.8413 5.5351 6.3855 8.5133 14.732 15.295 20.056 4.8461 2.663 0.73274 5.6295-1.5267 8.146-2.2029 2.4343-6.2112 9.4792-11.007 8.2618-1.2465-1.5287-0.77776 4.1078 1.954 2.7418 6.1194 1.8194-2.9942 5.4477-5.2607 2.6735-5.6766 2.5626-11.903-2.143-17.522 0.65039-3.3148-0.95314-9.0052 6.1586-2.6016 3.2102 3.4789-1.5669 8.368 3.7013 10.685-0.97115 3.7112 3.6671 9.9227 0.61324 13.855 3.1557 1.677 5.6775 7.6755-1.2476 11.799 2.0316 2.5112 0.69759 7.66 3.137 2.5318 4.1864 2.8581 3.178 12.302-4.9755 10.561 2.7589 1.2415 5.6638-7.9657 4.1588-7.875 6.6706 1.8028 1.2685 8.0941 4.0525 2.265 2.935-1.5514-2.0037-10.111-3.7257-5.505 0.10387 5.3694 3.9143 12.302 0.18483 14.215-4.8904-0.1037-2.2972-1.0099-7.9319 1.9928-3.5361 4.6526 0.9013 0.26732 3.4826-0.29586 3.5897 0.34145 3.5012-6.4882 8.6678 0.71559 8.7131 4.4912 5.1837-3.9455-0.55575-6.2672-0.6473-6.2808-2.3105-12.701-1.0508-19.015-1.1995-3.5443-1.43-6.4096-1.1793-8.9876 1.4538-5.2808-1.9194 1.7693-2.6494 1.972-3.8688-3.4817-1.5178-10.097-5.8715-8.123-0.57732-1.8063 0.70245-4.9967-1.8032-2.0697-2.8946-2.2187 3.4447-10.975-2.0666-4.9899-1.4605 4.1931-0.8523-5.7348-3.9308-7.5378-4.9919-3.1542-1.0393-8.8465-3.6259-9.3127-2.052-3.3583-1.0742 0.29708 6.7353 3.2636 6.5354-4.2632 1.9423 3.3087 5.5399 0.25846 9.3857-1.1011 3.3788 3.0145 6.3033-1.388 8.3182 1.0717 2.6666 11.266 8.9271 3.0246 8.3303-1.7882 0.0468-4.7431 0.89162-4.8857-1.8873zm1.5993-14.66c3.611-7.5188-7.2632-0.28007 0 0zm-5.6248-2.759c0.04794-3.8486-5.8653-3.6026-1.6957-0.46064 0.2793 0.35109 1.4808 1.5937 1.6957 0.46064zm44.496-1.3968c3.3762 0.82178 3.313-7.6018 1.8318-2.1921-2.56 9e-3 -8.7364 1.6359-2.9659 2.5599zm-41.612-0.23693c-0.52313-3.4062 0.3234-13.846-5.1756-10.542-2.3632 4.9049 4.088 11.237 5.1756 10.542zm56.507-7.3088c3.2643-1.8675-0.40586-4.9166-2.0264-1.8447-4.4891 2.2313-0.67169 4.1128 2.0264 1.8447zm-23.053-0.99344c-1.588-3.6718-9.8141-0.44718-3.3119 0.92473 1.1586 0.0065 2.3371-0.2797 3.3119-0.92473zm-18.947-5.7504c-1.2395-3.7872-3.9206 1.2273 0 0zm-13.551-1.2132c3.81-3.8803-5.4053 2.1051-5.5e-5 0zm27.74-9.7144c-2.0272-2.1366-7.4821 0.86147-2.3596 1.0893 0.8786 0.0011 1.902-0.25048 2.3596-1.0893zm0.86837-2.7116c2.0771-2.6426-8.6979 0.16633-2.1136 0.13083 0.70523 0.0546 1.4231 0.03771 2.1136-0.13083zm-10.883-0.47961c0.03935-1.9798 7.6015 2.1168 4.1539-1.9207-1.9143-1.2654-12.037 2.3946-4.1539 1.9207zm16.824-3.5943c2.5538-1.2006 10.503-7.1765 3.2573-6.6621-2.0023 0.1771 1.5294 4.2248-2.091 1.4031-0.80144-1.7863-3.5306-2.769-3.0847 0.24875-2.7263-3.3892-1.542 4.2362 1.3794 2.5315-1.5147 0.22083-0.73732 4.895 0.53908 2.4787zm-9.1713-0.60628c-1.2746-2.2721-4.5143-2.4511-1.6337 0.28012 0.58434 0.12662 1.0784-0.10877 1.6337-0.28012zm-13.043 53.037c-1.7713-2.2678-7.0466-5.0619-5.7929-7.7498 1.4709 1.8477 9.7342 7.8705 5.6976 1.9902-1.8436-2.0756-7.8029-5.2225-1.5436-4.6624 2.6175-0.81341 7.3881-1.5861 2.6577 1.2004-3.1883 4.6824 8.4578 6.8226 5.9801 9.623-3.6266-2.1778-3.9474 0.51112-6.999-0.40141zm10.932-0.50898c-3.2243-1.3455-1.2396-3.9471 0.95917-1.2637 4.511 1.1072 1.6464 3.0983-0.95917 1.2637zm4.0165-1.1464c-2.825-2.095-2.9832-5.3235 0.46354-2.0326 2.1675 1.2753 3.3215 6.224-0.46354 2.0326zm10.104 1.6706c-3.5606-0.30463-7.0935-7.2628-5.8051-7.875 2.02 3.0028 9.6248 6.2278 8.7937 8.1845-1.0006 0.0601-2.0364 0.0537-2.9886-0.30948zm5.5157-1.4975c-2.678-1.3749-4.8523-7.7367-0.62209-2.7614 1.9322 1.3875 4.637 6.2969 0.67841 2.8062zm7.1306 0.51416c-3.2872-3.7323-0.79495-7.0309-3.8521-10.402 3.8563 4.4697 9.7936 6.9257 13.146 11.754-3.0054-1.0117-6.6959 0.90714-9.2934-1.3525zm14.777-2.447c-3.3021-1.7481-9.8577-7.3208-10.046-8.5002 2.8902 2.6575 9.0589 5.5751 10.046 8.5002zm-37.809-1.7002c-0.61834-3.2377 3.0378 1.0082 0 0zm-15.884-12.685c2.6051-2.6122-7.9035-7.1183-0.93018-5.8915 2.3137 0.55051 1.5441 3.9188 4.1167 2.8518 0.37374 1.4284-1.6586 3.9219-3.1865 3.0397zm-0.9558-8.0132c-5.7064-4.7602 6.3841 2.435 0.55452 0.55149-0.18484-0.18383-0.36968-0.36765-0.55452-0.55149zm50.58-9.4442c-2.3441 0.02038-11.996-4.1672-5.1123-2.2889 1.4098-0.03695 12.575 2.8973 5.1123 2.2889zm4.8622-0.59041c-3.7314-1.3443 1.7372-3.0653 0 0zm-4.5151-5.5398c-0.24215-4.0883 6.6023 0.90304 1.1727 0.16996l-0.5906-0.02997zm-2.5819-4.1845c1.7613-1.0133 2.2554-4.7245 4.3738-0.93373 0.2193 2.0085-3.2759 0.54543-4.3738 0.93373zm-15.215-4.3024c-6.3615 0.0582-0.8379-4.6407 2.2255-5.2757 2.0605-2.1706 2.9238-7.8335 5.3718-2.6648 0.82535 4.346-6.2694 5.2846-4.9861 8.2321-0.88831 0.16413-1.75-0.14644-2.6112-0.29159zm10.261-0.40211c-4.4421 1.4902-4.6774-2.8601-0.74121-3.7989 1.478-1.3837 7.9657-2.7942 3.4471 0.12568-2.6454 2.0527 5.2395 3.2387-0.34881 3.8311-0.76605 0.15879-1.658 0.34064-2.357-0.15789zm6.1739-0.53585c0.27854-3.8165 6.5204 0.05133 1.1361 0.16964-0.38655 0.0011-0.75883-0.1006-1.1361-0.16964zm-5.6069-6.1247c1.0672-5.85 3.4885 2.9941 0 0zm-80.915-14.91c1.9287-1.2738 9.894 0.44415 3.4861 0.33961-1.1668 0.01297-2.3628 0.0311-3.4861-0.33961zm10.957 0c3.1073-1.8011 3.5674 1.8076 0 0zm-10.696-3.1525c-1.1075-4.1634 5.3616 1.8675 0.01369 0.0038z" fill="#8b94b3"/>
   <path id="path821" d="m55.787 111.7c-4.2955-6.1813 9.9907 2.1131 1.8982 0.46386-0.65275-0.023-1.3256-0.12525-1.8982-0.46386zm11.068-0.68493c-1.9477-3.3576 4.2454 2.9513 0 0zm-20.088-4.525c-2.9863-4.266-5.0767-10.11-3.8429-15.295 0.74646 4.6545 5.3577 12.833 3.8429 15.295zm0.63661-4.1539c-0.48563-2.9265-3.4196-7.7228-0.41518-9.7324 0.78196 3.0962 1.4278 6.6464 0.41518 9.7324zm41.33-10.684c-3.256 0.25171-7.8345-4.913-1.703-3.5411 1.252 0.15444 5.579 4.1643 1.703 3.5411zm-46.249-4.645c0.84735-4.1603 1.579 0.51154 0.10884 0.43661l-0.07511-0.30116zm36.858-0.16781c-2.7569 1.6256-8.6181-4.9952-6.3368-4.208 0.69071 1.9332 6.3508-0.47443 6.0993 1.6947-2.1983 0.26447 7.6595 2.4478 2.411 2.7265-0.73888 0.0857-1.4519-0.11109-2.1735-0.21328zm-35.125-2.169c0.16227-4.1911 1.7993 1.9904 0 0zm55.643-0.34877c-0.89032-1.7278-1.5973-8.2062 1.3327-3.9579-0.0552 0.32883-0.46523 6.623-1.3327 3.9579zm-6.0688-2.7902c-3.6424-2.843 5.5013-8.6153 1.8458-2.8788 0.0837 1.8678-1.2842 8.0296-1.8458 2.8788zm-52.146-0.60076c0.05956-4.7643 8.0288 0.53123 1.5005 0.68889-0.49377 0.17641-1.7832 0.21026-1.5005-0.68889zm19.262-2.0289c-3.2496-4.5426 6.5675 1.3776 0 0zm-3.6223-0.54799c-3.4392 0.14626-2.827-2.6243 0.13738-1.1318 0.231 0.17326 0.72522 1.6576-0.13738 1.1318zm-9.4397-0.80371c-4.3149-0.36932-7.3726-4.1682-4.6862-7.8765-1.6891-5.3576 2.3906-11.263-1.3002-16.045-4.5903-5.6432-12.65-5.1969-19.186-6.338-6.9629-0.75219-14.006-1.1801-20.809-2.9611 5.7366-4.3865 13.201 0.32707 19.679-1.6637 6.7106-1.3514 11.935 3.2757 18.302 3.6906 4.1172 1.3484 14.313 5.9998 12.844-2.3125-1.5473-3.6558-4.9166-5.2301-4.8587-9.6008-1.5301-2.9956-11.851-5.1531-5.6159-8.1989 5.9181-1.6902 6.7634-12.009 14.352-9.9649 2.7044 0.30924-0.45105 3.8079 2.4855 1.5566 5.7158-0.54965 11.928 0.0962 17.434 1.5286 5.9652 4.1058 10.93 9.6597 14.438 16.018 1.5127 3.4231 5.7708 6.9737 6.9598 9.1765-1.5051-1.6005-4.3198-3.5049-1.8526-0.20639-3.1794-2.7014-2.8418 3.2101-6.5639 2.4734 1.8135 2.8302-6.5855 4.2311-9.3908 5.9715-4.0477 3.0124-10.147 1.2997-13.513 5.056-1.0786 2.0722 6.5135 2.3629 1.4873 3.8066-5.7201 3.6787 6.4614 2.2299 8.9128 2.2749 0.52654 2.2101-8.4513 0.34621-11.333 2.2061-5.4789-0.14871-8.3693 4.805-12.705 7.2461-2.0747 1.1721-1.5033 7.3683-5.0793 4.1622zm6.6272-44.237c-1.4984-1.1661-3.3249 1.2736 0 0zm28 42.615c-1.762-3.528 2.3535-3.5798 0 0zm1.7391-10.353c-3.5869-2.6844 6.7225-0.4266 0.72459 0.48265-0.36656 0.08011-0.48325-0.32138-0.72459-0.48265zm11.826-15.536c-5.5542 0.53082-3.3953-3.0716 0.3597-1.625-3.3173-4.6281 8.011 1.0344 1.9288 1.2884-0.64946 0.38561-1.5511 0.734-2.2885 0.33669zm-87.801-8.314c1.6925-2.3797 11.301-1.1099 4.4864-0.33112-1.4658 0.27721-3.0039 0.86134-4.4864 0.33112zm19.639-5.4319c1.1376-3.3569 3.3359 2.4809 0 0z" fill="#636c94"/>
   <path id="path819" d="m46.377 105.43c-2.0104-2.1589 0.67702-2.5844 0 0zm4.4442-38.381c3.5286-1.7362 1.5527-8.1271-2.3943-5.3003-0.71039-1.9275 2.5978-5.8613 1.6361-1.8504 2.52-2.3082-1.3911-8.7577-2.0964-2.9174-0.03967 1.7531-2.2657 3.2618-2.1262 0.43276-4.0556 2.6999-1.3955-6.8505-6.2268-6.247-11.102-5.8355-24.201-3.3406-35.886-6.8331 0.93268-2.8224 8.9761 0.32596 12.381-0.30716 7.4478 0.85564 14.848 2.0138 22.338 2.5514 4.7656-0.44379 8.5098 5.5938 12.271 2.6536 5.0415-1.696 1.8809-10.39-1.1733-13.182-2.0093-3.6099-7.2103-5.2306-8.6621-8.408 5.4269-0.16358 8.2976-4.9825 13.323-6.0816 3.8494-0.92566 6.4604 3.766 8.8451 0.96104-1.739 3.2194 1.9919 3.8004 3.4207 2.1691 2.251 1.2859 6.5456 0.21686 3.392 2.354 1.8531 0.36695 7.7095 1.7186 2.478 1.3151-2.3833-0.84962-5.454 1.8014-1.2684 0.91193 4.7114 0.8042-4.8832 2.6404 0.21773 3.3887 2.3635 5.0917 0.06087 10.344-2.3232 14.838-1.9304 4.3942-8.0597 9.9706-3.6477 14.369-4.6753 1.5707-8.5153 6.9189-14.029 5.6074-0.26221-0.02049-0.34385-0.2475-0.4688-0.42474zm2.7839-12.249c-2.3963 0.01668 0.71405 2.9178 0 0zm0.9987-21.006c2.9734-3.082-5.7362 0.37052-1.2072 0.09862zm24.565 13.82c-3.2765-0.07034-4.0992-3.2877-0.49876-0.95681 0.52054-0.03294 2.1512 1.8344 0.49876 0.95681zm-2.4348-5.2316c-6.1792-0.86594 3.2365-1.6973 1.7778 0.35438l-0.60027-0.06515zm-48.638-6.1617c1.0494-2.3616 2.6753 1.7586 0 0zm50.924-0.771c-3.3717-2.2822 3.2897 0.67753 0 0zm0.18656-4.079c1.1355-1.7704 1.0202 2.134 0 0zm-5.0819-1.1954c2.1783-1.4635 8.9948-2.8152 3.0481-0.37757-0.85825 0.55092-2.1172 1.0946-3.0481 0.37757zm6.2609-3.1016c1.3954-2.0389 2.19 1.567 0 0zm-5.7534-1.4556c1.978-2.4981 3.5651 2.4805 0 0z" fill="#333745"/>
  </g>
 </g>
</svg>
