<?xml version="1.0" encoding="UTF-8" standalone="no"?>
<!-- Created with Inkscape (http://www.inkscape.org/) -->

<svg
   xmlns:dc="http://purl.org/dc/elements/1.1/"
   xmlns:cc="http://creativecommons.org/ns#"
   xmlns:rdf="http://www.w3.org/1999/02/22-rdf-syntax-ns#"
   xmlns:svg="http://www.w3.org/2000/svg"
   xmlns="http://www.w3.org/2000/svg"
   xmlns:sodipodi="http://sodipodi.sourceforge.net/DTD/sodipodi-0.dtd"
   xmlns:inkscape="http://www.inkscape.org/namespaces/inkscape"
   version="1.1"
   id="svg2"
   width="128"
   height="128"
   viewBox="0 0 128 128"
   sodipodi:docname="rook_perch_crop_head_bgedit.svg"
   inkscape:version="0.92.2 5c3e80d, 2017-08-06">
  <metadata
     id="metadata8">
    <rdf:RDF>
      <cc:Work
         rdf:about="">
        <dc:format>image/svg+xml</dc:format>
        <dc:type
           rdf:resource="http://purl.org/dc/dcmitype/StillImage" />
        <dc:title></dc:title>
      </cc:Work>
    </rdf:RDF>
  </metadata>
  <defs
     id="defs6" />
  <sodipodi:namedview
     pagecolor="#ffffff"
     bordercolor="#666666"
     borderopacity="1"
     objecttolerance="10"
     gridtolerance="10"
     guidetolerance="10"
     inkscape:pageopacity="0"
     inkscape:pageshadow="2"
     inkscape:window-width="1920"
     inkscape:window-height="1046"
     id="namedview4"
     showgrid="false"
     fit-margin-top="0"
     fit-margin-left="0"
     fit-margin-right="0"
     fit-margin-bottom="0"
     inkscape:zoom="2.8419141"
     inkscape:cx="93.833658"
     inkscape:cy="78.523776"
     inkscape:window-x="0"
     inkscape:window-y="0"
     inkscape:window-maximized="1"
     inkscape:current-layer="svg2" />
  <g
     id="g891"
     transform="translate(6.4691522,15.177627)">
    <path
       style="fill:#e4e4e4;stroke-width:0.34829965"
       d="M -6.4691522,48.822371 V -15.177627 H 57.530858 121.53085 V 48.822371 112.82238 H 57.530858 -6.4691522 Z"
       id="path827"
       inkscape:connector-curvature="0" />
    <g
       transform="translate(0.52781328,0.26390664)"
       id="g883">
      <path
         style="fill:#9ba9cd;stroke-width:0.34829965"
         d="M 49.313812,111.12113 C 44.655681,105.46222 41.958864,98.542811 40.95543,91.325361 39.64744,85.393379 39.94393,79.266643 40.781006,73.329879 40.11093,66.536157 45.013811,58.066718 39.354593,52.582914 33.25019,47.742246 24.981885,48.316726 17.665972,47.227143 12.340559,46.716658 6.9755478,46.198166 1.8116448,44.725695 c 0.09598,-6.420237 8.7210992,-4.165433 12.7643822,-6.294532 6.080935,0.513008 12.092032,1.495785 18.247978,0.828555 2.301913,-0.03202 8.748968,-0.165666 8.29149,1.170526 -3.13262,0.873158 -11.974631,-0.789652 -11.589805,1.000938 6.041098,0.291547 10.720707,4.804898 16.303013,5.761484 2.503554,1.06422 8.510544,-3.978078 3.204717,-2.83676 -4.717022,-1.555343 3.758935,-2.815057 -1.623348,-2.868856 -3.306815,-1.050861 1.409772,-1.736123 -1.871598,-3.172762 -1.866641,-2.533173 4.20324,-4.785048 -0.855652,-3.620847 -4.092001,1.567866 2.24712,-4.993358 -3.497273,-4.227486 -4.020228,0.423416 -6.397968,-4.529091 -1.336685,-4.764988 3.992556,-3.334286 5.042936,-10.355836 10.983567,-11.104123 7.120403,-2.941027 14.243023,0.69009 21.15085,1.938628 6.64912,0.683419 11.585664,5.491525 15.13325,10.783854 4.41553,6.723082 8.00611,14.278785 14.688579,19.127625 5.20987,5.273456 14.02469,6.047898 18.06841,12.318546 1.61389,5.582584 0.50817,11.525123 0.89561,17.268928 0.0491,11.655262 -0.24341,23.313166 0.0924,34.966245 -5.60043,2.94667 -12.15129,0.082 -18.15301,1.12702 -16.335949,0.10791 -32.690849,-0.009 -49.012578,-0.25032 -1.435142,0.24389 -3.490207,0.86704 -4.382088,-0.75624 z M 31.516472,37.49961 c -6.186761,1.557857 -1.943945,-6.367126 0.752142,-2.980733 -0.463435,0.743952 0.604304,4.206382 -0.752142,2.980733 z"
         id="path825"
         inkscape:connector-curvature="0"
         sodipodi:nodetypes="ccccccccccccccccccccccccccccccc" />
      <path
         style="fill:#8b94b3;stroke-width:0.34829965"
         d="m 53.924649,112.05001 c -1.040294,-2.00531 -4.86637,-10.70201 -1.373402,-4.79008 0.556184,1.45412 2.365424,3.178 1.373402,4.79008 z m 0.921674,-1.87321 c -2.4635,-5.57792 9.963359,4.99054 4.421522,-1.46474 -3.312511,-2.13277 -6.971066,-7.53058 -2.198989,-9.075599 -0.13437,-5.46582 -11.311664,-7.6504 -8.598349,-0.39077 1.476511,3.507679 -0.75013,12.297059 -3.354033,5.034329 C 39.87419,93.186361 40.385212,80.469618 41.703408,68.5631 41.824451,63.034108 44.798235,56.445868 39.772766,52.105475 33.739679,48.011411 25.962755,47.974251 18.941973,47.119891 13.8592,46.313905 4.2286998,46.566821 2.2573838,43.536804 5.8815688,40.456139 14.857961,39.089718 17.423353,40.877389 c -2.590935,0.732108 -7.8078272,1.759206 -1.687718,1.50884 7.167141,-0.565479 14.582642,-1.014058 21.273262,2.149031 4.006739,1.402567 10.538523,5.203342 13.775013,3.023157 -0.820337,-0.658166 3.659424,-4.530166 -0.308653,-6.156312 -3.091782,-0.1505 -5.369489,-5.219085 -2.701348,-5.960073 -0.784043,-4.465355 -9.96499,-4.980414 -9.291338,-7.673983 4.974925,-4.223059 7.124664,-11.940005 14.644676,-12.687155 6.120087,-1.342002 11.67312,1.594839 17.564979,2.323358 5.864185,-0.309539 10.538501,3.464041 13.936664,7.841317 5.535061,6.385548 8.513321,14.7323 15.294951,20.055983 4.846149,2.662957 0.732739,5.629515 -1.52673,8.146049 -2.2029,2.434278 -6.21125,9.479215 -11.00717,8.261788 -1.24654,-1.528676 -0.77776,4.107804 1.95403,2.741809 6.11938,1.819433 -2.99421,5.447706 -5.260689,2.673515 -5.676642,2.562605 -11.903088,-2.142954 -17.521806,0.650387 -3.314826,-0.953145 -9.005175,6.158551 -2.601598,3.210213 3.478946,-1.5669 8.368001,3.701264 10.685185,-0.97115 3.711196,3.667073 9.922697,0.613242 13.855238,3.155749 1.67698,5.677483 7.67549,-1.24764 11.799449,2.03163 2.51116,0.697591 7.66002,3.137003 2.53176,4.186419 2.85814,3.178017 12.30169,-4.975487 10.56051,2.758911 1.24149,5.663835 -7.96569,4.158785 -7.87499,6.670575 1.80275,1.26853 8.09408,4.052504 2.26497,2.934964 -1.55144,-2.003674 -10.111259,-3.725724 -5.50495,0.10387 5.36943,3.91428 12.30188,0.18483 14.21469,-4.890384 -0.1037,-2.297238 -1.00994,-7.931854 1.99277,-3.536137 4.6526,0.901297 0.26732,3.482607 -0.29586,3.589677 0.34145,3.501194 -6.48824,8.667814 0.71559,8.713114 4.49125,5.183679 -3.94548,-0.55575 -6.26716,-0.6473 -6.28082,-2.31052 -12.700769,-1.0508 -19.014989,-1.19949 -3.54428,-1.42999 -6.4096,-1.17926 -8.987614,1.45378 -5.280837,-1.91936 1.769324,-2.64936 1.972014,-3.86882 -3.481731,-1.517804 -10.097362,-5.8715 -8.123003,-0.57732 -1.806327,0.70245 -4.996664,-1.803154 -2.069696,-2.894584 -2.218696,3.444684 -10.975305,-2.06659 -4.989859,-1.46048 4.193054,-0.852304 -5.734827,-3.930844 -7.537838,-4.991858 -3.154217,-1.03928 -8.8465,-3.625885 -9.312663,-2.051989 -3.358251,-1.07418 0.297076,6.735277 3.263619,6.535397 -4.263228,1.94228 3.308718,5.539884 0.258457,9.385734 -1.101131,3.37885 3.0145,6.303309 -1.387989,8.318199 1.071706,2.66664 11.265805,8.92713 3.024565,8.3303 -1.788228,0.0468 -4.743098,0.89162 -4.885718,-1.88729 z m 1.599294,-14.660409 c 3.610956,-7.518794 -7.263229,-0.28007 0,0 z m -5.624784,-2.75905 c 0.04794,-3.848644 -5.865304,-3.602554 -1.695695,-0.46064 0.279304,0.35109 1.480782,1.59374 1.695695,0.46064 z m 44.496098,-1.39683 c 3.37618,0.82178 3.31304,-7.601781 1.83179,-2.192104 -2.55999,0.009 -8.7364,1.635884 -2.9659,2.559854 z m -41.611989,-0.23693 c -0.52313,-3.406214 0.323403,-13.846312 -5.175576,-10.541952 -2.363196,4.904927 4.087968,11.236672 5.175576,10.541952 z m 56.507188,-7.308829 c 3.26434,-1.867488 -0.40586,-4.916567 -2.02639,-1.844687 -4.48911,2.231259 -0.67169,4.112832 2.02639,1.844687 z M 87.158991,82.821313 c -1.588046,-3.671837 -9.814145,-0.447183 -3.311873,0.92473 1.158566,0.0065 2.337143,-0.279705 3.311873,-0.92473 z M 68.212139,77.070871 c -1.239511,-3.78715 -3.920598,1.227259 0,0 z m -13.55137,-1.21322 c 3.810032,-3.880262 -5.405305,2.10509 -5.5e-5,0 z m 27.739578,-9.714409 c -2.027164,-2.1366 -7.482077,0.861471 -2.359642,1.089318 0.878598,0.0011 1.901979,-0.250485 2.359642,-1.089318 z m 0.868369,-2.711575 c 2.077131,-2.642551 -8.697859,0.166332 -2.11363,0.130833 0.705228,0.0546 1.423098,0.03771 2.11363,-0.130833 z M 72.386042,62.952059 c 0.03935,-1.97975 7.601478,2.116752 4.153913,-1.920741 -1.914294,-1.265385 -12.036642,2.394637 -4.153913,1.920741 z m 16.823519,-3.594278 c 2.55385,-1.200643 10.50265,-7.176469 3.25732,-6.662126 -2.00232,0.177101 1.52937,4.224807 -2.09103,1.403139 -0.80144,-1.7863 -3.53062,-2.769035 -3.08474,0.248752 -2.726275,-3.389199 -1.542025,4.236208 1.37937,2.531499 -1.51467,0.220828 -0.73732,4.894997 0.53908,2.478736 z m -9.171345,-0.606278 c -1.274609,-2.272142 -4.514294,-2.451107 -1.633717,0.28012 0.584337,0.126616 1.078424,-0.108774 1.633717,-0.28012 z M 66.994748,111.7885 c -1.771261,-2.26777 -7.046631,-5.06192 -5.792892,-7.74976 1.470946,1.84772 9.734175,7.87047 5.697576,1.99015 -1.843565,-2.07556 -7.802946,-5.22252 -1.543565,-4.66239 2.617457,-0.81341 7.388109,-1.586129 2.657707,1.20041 -3.188337,4.68237 8.457837,6.82263 5.980131,9.623 -3.626609,-2.17785 -3.947403,0.51112 -6.998957,-0.40141 z m 10.932229,-0.50898 c -3.224283,-1.34549 -1.239587,-3.94709 0.959174,-1.26372 4.510989,1.10717 1.646402,3.09829 -0.959174,1.26372 z m 4.016489,-1.14639 c -2.824989,-2.09498 -2.983185,-5.3235 0.463544,-2.03264 2.167522,1.27527 3.321456,6.22403 -0.463544,2.03264 z m 10.104145,1.6706 c -3.5606,-0.30463 -7.093514,-7.26283 -5.8051,-7.87503 2.02003,3.00285 9.62475,6.2278 8.79373,8.18451 -1.0006,0.0601 -2.03639,0.0537 -2.98863,-0.30948 z m 5.51566,-1.49752 c -2.67801,-1.37489 -4.85231,-7.7367 -0.62209,-2.76139 1.93221,1.38754 4.636969,6.29689 0.67841,2.80621 z m 7.130579,0.51416 c -3.28725,-3.73232 -0.79495,-7.03087 -3.85214,-10.40167 3.85626,4.46971 9.79359,6.92569 13.14559,11.75413 -3.0054,-1.01169 -6.69588,0.90714 -9.29345,-1.35246 z m 14.77702,-2.44703 c -3.30207,-1.74807 -9.85772,-7.3208 -10.04646,-8.500199 2.89021,2.657479 9.05889,5.575079 10.04646,8.500199 z m -37.809458,-1.70019 c -0.618337,-3.23766 3.037761,1.0082 0,0 z M 65.777356,93.988281 c 2.605066,-2.61224 -7.903511,-7.118324 -0.930185,-5.891514 2.313664,0.55051 1.544066,3.918754 4.116696,2.851834 0.37374,1.42837 -1.658619,3.92187 -3.186511,3.03968 z m -0.955804,-8.013204 c -5.706359,-4.760238 6.384131,2.43499 0.554522,0.55149 -0.184837,-0.18383 -0.369685,-0.36765 -0.554522,-0.55149 z m 50.579708,-9.444184 c -2.34406,0.02038 -11.99573,-4.167204 -5.11233,-2.288937 1.40975,-0.03695 12.57461,2.89734 5.11233,2.288937 z m 4.8622,-0.590409 c -3.73139,-1.344261 1.73721,-3.06534 0,0 z m -4.5151,-5.539782 c -0.24215,-4.088316 6.60228,0.903041 1.17272,0.169962 l -0.5906,-0.02997 z m -2.58187,-4.18448 c 1.76128,-1.013307 2.25539,-4.724534 4.37381,-0.933733 0.2193,2.008513 -3.27593,0.545428 -4.37381,0.933733 z M 97.951261,61.913835 c -6.3615,0.0582 -0.8379,-4.640741 2.225539,-5.275716 2.0605,-2.170595 2.92375,-7.833469 5.37181,-2.664753 0.82535,4.346006 -6.269369,5.284622 -4.98614,8.232055 -0.888309,0.164131 -1.750049,-0.146441 -2.611209,-0.291586 z m 10.260869,-0.402114 c -4.44214,1.490223 -4.67738,-2.860142 -0.74121,-3.798932 1.47799,-1.383662 7.96572,-2.794191 3.44706,0.125678 -2.64544,2.052665 5.23951,3.238714 -0.34881,3.83114 -0.76605,0.15879 -1.65804,0.340643 -2.35704,-0.157886 z m 6.17391,-0.535847 c 0.27854,-3.816458 6.52045,0.05133 1.13606,0.169645 -0.38655,0.0011 -0.75883,-0.100599 -1.13606,-0.169645 z m -5.60686,-6.124698 c 1.06718,-5.850003 3.48847,2.994103 0,0 z M 27.864298,39.941027 c 1.928696,-1.273803 9.894012,0.444147 3.486066,0.339614 -1.166805,0.01297 -2.362805,0.0311 -3.486066,-0.339614 z m 10.956523,0 c 3.107315,-1.801128 3.567392,1.807593 0,0 z M 28.125168,36.788488 c -1.1075,-4.163372 5.361609,1.867508 0.01369,0.0038 z"
         id="path823"
         inkscape:connector-curvature="0"
         sodipodi:nodetypes="ccccccccccccccccccccccccccccccccccccccccccccccccccccccccccccccccccccccccccccccccccccccccccccccccccccccccccccccccccccccccccccccccccccccccccccccccccccccccccccccccccccccccc" />
      <path
         style="fill:#636c94;stroke-width:0.34829965"
         d="m 55.78704,111.70124 c -4.2955,-6.18126 9.990708,2.1131 1.898207,0.46386 -0.65275,-0.023 -1.32562,-0.12525 -1.898207,-0.46386 z m 11.067816,-0.68493 c -1.947695,-3.35761 4.245425,2.95132 0,0 z M 46.767094,106.4913 c -2.986337,-4.26597 -5.076686,-10.110499 -3.842913,-15.295139 0.746456,4.65449 5.357685,12.832709 3.842913,15.295139 z m 0.636609,-4.1539 c -0.485631,-2.926489 -3.419642,-7.722809 -0.415185,-9.732419 0.781957,3.09623 1.427783,6.64637 0.415185,9.732419 z M 88.733871,91.653021 c -3.256046,0.25171 -7.834492,-4.912994 -1.70298,-3.541134 1.25203,0.15444 5.57904,4.164304 1.70298,3.541134 z M 42.484572,87.008047 c 0.847348,-4.16026 1.579022,0.51154 0.108837,0.43661 l -0.07511,-0.30116 z m 36.857992,-0.16781 c -2.75687,1.62557 -8.618099,-4.995186 -6.336794,-4.207981 0.690706,1.93321 6.350772,-0.474431 6.099283,1.694736 -2.198294,0.264468 7.659488,2.447825 2.411011,2.726525 -0.738881,0.0857 -1.451946,-0.11109 -2.1735,-0.21328 z M 44.217453,84.671264 c 0.162271,-4.191128 1.799337,1.990403 0,0 z M 99.860171,84.32249 c -0.89032,-1.727825 -1.59732,-8.206213 1.332679,-3.957907 -0.0552,0.328828 -0.46523,6.622964 -1.332679,3.957907 z m -6.06882,-2.790191 c -3.64245,-2.842997 5.50133,-8.615302 1.84575,-2.87879 0.0837,1.867782 -1.28419,8.029558 -1.84575,2.87879 z M 41.645593,80.931536 c 0.05956,-4.764294 8.028817,0.531227 1.500457,0.688894 -0.493771,0.176414 -1.78324,0.210256 -1.500457,-0.688894 z m 19.262198,-2.028904 c -3.249609,-4.542627 6.567489,1.377624 0,0 z m -3.622283,-0.547989 c -3.439218,0.146256 -2.826989,-2.624317 0.13738,-1.131804 0.231,0.173264 0.725218,1.65758 -0.13738,1.131804 z M 47.84579,77.550937 C 43.530855,77.181618 40.473223,73.382708 43.159637,69.674413 41.470582,64.316767 45.550268,58.410947 41.859451,53.629737 37.269114,47.986532 29.209201,48.432835 22.67383,47.291755 15.710907,46.539566 8.6673848,46.111703 1.8651558,44.330633 7.6017108,39.94416 15.066255,44.657703 21.544136,42.66694 c 6.710608,-1.351441 11.935282,3.27566 18.301544,3.690634 4.117153,1.348408 14.313436,5.999847 12.843762,-2.312508 -1.547326,-3.65581 -4.916554,-5.230132 -4.858717,-9.600832 -1.530066,-2.995618 -11.851394,-5.153107 -5.615892,-8.198867 5.918131,-1.690195 6.763435,-12.008802 14.351718,-9.964873 2.704381,0.309244 -0.451054,3.807922 2.485522,1.556568 5.715848,-0.549646 11.927947,0.0962 17.433686,1.52865 5.965185,4.105755 10.929652,9.659716 14.437842,16.018331 1.51274,3.4231 5.7708,6.973719 6.95977,9.176503 -1.50512,-1.600529 -4.31981,-3.504922 -1.85255,-0.206392 -3.17943,-2.701429 -2.84175,3.210136 -6.56392,2.473437 1.81354,2.830165 -6.585533,4.231138 -9.390805,5.971465 -4.047695,3.012425 -10.14662,1.299662 -13.512761,5.056044 -1.078598,2.072229 6.5135,2.362866 1.487315,3.806572 -5.720109,3.678659 6.461381,2.229853 8.912761,2.274877 0.526544,2.210115 -8.451294,0.346213 -11.333468,2.206071 -5.478935,-0.148708 -8.369305,4.804981 -12.704848,7.246093 -2.074696,1.172131 -1.503348,7.368317 -5.079305,4.162224 z m 6.627218,-44.236613 c -1.498403,-1.166107 -3.324935,1.27358 0,0 z M 82.472999,75.92891 c -1.762033,-3.528001 2.353489,-3.579815 0,0 z m 1.73913,-10.353015 c -3.586946,-2.684436 6.722462,-0.426604 0.724587,0.482649 -0.366565,0.08011 -0.48325,-0.321384 -0.724587,-0.482649 z M 96.038221,50.040099 c -5.55417,0.530815 -3.39533,-3.071647 0.3597,-1.625045 -3.31729,-4.628101 8.010969,1.034447 1.92876,1.288358 -0.64946,0.385612 -1.55107,0.733995 -2.28846,0.336687 z M 8.2375038,41.726075 c 1.692457,-2.379667 11.3005122,-1.109903 4.4863922,-0.331122 -1.465794,0.277211 -3.0038592,0.86134 -4.4863922,0.331122 z M 27.87694,36.294178 c 1.137608,-3.356888 3.335913,2.480903 0,0 z"
         id="path821"
         inkscape:connector-curvature="0"
         sodipodi:nodetypes="ccccccccccccccccccccccccccccccccccccccccccccccccccccccccccccccccccccccccccccccc" />
      <path
         style="fill:#333745;stroke-width:0.34829965"
         d="m 46.376616,105.42979 c -2.010435,-2.1589 0.677022,-2.58444 0,0 z m 4.444217,-38.381186 c 3.52862,-1.736185 1.552675,-8.127096 -2.394261,-5.300251 -0.710391,-1.927488 2.597816,-5.861286 1.636077,-1.850409 2.519956,-2.30824 -1.391142,-8.757668 -2.096424,-2.917417 -0.03967,1.753145 -2.265729,3.261788 -2.126207,0.432763 -4.05561,2.699902 -1.395511,-6.850474 -6.226849,-6.247019 C 28.511255,45.330799 15.412635,47.825705 3.7273188,44.333126 4.6600038,41.5107 12.703374,44.659084 16.108461,44.025963 c 7.447837,0.855641 14.848033,2.013818 22.337773,2.551407 4.765588,-0.443786 8.509849,5.593817 12.271143,2.653594 5.041468,-1.696011 1.880881,-10.390109 -1.173283,-13.182463 -2.009293,-3.609884 -7.210326,-5.230646 -8.66211,-8.407978 5.426914,-0.163579 8.297556,-4.982467 13.322524,-6.081558 3.849435,-0.92566 6.460391,3.76597 8.845076,0.961036 -1.738989,3.21945 1.991859,3.800412 3.420707,2.169055 2.251022,1.285865 6.545566,0.21686 3.391968,2.353983 1.853054,0.366951 7.709468,1.718636 2.477967,1.315105 -2.383304,-0.849621 -5.454044,1.801383 -1.268369,0.911933 4.711413,0.804202 -4.883218,2.640399 0.217728,3.388693 2.363468,5.091704 0.06087,10.344399 -2.323163,14.838332 -1.930392,4.394237 -8.059696,9.97063 -3.647674,14.368875 -4.675262,1.570714 -8.515305,6.918921 -14.02911,5.607368 -0.262207,-0.02049 -0.343848,-0.247498 -0.468805,-0.424741 z m 2.783914,-12.248502 c -2.396294,0.01668 0.714054,2.917799 0,0 z m 0.998695,-21.006214 c 2.973425,-3.081964 -5.736196,0.370518 -1.207163,0.09862 z m 24.565209,13.820164 c -3.276533,-0.07034 -4.099196,-3.287655 -0.498761,-0.956813 0.520543,-0.03294 2.151163,1.834429 0.498761,0.956813 z m -2.434783,-5.231608 c -6.179185,-0.865937 3.236489,-1.697312 1.777794,0.354384 L 77.91139,42.671678 Z M 28.09619,36.220772 c 1.049445,-2.361578 2.675304,1.758625 0,0 z m 50.924341,-0.770997 c -3.371717,-2.282227 3.289718,0.677526 0,0 z m 0.186555,-4.079046 c 1.1355,-1.77041 1.02025,2.133972 0,0 z m -5.081914,-1.19537 c 2.178305,-1.463542 8.994751,-2.815202 3.048131,-0.377567 -0.85825,0.550918 -2.117153,1.094586 -3.048131,0.377567 z m 6.26087,-3.101649 c 1.395359,-2.038922 2.189979,1.566988 0,0 z m -5.753435,-1.455616 c 1.978033,-2.498059 3.565065,2.480537 0,0 z"
         id="path819"
         inkscape:connector-curvature="0"
         sodipodi:nodetypes="cccccccccccccccccccccccccccccccccccccccccccccccccc" />
    </g>
  </g>
</svg>
