<?xml version="1.0" encoding="UTF-8"?>
<!-- Created with Inkscape (http://www.inkscape.org/) -->
<svg id="svg2" width="256" height="256" version="1.1" viewBox="0 0 256 256" xmlns="http://www.w3.org/2000/svg" xmlns:cc="http://creativecommons.org/ns#" xmlns:dc="http://purl.org/dc/elements/1.1/" xmlns:rdf="http://www.w3.org/1999/02/22-rdf-syntax-ns#">
 <metadata id="metadata8">
  <rdf:RDF>
   <cc:Work rdf:about="">
    <dc:format>image/svg+xml</dc:format>
    <dc:type rdf:resource="http://purl.org/dc/dcmitype/StillImage"/>
    <dc:title/>
   </cc:Work>
  </rdf:RDF>
 </metadata>
 <g id="g828" transform="translate(0 -1e-5)">
  <path id="path4856" d="m0 128v-128h256v256h-256z" fill="#e4e4e4" stroke-width=".32"/>
  <g id="g4528">
   <g id="g4818" transform="translate(-.29345 -.4107)">
    <g id="g4510" transform="translate(-8.7738 -.31771)" stroke-width=".32">
     <path id="path4826" d="m114.7 255.65c0.77977-6.6758 0.52802-12.981 1.1845-19.039-2.6146-1.9372-0.99293 8.7739-5.4991 5.1611 1.4264 4.065-5.1553 4.6541-6.7078 5.3081-0.84737-9.5954 3.7184-9.0602 8.4099-15.076 5.7322-6.7906 11.464-14.29 15.883-22.276-11.356-9.415-22.517-19.479-29.655-32.636-5.5355-9.5605-10.906-19.16-16.754-28.505-3.5228-10.288-11.282-18.622-11.717-29.989-2.0705-10.837 3.7499-22.1-0.17523-32.059-9.2989-7.3724-22.437-4.2274-33.34-7.3429-7.413-2.8921 5.6155-5.8274 8.2673-5.9166 4.3873-2.1042 5.8785 0.04219 9.5128-0.1047-4.0685 1.1057 11.93 0.16168 15.587 0.49361 8.0823 2.4053-22.021-0.09576-7.3226 2.6918 4.8028-0.78234 8.794 6.2456 14.337 3.9001 10.392-2.1783-6.4589-2.372 1.6006-4.1648-5.3177-0.68148-1.5579-1.8573-4.0782-5.9089 6.5501-1.6645-7.1463 1.2243-0.67539-2.472-2.8665-2.4882-11.649-4.1851-3.9468-6.6459 4.4218-11.992 18.184-13.146 28.295-8.2698 12.556 0.51033 16.405 14.54 23.338 22.568 5.8704 7.0617 15.635 11.159 22.301 15.273 9.6969 6.5986 19.773 13.43 25.321 24.098 1.4427 3.568 9.3938 13.608 1.4706 6.0262 0.87725 3.6483-7.6758-4.8835-0.31758 2.6957 5.229 7.4794 13.788 13.508 20.184 21.528 4.8884 6.6325 17.766 13.644 15.998 21.629-5.46-0.13174 5.7931 11.292 7.9893 15.896 6.6532 9.4139 13.14 18.836 21.016 27.204 2.0077 9.7737 16.183 15.67 12.951 26.323-11.504-2.3548 13.518 14.928-1.0818 13.7-10.706 2.6382-19.045-4.8381-27.456-11.266-11.527-9.7166-22.042-20.573-31.965-31.951-4.8108-3.3766-17.728-13.886-15.394-1.3942-7.9538-1.0444-3.7353 14.254-13.01 7.3179-6.3891 2.8397-16.706 18.723-3.4058 18.596 6.8351 1.4042 5.1161 17.206 0.26334 5.4416-10.593-0.7238-4.5661 12.436-5.7706 19.166-9.0568 0.51341-19.388 0.52364-28.886 0.0242-2.625 1.1976-4.747-2.9273-6.7476-0.0241zm20.501-26.846c6.5007-3.9191 13.198-10.363 15.29-16.96-5.1195-3.9117-12.994-13.539-14.81-1.4311-3.0925 3.0261-15.617 13.396-7.1161 17.255 2.8848-1.2532 4.8612 0.2158 6.636 1.1365zm-62.4-155.52c1.1906-1.2017 1.749 1.1715 0 0zm-11.2-1.28c-9.845 0.07957 3.7407-7.0138 0.43027-0.76833l0.69488 0.95224zm8.8093-0.6275c-1.0996-1.8038 2.3516 1.3113 0 0zm-4.5987-1.8286c-0.75727-2.0698 2.5086-0.2716 0 0z" fill="#8997b5"/>
     <path id="path4824" d="m118.16 255.67c-2.6912-4.2045 4.2247 1.2269 0 0zm3.76-0.16129c-2.5282-6.426 5.4285-8.3571 7.2418-10.982-0.81553-2.4483 7.3675 1.2051 2.8872-5.1243 5.2558-3.6848-4.1791-5.7957-1.0634-1.2505 0.94027 5.0575-4.1744 3.9644-5.8349 5.0985 3.5076-4.3061-2.8849-6.6365 2.2689-9.0612-7.4283-3.6141-13.934 1.6377-16.384 6.8713-1.3012 3.531-5.0125 5.0569-7.5078 5.1207 1.782-6.3122 5.5884-10.735 11.106-14.496 2.6275-7.8805 10.222-13.861 14.061-21.443-10.933-9.9065-22.56-19.438-29.679-32.658-2.9631-5.253-12.522-20.225-9.9095-19.344 3.9283 3.6839 11.414 4.9655 2.5434-0.45709-4.6107-1.8666-12.939-15.72-10.713-15.101 0.43334 5.7222 19.024 17.818 8.6102 6.8921-3.9743-4.6123-11.693-18.063-0.67868-9.8546-2.4451-3.5126-9.8481-11.406-2.1626-4.4024 3.7945 3.394 14.493 15.968 16.022 12.512-4.3548-4.2954-13.233-10.611-13.975-14.618 5.9255 4.1508 17.938 15.768 20.34 16.03-7.262-4.134-14.057-14.395-18.891-18.041 3.9943-0.73472 10.326-2.8719 3.5592 1.5961 7.0019 6.3 13.837 16.056 23.388 17.527-3.0627-2.6732-19.186-15.439-7.2263-8.2499 0.84863-4.5404 16.282 13.112 17.194 5.1263-3.7299-1.6906-16.308-12.629-12.129-11.204 3.6425 2.7946 15.176 11.862 14.869 9.8306-4.3738-3.2809-13.665-14.411-3.9558-5.0292 2.5006 4.8606 12.237 7.4632 13.503 9.0782-5.6377-2.5702-17.545-0.15636-6.3584 3.6598 13.219 7.5271 27.628 13.202 42.206 17.278 0.32479-3.0691-20.232-8.6457-7.602-5.47 4.7811 2.6239 19.132 5.5608 6.6924 1.0247-7.1276-2.2584-1.6792-2.7973-10.141-6.3212-8.646-4.4576-10.793-4.9329-13.842-9.1818-6.8032-7.1125 11.485 6.4414 16.079 7.3509 4.1197 2.3239 23.388 11.699 10.596 3.1726-3.098-2.7437-17.2-12.524-5.9928-5.6906 10.061 5.2165 19.676 13.025 31.164 14.246 5.9133-1.9924 10.626 14.659 16.535 19.125 4.5566 9.3071 13.024 15.174 17.781 24.148 1.7293 6.5814 19.003 18.855 8.563 22.783-4.0002-1.876-13.081-9.2288-5.9666-0.98325 1.7181 4.9041 11.73 12.571 10.409 14.889-10.531 0.79613-18.961-2.1415-27.299-9.6052-12.802-10.59-24.509-22.482-35.332-35.134-6.0191-3.7204-16.043-11.383-15.441-0.42686-7.24 0.48347-3.7286 13.306-12.786 7.3735-3.8458 1.8639-13.613 13.607-8.6286 19.216 5.8941-3.5089 10.868 4.6525 9.9692 9.4949-4.4065-9.2876-14.736-2.2356-10.707 6.9376 3.1796 7.7452-2.21 10.068-8.8935 7.8034-4.2306 1.0245-0.24762-2.8198-5.1294 0.41988-4.9923-0.16114-7.2602-0.64588-11.235-0.0844 0.44604-0.94114-2.2308 0.42699-2.1225-0.39123zm9.0125-1.0103c3.7563-8.3248-9.2697-0.37355 0 0zm-6.4915-0.38754c0.86148-2.5396-2.6578 1.245 0 0zm22.055-4.4983c-1.4507-7.8236-1.4708 6.1007 0 0zm-18.872-1.6143c2.1382-3.3766-3.9598 2.4565 0 0zm3.5756 0.055c-0.94403-2.7379-1.7387 2.2358 0 0zm4.3372-2.9612c-0.50922-2.3687-2.365 1.3859 0 0zm15.618-10.372c-1.8447-1.8725-0.17501 1.6273 0 0zm1.6574 0.13871c0.31836-1.7164-1.4902 1.3759 0 0zm2.7068 0.20018c-0.74678-1.0991-0.92167 0.60977 0 0zm-16.96-1.7942c-3.3436-5.0537-1.8252 0.69111 0 0zm11.84-0.46472c-1.3983-1.8029-1.1434 1.3081 0 0zm-16.96-0.256c-0.38378-5.179 9.5879-1.1749 8.808-8.1516 4.2734-5.0901 14.583-13.94 5.2886-16.392-5.5465-0.63597-8.3087-9.9034-11.405-0.29095-2.2052 5.7844-11.523 10.643-10.802 18.036 3.9583 4.8582 9.8025-0.34013 5.0702 5.1057 1.1106-0.0271 1.8861 3.3033 3.04 1.6926zm7.04-6.784c1.3514-3.4616 1.3465 2.5268 0 0zm5.9933 7.0067c-1.1782-0.36284-0.58775 0.55739 0 0zm8.7267-0.12667c-1.249-1.169-1.249 1.169 0 0zm-29.44-1.0808c-1.91-4.8492-3.7666 3.5 0 0zm22.72-1.1934c-1.1552-2.0205-1.788 1.9585 0 0zm-28.64-3.1658c-3.2688-1.3853-0.80545 1.2309 0 0zm1.3778-2.2364c3.6698-6.749-2.5338 1.3424 0 0zm95.595-26.164c-1.7821-6.1919-8.521-6.4742-6.3491-3.6775-6.6644 2.7832 6.9538 4.6606 6.3491 3.6775zm-8.3398-9.68c0.47142-10.615-9.2886-5.75-4.9532 0.41077-3.4474 4.7445 8.2019-4.395 2.1518 2.7908 2.0488 3.873 2.7954-1.5546 2.8014-3.2016zm-12.816 3.5563c-3.7411-3.623-7.7398-0.47491 0 0zm-23.852-1.316c-7.9922-4.9868-19.956-12.524-25.98-15.063 7.6963 5.113 20.336 12.854 25.98 15.063zm14.285 0.33681c-3.2685-3.3083-14.327-8.2984-4.8573-2.3452 1.4448 0.64525 3.872 2.3943 4.8573 2.3452zm-8.4905-0.75685c-8.749-5.2316-17.703-11.034-26.851-15.9-5.2413-1.727-16.972-11.218-5.1489-4.7881 10.107 5.06 20.044 10.494 30.114 15.603-11.757-7.673-24.63-13.697-36.678-20.936-6.5 4.9702 12.067 10.587 16.248 14.307 7.3336 3.6045 15.223 9.4018 22.316 11.713zm14.72-4.4413c-1.3241-4.8178-20.499-7.952-8.6028-1.6357 1.5908 0.66534 8.5775 5.3606 8.6028 1.6357zm-39.36-0.0943c-5.8366-3.7623-4.9185-1.3106 0 0zm46.304-1.0446c4.4426-3.6948 0.22019-10.831-0.71224-2.2976 0.61738 1.6713-2.8875 2.8969 0.71224 2.2976zm-11.152-4.6021c-0.89363-4.1146-10.111-0.60569-1.069 0.67019zm-48.997-0.46948c-3.3984-2.1692-11.586-5.2268-3.1751-0.91847-0.16107-0.35494 3.4582 1.853 3.1751 0.91847zm6.6006-0.92841c-1.6317-1.6028 0.441 1.6313 0 0zm49.037-1.4089c1.5746-2.108-7.4593 0.0393 0 0zm-54.783-0.6229c-10.548-4.8697-19.564-12.637-28.93-19.521-4.1737-2.7158-8.4052-7.8366-1.28-2.1178 8.9416 4.7732 16.974 16.235 26.826 16.122-9.357-3.0298 5.9297-8.4635-3.6536-10.985-1.7849 0.57931 3.2567 10.316-3.0066 3.848-6.9637-3.0799-5.0271-4.6382-1.9512-7.3889-2.7298-0.37917-3.1088 3.1975-7.7984-1.9718-2.7954-6.1579-3.0037 2.007-8.0319-3.2552-10.076-4.4366 10.838 10.416-0.23113 3.4932-4.7434-5.9368-8.2092-0.82131-10.693-3.3513-2.611 7.1632 6.8248 12.969 12.528 15.215 3.7448 1.9194 14.85 10.124 5.9829 2.195-12.506-10.275 16.973 11.499 4.6577 1.4502-4.6524-3.9231-19.512-15.101-17.268-14.821 10.199 7.1438 19.177 16.595 30.861 21.263l1.2965 0.13433 0.6924-0.30863zm-14.85-11.408c-0.5147-1.7849 1.9987 1.8688 0 0zm-3.314-2.5747c-5.1234-4.4 5.5582 3.9015 0 0zm-3.1053-2.2986c-6.8166-5.2274 3.1918 0.58476 0 0zm51.249 14.376c-3.4771-2.4312-20.357-10.624-7.995-3.2403 1.5122 0.85465 8.4844 4.6183 7.995 3.2403zm-45.15-1.469c-1.349-1.0564-0.80465 0.56615 0 0zm50.82-0.84841c-4.4878-1.3187-25.939-10.403-11.829-3.6054 3.4882 1.5017 8.9582 4.2295 11.829 3.6054zm-61.54-5.1058c-1.1482-1.2183-0.3974 1.2616 0 0zm23.2-10.693c-3.4293-4.0608-18.238-8.3308-6.3482-2.4272 2.2227 0.45725 4.0484 2.45 6.3482 2.4272zm-41.256-6.3552c0.13589-2.7564-1.4186 0.9224 0 0zm19.055 103.18c0.0919-3.7303 0.75801 2.7475 0 0zm5.3928-1.0959c1.8841-6.466 0.28275 5.7385 0 0zm-4.4632-1.186c-4.4545-2.5281 6.0594 0.30207 0 0zm5.5252-5.4577c1.2514-7.7135 7.159 3.4472 0 0zm-2.1739-4.4385c0.52803-1.494 1.1106 0.55164 0 0zm3.5998-0.75777c1.7161-1.7382 1.048 1.5119 0 0zm-5.4718-2.144c0.82151-1.1951 0.75282 0.98512 0 0zm6.5653 0.0907c-0.81492-2.3864 1.988 0.52826 0 0zm-4.1997-0.40456c0.11683-1.576 1.02 1.0646 0 0zm84.146-73.264c-8.5074-7.505-18.39-13.293-25.12-22.653-5.5571-6.574-10.488-13.103-14.931-20.454-3.1219-0.62432-2.402-10.429 1.6196-2.2243 13.69 14.79 28.448 28.678 41.283 44.213 0.17945 1.4991-1.7437 2.4648-2.851 1.1176zm-13.185-7.0471c-9.1856-7.2012 9.2934 5.8437 0 0zm-105.36-3.8502c-1.1974-3.3042 2.2678 2.4784 0 0zm57.027-6.6336c-0.5167-2.0194 2.7455 0.85825 0 0zm1.8469-1.6274c0.84793-3.0739 1.7543 1.2264 0 0zm-1.2849-2.2986c-8.099-3.1136 2.6791-2.4277 1.4867 0.58685zm21.36-1.8044c-3.1108-2.5097 4.0067 1.6493 0 0zm-31.044-0.54839c0.32437-4.9213-10.195-12.742-0.54399-5.2468 3.4656 5.0671 11.564 3.5941 0.54399 5.2468zm28.644-0.76051c-1.5725-2.1952 2.9858 1.147 0 0zm-53.462-2.2357c-4.0739-5.2893 5.166 4.2145 0 0zm-32.896-3.0723c-6.212-10.192-6.0989-22.911-4.5056-34.368 3.5843-10.151-0.86867-19.863-12.656-19.513-6.409-1.8456-22.407-0.08348-23.269-4.864 4.3946-2.7989 21.391-3.284 7.5647-0.39505 9.8835 0.01992 19.854-1.1581 28.704 4.1822 6.633 6.028 14.158-4.1648 5.2044-5.5268 1.3822-5.9039-3.1184-9.1759-9.3232-11.439 4.4855-3.4277 7.7275-10.512 14.238-11.957 4.7946-0.01487 7.0206-0.95228 11.147 1.6077 10.656-1.4215 18.429 6.5734 23.04 15.284 2.994 6.5196 17.18 15.129 4.8235 16.86-3.9139-0.3832-5.4983-2.1658-9.8251 0.61602-4.4327 1.7506-19.291 4.9225-7.106 4.7784-3.93 2.24-12.923 5.9477-2.8628 4.8662 6.7822-2.2397 18.312 3.9401 9.9828 2.9472-5.4778-0.67713-11.169-0.85432-19.081 1.2321-8.5508 2.8712-0.1492 6.9148 2.0187 8.8796 4.4502-0.28206 8.1184 1.2787 8.6299 3.6776 1.3595-0.0693 0.49177-11.874-3.2195-4.7872-1.7415 0.843-14.547-4.5853-4.1272-4.5725 2.9983 2.7445 8.1476-0.95758 12.281 0.88355 5.7567-0.79191 9.5945 2.7479 4.4783 8.0078-6.2005-5.2992-4.9356 8.0814 1.8905 1.2166-0.81113-7.3724 12.05-9.7178 11.77-3.2789 4.909 2.1002 12.348 0.88686 3.0115 3.6577-3.7231 4.4294 8.348 0.56714 8.1245-0.40787 0.0125 6.2148-9.7377 3.0609-8.176 6.3311-11.146-2.1332 7.8156 6.9618-2.5736 3.3989-9.642 4.462-16.341-6.4446-25.522-4.6115-1.3649-6.916-9.4074-5.0366-13.743-7.5878-5.0442-3.2517-11.664 0.0648-10.476 7.2014 3.2944 2.6691 6.8517 3.6664 9.4803 3.9933-3.6789 0.96931-5.9049 2.3922-8.888 3.8028-0.03089 1.2812 1.8745 13.508-1.0353 9.8841zm-1.4622-13.095c-1.5036-3.9971-0.52887 3.4486 0 0zm5.315-0.18464c-6.375-9.8706-3.3809 4.3713 0 0zm41.527-0.62052c11.952-12.853-14.345 2.1539 0 0zm-47.068-3.392c1.3061-4.9181-2.9876 4.9795 0 1e-5zm40.429-0.58124c-4.2698-1.2784-4.8449 1.6365 0 0zm2.7489-0.84629c2.2188-10.142-4.9334 2.8833 1e-5 0zm-15.053 0.27424c-1.9716-2.2223-0.56563 1.467 0 0zm-27.005-1.5542c1.5758-2.7254-1.1543-1.0383-0.65139 0.56zm30.425-4.8c5.9902-10.625-4.5568-3.6564 0 0zm-22.703-3.28c8.1558-1.9987-1.9786-4.0337-1.8215 0.62949zm5.2036-1.6c-0.72005-2.2181-0.59358 2.221 0 0zm8.64-15.68c-0.81758-1.148-0.81758 1.148 0 0zm-16.719 44.738c-1.6763-4.9291 2.2918 3.5821 0 0zm3.1517-3.8288c3.3684 0.57803 1.4144-4.2132 0.44933-5.4813 3.3757-1.543 5.1811 9.189-0.44933 5.4813zm72.594-0.9304c2.9944-4.1579 4.1424-0.39844 0 0zm-75.954-1.3796c0.06091-2.0586 2.263 1.2369 0 0zm61.968-1.9301c-0.75814-3.0333 8.391 1.4676 0 0zm4.6993-0.47543c3.7383-2.8186 4.808-3.8225 7.2624-0.21934-2.3343-0.0278-5.0803 0.648-7.2624 0.21934zm-11.499-2.2514c-1.1203-0.87199 10.129-7.4598 2.3041-0.11084l-0.68484 0.35152zm-25.372-0.59946c0.5148-2.3498 4.9592 1.3901 0 0zm-15.668-0.50821c5.452-6.5716-0.39898 2.9742 0 0zm56.565-1.1449c-1.143-3.4171 1.6993 2.096 0 0zm-58.512-1.3246c-5.9977-4.7473 3.0389-1.8099 1.791 0.99881zm12.716-0.16179c-7.3557-0.76888 2.7844-2.2436 0 0zm-17.49-0.49926c-3.9422-3.7692 5.0373 2.4303 0 0zm-5.2806-1.6727c-0.24769-5.3988 3.7826 2.6699 0 0zm17.17 0.6446c-7.3962-3.9582 2.3369-0.75063 0 0zm51.39-0.41713c0.33811-2.204 1.0572 2.8457 0 0zm-4.6087-0.97422c-0.64597-1.6706 2.1781 0.28248 0 0zm19.497-0.70873c-1.6664-4.7571 3.2701 3.134 0 0zm-24.977-1.1591c-4.0792-6.8557 3.3578 0.61809 0 0zm-58.866-1.3992c-0.20792-5.9142 2.2584 2.4545 0 0zm81.328-1.831c-0.89382-2.6172 1.427-0.02 0 0zm-27.768-2.008c-2.9592-2.9428 3.9336 2.1928 0 0zm19.965-0.41865c-0.84738-6.3984 2.8499 2.1521 0 0zm4.2796-5.9452c-1.9787-3.7131 3.0052 2.5796 0 0zm-4.3326-2.3262c-1.4148-6.615 3.6956 3.7619 0 0zm-15.57 0.0101c0.14113-2.512 1.9784 1.9909 0 0zm11.761-2.5987c-2.1466-5.0575 3.5832 1.2404 0 0zm1.852-0.26c1.1905-1.2017 1.749 1.1715 0 0zm-37.617-0.66788c0.76318-2.6149 3.8384 1.5326 0 0zm23.281-0.67612c-1.3478-3.7824 4.5239 2.1613 0 0zm6.6301-0.51959c-7.326-5.2992 7.2285-0.58768 0 0zm-37.052-2.7259c3.951-4.6117 7.6816 0.51526 0 0zm15.092 0.07509c-6.6739-3.5879 7.0412-3.3305 3.5948-9.5429 6.005 3.4276-4.5318 8.7579-3.5948 9.5429zm-17.146-0.60565c-9.1658-0.498 8.7904-4.1246 0.0193 0.50944zm26.665 0.01462c0.166-3.9553 4.7582 1.4392 0 0zm6.4963-0.26078c0.10105-3.809 3.2706 0.32327 0 0zm-24.005-1.058c0.20725-3.4919 6.2148 1.3111 0 0zm14.158 0.05918c4.4482-5.0326 7.7676-0.71165 0 0zm-17.56-2.1596c-0.23469-2.5632 1.9282 1.1661 0 0zm6.498-0.21135c2.52-3.4392 2.599 0.96472 0 0zm-13.36-0.1413c-1.5077-2.4214 3.2878 0.13354 0 0zm4.2933-0.93604c-1.1286-3.2218 3.1859 1.3171 0 0zm23.68-0.96c-0.89522-3.8299 2.6847 0.98475 0 0zm-12.693-0.42667c3.1916-4.1936 5.3732 1.1189 0 0zm-5.68-1.36c1.8039-1.5001 1.1247 1.6368 0 0zm-55.76-12.08c4.0452-1.3145 8.2887 1.3562 0 0zm9.86 0.1014c1.789-0.27625-0.5502 0.5486 0 0zm1.18-0.1014c1.6777-1.1791 1.6777 1.1791 0 0zm-11.04-2.8757c-3.6524-4.2198 5.9068 1.0108 0 0z" fill="#7987a4"/>
     <path id="path4822" d="m124.32 255.68c1.1482-1.2183 0.3974 1.2616 0 0zm4.4832-5e-3c1.2908-0.61697 0.72495 1.1117 0 0zm2.3968-0.17356c1.6854-1.7686 3.1076 1.7428 0 0zm2.6134-0.59222c-1.4888-7.0273 6.7165-8.1028 2.678-7e-3 0.11394 1.3191-3.3832 1.7695-2.678 7e-3zm7.3866 0.741c-3.2434-3.4104-1.6515-8.6616-6.8-8.8858 8.1098-2.5942-5.0201-4.4596 1.3593-7.5903-2.1794-2.8117-4.3427-8.0845-0.20273-6.8872 1.0533 2.7119 8.3892 3.2848 1.5287-1.0464-2.1878-3.2113 5.5343 0.18555 6.1061-7.1214 4.8554-4.7931 9.0077-12.207 11.589-18.332-4.4734 13.828-13.423-11.663-18.371 0.90062-3.205 5.951-9.5826 10.461-11.85 18.06 4.6188 6.3104 2.5402 3.7666-2.414 5.9672 1.9984 4.4914-12.193 1.9048-10.685 9.9146-1.2977 3.1841-12.237 8.6101-5.5475 1.2489 3.8119-2.0457 4.8598-8.208 9.2528-10.261-0.10043-3.2626 11.08-7.1558 6.5935-9.718-0.5333-2.9935 13.246-12.688 1.8841-16.595-11.128-8.9922-20.324-19.984-27.241-32.504-2.9421-5.6382-11.604-16.864 0.35247-10.867-2.1623-3.35-12.548-11.712-2.9774-6.8619 4.1403-2.1188 3.7381 2.4089 4.1144-4.6744-3.5148-6.4598-8.3286-8.2553-5.5305-0.82447-5.2764-1.03-14.033-17.516-2.9787-9.2374 4.5603 2.5938 12.239 9.3292 14.197 11.26-7.928-1.2618-0.21203 12.009 6.7221 14.687 4.7368 2.6854 18.922 11.687 18.714 9.8998-9.5109-7.1825 7.1421 5.115 10.832 5.4213 8.0528 0.9317-8.5235-5.2016-10.064-7.0812-5.7054-3.727-6.7027-5.7979-0.45653-1.0043 3.4335 5.3205 19.005 5.5777 6.9668 0.24304 3.6011-6.0294 2.6229 0.30445 8.4277-0.0666 16.91 9.1288 33.189 19.508 50.697 27.475-11.329-8.4204-23.854-15.094-35.611-22.843 16.397 7.6379 31.309 18.133 47.589 25.965 8.835-1.9082-8.4277-6.4888-11.836-8.045-11.01-6.4926-21.725-13.505-33.043-19.482-10.069-5.0675-15.832-11.095-25.877-15.199-5.068-4.3158-15.782-6.0542-17.388-9.41 0.4204-4.2403-15.035-10.646-3.0941-5.4204-0.082-1.7972 17.588 6.626 4.4247 3.9165 6.7506 5.9763 18.072 8.6922 26.298 14.004 10.346 4.4662 19.654 12.409 31.182 13.445 11.763-4.0114-9.0688-0.43848-11.908-5.5346-4.3223-1.46-12.925-7.1899-3.5865-3.083 4.6396 2.1392 15.801 6.7164 18.048 2.9514-5.363 1.7637-21.414-6.4982-7.6155-1.5291 3.3707 0.90198 8.9229-1.4688 8.7013-2.5645-10.736-4.8819-20.916-11.226-30.599-17.865 11.19 5.6734 22.074 12.345 34.017 16.288-3.8166-2.7341-17.239-12.464-6.0216-5.916 8.0703 5.2238 18.579 9.1771 26.537 9.7142 6.2802 10.591 14.633 19.963 20.753 30.559 8.7834 8.1446 9.8936 15.836 18.373 24.48 5.5476 3.2896 4.1779 15.652-3.3875 8.0435-5.184-4.3893-8.9491-4.6789-2.8625 1.4228 4.5252 4.6498 13.056 18.901 6.6925 12.887-1.4052-3.8038-13.768-12.455-5.5918-3.1923 8.6202 9.5569-10.344 2.7331-13.674-2.1291-15.503-11-27.851-25.766-40.979-39.298-5.8539-2.7063-14.613-9.5653-13.549 0.80736-7.3122 0.53654-4.0902 13.026-12.342 7.2102-5.083 1.8616-10.231 12.079-11.381 18.203-8.807-0.85852-5.198 4.2808-0.81266 2.893-4.9503-3.9956 4.4925 2.7216 6.0935 3.3883 0.22218-5.687 5.9336 1.473 1.7102-1.0882-4.3035 2.0334-7.6287 5.4993-5.8709 12.556-1.4874 11.474-2.1528-10.561-3.9948 1.7879 1.2747 4.1981 6.1857 8.3731-2.7914 6.8162l-0.82029-0.25804zm-3.92-15.33c-1.1905-1.2017-1.749 1.1715 0 0zm2.24-1.92c-0.81758-1.148-0.81758 1.148 0 0zm7.2256-2.6961c-1.5996-4.0955-0.097 5.3031 0 0zm-1.5429-1.5357c-5.0858-2.9887-2.5052 1.8621 0 0zm-26.54-4.179c0.43322-3.165-2.6434 1.6064 0 0zm26.617-0.70927c-1.5138-1.8306-1.0475 1.6506 0 0zm-2.56-0.62111c-0.74678-1.0991-0.92167 0.60977 0 0zm-18.24-9.7978c-0.99396-1.1605-0.60722 1.6113 0 0zm103.14-4.7706c-2.4329-9.3197-10.388-10.62-12.725-19.129-5.8015-3.3934-10.257-22.052-14.582-7.7096-4.7088 7.7476-15.714 0.24837-21.263-3.3624-13.73-7.8933 5.9172 4.7149 10.281 6.9944 7.3893 5.6289 17.25 6.6784 19.428 0.70612 4.0665-0.14983-8.4181 8.9045 1.2702 9.4505 3.1009 4.7482 11.857 0.45137 7.0517 6.6139 2.5806 1.6741 7.8213 8.1442 10.54 6.4356zm-44.061-16.25c-12.972-8.4284-26.555-15.879-39.857-23.76 5.3519 6.9087 16.371 10.464 23.982 15.913 5.0128 2.7439 10.788 6.5143 15.875 7.8474zm14.538-10.333c6.8319-3.9177 2.4438-16.694-3.53-7.5868-7.7409 3.2065 9.9137-7.0448-2.0691-6.1022-2.949-0.60833-8.144-0.28771-3.4364 2.7904-3.5916-2.6514-11.729 4.6908-11.437 4.9002 5.5672 3.2096 14.109 10.703 20.472 5.9984zm-8.2525-4.6792c-1.0205-2.0422 3.0649 0.61479 0 0zm-28.703 5.4804c-5.7411-2.7894-13.866-9.7805-17.853-10.438 4.505 4.5721 13.752 8.7114 17.853 10.438zm-6.9178-1.6106c-3.4532-3.3562-14.382-6.1208-4.5355-1.3208 0.43151-0.01 6.5398 3.7227 4.5355 1.3208zm-42.859-13.219c-1.5046-2.7222-2.3573 1.2643 0 0zm6.4-2.5992c-0.78922-1.1399-0.38699 1.17 0 0zm32.96-2.0735c-3.482-2.8658-2.7987-0.0357 0 0zm-52.668-9.6495c0.68061-8.8713-2.5945 2.8065 0 0zm1.4682-6.6764c-4.7449-3.9352 1.8784 4.8963 0 0zm24.96 99.058c1.6878-3.748 1.7749 2.85 0 0zm8.48-0.33889c2.2611-1.3107-0.29557-0.26718 0 0zm-7.0091-1.23c0.85163-2.5399 0.96929 1.0386 0 0zm7.9691-0.68999c0.78922-1.1399 0.38699 1.17 0 0zm-6.24-0.64c0.81758-1.148 0.81758 1.148 0 0zm-3.2-0.32c0.81758-1.148 0.81758 1.148 0 0zm5.28-6.72c0.15782-2.5847 1.4367 0.96002 0 0zm-2.72-1.7208c1.5782-4.2615 1.8612 2.8379 0 0zm32.32 0.26193c0.99396-1.1605 0.60722 1.6113 0 0zm-30.146-1.6611c-4.1031-1.9896-0.46552-5.5011-2.595-7.1888 6.0583-6.4796 1.0715 2.8788 3.9415 7.5729 0.13919 0.97729-1.65 0.24666-1.3465-0.38411zm-20.708-1.2267c0.20584-1.2332 0.32471 1.4566 0 0zm49.165-2.8906c-3.7767-5.4328 4.3739 3.0888 0 0zm-26.79-0.74388c0.5608-1.683 0.49743 1.1759 0 0zm20.475-1.5588c-2.3745-4.204 5.6664 1.4163 0 0zm-19.515-3.9001c0.78922-1.1399 0.38699 1.17 0 0zm-12.929-3.5202c5.7123-4.4513-3.5892 5.5087 0 0zm21.889 0.998c0.52803-1.494 1.1106 0.55164 0 0zm-17.76-53.478c-1.0304-2.2362 3.3483 2.302 0 0zm2.6748-3.76c-4.8474-3.2842-7.5052-6.1668-0.79832-1.0525 1.8801 1.2335 4.4899 3.9896 0.79832 1.0525zm9.2484 0.78583c-3.7132-3.7973 4.4765 2.2517 0 0zm41.277 0.19358c-2.0383-1.7138 2.846 0.73756 0 0zm-10.638-0.73575c0.80986-0.5852 1.274 1.0308 0 0zm-20.802-1.9237c0.3974-1.2616 1.1482 1.2183 0 0zm58.994-1.9693c-6.6546-6.7926-17.115-11.613-20.033-20.665-8.289-5.3119-13.117-13.557-18.775-21.348-6.5433-9.059 7.5375 4.206 9.3728 7.1192 11.101 11.163 22.191 22.543 32.232 34.584 0.43124 1.6385-2.3668 1.831-2.796 0.30883zm-56.133-1.0605c-1.2306-1.6818 4.0889 1.7495 0 0zm-7.4212-3.1207c-2.2557-2.562 4.1464 1.3719 0 0zm-26.902-9.3694c-4.2448-1.639-15.157-12.228-5.5422-4.4624 1.1401 2.8558 16.12 6.9255 5.5422 4.4624zm-6.9262 0.17967c-0.0353-2.8302-17.146-15.672-4.7187-6.5419 0.94754 1.753 9.8687 5.4876 4.7187 6.5419zm-13.612-6.1186c0.92167-0.60977 0.74678 1.0991 0 0zm-17.36-10.141c-4.0407-3.5305-4.4858-20.422-1.4809-6.8-0.36191 0.97585 4.6181 8.949 1.4809 6.8zm0.43037-5.12c-2.7709-5.4596 0.86154-11.384 0.56507-2.0017 0.1082 0.61385 0.58071 7.0236-0.56507 2.0017zm35.569-9.4573c-7.3131-6.2649 10.757 3.4378 0 0zm-7.9048-3.7181c-7.7463-3.5324 7.4125-0.68485 2.1026 0.29538zm-30.25-1.5446c0.73514-3.5807 1.2643 1.774 0 0zm-0.81838-3.3018c-4.2871-2.7986 4.6954-0.45735 0 0zm16.253-2.1101c-1.5197-3.434 4.878 1.2484 0 0zm-11.128-0.99872c-5.1213-7.3186 6.2595 0.42975 0 0zm-5.592-2.3094c-0.4598-3.2936 4.437-0.0782 1.1255-3.9254-2.5222-7.7687 3.1931-11.942-3.8041-17.91-10.782-5.2349-23.601-3.1048-34.893-6.6852 7.2962-1.365 20.119-2.92 26.767 0.72511 6.64-0.83084 22.432 10.664 19.465-2.7168-0.60874-2.975-1.5634-0.48457-3.4646-3.9697 3.746-4.1526-13.091-7.6504-5.5279-9.9092 7.271-3.0266 4.269-5.944 9.5168-8.6105-1.2643 4.4264 5.3941-3.7113 4.5074 1.7644 2.6934-1.8211 2.9429 0.05434 7.0581-0.97201-0.22958 3.4008 9.1048-2.2161 9.8059 1.649 5.7953 3.5857 8.2078 5.8804 12.634 12.983-4.1329-2.9632 7.8374 8.4737-0.25521 4.4554 6.9193 5.7843 0.51038 5.3469-2.9355 9.7354-5.5376 1.6465-7.2486 4.1191-13.742 4.9705-6.6575-2.0942-3.9239 5.2744-3.2723 6.0512-8.5477 2.4263 7.7676 2.6159-2.4024 3.7232-5.379-0.97606-17.735 14.214-11.074 2.7012-4.96 0.53068-6.2361 7.982-9.5088 5.9406zm2.56-5.76c7.7854-4.6554-2.9126-2.5565-0.41064 0.311zm25.339-14.789c-1.4079-0.27369 0.98558 1.4492 0 0zm15.941-9.4915c0.51316-3.0989-10.71-2.6738 0 0zm-4-5.7992c-2.4025-1.8655 1.6729 2.5987 0 0zm3.04 0.32c-0.78922-1.1399-0.38699 1.17 0 0zm-32.084-2.7607c2.1165-1.8682-5.5312 0.95407 0 0zm26.164-0.43925c-1.1482-1.2183-0.3974 1.2616 0 0zm-26.4 36.039c0.87416-1.7308 1.4119 0.46214 0 0zm9.02-5.0192c1.5231-1.8672 0.47536 1.1463 0 0zm18.82-1.26c-4.5124-2.2276 6.7677-0.07386 0 0zm-10.08-0.22714c-8.5874-1.1443 8.8662-0.71419 0 0zm-5.8467-7.8329c1.1628-1.6787 1.0759 1.4239 0 0zm26.167-6.34c-9.251-2.1116 4.6033-0.58686 0 0zm-6.8601-0.8258c-0.27998-3.3864 3.633 1.367 0 0zm9.7401 0.27992c-5.5825-2.5458 1.5632-2.2292 1.1209 0.03781zm-1.7867-5.0408c-3.3269-4.0056 4.4757 3.7686 0 0zm-3.5079-1.2788c-3.3867-6.1079 5.8591 2.9446 0 0zm-77.831-0.676c7.6957-2.5764 10.774 0.19164 0 0zm18.017-4.73c-0.8051-3.3966 5.0986 1.8086 0 0z" fill="#667091"/>
     <path id="path4820" d="m131.2 255.68c0.81758-1.148 0.81758 1.148 0 0zm3.2-0.0533c0.80089-0.99335 1.1876 0.96387 0 0zm7.52 0.0255c0.52623-0.60263 3.425 0.80748 0 0zm3.1192-0.3722c3.1833-2.6955 0.0519 2.9315 0 0zm-10.008-2.6507c0.25557-3.8958 2.8976 2.2946 0 0zm6.8443-1.27c0.28558-6.0709 3.8098 2.1255 0 0zm93.695-2.4136c-10.056-6.6542-19.769-13.862-28.306-22.502-7.5933-7.8316-14.775-16.14-22.314-23.961-5.8342-2.1108-15.289-10.032-14.39 0.88814-7.3453-0.6681-3.296 13.203-9.7858 7.2787-8.9024-0.48221-9.5298 16.045-15.315 17.981-6.3874-2.2492 1.6287-6.9617 1.9973-6.2998 2.2252-5.3856 7.2952-13.636 7.9186-17.684-4.8701 12.84-14.953-11.562-19.771 2.4054-3.7299 6.3722-13.592 14.52-10.175 21.585-12.235 4.1684 1.4329-8.4712 1.7711-14.556 5.8688-7.7161-12.58-13.231-12.917-20.273 3.9675 7.4196-6.0189-2.3341-2.1708-1.8276-4.4334-1.2778-13.545-13.952-5.232-8.3266-0.19337 2.9376 9.5911 8.6126 3.4577 0.72708-2.4848-3.6337-3.6771-4.9659-5.583-3.1909 0.0129-6.2992-14.457-11.356-5.9303-11.76-0.54262-1.0018-8.6394-3.1599-3.5511-3.7566-5.9863-4.1304-2.0307-2.3742 2.7941-4.7746 0.4082-6.0969-0.56185-8.7322 3.1243-1.8655 11.704 11.057 26.104 19.559 41.731 23.467-0.54128-5.8884 8.1913 0.69473 1.8187 0.34394 1.9707 1.7848 16.049 8.9425 10.298 3.333 3.9784 2.3986 19.227 8.984 7.6772 2.3386-4.1993-2.2818-22.75-13.871-9.1524-6.4624 11.035 6.0493 21.404 14.025 33.635 17.443-5.102-3.9416-16.572-9.9068-18.255-11.669 18.645 11.018 38.767 19.255 57.46 30.117 4.2498 1.2811-0.85551-2.1208 5.3598 0.65936-2.5405-10.471-13.758-16.594-18.455-26.188-6.2814-6.3678-9.8858-15.421-17.73-19.192-9.8026-4.3984-14.953 5.4027-24.911 0.78321-14.638-7.5845 9.343 5.6803 12.467-2.301-10.748-2.8647 12.379-0.72725-0.82475-4.0441-5.3558-1.607-23.136-12.398-9.0736-5.3609 4.3474 2.748 21.77 9.0869 9.1012 1.4968-8.7262-5.8755 8.6091 3.9127 11.452 4.854 7.9421 1.541 13.569 0.87085 16.77 9.9533 7.3039 8.6886 12.084 19.382 19.89 27.424 2.2289 3.1725 9.1031 10.386 1.4416 4.5894 3.2 5.7134 15.446 13.048 10.666 19.581 0.22103 3.4602 8.3739 7.2558-0.51676 3.493-6.7552-6.0212-14.157-7.6469-10.481 0.59493 3.7966 4.958-6.0763-1.6624-0.19653 6.0549 1.1262 2.821 15.008 11.433 4.2068 8.6033zm-21.811-22.244c-3.3575-6.3379-3.9451-1.7154 0 0zm-3.52-4.1628c-1.7551-3.7237-13.765-14.526-5.3172-5.082 1.7342 1.3636 3.3457 4.4582 5.3172 5.082zm15.152-22.387c-2.3791-3.9667-0.76248 2.2267 0 0zm-102.92-4.7111c-1.5743-8.7167-1.3214 4.3787 0 0zm-3.1112-1.6c-2.0757-4.3554-7.895-8.7854-2.4968-2.0055-0.48095 1.1452 2.047 2.6567 2.4968 2.0055zm7.0412 0.21036c-1.3451-6.7364-4.2178-5.8663-1.4031-0.58827l1.0449 0.71174zm-3.7507-4.3868c-1.0717-2.7167-4.2562-2.504-4.1006-6.6235 7.2655 5.3486-4.2427-11.509-7.5087-11.992-4.6742-5.9064-6.4322-2.4996-4.3038 2.0589 0.49472 5.3944-9.318-2.4631-1.6511 4.3107 3.8267 2.9221 11.366 9.8479 6.8137 0.59698 3.7425 2.8776 2.2786 9.5121 9.2355 12.469-0.21249 2.6056 3.0018 0.59914 1.5151-0.81928zm-13.529-0.34433c-0.87416-1.7308-1.4119 0.46214 0 0zm16.32-5.613c-1.1204-3.9997-1.5392 1.2518 0 0zm-22.771-12.706c-5.6908-3.3081 3.4344 3.9442 0 0zm44.851 75.259c0.60722-1.6113 0.99396 1.1605 0 0zm-0.39831-1.6744c-5.3345-0.1518-2.91-7.4436-8.0614-8.2558 3.4668-4.037 10.994 2.2552 8.5674 8.6102zm-42.482-1.0456c0.60722-1.6113 0.99396 1.1605 0 0zm2.88-0.75799c1.3796-2.2773 0.819 1.325 0 0zm2.242-2.3809c0.91847-9.3682 4.9175 0.90023 0 0zm-1.3886-0.29333c-0.67028-1.8726 1.8726 0.67028 0 0zm39.972-2.6667c-2.0241-12.382 4.5722 5.9201 0 0zm-35.705-2.0538c0.69521-0.73683 6.4418-10.833 4.483-4.9701 16.417 2.5222-4.1777 1.6046-4.483 4.9701zm20.72 0.0819c-2.0642-4.6126 7.4637 1.6214 0 0zm20.399-1.2303c1.2954-2.7046 1.4384 1.6925 0 0zm-15.16-1.8125c-1.0318-5.8176 8.8879 3.8669 0-3e-5zm-10.525 0.0548c1.4498-2.7048 0.85543 2.7195 0 0zm14.167-2.72c0.8202-1.1852 1.2302 1.1473 0 0zm67.2-22.387c-10.442-4.1436-19.545-11.016-28.85-17.19 12.033 4.6799 22.169 16.633 35.81 15.462 3.2077 0.7943-6.1404 3.4937-6.96 1.7282zm-9.9639-10.221c-4.1902-0.55545-16.17-9.3528-6.0412-3.2536 4.5591 4.2863 21.608 0.89303 7.7135 3.6675l-1.6723-0.41401zm-98.132-17.324c-4.4146-6.9492 4.0732 3.7036 0 0zm74.913-0.15439c-10.106-1.6551-20.388-9.3802-28.257-13.548 10.732 3.7733 20.447 13.386 32.377 11.808 5.7592-3.718 1.2128 2.4525-1.9758 1.8457zm-32.657-3.2173c-5.2842-3.0921 6.4408 1.7585 0 0zm40.187-1.5985c2.3499-3.7182 2.9954 0.0538 0 0zm-39.627-10.388c-3.6611-1.5918-13.151-6.7564-3.722-2.4113 2.83 0.94012 11.088 6.3555 3.722 2.4113zm58.629-1.7914c-9.4565-6.4207-15.006-16.224-23.269-23.876-5.4464-5.8117-12.906-12.905-15.838-19.443 12.747 12.907 25.663 25.815 37.805 39.384 3.369 1.762 7.2263 10.389 1.3025 3.9351zm-82.229-12.82c-1.7954-2.0008 3.6773 0.83729 0 0zm-45.698-16.308c-1.0278-3.7499 2.0109 3.1165 0 0zm4.4984-34.512c4.4244-3.5492 0.31013-6.7787-2.5232-4.9642 2.5585-1.6994 2.961-4.9464 1.0407-6.3704-2.6671 4.9086-1.1209 5.1472-4.3943 3.1978-0.33867-3.2777-6.8847-9.8504-13.599-9.3954-6.4828-1.6834-22.897-0.74482-23.704-4.3162 10.935 0.57833 21.693 1.9257 32.466 3.4623 6.064 3.7943 16.462 4.3864 11.372-5.2245 2.5798-4.2367-8.571-8.9854-10.263-12.709 5.7522 1.0715 9.2826-6.9473 16.106-5.1108 3.0117 4.278 5.3423-2.0225 4.4927 2.1721-0.09244 3.0003 5.8643-0.86884 8.1486 1.3205-6.2004 1.9686 9.3209 2.8974 0.19904 2.5476-10.7 0.67685 7.4975 1.2156-2.2744 2.74 4.6225 2.251 2.3729 9.3259-0.21534 14.507-4.712 4.9275-4.6728 11.537-5.0983 14.098-4.6093 2.8537-6.2901 5.2565-11.753 4.0455zm2.88-10.919c-2.0086-1.6844-0.89697 2.9946 0 0zm2.88-4.6008c-2.5838-0.08052 1.0614 1.5021 0 0zm-2.28-14.92c3.5676-3.4219-7.5463 1.1926 0 0zm11.066-6.4979c-0.49904-1.7956-1.5553 1.1361 0 0zm-16.146 29.159c0.9795-3.2212 2.1535 1.1092 0 0zm25.493-7.9545c-0.67028-1.8726 1.8726 0.6703 0 0zm2.1867-2.0267c-10.111-3.9367 1.9198-0.91521 0 0zm-1.8225-4.6491c-9.3016-2.8343 6.8387 0.41407 0 0zm-45.164-5.8042c-0.06742-2.4451 3.6747 1.5598 0 0zm46.85-0.70739c-3.7847-2.8448 3.8544 1.1879 0 0zm1.5763-1.6582c0.92167-0.60979 0.74678 1.0991 0 0zm-1.28-2.0511c0.74132-1.2121 1.2504 1.5512 0 0zm-4.624-1.156c3.9944-1.4059 3.4405 0.10651 0 0zm3.024-1.5741c3.1206-1.292 4.8267 1.4539 0 0zm2.56-1.2458c1.1871-1.9218 2.5127 1.4539 0 0zm-5.1107-1.3017c-0.22534-1.8859 4.3045 1.408 0 0z" fill="#35383f"/>
    </g>
   </g>
  </g>
 </g>
</svg>
