<?xml version="1.0" encoding="UTF-8" standalone="no"?>
<!-- Created with Inkscape (http://www.inkscape.org/) -->

<svg
   xmlns:dc="http://purl.org/dc/elements/1.1/"
   xmlns:cc="http://creativecommons.org/ns#"
   xmlns:rdf="http://www.w3.org/1999/02/22-rdf-syntax-ns#"
   xmlns:svg="http://www.w3.org/2000/svg"
   xmlns="http://www.w3.org/2000/svg"
   xmlns:sodipodi="http://sodipodi.sourceforge.net/DTD/sodipodi-0.dtd"
   xmlns:inkscape="http://www.inkscape.org/namespaces/inkscape"
   width="75.901917mm"
   height="25.995174mm"
   viewBox="0 0 75.901917 25.995174"
   version="1.1"
   id="svg4958"
   inkscape:version="0.92.1 r"
   sodipodi:docname="rook_asymmetric.svg">
  <defs
     id="defs4952" />
  <sodipodi:namedview
     id="base"
     pagecolor="#ffffff"
     bordercolor="#666666"
     borderopacity="1.0"
     inkscape:pageopacity="0.0"
     inkscape:pageshadow="2"
     inkscape:zoom="1.979899"
     inkscape:cx="226.79053"
     inkscape:cy="123.44045"
     inkscape:document-units="mm"
     inkscape:current-layer="layer1"
     showgrid="false"
     fit-margin-top="0"
     fit-margin-left="0"
     fit-margin-right="0"
     fit-margin-bottom="0"
     inkscape:window-width="1920"
     inkscape:window-height="1046"
     inkscape:window-x="0"
     inkscape:window-y="0"
     inkscape:window-maximized="1" />
  <metadata
     id="metadata4955">
    <rdf:RDF>
      <cc:Work
         rdf:about="">
        <dc:format>image/svg+xml</dc:format>
        <dc:type
           rdf:resource="http://purl.org/dc/dcmitype/StillImage" />
        <dc:title></dc:title>
      </cc:Work>
    </rdf:RDF>
  </metadata>
  <g
     inkscape:label="Layer 1"
     inkscape:groupmode="layer"
     id="layer1"
     transform="translate(-40.363039,-155.49845)">
    <path
       inkscape:connector-curvature="0"
       id="path4581"
       d="m 80.732901,181.29321 c -0.263631,-0.13398 -0.541563,-0.31858 -0.617622,-0.41023 -0.186386,-0.22458 -0.345972,-0.20968 -0.571159,0.0533 -0.158332,0.18492 -0.258988,0.20821 -0.632061,0.14624 -0.244057,-0.0405 -0.5628,-0.13168 -0.708321,-0.20253 -0.145521,-0.0709 -0.550333,-0.18877 -0.899583,-0.26205 -0.67682,-0.142 -0.892329,-0.24966 -1.341541,-0.67018 -0.155763,-0.14582 -0.554485,-0.35046 -0.88605,-0.45474 -0.374742,-0.11788 -0.732139,-0.32276 -0.944568,-0.54149 -0.187949,-0.19352 -0.432165,-0.35233 -0.5427,-0.35289 -0.451913,-0.002 -1.298487,-0.51058 -1.571916,-0.94372 -0.149672,-0.23709 -0.314124,-0.43108 -0.365445,-0.43108 -0.197948,0 -0.7507,-0.62575 -0.7507,-0.84984 0,-0.15151 0.31373,-0.5618 0.877941,-1.14816 1.777735,-1.84755 3.824205,-4.23597 3.719348,-4.34083 -0.03119,-0.0312 -0.265456,-0.10971 -0.520591,-0.17449 -0.408361,-0.10369 -0.63907,-0.0742 -0.8792,0.11233 -0.01672,0.013 0.02722,0.15014 0.09767,0.30476 0.183867,0.40355 0.02804,0.5021 -0.851731,0.53862 -0.414496,0.0172 -0.817171,0.084 -0.894834,0.14848 -0.203655,0.16901 -1.066734,0.26657 -1.28378,0.14511 -0.131572,-0.0736 -0.340857,-0.0435 -0.727474,0.1048 -0.43488,0.1668 -0.712846,0.19791 -1.398429,0.1565 -0.592619,-0.0358 -0.962374,-0.007 -1.202777,0.0943 -0.454578,0.19114 -1.056289,0.18477 -1.755797,-0.0186 -0.511939,-0.14882 -0.596363,-0.14882 -0.884158,0 -0.477861,0.24711 -0.940895,0.20219 -2.088094,-0.20257 -0.879674,-0.31037 -1.053915,-0.34308 -1.127459,-0.21167 -0.04784,0.0855 -0.178906,0.15544 -0.291253,0.15544 -0.297995,0 -1.073586,-0.31878 -1.326621,-0.54527 -0.264461,-0.23671 -0.434213,-0.2437 -0.926272,-0.0381 -0.334359,0.1397 -0.481369,0.13924 -1.30352,-0.004 -0.509661,-0.0889 -0.989282,-0.21357 -1.065826,-0.27709 -0.07805,-0.0648 -0.324623,-0.0906 -0.561488,-0.0588 -0.37845,0.0508 -0.422818,0.0329 -0.427096,-0.17141 -0.0026,-0.12544 -0.06883,-0.37093 -0.147119,-0.54556 l -0.142346,-0.3175 -0.07845,0.45214 c -0.04315,0.24867 -0.117374,0.47619 -0.164951,0.5056 -0.107935,0.0667 -1.058191,-0.15976 -1.228786,-0.29284 -0.0693,-0.0541 -0.140743,-0.22326 -0.15875,-0.37598 -0.03113,-0.26402 -0.0839,-0.28667 -1.074132,-0.46083 -1.389152,-0.24432 -1.33986,-0.21573 -1.33986,-0.77726 0,-0.44976 -0.0181,-0.48031 -0.291042,-0.49136 -1.08254,-0.0438 -2.916192,-0.29552 -3.034138,-0.41651 -0.08267,-0.0848 -0.0043,-0.21046 0.282477,-0.45307 0.343702,-0.29074 0.396877,-0.39599 0.396875,-0.78551 -3e-6,-0.24739 -0.02885,-0.44979 -0.0641,-0.44979 -0.03526,0 -0.205301,0.11881 -0.377883,0.26403 -0.299945,0.25239 -0.36363,0.26219 -1.444027,0.22234 -1.439376,-0.0531 -2.453162,-0.17269 -2.453162,-0.2894 0,-0.0501 0.03572,-0.092 0.07938,-0.0931 0.04366,-10e-4 0.555625,-0.0697 1.137709,-0.15251 2.216247,-0.31534 6.471125,-1.46604 6.445252,-1.7431 -0.0058,-0.0623 -0.01773,-0.15517 -0.02646,-0.20632 -0.03455,-0.20239 -0.699064,-0.36618 -1.326153,-0.32686 -3.98205,0.24965 -8.771339,-0.46916 -10.531049,-1.58057 -0.422124,-0.26661 -0.106656,-0.24279 1.180706,0.0891 2.444544,0.6303 6.109788,0.98472 6.109788,0.59081 0,-0.20866 -0.370594,-0.43486 -0.9525,-0.58138 -1.567337,-0.39464 -3.467508,-1.36562 -4.576565,-2.3386 -0.782219,-0.68625 -1.071022,-1.1723 -0.334528,-0.56302 0.723842,0.59883 1.669595,1.2218 2.459429,1.62004 1.40467,0.70825 4.205557,1.42339 4.647793,1.18672 0.157599,-0.0844 0.388551,-0.0849 0.836416,-0.002 0.340289,0.0631 0.829802,0.091 1.087813,0.062 0.258011,-0.0289 0.710449,0.009 1.005417,0.0849 1.1342,0.29089 2.520683,0.39764 4.187558,0.32241 1.122476,-0.0507 1.690542,-0.11843 1.799166,-0.21465 0.119491,-0.10583 0.865418,-0.15666 3.01625,-0.20551 1.571625,-0.0357 3.14325,-0.0535 3.4925,-0.0396 0.34925,0.0139 2.373313,0.0239 4.497917,0.0222 3.792019,-0.003 3.875196,-0.008 4.531897,-0.25216 0.450099,-0.16753 0.747866,-0.356 0.910082,-0.57604 0.293593,-0.39823 0.590521,-1.14195 0.590521,-1.47907 0,-0.29388 0.374701,-0.80588 0.589767,-0.80588 0.08309,0 0.151069,0.0953 0.151069,0.21166 0,0.28219 0.122965,0.26681 0.423334,-0.0529 0.326363,-0.3474 0.452331,-0.33436 0.877533,0.0908 0.195484,0.19548 0.399478,0.37408 0.453321,0.39687 0.05384,0.0228 0.231968,0.22094 0.395835,0.44031 0.344503,0.4612 0.495811,0.43144 0.495811,-0.0975 0,-0.2908 -0.04939,-0.38699 -0.221864,-0.4321 -0.173471,-0.0454 -0.624803,-0.79104 -0.624803,-1.03228 0,-0.14635 0.555109,0.15601 0.899583,0.49 0.764204,0.74094 1.68511,1.46455 2.159074,1.69651 0.385406,0.18861 0.629682,0.22431 1.416201,0.20696 0.760632,-0.0168 0.989529,0.0144 1.146059,0.15603 0.183203,0.1658 0.334878,0.15856 2.393796,-0.11425 1.209011,-0.1602 2.769704,-0.40839 3.468204,-0.55153 0.6985,-0.14314 1.484312,-0.30098 1.74625,-0.35075 0.888097,-0.16874 3.485594,-0.32898 6.11351,-0.37713 3.008286,-0.0551 4.258041,-0.16079 5.560491,-0.47012 0.50902,-0.12089 0.96959,-0.19255 1.0235,-0.15923 0.0539,0.0333 0.57216,-0.0361 1.15167,-0.15415 0.57952,-0.1181 1.22875,-0.21472 1.44275,-0.21472 1.01639,0 3.94427,-1.05334 5.43819,-1.95646 0.46802,-0.28293 1.15062,-0.74477 1.51688,-1.02631 1.21484,-0.93384 1.30694,-0.97175 0.61302,-0.25232 -1.23185,1.27713 -2.69166,2.15159 -4.76904,2.85676 -0.59015,0.20033 -1.09791,0.38916 -1.12839,0.41963 -0.0305,0.0305 -0.0275,0.12807 0.007,0.21688 0.0739,0.19261 0.22082,0.17301 2.07989,-0.27755 0.72707,-0.17622 1.75133,-0.47581 2.2761,-0.66578 1.11432,-0.40336 2.95016,-1.30545 3.56889,-1.75366 0.23754,-0.17207 0.48429,-0.31146 0.54832,-0.30976 0.16317,0.004 -0.54396,0.6319 -0.71202,0.6319 -0.0755,0 -0.23659,0.13445 -0.35806,0.29877 -0.52975,0.71653 -2.94386,1.81811 -5.50746,2.51313 -0.50157,0.13598 -0.66146,0.22561 -0.66146,0.3708 0,0.10531 0.046,0.21989 0.10215,0.25461 0.1872,0.1157 2.36276,-0.15938 4.19635,-0.53059 0.99629,-0.20169 1.87627,-0.36672 1.95551,-0.36672 0.0889,0 0.0436,0.0977 -0.11809,0.25489 -0.26733,0.25992 -0.99269,0.50536 -2.908,0.984 -0.58209,0.14546 -1.3067,0.33188 -1.61026,0.41425 -0.57814,0.1569 -1.2024,0.59608 -1.05592,0.74288 0.047,0.0471 0.88048,0.095 1.85208,0.10646 2.20858,0.0259 2.09407,0.0183 1.97297,0.13137 -0.19455,0.1816 -2.04629,0.65714 -3.08028,0.79104 -0.71628,0.0928 -1.24513,0.23063 -1.67881,0.43767 -0.5398,0.25769 -0.59412,0.30784 -0.36853,0.34023 0.56168,0.0807 1.17586,0.36784 1.14337,0.53462 -0.0365,0.18726 -1.64088,0.76592 -2.12359,0.76592 -0.32472,0 -1.24227,0.20787 -1.24227,0.28143 0,0.0246 0.10443,0.18592 0.23209,0.35858 0.15571,0.2106 0.19706,0.349 0.12563,0.42044 -0.13907,0.13906 -1.45622,0.41657 -1.99814,0.421 -0.51919,0.004 -0.65584,0.0849 -0.70371,0.41517 -0.0304,0.20967 -0.16209,0.29982 -0.72505,0.49631 -0.37835,0.13206 -0.86926,0.26948 -1.09091,0.30537 -0.22165,0.0359 -0.48359,0.16158 -0.58209,0.27931 -0.25942,0.31009 -0.73952,0.53602 -0.97812,0.46029 -0.11836,-0.0376 -0.20638,-0.0164 -0.20638,0.0497 0,0.27391 -0.494642,0.35084 -1.056315,0.16429 l -0.54869,-0.18225 -0.282287,0.27032 c -0.460438,0.44092 -1.248661,0.73913 -1.766191,0.66819 -0.349846,-0.048 -0.602869,0.006 -1.174343,0.24957 -0.515673,0.21994 -0.90501,0.31152 -1.333045,0.31355 -0.348615,0.002 -0.831998,0.0925 -1.141624,0.21453 -0.596905,0.23528 -1.123484,0.26587 -1.720845,0.1 -0.319373,-0.0887 -0.444151,-0.0781 -0.632089,0.0535 -0.242422,0.1698 -0.981123,0.20369 -1.457066,0.0668 -0.154832,-0.0445 -0.407633,-0.0174 -0.609433,0.0653 -0.189667,0.0777 -0.459076,0.11266 -0.598686,0.0776 -0.139608,-0.035 -0.350401,-0.012 -0.468429,0.0511 -0.148252,0.0793 -0.30172,0.0817 -0.496422,0.008 -0.193463,-0.0735 -0.415777,-0.0711 -0.709057,0.008 -0.652526,0.17571 -0.908703,0.0695 -0.948068,-0.39318 -0.04627,-0.54374 -0.303541,-0.67944 -0.713499,-0.37634 -0.175475,0.12973 -0.498666,0.27319 -0.718207,0.31881 -0.223202,0.0464 -0.412752,0.15349 -0.42999,0.24299 -0.01799,0.0934 0.620686,0.75893 1.534023,1.59847 1.974188,1.81465 2.660882,2.38842 4.078443,3.40777 0.625769,0.44998 1.189411,0.91466 1.25254,1.03262 0.158758,0.29664 0.03813,0.68813 -0.275314,0.89351 -0.154586,0.10128 -0.262901,0.27314 -0.262901,0.41711 0,0.28546 -0.160245,0.46518 -0.71157,0.79805 -0.219824,0.13272 -0.518743,0.37004 -0.664263,0.52738 -0.145521,0.15733 -0.478896,0.36653 -0.740834,0.46488 -0.261937,0.0983 -0.619125,0.31411 -0.79375,0.47946 -0.38323,0.36286 -1.112181,0.57403 -1.67237,0.48445 -0.357592,-0.0572 -0.452324,-0.0256 -0.725945,0.2419 -0.277752,0.27155 -0.434965,0.32197 -1.339438,0.42954 -1.757965,0.20909 -1.744604,0.20938 -2.252667,-0.0488 z m 2.49792,-11.90102 c 0.03597,-0.0582 0.01498,-0.10584 -0.04667,-0.10584 -0.06164,0 -0.112078,0.0476 -0.112078,0.10584 0,0.0582 0.02101,0.10583 0.04667,0.10583 0.02566,0 0.0761,-0.0476 0.11208,-0.10583 z m 32.384999,-9.8425 c 0.11642,-0.05 0.28311,-0.0936 0.37042,-0.0968 0.1411,-0.005 0.1411,0.006 0,0.0968 -0.0873,0.0564 -0.254,0.1 -0.37042,0.0968 l -0.21166,-0.006 0.21166,-0.091 z"
       style="fill:#1d1a18;stroke-width:0.10583334" />
  </g>
</svg>
