<?xml version="1.0" encoding="UTF-8" standalone="no"?>
<!-- Created with Inkscape (http://www.inkscape.org/) -->

<svg
   xmlns:dc="http://purl.org/dc/elements/1.1/"
   xmlns:cc="http://creativecommons.org/ns#"
   xmlns:rdf="http://www.w3.org/1999/02/22-rdf-syntax-ns#"
   xmlns:svg="http://www.w3.org/2000/svg"
   xmlns="http://www.w3.org/2000/svg"
   xmlns:sodipodi="http://sodipodi.sourceforge.net/DTD/sodipodi-0.dtd"
   xmlns:inkscape="http://www.inkscape.org/namespaces/inkscape"
   version="1.1"
   id="svg2"
   width="281.51227"
   height="105.41826"
   viewBox="0 0 281.51227 105.41826"
   sodipodi:docname="rook_rightsymmetric.svg"
   inkscape:version="0.92.1 r">
  <metadata
     id="metadata8">
    <rdf:RDF>
      <cc:Work
         rdf:about="">
        <dc:format>image/svg+xml</dc:format>
        <dc:type
           rdf:resource="http://purl.org/dc/dcmitype/StillImage" />
        <dc:title></dc:title>
      </cc:Work>
    </rdf:RDF>
  </metadata>
  <defs
     id="defs6" />
  <sodipodi:namedview
     pagecolor="#ffffff"
     bordercolor="#666666"
     borderopacity="1"
     objecttolerance="10"
     gridtolerance="10"
     guidetolerance="10"
     inkscape:pageopacity="0"
     inkscape:pageshadow="2"
     inkscape:window-width="1920"
     inkscape:window-height="1046"
     id="namedview4"
     showgrid="false"
     fit-margin-top="0"
     fit-margin-left="0"
     fit-margin-right="0"
     fit-margin-bottom="0"
     inkscape:zoom="2.4930749"
     inkscape:cx="172.08729"
     inkscape:cy="106.69426"
     inkscape:window-x="0"
     inkscape:window-y="0"
     inkscape:window-maximized="1"
     inkscape:current-layer="svg2" />
  <path
     inkscape:connector-curvature="0"
     id="path4493"
     d="m 128.14586,104.99751 c -2.98894,-0.46737 -3.48314,-0.66097 -4.8693,-1.90759 -0.61395,-0.55215 -1.21793,-0.72474 -2,-0.57153 -1.91849,0.37585 -4.89525,-0.49914 -6.46702,-1.90092 -0.79937,-0.71292 -2.31515,-1.62054 -3.36839,-2.01693 -1.05324,-0.39639 -2.33078,-1.21486 -2.83898,-1.81882 -0.5082,-0.60396 -1.50103,-1.3965 -2.20629,-1.76121 -1.847,-0.95512 -2.83974,-2.07607 -2.83974,-3.20648 0,-0.57483 -0.33184,-1.16352 -0.79586,-1.41185 -0.43773,-0.23427 -1.05398,-0.92508 -1.36945,-1.53514 -0.95714,-1.8509 0.0362,-3.17376 5.09902,-6.79089 7.05995,-5.04393 21.33385,-17.71965 20.84482,-18.51093 -0.12416,-0.20089 -0.73085,-0.36526 -1.3482,-0.36526 -0.61735,0 -1.59686,-0.37317 -2.17669,-0.82927 -1.32539,-1.04255 -2.49968,-0.87963 -2.33116,0.32342 0.0674,0.48093 -0.0732,1.24009 -0.3124,1.68702 -0.4117,0.76927 -0.72338,0.80333 -5.84624,0.63889 -2.97625,-0.0955 -6.0216,-0.3751 -6.76744,-0.62125 -0.9007,-0.29725 -1.80852,-0.32262 -2.70339,-0.0755 -1.31265,0.36244 -4.14995,0.0975 -5.62683,-0.52533 -0.4036,-0.17022 -1.66639,-0.0858 -2.8062,0.18766 -1.914063,0.45918 -2.314467,0.41589 -5.241455,-0.56666 -2.226872,-0.74754 -3.595536,-0.99178 -4.603464,-0.82149 -1.076984,0.18196 -2.179488,-0.0613 -4.424728,-0.97619 -2.05582,-0.83772 -3.677864,-1.2217 -5.190336,-1.22868 -2.355252,-0.0109 -5.170064,-1.05088 -6.679572,-2.46795 -0.664644,-0.62393 -1.15336,-0.75661 -2,-0.54295 -2.895051,0.73059 -3.935987,0.667 -6.320427,-0.38609 -1.32,-0.58298 -2.85,-1.47369 -3.4,-1.97933 -0.55,-0.50566 -1.72,-1.03991 -2.6,-1.18723 -0.88,-0.14732 -2.732964,-0.63645 -4.1177,-1.08695 -2.1724,-0.70675 -2.548696,-0.97406 -2.743696,-1.94906 -0.203712,-1.01856 -0.428748,-1.15533 -2.2823,-1.38716 -4.149856,-0.51904 -6.729572,-1.13696 -7.562516,-1.81144 -0.830199,-0.67225 -0.834063,-0.72076 -0.141676,-1.77747 0.391496,-0.5975 0.628836,-1.16934 0.52742,-1.27075 -0.101412,-0.10142 -1.395627,-0.37296 -2.876031,-0.60344 -1.480404,-0.23048 -4.139513,-0.94188 -5.909133,-1.5809 C 30.080886,41.72284 28.570718,41.2 28.494577,41.2 c -0.07614,0 -0.138438,-0.37012 -0.138438,-0.82249 0,-0.59018 0.508409,-1.04739 1.8,-1.61872 0.99,-0.43793 1.8,-0.87318 1.8,-0.96723 0,-0.57781 -2.834933,-1.43302 -5.902098,-1.78047 -3.50417,-0.39696 -10.656666,-2.22569 -12.441888,-3.18111 -2.079366,-1.11285 -0.711373,-1.42816 6.676972,-1.539 3.996858,-0.06 7.267014,-0.25662 7.267014,-0.43702 0,-0.64627 -2.664837,-1.67547 -6.4,-2.47178 C 16.116511,27.30776 7.379549,24.55116 6.799796,23.8526 6.545917,23.5467 5.847235,23.1917 5.247169,23.06373 3.470701,22.68486 1.376322,21.21982 1.884584,20.71156 c 0.313668,-0.31367 1.52975,-0.14315 4.353403,0.61045 10.876993,2.90292 23.718152,4.79428 23.718152,3.49341 0,-0.21152 -0.765,-0.57761 -1.7,-0.81352 C 19.34625,21.75377 10.004425,17.59305 6.55614,14.337 5.89614,13.71379 4.116432,12.06214 2.601234,10.66666 1.086036,9.27119 -0.08246603,7.91582 0.00456297,7.65473 0.09928297,7.37058 2.007943,8.41267 4.759469,10.25081 c 7.652341,5.11211 14.917778,8.20274 24.39667,10.37808 6.742604,1.54737 7.610392,1.1481 1.660082,-0.76381 C 23.731707,17.58874 17.315636,13.73191 12.345947,8.76222 9.19502,5.61129 5.55614,0.96556 5.55614,0.09373 c 0,-0.32284 2.149809,1.4857 4.777354,4.01897 7.193956,6.93583 13.553849,10.85829 22.812717,14.06973 4.75452,1.6491 7.637483,1.86008 4.25908,0.31169 C 36.332325,18.00235 35.262001,17.6 35.026791,17.6 c -0.235208,0 -1.067327,-0.42298 -1.849152,-0.93995 -0.781825,-0.51697 -2.3215,-1.5106 -3.4215,-2.20806 C 26.994315,12.70084 22.018543,7.70697 20.47308,5.13515 19.16084,2.95144 17.807641,0 18.118678,0 c 0.0953,0 1.113891,1.305 2.263532,2.9 4.395647,6.09848 12.663157,13.10529 18.509941,15.68739 3.197211,1.41198 8.036959,2.61184 10.568451,2.62011 1.262544,0.004 3.981096,0.45023 6.04122,0.99135 3.86642,1.01557 16.854863,2.14368 19.163643,1.66446 1.02258,-0.21225 3.650316,-0.0744 18.090672,0.9487 3.19,0.22602 7.330003,0.76044 9.200003,1.1876 3.564,0.81413 7.48676,1.44641 17.31617,2.79106 6.46199,0.884 8.68383,0.99999 8.68383,0.45334 0,-0.19579 0.98409,-1.35593 2.18688,-2.57808 1.20278,-1.22216 2.29383,-2.72697 2.42454,-3.34402 0.43506,-2.05364 1.26658,-3.1126 3.23667,-4.12191 1.64686,-0.84372 2.5037,-1 5.48264,-1 h 3.53074 l 1.26926,1.44368 c 2.3164,2.6347 7.07572,8.70771 7.31714,9.33686 0.31521,0.82142 1.65371,0.79266 8.83595,-0.18987 9.82941,-1.34465 13.75217,-1.97693 17.31617,-2.79106 1.87,-0.42716 6.01,-0.96158 9.2,-1.1876 14.44036,-1.02315 17.06809,-1.16095 18.09067,-0.9487 2.30878,0.47922 15.29723,-0.64889 19.16365,-1.66446 2.06012,-0.54112 4.77867,-0.98723 6.04122,-0.99135 2.53149,-0.008 7.37124,-1.20813 10.56845,-2.62011 C 248.4669,16.00529 256.73441,8.99848 261.13006,2.9 262.2797,1.305 263.29829,0 263.39359,0 c 0.31104,0 -1.04216,2.95144 -2.3544,5.13515 -1.54546,2.57182 -6.52123,7.5657 -9.28306,9.31684 -1.1,0.69746 -2.63967,1.69109 -3.4215,2.20806 -0.78182,0.51697 -1.61394,0.93995 -1.84915,0.93995 -0.23521,0 -1.30554,0.40235 -2.3785,0.89412 -3.3784,1.54839 -0.49544,1.33741 4.25908,-0.31169 9.25887,-3.21144 15.61876,-7.1339 22.81271,-14.06973 2.62755,-2.53327 4.77736,-4.34181 4.77736,-4.01897 0,0.87183 -3.63888,5.51756 -6.78981,8.66849 -4.96969,4.96969 -11.38576,8.82652 -18.47027,11.10286 -5.95031,1.91191 -5.08252,2.31118 1.66008,0.76381 9.47889,-2.17534 16.74433,-5.26597 24.39667,-10.37808 2.75153,-1.83814 4.66019,-2.88023 4.75491,-2.59608 0.087,0.26109 -1.08148,1.61646 -2.59668,3.01193 -1.51519,1.39548 -3.2949,3.04713 -3.9549,3.67034 -3.44828,3.25605 -12.79011,7.41677 -21.7,9.6649 -0.935,0.23591 -1.7,0.602 -1.7,0.81352 0,1.30087 12.84116,-0.59049 23.71815,-3.49341 2.82365,-0.7536 4.03974,-0.92412 4.35341,-0.61045 0.50826,0.50826 -1.58612,1.9733 -3.36259,2.35217 -0.60007,0.12797 -1.29875,0.48297 -1.55263,0.78887 -0.57975,0.69856 -9.31671,3.45516 -14.35634,4.52958 -3.73516,0.79631 -6.4,1.82551 -6.4,2.47178 0,0.1804 3.27016,0.37705 7.26702,0.43702 7.38834,0.11084 8.75633,0.42615 6.67697,1.539 -1.78523,0.95542 -8.93772,2.78415 -12.44189,3.18111 -3.06717,0.34745 -5.9021,1.20266 -5.9021,1.78047 0,0.094 0.81,0.5293 1.8,0.96723 1.29159,0.57133 1.8,1.02854 1.8,1.61872 0,0.45237 -0.0623,0.82249 -0.13844,0.82249 -0.0761,0 -1.58631,0.52284 -3.35593,1.16186 -1.76962,0.63902 -4.42872,1.35042 -5.90913,1.5809 -1.4804,0.23048 -2.77462,0.50202 -2.87603,0.60344 -0.10142,0.10141 0.13592,0.67325 0.52742,1.27075 0.69239,1.05672 0.68852,1.10522 -0.14168,1.77748 -0.83294,0.67448 -3.41266,1.29239 -7.56251,1.81143 -1.85355,0.23183 -2.07859,0.36861 -2.2823,1.38716 -0.195,0.975 -0.5713,1.24231 -2.7437,1.94906 -1.38473,0.4505 -3.2377,0.93963 -4.1177,1.08695 -0.88,0.14733 -2.05,0.68158 -2.6,1.18723 -0.55,0.50565 -2.08,1.39635 -3.4,1.97933 -2.38444,1.0531 -3.42537,1.11668 -6.32043,0.38609 -0.84664,-0.21366 -1.33535,-0.081 -2,0.54296 -1.5095,1.41706 -4.32432,2.45707 -6.67957,2.46795 -1.51247,0.007 -3.13451,0.39096 -5.19033,1.22868 -2.24524,0.91491 -3.34775,1.15814 -4.42473,0.97619 -1.00793,-0.17029 -2.37659,0.074 -4.60346,0.82148 -2.92699,0.98256 -3.3274,1.02585 -5.24146,0.56667 -1.13981,-0.27343 -2.4026,-0.35789 -2.8062,-0.18767 -1.47688,0.62288 -4.31418,0.88778 -5.62683,0.52534 -0.89487,-0.24709 -1.80269,-0.22172 -2.70339,0.0755 -0.74584,0.24615 -3.79119,0.52571 -6.76744,0.62124 -5.12286,0.16444 -5.43454,0.13038 -5.84624,-0.63889 -0.23918,-0.44692 -0.37976,-1.20608 -0.3124,-1.68702 0.16852,-1.20305 -1.00577,-1.36597 -2.33116,-0.32342 -0.57983,0.4561 -1.55934,0.82927 -2.17669,0.82927 -0.61735,0 -1.22404,0.16437 -1.3482,0.36527 -0.48903,0.79127 13.78487,13.467 20.84482,18.51093 5.06287,3.61712 6.05616,4.93999 5.09902,6.79089 -0.31547,0.61006 -0.93172,1.30087 -1.36945,1.53513 -0.46402,0.24834 -0.79586,0.83702 -0.79586,1.41186 0,1.13041 -0.99274,2.25135 -2.83974,3.20647 -0.70526,0.36471 -1.69809,1.15725 -2.20629,1.76121 -0.5082,0.60396 -1.78574,1.42243 -2.83898,1.81882 -1.05324,0.39639 -2.56902,1.30401 -3.36839,2.01693 -1.57177,1.40178 -4.54853,2.27677 -6.46702,1.90092 -0.78643,-0.15407 -1.38263,0.0192 -2,0.58105 -1.73934,1.58307 -3.85702,2.07826 -9.83837,2.30059 -3.11823,0.1159 -4.64665,-0.30233 -6.53561,-1.78836 l -1.0944,-0.86097 -1.30559,0.96548 c -0.71808,0.53101 -1.6656,1.11026 -2.1056,1.28723 -1.21707,0.4895 -6.0619,0.4864 -9.21028,-0.006 z m 14.29027,-85.47755 c -0.25666,-0.25667 -0.59945,-0.33388 -0.76174,-0.17158 -0.1623,0.16229 -0.0355,0.4555 0.28174,0.65158 0.74704,0.46169 1.08437,0.12436 0.48,-0.48 z"
     style="fill:#66758b;stroke-width:0.40000001" />
  <path
     inkscape:connector-curvature="0"
     id="path4489"
     d="m 130.55614,104.19899 c -0.22,-0.0758 -1.4449,-0.25578 -2.722,-0.39995 -1.77064,-0.1999 -2.6408,-0.54206 -3.66463,-1.44099 -1.16863,-1.02608 -1.54958,-1.14577 -2.93944,-0.92352 -1.92599,0.30798 -5.42093,-0.73813 -6.20477,-1.85721 -0.2922,-0.41717 -1.59729,-1.24626 -2.90022,-1.84242 -1.30292,-0.59616 -2.69984,-1.50401 -3.10426,-2.01743 -0.40443,-0.51342 -1.269,-1.20947 -1.92128,-1.54677 -1.72588,-0.8925 -2.7434,-2.04061 -2.7434,-3.09552 0,-0.5637 -0.46853,-1.27117 -1.2,-1.81197 -2.20942,-1.63349 -1.57282,-2.6972 4,-6.68378 2.09,-1.49511 5.30036,-3.96891 7.13414,-5.49735 4.6105,-3.8428 13.58752,-12.18833 14.05975,-13.07072 0.49864,-0.9317 -0.0988,-1.42434 -2.10011,-1.73176 -0.82843,-0.12725 -1.9777,-0.60222 -2.55395,-1.0555 -1.77523,-1.3964 -2.92119,-0.89945 -3.30729,1.4342 -0.24271,1.467 -0.32232,1.53739 -1.6438,1.45346 -0.76381,-0.0485 -2.46874,-0.14066 -3.78874,-0.20476 -1.32,-0.0641 -2.62128,-0.25773 -2.89174,-0.43029 -0.27045,-0.17256 -0.83917,-0.1278 -1.26381,0.0995 -0.56185,0.30069 -1.15794,0.25198 -2.18914,-0.17888 -1.08385,-0.45286 -1.6802,-0.49175 -2.53618,-0.16537 -1.21833,0.46453 -4.40926,0.14822 -5.21775,-0.51723 -0.34196,-0.28146 -1.05742,-0.26969 -2.27713,0.0374 -2.530561,0.6372 -3.921201,0.55975 -6.319961,-0.35197 -1.220856,-0.46402 -3.073228,-0.79988 -4.41224,-0.8 -1.5982,-1.4e-4 -3.074312,-0.32497 -4.8,-1.05627 -1.67986,-0.71188 -3.274244,-1.07053 -4.892052,-1.10044 -2.610612,-0.0483 -5.338148,-1.18729 -6.620588,-2.76474 -0.708248,-0.87118 -0.731512,-0.87272 -2.700592,-0.17875 -2.643987,0.93183 -3.211387,0.88564 -3.754151,-0.3056 -0.388548,-0.85277 -0.647656,-0.97006 -1.70484,-0.77173 -1.00272,0.18811 -1.510856,0.003 -2.59686,-0.94498 -0.852724,-0.74451 -2.174192,-1.35467 -3.586584,-1.65602 -3.850496,-0.82155 -5.545728,-1.6684 -5.790584,-2.89267 -0.172824,-0.86412 -0.487368,-1.12565 -1.531644,-1.27349 -4.723432,-0.66873 -7.712436,-1.15671 -8.1769,-1.33494 -0.712388,-0.27337 -0.682156,-1.10236 0.06274,-1.72057 1.164908,-0.96679 0.7092,-1.87753 -1.177128,-2.35252 -0.977415,-0.24611 -2.325823,-0.44748 -2.996455,-0.44748 -1.22722,0 -7.128071,-1.83663 -7.772373,-2.41914 -0.565892,-0.51162 1.976862,-1.58086 3.75943,-1.58086 4.306803,0 -1.421947,-3.04196 -7.143861,-3.79338 -4.941405,-0.64892 -10.742406,-2.18766 -10.006295,-2.65421 0.295178,-0.18709 3.236687,-0.34567 6.536687,-0.35241 5.166907,-0.0105 7.690695,-0.33903 6.988416,-0.90957 C 27.612583,29.19586 26.37268,28.65249 21.89541,27.56301 15.208387,25.9358 7.95614,23.65866 7.95614,23.1862 c 0,-0.49543 -0.181808,-0.51445 3.684509,0.38545 7.738848,1.80125 17.913083,3.07182 19.177815,2.39495 0.405721,-0.21713 0.737675,-0.74327 0.737675,-1.1692 0,-0.61682 -0.590164,-0.94672 -2.9,-1.62111 -6.046892,-1.76549 -9.406042,-2.94148 -12.621431,-4.41861 -3.870589,-1.77811 -8.223027,-4.3466 -7.904806,-4.66482 0.121372,-0.12137 2.156928,0.69033 4.523457,1.80378 5.078827,2.38958 8.962757,3.72522 15.492745,5.32778 6.502533,1.59583 9.247135,1.50714 7.78747,-0.25165 -0.765539,-0.92242 -0.327535,-0.98829 2.193689,-0.32991 1.285388,0.33567 3.437723,0.66842 4.782971,0.73947 1.345248,0.071 3.705904,0.41594 5.245904,0.76645 1.54,0.35051 3.553284,0.64041 4.47396,0.64423 0.92068,0.004 2.154572,0.18968 2.741988,0.41301 2.68212,1.01974 8.878668,1.58407 19.184051,1.7471 14.7405,0.2332 22.423583,0.84529 28.800003,2.2944 2.86,0.64997 7.09,1.42912 9.4,1.73144 2.31,0.30232 6.45,0.84499 9.2,1.20593 5.40982,0.71003 9.2,1.63101 9.2,2.23551 0,0.20876 0.6432,0.37956 1.42932,0.37956 2.1217,0 1.6639,-1.17067 -0.92932,-2.37643 -1.155,-0.53703 -2.1,-1.08809 -2.1,-1.22457 0,-0.13648 0.33041,-0.60281 0.73425,-1.03628 1.61321,-1.73158 3.26575,-4.32936 3.26575,-5.13373 0,-1.08497 1.07047,-2.62899 1.82268,-2.62899 0.31752,0 0.57732,0.27633 0.57732,0.61407 0,0.77285 1.16746,2.58593 1.6651,2.58593 0.2052,0 0.82665,-0.48939 1.38099,-1.08754 l 1.00789,-1.08753 1.61009,1.78753 c 0.88556,0.98315 1.95706,2.46254 2.38114,3.28754 0.42407,0.825 0.92534,1.5 1.11394,1.5 0.53652,0 1.26744,-1.04073 1.59736,-2.27443 0.32662,-1.22133 1.64348,-1.81614 1.64348,-0.74235 0,0.35304 0.315,0.75262 0.7,0.88797 1.09248,0.38406 2.9,2.20855 2.9,2.92722 0,0.39195 -0.83124,1.03524 -2.1,1.62516 -2.59322,1.20576 -3.05102,2.37643 -0.92932,2.37643 0.78612,0 1.42932,-0.1708 1.42932,-0.37956 0,-0.6045 3.79018,-1.52548 9.2,-2.23551 2.75,-0.36094 6.89,-0.90361 9.2,-1.20593 2.31,-0.30232 6.54,-1.08147 9.4,-1.73144 6.37642,-1.44911 14.0595,-2.0612 28.8,-2.2944 10.30539,-0.16303 16.50193,-0.72736 19.18405,-1.7471 0.58742,-0.22333 1.82131,-0.40919 2.74199,-0.41301 0.92068,-0.004 2.93396,-0.29372 4.47396,-0.64423 1.54,-0.35051 3.90066,-0.69541 5.24591,-0.76645 1.34524,-0.071 3.49758,-0.4038 4.78297,-0.73947 2.52122,-0.65838 2.95923,-0.59251 2.19369,0.32991 -1.45967,1.75879 1.28493,1.84748 7.78747,0.25165 6.52998,-1.60256 10.41391,-2.9382 15.49274,-5.32778 2.36653,-1.11345 4.40208,-1.92515 4.52346,-1.80378 0.31822,0.31822 -4.03422,2.88671 -7.90481,4.66482 -3.21539,1.47713 -6.57454,2.65312 -12.62143,4.41861 -2.30983,0.67439 -2.9,1.00429 -2.9,1.62111 0,0.42593 0.33195,0.95207 0.73768,1.1692 1.26473,0.67687 11.43896,-0.5937 19.17781,-2.39495 3.86632,-0.8999 3.68451,-0.88088 3.68451,-0.38545 0,0.47246 -7.25225,2.7496 -13.93927,4.37681 -4.47727,1.08948 -5.71717,1.63285 -8.04914,3.52738 -0.70228,0.57054 1.8215,0.89902 6.98841,0.90957 3.3,0.007 6.24151,0.16532 6.53669,0.35241 0.73611,0.46655 -5.06489,2.00529 -10.0063,2.65421 -5.72191,0.75142 -11.45066,3.79338 -7.14386,3.79338 1.78257,0 4.32532,1.06924 3.75943,1.58086 -0.6443,0.58251 -6.54515,2.41914 -7.77237,2.41914 -0.67063,0 -2.01904,0.20137 -2.99646,0.44748 -1.88633,0.47499 -2.34204,1.38573 -1.17713,2.35252 0.7449,0.61821 0.77513,1.4472 0.0627,1.72057 -0.46447,0.17823 -3.45347,0.66621 -8.1769,1.33494 -1.04428,0.14784 -1.35882,0.40937 -1.53165,1.27349 -0.24485,1.22427 -1.94009,2.07112 -5.79058,2.89267 -1.41239,0.30135 -2.73386,0.91151 -3.58659,1.65602 -1.086,0.94819 -1.59414,1.13309 -2.59686,0.94498 -1.05718,-0.19833 -1.31629,-0.081 -1.70484,0.77173 -0.54276,1.19124 -1.11016,1.23743 -3.75415,0.3056 -1.96908,-0.69397 -1.99234,-0.69243 -2.70059,0.17875 -1.28244,1.57745 -4.00998,2.71647 -6.62059,2.76474 -1.61781,0.0299 -3.21219,0.38856 -4.89205,1.10044 -1.72569,0.7313 -3.2018,1.05613 -4.8,1.05627 -1.33901,1.2e-4 -3.19138,0.33598 -4.41224,0.8 -2.39876,0.91172 -3.7894,0.98917 -6.31996,0.35197 -1.21971,-0.30713 -1.93517,-0.31889 -2.27713,-0.0374 -0.80849,0.66545 -3.99942,0.98176 -5.21775,0.51723 -0.85598,-0.32638 -1.45233,-0.28749 -2.53618,0.16537 -1.0312,0.43086 -1.62729,0.47957 -2.18914,0.17888 -0.42464,-0.22727 -0.99336,-0.27203 -1.26381,-0.0995 -0.27046,0.17256 -1.57174,0.36619 -2.89174,0.43029 -1.32,0.0641 -3.02493,0.15624 -3.78874,0.20476 -1.32148,0.0839 -1.40109,0.0136 -1.6438,-1.45346 -0.3861,-2.33365 -1.53206,-2.8306 -3.30729,-1.4342 -0.57625,0.45328 -1.72552,0.92825 -2.55395,1.0555 -2.00133,0.30742 -2.59875,0.80006 -2.10011,1.73176 0.47223,0.88239 9.44925,9.22792 14.05975,13.07072 1.83378,1.52844 5.04414,4.00224 7.13414,5.49735 5.57282,3.98658 6.20942,5.05029 4,6.68378 -0.73147,0.5408 -1.2,1.24827 -1.2,1.81197 0,1.05491 -1.01752,2.20302 -2.7434,3.09551 -0.65228,0.33731 -1.51685,1.03335 -1.92128,1.54678 -0.40442,0.51342 -1.80134,1.42126 -3.10426,2.01743 -1.30293,0.59616 -2.60802,1.42525 -2.90022,1.84242 -0.79022,1.1282 -4.27839,2.16525 -6.23211,1.85284 -1.40061,-0.22397 -1.77453,-0.11564 -2.71678,0.78709 -1.33947,1.2833 -3.00971,1.69781 -8.1946,2.03366 -4.30177,0.27866 -5.54485,-0.036 -7.15029,-1.81 -0.41852,-0.46252 -1.0652,-0.84095 -1.43701,-0.84095 -0.3718,0 -1.01848,0.37843 -1.43705,0.84095 -1.32068,1.45934 -2.78828,1.96062 -5.64308,1.92747 -1.49592,-0.0174 -2.89986,-0.0936 -3.11986,-0.16939 z m -1.17628,-44.63741 c 0.42271,-0.68396 -0.911,-1.83434 -1.47398,-1.27136 -0.25078,0.25078 -0.34772,0.73806 -0.21541,1.08285 0.27683,0.72142 1.29015,0.83449 1.68939,0.18851 z m 24.44194,-0.18851 c 0.13231,-0.34479 0.0354,-0.83207 -0.21541,-1.08285 -0.56298,-0.56298 -1.89669,0.5874 -1.47398,1.27136 0.39924,0.64598 1.41256,0.53291 1.68939,-0.18851 z M 52.756138,38.62357 c 0,-0.42219 -0.767644,-0.59957 -0.995968,-0.23013 -0.138184,0.22358 0.02936,0.40652 0.37236,0.40652 0.342984,0 0.623608,-0.0794 0.623608,-0.17639 z m 177.199992,0 c 0,-0.42219 -0.76764,-0.59957 -0.99597,-0.23013 -0.13818,0.22358 0.0294,0.40652 0.37236,0.40652 0.34299,0 0.62361,-0.0794 0.62361,-0.17639 z m -93.18895,-9.44424 c 0.50706,-0.94745 0.3767,-2.42213 -0.21104,-2.38747 -0.22,0.013 -0.4,0.42511 -0.4,0.91585 0,0.78066 -0.23762,0.9075 -1.9,1.01417 -2.89906,0.18602 -2.43071,1.18239 0.58592,1.2465 1.10918,0.0236 1.59728,-0.17649 1.92512,-0.78905 z m 11.97737,0.43625 c 0.8129,-0.51409 0.51074,-0.67704 -1.69474,-0.91398 -1.87103,-0.201 -2.58404,0.10493 -2.09368,0.89836 0.31048,0.50236 3.00123,0.51346 3.78842,0.0156 z m -3.29675,-7.85729 c -0.16042,-0.16041 -0.29167,-0.56766 -0.29167,-0.905 0,-0.45023 0.11834,-0.495 0.445,-0.16833 0.24475,0.24475 0.376,0.652 0.29167,0.905 -0.0843,0.253 -0.28458,0.32875 -0.445,0.16833 z M 29.156139,18.19996 c -1.30638,-0.74679 -0.849263,-0.75517 0.854076,-0.0157 0.740258,0.32139 1.075924,0.58501 0.745924,0.58583 -0.33,8.1e-4 -1.05,-0.25577 -1.6,-0.57017 z m 222.345921,-0.0157 c 0.74026,-0.32139 1.46026,-0.57797 1.6,-0.57017 0.52042,0.029 -1.76948,1.15742 -2.34593,1.156 -0.33,-8e-4 0.006,-0.26444 0.74593,-0.58583 z M 26.756139,17.19996 c -0.33,-0.21326 -0.42,-0.38775 -0.2,-0.38775 0.22,0 0.67,0.17449 1,0.38775 0.33,0.21326 0.42,0.38775 0.2,0.38775 -0.22,0 -0.67,-0.17449 -1,-0.38775 z m 227.199991,0 c 0.33,-0.21326 0.78,-0.38775 1,-0.38775 0.22,0 0.13,0.17449 -0.2,0.38775 -0.33,0.21326 -0.78,0.38775 -1,0.38775 -0.22,0 -0.13,-0.17449 0.2,-0.38775 z M 22.556139,15.15332 c -1.32,-0.68471 -2.65678,-1.48753 -2.970622,-1.78405 -0.313842,-0.29652 0.811158,0.18493 2.5,1.06988 1.688842,0.88496 3.070622,1.68817 3.070622,1.78491 0,0.27256 -0.05025,0.25186 -2.6,-1.07074 z m 233.799991,1.05785 c 0,-0.0897 1.34428,-0.86741 2.98729,-1.72835 1.64301,-0.86094 2.89027,-1.40836 2.77169,-1.2165 -0.34117,0.55204 -5.75898,3.32243 -5.75898,2.94485 z"
     style="fill:#191512;stroke-width:0.40000001" />
</svg>
