<?xml version="1.0" encoding="UTF-8"?>
<!-- Created with Inkscape (http://www.inkscape.org/) -->
<svg id="svg2" width="305.54" height="89.015" version="1.1" viewBox="0 0 305.54 89.015" xmlns="http://www.w3.org/2000/svg" xmlns:cc="http://creativecommons.org/ns#" xmlns:dc="http://purl.org/dc/elements/1.1/" xmlns:rdf="http://www.w3.org/1999/02/22-rdf-syntax-ns#">
 <metadata id="metadata8">
  <rdf:RDF>
   <cc:Work rdf:about="">
    <dc:format>image/svg+xml</dc:format>
    <dc:type rdf:resource="http://purl.org/dc/dcmitype/StillImage"/>
    <dc:title/>
   </cc:Work>
  </rdf:RDF>
 </metadata>
 <g id="g4566" transform="translate(14.447 -148.96)" stroke-width=".4">
  <path id="path4544" d="m135.98 237.78c-0.73783-0.18481-1.9978-0.60754-2.8-0.9394-0.80217-0.33187-2.4577-0.80568-3.679-1.0529-1.5866-0.32121-2.7695-0.90318-4.1436-2.0386-1.0577-0.874-2.1794-1.5891-2.4928-1.5891-0.92431 0-4.4428-1.9214-5.0153-2.7389-0.29032-0.41449-1.1578-0.88978-1.9278-1.0562-2.6799-0.57917-5.6605-2.6517-6.4617-4.4931-0.076-0.17476-0.89346-0.90878-1.8165-1.6312-2.9348-2.2968-2.7349-3.2051 1.7151-7.7917 3.3968-3.5011 8.474-9.1706 11.335-12.657l2.1073-2.5682-1.0725-0.56194c-1.5764-0.82594-2.265-0.39154-2.1244 1.34 0.11411 1.4049 0.0587 1.4708-1.6732 1.9904-0.98516 0.29553-2.2041 0.43371-2.7087 0.30707-0.53261-0.13368-1.7804 0.14098-2.9748 0.65479-1.7001 0.73137-2.4802 0.83979-4.4918 0.62436-1.8367-0.1967-2.8271-0.0964-4.034 0.40871-1.2485 0.52252-2.2668 0.61398-4.6401 0.41677-2.2733-0.18889-3.4056-0.10013-4.4872 0.35176-1.8456 0.77115-3.5872 0.76473-6.2397-0.023-1.9351-0.57466-2.2506-0.5722-3.7538 0.0293-1.8718 0.74893-2.9208 0.63279-7.6658-0.84874-2.6886-0.83945-3.3326-0.91723-4.1174-0.49721-0.77385 0.41415-1.3106 0.36865-3.191-0.27051-1.2433-0.42263-2.7336-1.1664-3.3117-1.6528-1.0254-0.86282-1.096-0.86828-2.8888-0.22358-1.6222 0.58334-2.2521 0.60125-5.3709 0.15267-1.9432-0.27949-3.8932-0.73615-4.3332-1.0148-0.46117-0.29205-1.52-0.43382-2.5-0.33474-1.1065 0.11188-1.7 0.0127-1.7-0.2842 0-0.3165-0.22201-0.33727-0.72537-0.0679-0.49668 0.26582-1.5027 0.19239-3.1911-0.23291-2.2256-0.56062-2.5139-0.75425-2.96-1.9879-0.30042-0.83081-0.81372-1.426-1.3089-1.5176-0.44806-0.083-2.0747-0.35782-3.6147-0.61084-3.7915-0.62293-4.6922-1.2467-4.5314-3.1385l0.12508-1.4723-2.1968-0.0917c-3.3607-0.14021-9.5724-1.1901-10.22-1.7273-0.85705-0.71129-0.7214-1.1216 0.82287-2.4888 0.77-0.68171 1.4-1.5664 1.4-1.9659 0-0.79772-0.42682-0.93958-1.0255-0.34086-0.60946 0.60946-9.2031 0.5461-13.29-0.098-6.2112-0.97885-5.668-1.4781 2.9142-2.6783 5.5733-0.77941 14.306-2.8763 22.075-5.3006 2.3576-0.7357 2.4644-1.0078 0.68796-1.7541-1.3406-0.56324-1.9857-0.59189-4.5614-0.2026-3.7026 0.55959-9.8659 0.58866-10.2 0.0481-0.13597-0.22001-1.9118-0.4-3.9465-0.4-3.5202 0-8.7123-0.76303-14.854-2.1829-3.1912-0.73781-6.8259-2.1242-10.6-4.0431-1.43-0.72708-3.095-1.5092-3.7-1.7381-1.3352-0.50513-1.4442-1.2359-0.18421-1.2359 0.50369 0 3.3387 0.731 6.3 1.6244 2.9613 0.89345 7.9042 2.0522 10.984 2.5749 6.5525 1.1121 14.6 1.7218 14.6 1.1061 0-0.45709-0.92695-0.84858-5-2.1117-6.6085-2.0495-13.014-5.6713-16.897-9.5545-2.137-2.137-5.2547-7.021-4.7831-7.4927 0.10841-0.10841 1.6978 1.3585 3.5321 3.2597 3.7986 3.9374 7.0687 6.2498 12.42 8.7825 3.1492 1.4906 10.529 3.8186 12.072 3.8082 0.25092-2e-3 -1.3301-0.90068-3.5133-1.9978-4.9213-2.473-9.1991-5.7114-11.997-9.0819-1.8693-2.2521-4.5699-6.5172-4.1266-6.5172 0.08644 0 0.76372 0.855 1.5051 1.9 2.0415 2.8776 6.2939 7.1787 9.0471 9.1507 3.1837 2.2803 9.2684 5.1534 12.554 5.9278 4.0198 0.94744 4.4421 0.74101 1.6082-0.78599-3.8861-2.0939-3.7118-2.2487 0.83796-0.74409 10.027 3.3158 15.837 4.069 25.74 3.3365 14.559-1.0769 25.185-1.3175 46.6-1.055 15.271 0.18721 15.423 0.18103 18.2-0.73644 1.54-0.50888 3.9107-1.0264 5.2683-1.1499 3.8743-0.35272 5.3764-1.1363 6.8549-3.5757 0.70226-1.1587 1.2768-2.4787 1.2768-2.9334 0-2.9591 6.7366-5.7392 11.073-4.5695 1.2078 0.3258 2.0379 0.92153 2.9862 2.1431 2.5314 3.2609 6.017 6.8999 7.4396 7.7673 0.88899 0.542 2.4384 0.97188 4.0686 1.1288 1.448 0.13941 3.8928 0.67222 5.4328 1.184 2.7815 0.92442 2.9016 0.92931 18.2 0.74177 21.415-0.26251 32.041-0.0219 46.6 1.055 9.903 0.73253 15.714-0.0207 25.74-3.3365 4.5498-1.5046 4.7241-1.3498 0.83797 0.74409-2.834 1.527-2.4116 1.7334 1.6082 0.78599 3.2857-0.77441 9.3704-3.6475 12.554-5.9278 2.7532-1.972 7.0056-6.2731 9.0471-9.1507 0.74136-1.045 1.4186-1.9 1.5051-1.9 0.44336 0-2.2572 4.2652-4.1266 6.5172-2.7977 3.3705-7.0755 6.609-11.997 9.0819-2.1832 1.0971-3.7642 1.9961-3.5133 1.9978 1.5427 0.0104 8.9225-2.3176 12.072-3.8082 5.351-2.5327 8.6212-4.8451 12.42-8.7825 1.8342-1.9012 3.4237-3.3681 3.5321-3.2597 0.1084 0.10841-0.39748 1.3127-1.1242 2.6761-3.126 5.865-11.097 11.438-20.556 14.371-4.073 1.2632-5 1.6546-5 2.1117 0 0.61568 8.0475 6e-3 14.6-1.1061 3.08-0.52275 8.0229-1.6814 10.984-2.5749 2.9613-0.89345 5.7963-1.6244 6.3-1.6244 1.2599 0 1.151 0.73081-0.18421 1.2359-0.605 0.22888-2.27 1.011-3.7 1.7381-3.7741 1.9189-7.4088 3.3053-10.6 4.0431-6.1412 1.4198-11.333 2.1829-14.854 2.1829-2.0347 0-3.8105 0.17999-3.9464 0.4-0.33408 0.54055-6.4974 0.51148-10.2-0.0481-2.5758-0.38928-3.2208-0.36064-4.5614 0.2026-1.7764 0.74633-1.6697 1.0184 0.68797 1.7541 7.769 2.4243 16.502 4.5212 22.075 5.3006 8.5821 1.2002 9.1254 1.6994 2.9142 2.6783-4.087 0.64409-12.681 0.70744-13.29 0.098-0.59871-0.59872-1.0255-0.45685-1.0255 0.34086 0 0.39952 0.63 1.2842 1.4 1.9659 1.5443 1.3672 1.6799 1.7775 0.82287 2.4888-0.6473 0.53721-6.859 1.5871-10.22 1.7273l-2.1968 0.0917 0.12508 1.4723c0.16071 1.8918-0.73992 2.5155-4.5314 3.1385-1.54 0.25301-3.1666 0.52789-3.6147 0.61084-0.49518 0.0917-1.0085 0.68682-1.3089 1.5176-0.4461 1.2337-0.73442 1.4273-2.96 1.9879-1.6884 0.4253-2.6944 0.49874-3.1911 0.23292-0.50336-0.2694-0.72537-0.24862-0.72537 0.0679 0 0.29686-0.59347 0.39608-1.7 0.2842-0.97999-0.0991-2.0388 0.0427-2.5 0.33474-0.44 0.27864-2.3899 0.7353-4.3332 1.0148-3.1188 0.44858-3.7487 0.43067-5.3709-0.15267-1.7928-0.6447-1.8634-0.63924-2.8888 0.22358-0.57809 0.48643-2.0684 1.2302-3.3117 1.6528-1.8804 0.63916-2.4171 0.68466-3.191 0.27051-0.78481-0.42002-1.4288-0.34224-4.1174 0.49721-4.745 1.4815-5.794 1.5977-7.6658 0.84874-1.5032-0.60147-1.8188-0.60393-3.7538-0.0293-2.6525 0.78772-4.3941 0.79413-6.2397 0.023-1.0815-0.45189-2.2138-0.54065-4.4872-0.35176-2.3734 0.19721-3.3916 0.10575-4.6401-0.41677-1.2068-0.50506-2.1972-0.60541-4.034-0.40871-2.0117 0.21543-2.7917 0.10701-4.4918-0.62436-1.1944-0.51381-2.4422-0.78847-2.9748-0.65479-0.5046 0.12664-1.7235-0.0115-2.7087-0.30707-1.7319-0.51955-1.7873-0.58543-1.6732-1.9904 0.14064-1.7316-0.54803-2.166-2.1244-1.34l-1.0725 0.56194 2.1073 2.5682c2.8608 3.4865 7.938 9.156 11.335 12.657 4.4499 4.5866 4.6499 5.4949 1.7151 7.7917-0.92304 0.72238-1.7405 1.4564-1.8165 1.6312-0.80122 1.8414-3.7818 3.914-6.4617 4.4931-0.76999 0.1664-1.6375 0.64169-1.9278 1.0562-0.57257 0.81744-4.091 2.7389-5.0153 2.7389-0.31336 0-1.4351 0.7151-2.4928 1.5891-1.3698 1.1319-2.5618 1.7196-4.1436 2.0427-1.2213 0.24947-3.0379 0.78318-4.0368 1.186-2.2336 0.90073-5.3371 1.2502-7.1252 0.80228zm3.3415-82.42c-0.13597-0.22-0.42722-0.4-0.64722-0.4s-0.28875 0.18-0.15278 0.4c0.13596 0.22 0.42721 0.4 0.64721 0.4s0.28875-0.18 0.15279-0.4z" fill="#5c7490"/>
  <path id="path4542" d="m134.11 236.21c-0.88724-0.40303-2.5072-0.86684-3.6-1.0307-2.3694-0.35528-3.1217-0.7186-5.0422-2.4353-0.82582-0.73817-2.4243-1.5826-3.6953-1.9521-1.5454-0.44927-2.5046-1.0092-3.0938-1.8061-0.54666-0.73939-1.3709-1.2519-2.2909-1.4245-2.3394-0.43888-3.6934-1.3467-6.9309-4.6471-2.3908-2.4372-3.0175-3.312-2.8452-3.9712 0.12159-0.46498 2.1314-2.8598 4.4662-5.3217 9.4981-10.015 14.637-16.634 12.184-15.693-0.36358 0.13952-1.2377 0.0634-1.9424-0.16921-0.87979-0.29036-1.6178-0.29495-2.355-0.0146-0.90627 0.34456-1.0088 0.52946-0.65761 1.1857 0.22885 0.42761 0.41609 1.0368 0.41609 1.3538 0 0.67862-2.01 1.2368-4.0077 1.1129-0.77422-0.048-2.2742 0.28411-3.3332 0.73806-2.1672 0.92899-3.4807 1.0439-4.1606 0.36393-0.34858-0.34858-0.93067-0.27536-2.38 0.29936-1.4563 0.57748-2.7378 0.73691-5.3186 0.66166-2.3359-0.0681-4.0488 0.11164-5.473 0.57431-1.9647 0.63825-2.2282 0.63479-5.0435-0.0663-2.8245-0.70334-3.0547-0.70601-4.6835-0.0543-1.9688 0.78776-2.6594 0.69606-7.7737-1.0323-3.4288-1.1587-3.5954-1.178-4.1101-0.47408-0.52012 0.7113-0.60003 0.71108-2.6263-7e-3 -1.1494-0.40751-2.5987-1.1681-3.2206-1.6903-1.3008-1.0922-1.692-1.1367-3.0693-0.34937-0.55 0.31441-1.6301 0.57803-2.4001 0.58582-1.8794 0.019-6.7095-1.0129-7.3919-1.5792-0.33337-0.27667-1.1065-0.34936-1.9777-0.18593-1.3362 0.25065-1.4303 0.20128-1.4303-0.75017 0-1.3113-0.66867-3.0706-1.1671-3.0706-0.2128 0-0.44225 0.765-0.5099 1.7-0.14207 1.9636-0.77638 2.2396-3.476 1.5127-1.4022-0.37755-1.649-0.6165-1.8736-1.8136-0.22734-1.2118-0.43512-1.4064-1.716-1.6073-7.5758-1.1881-7.8304-1.2933-7.4398-3.0718 0.38464-1.7512-0.35068-2.3199-2.9999-2.3199-1.2564 0-2.3872-0.10289-2.513-0.22864-0.12575-0.12575-1.4602-0.30773-2.9655-0.40441-3.288-0.21116-4.1392-0.44857-4.1392-1.1544 0-0.6089 2.5043-2.1998 3.5229-2.2379 0.50265-0.0188 0.45083-0.11649-0.20111-0.37906-0.73624-0.29652-0.8423-0.57525-0.65592-1.7238 0.29882-1.8414-0.44516-2.2313-1.7983-0.94245-0.96319 0.9174-1.4192 1.0251-4.6675 1.1019-3.995 0.0945-8.905-0.35394-9.2059-0.84089-0.10715-0.17337 0.75035-0.43254 1.9056-0.57594 6.0253-0.74792 16.02-3.0881 23.5-5.5023 3.1973-1.0319 3.4004-1.201 2.7328-2.2752-0.90691-1.4593-2.9978-1.7319-9.5677-1.2474-3.6368 0.26822-6.2364 0.29745-6.664 0.0749-0.38562-0.20068-2.9511-0.46071-5.7011-0.57783-7.7536-0.33024-19.24-3.0484-22.589-5.3454-1.109-0.76069-0.35969-0.68039 3.884 0.4162 5.2306 1.3516 10.443 2.1986 16.747 2.7213 5.6498 0.46846 6.7578 0.36075 6.7578-0.65691 0-0.89486-1.5393-1.7451-4.7908-2.6461-5.7483-1.5929-12.097-4.8418-15.609-7.9884l-1.8-1.6124 3 1.9602c7.6346 4.9883 15.516 7.6754 23.2 7.9096 7.9639 0.24274 11.487 0.43858 11.843 0.65823 0.96297 0.59461 8.2231 1.4939 11.857 1.4686 6.7398-0.0468 10.195-0.47544 10.83-1.3435 0.45931-0.62814 0.90656-0.71766 2.71-0.54245 1.188 0.11541 6.2999 0.0807 11.36-0.0772 5.2306-0.16321 10.235-0.12837 11.6 0.0808 4.9166 0.7535 13.11 0.93367 13.333 0.29319 0.182-0.52182 1.2667-0.48615 1.2667 0.0417 0 0.29015 1.9707 0.3525 6.2446 0.19758 7.3465-0.26629 8.9435-0.48107 11.355-1.5272 0.99-0.4294 3.1594-0.9384 4.821-1.1311 1.6615-0.19272 3.7315-0.59462 4.6-0.89312 1.9986-0.68691 3.9002-3.1061 4.7562-6.0507 0.37124-1.277 0.96077-2.3722 1.405-2.6099 1.0515-0.56273 1.0977-0.54298 1.3822 0.59041 0.3044 1.2128 1.444 1.3192 2.1429 0.2 0.73406-1.1754 1.9705-0.99679 2.6867 0.38814 0.33793 0.65348 0.96117 1.3737 1.385 1.6005 0.42382 0.22682 1.1786 1.1383 1.6772 2.0255 0.95701 1.7028 2.0432 1.9827 2.2549 0.5812 0.50847-3.3657 1.1342-3.3896 4.3015-0.16413 3.0244 3.0799 4.5708 3.8695 8.461 4.3202 1.7196 0.19921 3.9365 0.71352 4.9265 1.1429 2.4118 1.0461 4.0089 1.2609 11.355 1.5272 4.2739 0.15492 6.2446 0.0926 6.2446-0.19758 0-0.52782 1.0847-0.56349 1.2667-0.0417 0.22339 0.64047 8.4167 0.4603 13.333-0.2932 1.3645-0.20912 6.3694-0.24397 11.6-0.0808 5.06 0.15788 10.172 0.19263 11.36 0.0772 1.8035-0.17521 2.2507-0.0857 2.71 0.54245 0.63477 0.8681 4.09 1.2968 10.83 1.3435 3.6339 0.0252 10.894-0.87404 11.857-1.4686 0.35573-0.21965 3.8793-0.41549 11.843-0.65823 7.6838-0.23421 15.565-2.9213 23.2-7.9096l3-1.9602-1.8 1.6124c-3.5127 3.1466-9.8609 6.3955-15.609 7.9884-3.2514 0.90102-4.7908 1.7512-4.7908 2.6461 0 1.0177 1.108 1.1254 6.7578 0.65691 6.3042-0.52272 11.517-1.3697 16.747-2.7213 4.2437-1.0966 4.993-1.1769 3.884-0.4162-3.3489 2.2971-14.835 5.0152-22.589 5.3454-2.75 0.11712-5.3155 0.37715-5.7011 0.57783-0.42762 0.22254-3.0272 0.19331-6.664-0.0749-6.57-0.48456-8.6608-0.21198-9.5677 1.2474-0.66757 1.0742-0.46448 1.2433 2.7328 2.2752 7.4802 2.4142 17.475 4.7544 23.5 5.5023 1.1552 0.1434 2.0127 0.40257 1.9056 0.57594-0.30095 0.48695-5.2109 0.93543-9.2059 0.84089-3.2482-0.0769-3.7043-0.18454-4.6675-1.1019-1.3532-1.2888-2.0972-0.89893-1.7983 0.94245 0.18639 1.1485 0.0803 1.4273-0.65591 1.7238-0.65194 0.26257-0.70377 0.36024-0.20112 0.37906 1.0186 0.0381 3.5229 1.629 3.5229 2.2379 0 0.70582-0.85125 0.94323-4.1392 1.1544-1.5053 0.0967-2.8397 0.27866-2.9655 0.40441s-1.2566 0.22864-2.513 0.22864c-2.6492 0-3.3846 0.56863-2.9999 2.3199 0.39063 1.7785 0.13597 1.8837-7.4398 3.0718-1.2809 0.20088-1.4887 0.3955-1.716 1.6073-0.22458 1.1971-0.47143 1.4361-1.8736 1.8136-2.6996 0.72693-3.3339 0.45089-3.476-1.5127-0.0677-0.935-0.29711-1.7-0.5099-1.7-0.49843 0-1.1671 1.7592-1.1671 3.0706 0 0.95144-0.0941 1.0008-1.4303 0.75014-0.87116-0.16343-1.6443-0.0907-1.9777 0.18593-0.68237 0.56632-5.5125 1.5982-7.3919 1.5792-0.77008-8e-3 -1.8502-0.27141-2.4002-0.58582-1.3773-0.78734-1.7685-0.74281-3.0693 0.34938-0.62188 0.52215-2.0711 1.2828-3.2206 1.6903-2.0263 0.71837-2.1062 0.71859-2.6263 7e-3 -0.51469-0.70388-0.68136-0.68465-4.1101 0.47408-5.1143 1.7284-5.8049 1.82-7.7737 1.0323-1.6288-0.6517-1.859-0.64904-4.6835 0.0543-2.8153 0.70105-3.0788 0.70452-5.0435 0.0663-1.4242-0.46267-3.1371-0.64241-5.473-0.5743-2.5808 0.0752-3.8623-0.0842-5.3186-0.66167-1.4493-0.57472-2.0314-0.64794-2.38-0.29936-0.67994 0.67994-1.9934 0.56506-4.1606-0.36393-1.059-0.45395-2.559-0.78608-3.3332-0.73806-1.9977 0.1239-4.0077-0.43423-4.0077-1.1129 0-0.31696 0.18724-0.92616 0.41609-1.3538 0.35121-0.65624 0.24866-0.84114-0.65761-1.1857-0.73724-0.28029-1.4753-0.2757-2.355 0.0146-0.70473 0.23259-1.5788 0.30873-1.9424 0.16921-2.4531-0.94135 2.686 5.6778 12.184 15.693 2.3348 2.462 4.3446 4.8567 4.4662 5.3217 0.17239 0.65921-0.45432 1.534-2.8452 3.9712-3.2376 3.3004-4.5915 4.2082-6.9309 4.647-0.92004 0.1726-1.7442 0.6851-2.2909 1.4245-0.58912 0.79684-1.5483 1.3568-3.0938 1.8061-1.271 0.36948-2.8694 1.2139-3.6953 1.9521-1.9206 1.7167-2.6728 2.08-5.0422 2.4353-1.0928 0.16386-2.7128 0.62767-3.6 1.0307-1.0341 0.46976-2.5464 0.73278-4.2132 0.73278s-3.179-0.26302-4.2131-0.73278zm7.4272-78.823c-0.59012-1.1026-0.51178-2.0263 0.17185-2.0263 0.64238 0 1.4141 1.1862 1.4141 2.1737 0 0.88168-1.0894 0.78042-1.5859-0.1474z" fill="#1e1b18"/>
 </g>
</svg>
