<?xml version="1.0" encoding="UTF-8"?>
<!-- Created with Inkscape (http://www.inkscape.org/) -->
<svg id="svg4958" width="75.902mm" height="25.995mm" version="1.1" viewBox="0 0 75.902 25.995" xmlns="http://www.w3.org/2000/svg" xmlns:cc="http://creativecommons.org/ns#" xmlns:dc="http://purl.org/dc/elements/1.1/" xmlns:rdf="http://www.w3.org/1999/02/22-rdf-syntax-ns#">
 <metadata id="metadata4955">
  <rdf:RDF>
   <cc:Work rdf:about="">
    <dc:format>image/svg+xml</dc:format>
    <dc:type rdf:resource="http://purl.org/dc/dcmitype/StillImage"/>
    <dc:title/>
   </cc:Work>
  </rdf:RDF>
 </metadata>
 <g id="layer1" transform="translate(-40.363 -155.5)">
  <path id="path4581" d="m80.733 181.29c-0.26363-0.13398-0.54156-0.31858-0.61762-0.41023-0.18639-0.22458-0.34597-0.20968-0.57116 0.0533-0.15833 0.18492-0.25899 0.20821-0.63206 0.14624-0.24406-0.0405-0.5628-0.13168-0.70832-0.20253-0.14552-0.0709-0.55033-0.18877-0.89958-0.26205-0.67682-0.142-0.89233-0.24966-1.3415-0.67018-0.15576-0.14582-0.55448-0.35046-0.88605-0.45474-0.37474-0.11788-0.73214-0.32276-0.94457-0.54149-0.18795-0.19352-0.43216-0.35233-0.5427-0.35289-0.45191-2e-3 -1.2985-0.51058-1.5719-0.94372-0.14967-0.23709-0.31412-0.43108-0.36544-0.43108-0.19795 0-0.7507-0.62575-0.7507-0.84984 0-0.15151 0.31373-0.5618 0.87794-1.1482 1.7777-1.8476 3.8242-4.236 3.7193-4.3408-0.03119-0.0312-0.26546-0.10971-0.52059-0.17449-0.40836-0.10369-0.63907-0.0742-0.8792 0.11233-0.01672 0.013 0.02722 0.15014 0.09767 0.30476 0.18387 0.40355 0.02804 0.5021-0.85173 0.53862-0.4145 0.0172-0.81717 0.084-0.89483 0.14848-0.20366 0.16901-1.0667 0.26657-1.2838 0.14511-0.13157-0.0736-0.34086-0.0435-0.72747 0.1048-0.43488 0.1668-0.71285 0.19791-1.3984 0.1565-0.59262-0.0358-0.96237-7e-3 -1.2028 0.0943-0.45458 0.19114-1.0563 0.18477-1.7558-0.0186-0.51194-0.14882-0.59636-0.14882-0.88416 0-0.47786 0.24711-0.9409 0.20219-2.0881-0.20257-0.87967-0.31037-1.0539-0.34308-1.1275-0.21167-0.04784 0.0855-0.17891 0.15544-0.29125 0.15544-0.298 0-1.0736-0.31878-1.3266-0.54527-0.26446-0.23671-0.43421-0.2437-0.92627-0.0381-0.33436 0.1397-0.48137 0.13924-1.3035-4e-3 -0.50966-0.0889-0.98928-0.21357-1.0658-0.27709-0.07805-0.0648-0.32462-0.0906-0.56149-0.0588-0.37845 0.0508-0.42282 0.0329-0.4271-0.17141-0.0026-0.12544-0.06883-0.37093-0.14712-0.54556l-0.14235-0.3175-0.07845 0.45214c-0.04315 0.24867-0.11737 0.47619-0.16495 0.5056-0.10794 0.0667-1.0582-0.15976-1.2288-0.29284-0.0693-0.0541-0.14074-0.22326-0.15875-0.37598-0.03113-0.26402-0.0839-0.28667-1.0741-0.46083-1.3892-0.24432-1.3399-0.21573-1.3399-0.77726 0-0.44976-0.0181-0.48031-0.29104-0.49136-1.0825-0.0438-2.9162-0.29552-3.0341-0.41651-0.08267-0.0848-0.0043-0.21046 0.28248-0.45307 0.3437-0.29074 0.39688-0.39599 0.39688-0.78551-3e-6 -0.24739-0.02885-0.44979-0.0641-0.44979-0.03526 0-0.2053 0.11881-0.37788 0.26403-0.29994 0.25239-0.36363 0.26219-1.444 0.22234-1.4394-0.0531-2.4532-0.17269-2.4532-0.2894 0-0.0501 0.03572-0.092 0.07938-0.0931 0.04366-1e-3 0.55562-0.0697 1.1377-0.15251 2.2162-0.31534 6.4711-1.466 6.4453-1.7431-0.0058-0.0623-0.01773-0.15517-0.02646-0.20632-0.03455-0.20239-0.69906-0.36618-1.3262-0.32686-3.982 0.24965-8.7713-0.46916-10.531-1.5806-0.42212-0.26661-0.10666-0.24279 1.1807 0.0891 2.4445 0.6303 6.1098 0.98472 6.1098 0.59081 0-0.20866-0.37059-0.43486-0.9525-0.58138-1.5673-0.39464-3.4675-1.3656-4.5766-2.3386-0.78222-0.68625-1.071-1.1723-0.33453-0.56302 0.72384 0.59883 1.6696 1.2218 2.4594 1.62 1.4047 0.70825 4.2056 1.4234 4.6478 1.1867 0.1576-0.0844 0.38855-0.0849 0.83642-2e-3 0.34029 0.0631 0.8298 0.091 1.0878 0.062 0.25801-0.0289 0.71045 9e-3 1.0054 0.0849 1.1342 0.29089 2.5207 0.39764 4.1876 0.32241 1.1225-0.0507 1.6905-0.11843 1.7992-0.21465 0.11949-0.10583 0.86542-0.15666 3.0162-0.20551 1.5716-0.0357 3.1432-0.0535 3.4925-0.0396s2.3733 0.0239 4.4979 0.0222c3.792-3e-3 3.8752-8e-3 4.5319-0.25216 0.4501-0.16753 0.74787-0.356 0.91008-0.57604 0.29359-0.39823 0.59052-1.142 0.59052-1.4791 0-0.29388 0.3747-0.80588 0.58977-0.80588 0.08309 0 0.15107 0.0953 0.15107 0.21166 0 0.28219 0.12296 0.26681 0.42333-0.0529 0.32636-0.3474 0.45233-0.33436 0.87753 0.0908 0.19548 0.19548 0.39948 0.37408 0.45332 0.39687 0.05384 0.0228 0.23197 0.22094 0.39584 0.44031 0.3445 0.4612 0.49581 0.43144 0.49581-0.0975 0-0.2908-0.04939-0.38699-0.22186-0.4321-0.17347-0.0454-0.6248-0.79104-0.6248-1.0323 0-0.14635 0.55511 0.15601 0.89958 0.49 0.7642 0.74094 1.6851 1.4646 2.1591 1.6965 0.38541 0.18861 0.62968 0.22431 1.4162 0.20696 0.76063-0.0168 0.98953 0.0144 1.1461 0.15603 0.1832 0.1658 0.33488 0.15856 2.3938-0.11425 1.209-0.1602 2.7697-0.40839 3.4682-0.55153s1.4843-0.30098 1.7462-0.35075c0.8881-0.16874 3.4856-0.32898 6.1135-0.37713 3.0083-0.0551 4.258-0.16079 5.5605-0.47012 0.50902-0.12089 0.96959-0.19255 1.0235-0.15923 0.0539 0.0333 0.57216-0.0361 1.1517-0.15415 0.57952-0.1181 1.2288-0.21472 1.4428-0.21472 1.0164 0 3.9443-1.0533 5.4382-1.9565 0.46802-0.28293 1.1506-0.74477 1.5169-1.0263 1.2148-0.93384 1.3069-0.97175 0.61302-0.25232-1.2318 1.2771-2.6917 2.1516-4.769 2.8568-0.59015 0.20033-1.0979 0.38916-1.1284 0.41963-0.0305 0.0305-0.0275 0.12807 7e-3 0.21688 0.0739 0.19261 0.22082 0.17301 2.0799-0.27755 0.72707-0.17622 1.7513-0.47581 2.2761-0.66578 1.1143-0.40336 2.9502-1.3054 3.5689-1.7537 0.23754-0.17207 0.48429-0.31146 0.54832-0.30976 0.16317 4e-3 -0.54396 0.6319-0.71202 0.6319-0.0755 0-0.23659 0.13445-0.35806 0.29877-0.52975 0.71653-2.9439 1.8181-5.5075 2.5131-0.50157 0.13598-0.66146 0.22561-0.66146 0.3708 0 0.10531 0.046 0.21989 0.10215 0.25461 0.1872 0.1157 2.3628-0.15938 4.1964-0.53059 0.99629-0.20169 1.8763-0.36672 1.9555-0.36672 0.0889 0 0.0436 0.0977-0.11809 0.25489-0.26733 0.25992-0.99269 0.50536-2.908 0.984-0.58209 0.14546-1.3067 0.33188-1.6103 0.41425-0.57814 0.1569-1.2024 0.59608-1.0559 0.74288 0.047 0.0471 0.88048 0.095 1.8521 0.10646 2.2086 0.0259 2.0941 0.0183 1.973 0.13137-0.19455 0.1816-2.0463 0.65714-3.0803 0.79104-0.71628 0.0928-1.2451 0.23063-1.6788 0.43767-0.5398 0.25769-0.59412 0.30784-0.36853 0.34023 0.56168 0.0807 1.1759 0.36784 1.1434 0.53462-0.0365 0.18726-1.6409 0.76592-2.1236 0.76592-0.32472 0-1.2423 0.20787-1.2423 0.28143 0 0.0246 0.10443 0.18592 0.23209 0.35858 0.15571 0.2106 0.19706 0.349 0.12563 0.42044-0.13907 0.13906-1.4562 0.41657-1.9981 0.421-0.51919 4e-3 -0.65584 0.0849-0.70371 0.41517-0.0304 0.20967-0.16209 0.29982-0.72505 0.49631-0.37835 0.13206-0.86926 0.26948-1.0909 0.30537-0.22165 0.0359-0.48359 0.16158-0.58209 0.27931-0.25942 0.31009-0.73952 0.53602-0.97812 0.46029-0.11836-0.0376-0.20638-0.0164-0.20638 0.0497 0 0.27391-0.49464 0.35084-1.0563 0.16429l-0.54869-0.18225-0.28229 0.27032c-0.46044 0.44092-1.2487 0.73913-1.7662 0.66819-0.34985-0.048-0.60287 6e-3 -1.1743 0.24957-0.51567 0.21994-0.90501 0.31152-1.333 0.31355-0.34862 2e-3 -0.832 0.0925-1.1416 0.21453-0.5969 0.23528-1.1235 0.26587-1.7208 0.1-0.31937-0.0887-0.44415-0.0781-0.63209 0.0535-0.24242 0.1698-0.98112 0.20369-1.4571 0.0668-0.15483-0.0445-0.40763-0.0174-0.60943 0.0653-0.18967 0.0777-0.45908 0.11266-0.59869 0.0776-0.13961-0.035-0.3504-0.012-0.46843 0.0511-0.14825 0.0793-0.30172 0.0817-0.49642 8e-3 -0.19346-0.0735-0.41578-0.0711-0.70906 8e-3 -0.65253 0.17571-0.9087 0.0695-0.94807-0.39318-0.04627-0.54374-0.30354-0.67944-0.7135-0.37634-0.17548 0.12973-0.49867 0.27319-0.71821 0.31881-0.2232 0.0464-0.41275 0.15349-0.42999 0.24299-0.01799 0.0934 0.62069 0.75893 1.534 1.5985 1.9742 1.8146 2.6609 2.3884 4.0784 3.4078 0.62577 0.44998 1.1894 0.91466 1.2525 1.0326 0.15876 0.29664 0.03813 0.68813-0.27531 0.89351-0.15459 0.10128-0.2629 0.27314-0.2629 0.41711 0 0.28546-0.16024 0.46518-0.71157 0.79805-0.21982 0.13272-0.51874 0.37004-0.66426 0.52738-0.14552 0.15733-0.4789 0.36653-0.74083 0.46488-0.26194 0.0983-0.61912 0.31411-0.79375 0.47946-0.38323 0.36286-1.1122 0.57403-1.6724 0.48445-0.35759-0.0572-0.45232-0.0256-0.72594 0.2419-0.27775 0.27155-0.43496 0.32197-1.3394 0.42954-1.758 0.20909-1.7446 0.20938-2.2527-0.0488zm2.4979-11.901c0.03597-0.0582 0.01498-0.10584-0.04667-0.10584-0.06164 0-0.11208 0.0476-0.11208 0.10584 0 0.0582 0.02101 0.10583 0.04667 0.10583s0.0761-0.0476 0.11208-0.10583zm32.385-9.8425c0.11642-0.05 0.28311-0.0936 0.37042-0.0968 0.1411-5e-3 0.1411 6e-3 0 0.0968-0.0873 0.0564-0.254 0.1-0.37042 0.0968l-0.21166-6e-3 0.21166-0.091z" fill="#1d1a18" stroke-width=".10583"/>
 </g>
</svg>
