<?xml version="1.0" encoding="UTF-8" standalone="no"?>
<!-- Created with Inkscape (http://www.inkscape.org/) -->

<svg
   xmlns:dc="http://purl.org/dc/elements/1.1/"
   xmlns:cc="http://creativecommons.org/ns#"
   xmlns:rdf="http://www.w3.org/1999/02/22-rdf-syntax-ns#"
   xmlns:svg="http://www.w3.org/2000/svg"
   xmlns="http://www.w3.org/2000/svg"
   xmlns:sodipodi="http://sodipodi.sourceforge.net/DTD/sodipodi-0.dtd"
   xmlns:inkscape="http://www.inkscape.org/namespaces/inkscape"
   version="1.1"
   id="svg2"
   width="305.5368"
   height="89.014687"
   viewBox="0 0 305.53681 89.014685"
   sodipodi:docname="rook_leftsymmetric.svg"
   inkscape:version="0.92.1 r">
  <metadata
     id="metadata8">
    <rdf:RDF>
      <cc:Work
         rdf:about="">
        <dc:format>image/svg+xml</dc:format>
        <dc:type
           rdf:resource="http://purl.org/dc/dcmitype/StillImage" />
        <dc:title></dc:title>
      </cc:Work>
    </rdf:RDF>
  </metadata>
  <defs
     id="defs6" />
  <sodipodi:namedview
     pagecolor="#ffffff"
     bordercolor="#666666"
     borderopacity="1"
     objecttolerance="10"
     gridtolerance="10"
     guidetolerance="10"
     inkscape:pageopacity="0"
     inkscape:pageshadow="2"
     inkscape:window-width="1920"
     inkscape:window-height="1046"
     id="namedview4"
     showgrid="false"
     fit-margin-top="0"
     fit-margin-left="0"
     fit-margin-right="0"
     fit-margin-bottom="0"
     inkscape:zoom="3.2469188"
     inkscape:cx="171.24746"
     inkscape:cy="21.61998"
     inkscape:window-x="0"
     inkscape:window-y="0"
     inkscape:window-maximized="1"
     inkscape:current-layer="svg2" />
  <g
     id="g4566"
     transform="translate(14.447452,-148.95713)">
    <path
       style="fill:#5c7490;stroke-width:0.40000001"
       d="m 135.97943,237.77728 c -0.73783,-0.18481 -1.99783,-0.60754 -2.8,-0.9394 -0.80217,-0.33187 -2.45772,-0.80568 -3.67901,-1.05294 -1.58662,-0.32121 -2.7695,-0.90318 -4.14355,-2.03864 -1.05767,-0.874 -2.17942,-1.5891 -2.49278,-1.5891 -0.92431,0 -4.44275,-1.92144 -5.01532,-2.73889 -0.29032,-0.41449 -1.15785,-0.88978 -1.92784,-1.05618 -2.67989,-0.57917 -5.66051,-2.65172 -6.46173,-4.49313 -0.076,-0.17476 -0.89346,-0.90878 -1.8165,-1.63116 -2.9348,-2.29679 -2.73487,-3.20511 1.71506,-7.79168 3.39678,-3.5011 8.47399,-9.17061 11.3348,-12.65712 l 2.10726,-2.56816 -1.07251,-0.56194 c -1.57635,-0.82594 -2.26502,-0.39154 -2.12438,1.34002 0.11411,1.40494 0.0587,1.47082 -1.67319,1.99037 -0.98516,0.29553 -2.20406,0.43371 -2.70866,0.30707 -0.53261,-0.13368 -1.78044,0.14098 -2.97482,0.65479 -1.7001,0.73137 -2.48015,0.83979 -4.49182,0.62436 -1.83672,-0.1967 -2.82714,-0.0964 -4.03396,0.40871 -1.24854,0.52252 -2.26676,0.61398 -4.640138,0.41677 -2.27333,-0.18889 -3.40563,-0.10013 -4.48715,0.35176 -1.84561,0.77115 -3.58719,0.76473 -6.23972,-0.023 -1.93509,-0.57466 -2.25063,-0.5722 -3.75385,0.0293 -1.87177,0.74893 -2.92079,0.63279 -7.665761,-0.84874 -2.688564,-0.83945 -3.332604,-0.91723 -4.117416,-0.49721 -0.773848,0.41415 -1.310592,0.36865 -3.190968,-0.27051 -1.243348,-0.42263 -2.733616,-1.1664 -3.311704,-1.65283 -1.0254,-0.86282 -1.095956,-0.86828 -2.888796,-0.22358 -1.622196,0.58334 -2.2521,0.60125 -5.370881,0.15267 -1.943232,-0.27949 -3.893152,-0.73615 -4.333152,-1.01479 -0.461172,-0.29205 -1.520008,-0.43382 -2.5,-0.33474 -1.106536,0.11188 -1.7,0.0127 -1.7,-0.2842 0,-0.3165 -0.222012,-0.33727 -0.725372,-0.0679 -0.496684,0.26582 -1.502732,0.19239 -3.1911,-0.23291 -2.225552,-0.56062 -2.513868,-0.75425 -2.959972,-1.98793 -0.300424,-0.83081 -0.81372,-1.42596 -1.3089,-1.51764 -0.44806,-0.083 -2.074656,-0.35782 -3.614656,-0.61084 -3.791524,-0.62293 -4.692152,-1.24671 -4.53144,-3.13848 l 0.125076,-1.47226 -2.19682,-0.0917 c -3.360669,-0.14021 -9.572385,-1.19011 -10.219688,-1.72732 -0.857048,-0.71129 -0.721397,-1.12156 0.822871,-2.48875 0.77,-0.68171 1.4,-1.56635 1.4,-1.96587 0,-0.79772 -0.42682,-0.93958 -1.025536,-0.34086 -0.609465,0.60946 -9.203117,0.5461 -13.290135,-0.098 -6.211213,-0.97885 -5.667987,-1.47811 2.914156,-2.6783 5.573312,-0.77941 14.305975,-2.8763 22.074968,-5.30063 2.357632,-0.7357 2.464352,-1.00781 0.687964,-1.75414 -1.340612,-0.56324 -1.985656,-0.59189 -4.561416,-0.2026 -3.702621,0.55959 -9.865923,0.58866 -10.200001,0.0481 -0.135974,-0.22001 -1.911769,-0.4 -3.946452,-0.4 -3.520195,0 -8.71231,-0.76303 -14.853548,-2.18287 -3.191224,-0.73781 -6.825897,-2.12415 -10.6000007,-4.04308 -1.4300003,-0.72708 -3.0950003,-1.50923 -3.7000003,-1.73811 -1.33523,-0.50513 -1.44415,-1.23594 -0.184206,-1.23594 0.503687,0 3.338687,0.731 6.3,1.62445 2.961314,0.89345 7.904207,2.05215 10.984207,2.5749 6.552522,1.11211 14.6,1.72179 14.6,1.10611 0,-0.45709 -0.926948,-0.84858 -5,-2.11174 -6.608548,-2.04948 -13.01355,-5.67127 -16.896803,-9.55452 -2.136978,-2.13698 -5.2547485,-7.02098 -4.783053,-7.49268 0.108407,-0.10841 1.697846,1.35846 3.532086,3.2597 3.798607,3.93736 7.068748,6.2498 12.419783,8.78249 3.149235,1.49057 10.529094,3.81864 12.071778,3.8082 0.250915,-0.002 -1.330051,-0.90068 -3.513257,-1.99776 -4.921285,-2.47296 -9.199064,-5.71138 -11.996748,-9.08191 -1.869329,-2.25209 -4.569917,-6.51724 -4.126559,-6.51724 0.08644,0 0.763718,0.855 1.505071,1.9 2.04149,2.87765 6.293857,7.17873 9.047095,9.15073 3.183659,2.28029 9.268401,5.1534 12.554075,5.92781 4.019772,0.94744 4.442132,0.74101 1.608172,-0.78599 -3.886118,-2.09392 -3.71179,-2.24872 0.837964,-0.74409 10.026633,3.31585 15.837397,4.06905 25.740397,3.33652 14.558925,-1.07693 25.185409,-1.3175 46.599998,-1.05499 15.270778,0.18721 15.423498,0.18103 18.199998,-0.73644 1.54,-0.50888 3.91074,-1.02635 5.2683,-1.14994 3.8743,-0.35272 5.37641,-1.13627 6.85488,-3.57574 0.70226,-1.15871 1.27682,-2.47873 1.27682,-2.93337 0,-2.95911 6.73662,-5.73919 11.0728,-4.56954 1.20781,0.3258 2.0379,0.92153 2.98624,2.14313 2.53143,3.26086 6.01698,6.89993 7.4396,7.76727 0.88899,0.542 2.43839,0.97188 4.06857,1.12883 1.44804,0.13941 3.8928,0.67222 5.4328,1.18403 2.78152,0.92442 2.90163,0.92931 18.2,0.74177 21.41459,-0.26251 32.04107,-0.0219 46.6,1.05499 9.903,0.73253 15.71376,-0.0207 25.74039,-3.33652 4.54976,-1.50463 4.72409,-1.34983 0.83797,0.74409 -2.83396,1.527 -2.4116,1.73343 1.60817,0.78599 3.28568,-0.77441 9.37042,-3.64752 12.55408,-5.92781 2.75323,-1.972 7.0056,-6.27308 9.04709,-9.15073 0.74136,-1.045 1.41864,-1.9 1.50507,-1.9 0.44336,0 -2.25723,4.26515 -4.12655,6.51724 -2.79769,3.37053 -7.07547,6.60895 -11.99675,9.08191 -2.18321,1.09708 -3.76418,1.99607 -3.51326,1.99776 1.54268,0.0104 8.92254,-2.31763 12.07178,-3.8082 5.35103,-2.53269 8.62117,-4.84513 12.41978,-8.78249 1.83424,-1.90124 3.42368,-3.36811 3.53209,-3.2597 0.1084,0.10841 -0.39748,1.31266 -1.12419,2.67611 -3.12599,5.86496 -11.09697,11.43771 -20.55567,14.37109 -4.07305,1.26316 -5,1.65465 -5,2.11174 0,0.61568 8.04748,0.006 14.6,-1.10611 3.08,-0.52275 8.02289,-1.68145 10.98421,-2.5749 2.96131,-0.89345 5.79631,-1.62445 6.3,-1.62445 1.25994,0 1.15102,0.73081 -0.18421,1.23594 -0.605,0.22888 -2.27,1.01103 -3.7,1.73811 -3.7741,1.91893 -7.40878,3.30527 -10.6,4.04308 -6.14124,1.41984 -11.33335,2.18287 -14.85355,2.18287 -2.03468,0 -3.81048,0.17999 -3.94645,0.4 -0.33408,0.54055 -6.49738,0.51148 -10.2,-0.0481 -2.57576,-0.38928 -3.22081,-0.36064 -4.56142,0.2026 -1.77639,0.74633 -1.66967,1.01844 0.68797,1.75414 7.76899,2.42434 16.50165,4.52122 22.07497,5.30063 8.58214,1.20019 9.12536,1.69945 2.91415,2.6783 -4.08702,0.64409 -12.68067,0.70744 -13.29014,0.098 -0.59871,-0.59872 -1.02553,-0.45685 -1.02553,0.34086 0,0.39952 0.63,1.28416 1.4,1.96587 1.54427,1.36719 1.67992,1.77746 0.82287,2.48875 -0.6473,0.53721 -6.85902,1.58711 -10.21969,1.72733 l -2.19682,0.0917 0.12508,1.47226 c 0.16071,1.89176 -0.73992,2.51554 -4.53144,3.13848 -1.54,0.25301 -3.1666,0.52789 -3.61466,0.61084 -0.49518,0.0917 -1.00847,0.68682 -1.3089,1.51763 -0.4461,1.23368 -0.73442,1.42732 -2.95997,1.98793 -1.68837,0.4253 -2.69442,0.49874 -3.1911,0.23292 -0.50336,-0.2694 -0.72537,-0.24862 -0.72537,0.0679 0,0.29686 -0.59347,0.39608 -1.7,0.2842 -0.97999,-0.0991 -2.03883,0.0427 -2.5,0.33474 -0.44,0.27864 -2.38992,0.7353 -4.33315,1.01479 -3.11878,0.44858 -3.74869,0.43067 -5.37088,-0.15267 -1.79284,-0.6447 -1.8634,-0.63924 -2.8888,0.22358 -0.57809,0.48643 -2.06836,1.2302 -3.3117,1.65283 -1.88038,0.63916 -2.41712,0.68466 -3.19097,0.27051 -0.78481,-0.42002 -1.42885,-0.34224 -4.11742,0.49721 -4.74497,1.48153 -5.79399,1.59767 -7.66576,0.84874 -1.50322,-0.60147 -1.81876,-0.60393 -3.75385,-0.0293 -2.65253,0.78772 -4.39411,0.79413 -6.23972,0.023 -1.08152,-0.45189 -2.21382,-0.54065 -4.48715,-0.35176 -2.37338,0.19721 -3.3916,0.10575 -4.64014,-0.41677 -1.20682,-0.50506 -2.19724,-0.60541 -4.03396,-0.40871 -2.01167,0.21543 -2.79172,0.10701 -4.49182,-0.62436 -1.19438,-0.51381 -2.44221,-0.78847 -2.97482,-0.65479 -0.5046,0.12664 -1.7235,-0.0115 -2.70866,-0.30707 -1.73192,-0.51955 -1.7873,-0.58543 -1.67319,-1.99037 0.14064,-1.73156 -0.54803,-2.16596 -2.12438,-1.34002 l -1.07251,0.56194 2.10726,2.56816 c 2.86081,3.48651 7.93802,9.15602 11.3348,12.65712 4.44993,4.58657 4.64986,5.49489 1.71506,7.79168 -0.92304,0.72238 -1.74046,1.4564 -1.8165,1.63116 -0.80122,1.84141 -3.78184,3.91396 -6.46173,4.49313 -0.76999,0.1664 -1.63752,0.64169 -1.92784,1.05618 -0.57257,0.81744 -4.09101,2.73888 -5.01532,2.73888 -0.31336,0 -1.43511,0.7151 -2.49278,1.5891 -1.3698,1.13194 -2.56184,1.71959 -4.14355,2.04268 -1.22129,0.24947 -3.03787,0.78318 -4.03685,1.18602 -2.23363,0.90073 -5.33707,1.25016 -7.12519,0.80228 z m 3.34152,-82.42008 c -0.13597,-0.22 -0.42722,-0.4 -0.64722,-0.4 -0.22,0 -0.28875,0.18 -0.15278,0.4 0.13596,0.22 0.42721,0.4 0.64721,0.4 0.22,0 0.28875,-0.18 0.15279,-0.4 z"
       id="path4544"
       inkscape:connector-curvature="0" />
    <path
       style="fill:#1e1b18;stroke-width:0.40000001"
       d="m 134.1078,236.20686 c -0.88724,-0.40303 -2.50724,-0.86684 -3.6,-1.0307 -2.36945,-0.35528 -3.12167,-0.7186 -5.04223,-2.43533 -0.82582,-0.73817 -2.4243,-1.58259 -3.69527,-1.95207 -1.54543,-0.44927 -2.50463,-1.00923 -3.09375,-1.80606 -0.54666,-0.73939 -1.37087,-1.25189 -2.29091,-1.42449 -2.33942,-0.43888 -3.69338,-1.34669 -6.93094,-4.64706 -2.39083,-2.43722 -3.01754,-3.31196 -2.84515,-3.97117 0.12159,-0.46498 2.1314,-2.85975 4.46624,-5.3217 9.49813,-10.01525 14.63723,-16.63435 12.18411,-15.693 -0.36358,0.13952 -1.23766,0.0634 -1.94239,-0.16921 -0.87979,-0.29036 -1.61781,-0.29495 -2.35505,-0.0146 -0.90627,0.34456 -1.00882,0.52946 -0.65761,1.18571 0.22885,0.42761 0.41609,1.03681 0.41609,1.35378 0,0.67862 -2.00996,1.23676 -4.00766,1.11287 -0.77422,-0.048 -2.27415,0.28411 -3.33317,0.73806 -2.16724,0.92899 -3.48066,1.04387 -4.1606,0.36393 -0.34858,-0.34858 -0.93067,-0.27536 -2.38,0.29936 -1.45628,0.57748 -2.73781,0.73691 -5.318568,0.66166 -2.33592,-0.0681 -4.04878,0.11164 -5.47303,0.57431 -1.96471,0.63825 -2.22825,0.63479 -5.04351,-0.0663 -2.82446,-0.70334 -3.05469,-0.70601 -4.68348,-0.0543 -1.9688,0.78776 -2.65936,0.69606 -7.773657,-1.03229 -3.428764,-1.15874 -3.595432,-1.17796 -4.11012,-0.47408 -0.52012,0.7113 -0.600032,0.71108 -2.62632,-0.007 -1.149436,-0.40751 -2.598692,-1.16814 -3.220572,-1.6903 -1.300772,-1.09218 -1.691996,-1.13672 -3.069308,-0.34937 -0.55,0.31441 -1.630068,0.57803 -2.400148,0.58582 -1.879377,0.019 -6.709493,-1.01287 -7.391861,-1.57919 -0.333368,-0.27667 -1.106516,-0.34936 -1.977672,-0.18593 -1.336184,0.25065 -1.43032,0.20128 -1.43032,-0.75017 0,-1.31134 -0.668668,-3.07056 -1.1671,-3.07056 -0.212796,0 -0.442252,0.765 -0.5099,1.7 -0.142068,1.96355 -0.776384,2.23959 -3.475976,1.51267 -1.402168,-0.37755 -1.649016,-0.6165 -1.873596,-1.81362 -0.22734,-1.21183 -0.43512,-1.40645 -1.716044,-1.60733 -7.57576,-1.18813 -7.83042,-1.29328 -7.439788,-3.07182 0.38464,-1.75125 -0.35068,-2.31988 -2.999908,-2.31988 -1.256396,0 -2.38724,-0.10289 -2.512992,-0.22864 -0.125753,-0.12575 -1.460221,-0.30773 -2.965489,-0.40441 -3.28796,-0.21116 -4.139208,-0.44857 -4.139208,-1.15439 0,-0.6089 2.504316,-2.19978 3.522864,-2.23792 0.502652,-0.0188 0.450828,-0.11649 -0.201112,-0.37906 -0.73624,-0.29652 -0.8423,-0.57525 -0.655916,-1.72379 0.298816,-1.84138 -0.445164,-2.23128 -1.79834,-0.94245 -0.963194,0.9174 -1.419242,1.02507 -4.667496,1.10194 -3.995011,0.0945 -8.904988,-0.35394 -9.205938,-0.84089 -0.107149,-0.17337 0.750354,-0.43254 1.905561,-0.57594 6.0253,-0.74792 16.020185,-3.08811 23.500378,-5.50234 3.19732,-1.03193 3.400404,-1.20101 2.73284,-2.2752 -0.906908,-1.45933 -2.997776,-1.73191 -9.567733,-1.24735 -3.636768,0.26822 -6.236373,0.29745 -6.663988,0.0749 -0.385616,-0.20068 -2.95112,-0.46071 -5.70112,-0.57783 -7.753645,-0.33024 -19.240089,-3.04839 -22.589003,-5.34545 -1.1090081,-0.76069 -0.359694,-0.68039 3.884002,0.4162 5.23057,1.3516 10.443024,2.19858 16.747216,2.7213 5.649763,0.46846 6.757785,0.36075 6.757785,-0.65691 0,-0.89486 -1.539343,-1.74509 -4.790771,-2.64611 -5.748296,-1.59293 -12.096531,-4.84179 -15.609229,-7.98839 l -1.8,-1.61241 3,1.96015 c 7.634597,4.98832 15.516244,7.67543 23.2,7.90964 7.963905,0.24274 11.487473,0.43858 11.843201,0.65823 0.962972,0.59461 8.223092,1.49388 11.856976,1.46865 6.739836,-0.0468 10.195116,-0.47544 10.829884,-1.34354 0.459308,-0.62814 0.906556,-0.71766 2.710017,-0.54245 1.18796,0.11541 6.299924,0.0807 11.359924,-0.0772 5.230576,-0.16321 10.235497,-0.12837 11.599997,0.0808 4.91664,0.7535 13.10995,0.93367 13.33334,0.29319 0.182,-0.52182 1.26666,-0.48615 1.26666,0.0417 0,0.29015 1.970718,0.3525 6.244638,0.19758 7.34649,-0.26629 8.94354,-0.48107 11.35536,-1.52715 0.99,-0.4294 3.15943,-0.9384 4.82095,-1.13112 1.66153,-0.19272 3.73153,-0.59462 4.6,-0.89312 1.99855,-0.68691 3.90017,-3.10609 4.75619,-6.05067 0.37124,-1.27705 0.96077,-2.37216 1.40496,-2.60988 1.05146,-0.56273 1.0977,-0.54298 1.38216,0.59041 0.3044,1.21283 1.44397,1.31919 2.14292,0.2 0.73406,-1.17541 1.97052,-0.99679 2.68669,0.38814 0.33793,0.65348 0.96117,1.37372 1.38498,1.60054 0.42382,0.22682 1.17856,1.13831 1.6772,2.02553 0.95701,1.70276 2.0432,1.98272 2.25494,0.5812 0.50847,-3.36568 1.13422,-3.38956 4.30154,-0.16413 3.02442,3.07991 4.57081,3.86949 8.461,4.32018 1.71956,0.19921 3.93648,0.71352 4.92648,1.14292 2.41182,1.04608 4.00887,1.26086 11.35536,1.52715 4.27392,0.15492 6.24464,0.0926 6.24464,-0.19758 0,-0.52782 1.08466,-0.56349 1.26666,-0.0417 0.22339,0.64047 8.4167,0.4603 13.33334,-0.2932 1.3645,-0.20912 6.36942,-0.24397 11.6,-0.0808 5.06,0.15788 10.17196,0.19263 11.35992,0.0772 1.80346,-0.17521 2.25071,-0.0857 2.71002,0.54245 0.63477,0.8681 4.09005,1.29676 10.82988,1.34354 3.63389,0.0252 10.89401,-0.87404 11.85698,-1.46865 0.35573,-0.21965 3.87929,-0.41549 11.8432,-0.65823 7.68375,-0.23421 15.5654,-2.92132 23.2,-7.90964 l 3,-1.96015 -1.8,1.61241 c -3.5127,3.1466 -9.86093,6.39546 -15.60923,7.98839 -3.25143,0.90102 -4.79077,1.75125 -4.79077,2.64611 0,1.01766 1.10802,1.12537 6.75778,0.65691 6.3042,-0.52272 11.51665,-1.3697 16.74722,-2.7213 4.2437,-1.09659 4.99301,-1.17689 3.884,-0.4162 -3.34891,2.29706 -14.83536,5.01521 -22.589,5.34545 -2.75,0.11712 -5.31551,0.37715 -5.70112,0.57783 -0.42762,0.22254 -3.02722,0.19331 -6.66399,-0.0749 -6.56996,-0.48456 -8.66082,-0.21198 -9.56773,1.24735 -0.66757,1.07419 -0.46448,1.24327 2.73284,2.2752 7.48019,2.41423 17.47507,4.75442 23.50038,5.50234 1.1552,0.1434 2.01271,0.40257 1.90556,0.57594 -0.30095,0.48695 -5.21093,0.93543 -9.20594,0.84089 -3.24825,-0.0769 -3.70431,-0.18454 -4.6675,-1.10194 -1.35317,-1.28883 -2.09715,-0.89893 -1.79834,0.94245 0.18639,1.14854 0.0803,1.42727 -0.65591,1.72379 -0.65194,0.26257 -0.70377,0.36024 -0.20112,0.37906 1.01855,0.0381 3.52287,1.62902 3.52287,2.23792 0,0.70582 -0.85125,0.94323 -4.13921,1.15439 -1.50527,0.0967 -2.83974,0.27866 -2.96549,0.40441 -0.12575,0.12575 -1.25659,0.22864 -2.51299,0.22864 -2.64923,0 -3.38455,0.56863 -2.99991,2.31988 0.39063,1.77854 0.13597,1.88369 -7.43979,3.07182 -1.28092,0.20088 -1.4887,0.3955 -1.71604,1.60733 -0.22458,1.19712 -0.47143,1.43607 -1.8736,1.81363 -2.69959,0.72693 -3.3339,0.45089 -3.47597,-1.51266 -0.0677,-0.935 -0.29711,-1.7 -0.5099,-1.7 -0.49843,0 -1.1671,1.75921 -1.1671,3.07056 0,0.95144 -0.0941,1.00081 -1.43032,0.75014 -0.87116,-0.16343 -1.64431,-0.0907 -1.97767,0.18593 -0.68237,0.56632 -5.51249,1.59822 -7.39186,1.57919 -0.77008,-0.008 -1.85015,-0.27141 -2.40015,-0.58582 -1.37731,-0.78734 -1.76854,-0.74281 -3.06931,0.34938 -0.62188,0.52215 -2.07114,1.28278 -3.22057,1.69029 -2.02629,0.71837 -2.1062,0.71859 -2.62632,0.007 -0.51469,-0.70388 -0.68136,-0.68465 -4.11012,0.47408 -5.1143,1.72835 -5.80486,1.82005 -7.77366,1.03229 -1.62879,-0.6517 -1.85902,-0.64904 -4.68348,0.0543 -2.81526,0.70105 -3.0788,0.70452 -5.04351,0.0663 -1.42425,-0.46267 -3.13711,-0.64241 -5.47303,-0.5743 -2.58076,0.0752 -3.86229,-0.0842 -5.31857,-0.66167 -1.44933,-0.57472 -2.03142,-0.64794 -2.38,-0.29936 -0.67994,0.67994 -1.99336,0.56506 -4.1606,-0.36393 -1.05902,-0.45395 -2.55895,-0.78608 -3.33317,-0.73806 -1.9977,0.1239 -4.00766,-0.43423 -4.00766,-1.11286 0,-0.31696 0.18724,-0.92616 0.41609,-1.35378 0.35121,-0.65624 0.24866,-0.84114 -0.65761,-1.18571 -0.73724,-0.28029 -1.47526,-0.2757 -2.35505,0.0146 -0.70473,0.23259 -1.57881,0.30873 -1.94239,0.16921 -2.45312,-0.94135 2.68598,5.67776 12.18411,15.693 2.33484,2.46195 4.34465,4.85672 4.46624,5.32171 0.17239,0.65921 -0.45432,1.53395 -2.84515,3.97117 -3.23756,3.30037 -4.59152,4.20817 -6.93094,4.64705 -0.92004,0.1726 -1.74425,0.6851 -2.29091,1.42449 -0.58912,0.79684 -1.54832,1.3568 -3.09375,1.80606 -1.27097,0.36948 -2.86945,1.2139 -3.69527,1.95207 -1.92056,1.71674 -2.67278,2.08005 -5.04223,2.43534 -1.09276,0.16386 -2.71276,0.62767 -3.6,1.03069 -1.03413,0.46976 -2.54637,0.73278 -4.21315,0.73278 -1.66677,0 -3.17901,-0.26302 -4.21314,-0.73278 z m 7.42722,-78.82336 c -0.59012,-1.10264 -0.51178,-2.0263 0.17185,-2.0263 0.64238,0 1.41408,1.18624 1.41408,2.1737 0,0.88168 -1.08937,0.78042 -1.58593,-0.1474 z"
       id="path4542"
       inkscape:connector-curvature="0" />
  </g>
</svg>
