<?xml version="1.0" encoding="UTF-8"?>
<!-- Created with Inkscape (http://www.inkscape.org/) -->
<svg id="svg5551" width="57.504mm" height="99.818mm" version="1.1" viewBox="0 0 57.504 99.818" xmlns="http://www.w3.org/2000/svg" xmlns:cc="http://creativecommons.org/ns#" xmlns:dc="http://purl.org/dc/elements/1.1/" xmlns:rdf="http://www.w3.org/1999/02/22-rdf-syntax-ns#">
 <metadata id="metadata5548">
  <rdf:RDF>
   <cc:Work rdf:about="">
    <dc:format>image/svg+xml</dc:format>
    <dc:type rdf:resource="http://purl.org/dc/dcmitype/StillImage"/>
    <dc:title/>
   </cc:Work>
  </rdf:RDF>
 </metadata>
 <g id="layer1" transform="translate(-101.27 -110.26)">
  <g id="g4633" transform="matrix(.26458 0 0 .26458 28.351 105.33)">
   <g id="g4622">
    <g id="g4612">
     <g id="g4603" stroke-width=".32">
      <path id="path4551" d="m447.5 395.17c-1.9295-1.3206-3.4993-3.9507-4.1288-6.9174-0.2054-0.968-0.5142-4.28-0.6862-7.36-0.3326-5.9557-0.5744-7.6899-1.2468-8.9404-0.4191-0.77955-0.4205-0.77862-1.2223 0.79888-0.4414 0.86861-1.3479 3.2702-2.0144 5.3368-2.0591 6.3848-3.5065 8.304-5.5983 7.4234-2.0059-0.84439-3.3241-3.9643-4.3178-10.219-0.2237-1.408-0.6057-3.0403-0.8488-3.6272l-0.4422-1.0673-1.2883 1.4636c-1.9285 2.1908-4.746 3.2548-6.1591 2.3258-1.0938-0.71913-3.6286-4.6452-4.7886-7.4169-0.7283-1.7402-1.2147-2.5171-1.5216-2.43-0.2481 0.0704-1.3587 0.10979-2.468 0.0875-1.8191-0.0366-2.1572-0.15536-3.4443-1.21-0.785-0.64323-2.4057-2.6266-3.6015-4.4075l-2.1743-3.238-1.6349-0.16637c-0.9027-0.0919-1.9128-0.41782-2.2552-0.72774-0.3616-0.3272-0.8448-0.47517-1.1585-0.35479-1.4904 0.57194-5.3144-5.5598-5.3144-8.5217 0-0.78394-0.2633-1.1136-1.52-1.9028-0.836-0.52496-1.7883-0.95722-2.1164-0.96058-1.0407-0.0106-3.0897-1.3807-3.8194-2.5539-0.5818-0.93545-0.704-1.6048-0.7032-3.8522 0-2.4351 0.1134-2.9503 1.0746-4.9183l1.0737-2.1983-1.0443-1.4817c-0.5744-0.81495-1.2848-1.8417-1.5787-2.2817-0.294-0.44-0.9916-1.4716-1.5504-2.2923-0.58-0.85197-1.0159-1.9014-1.0159-2.4458 0-1.0219-0.4435-1.3411-1.8661-1.3431-1.2768-2e-3 -2.8862-1.1155-3.1054-2.1489-0.1038-0.48946-0.4542-1.7539-0.7787-2.8099-0.3244-1.056-0.6883-2.496-0.8085-3.2-0.2725-1.5961-0.6615-2.08-1.672-2.08-1.1799 0-2.4695-1.579-2.9175-3.5719-0.8008-3.5627-0.8963-4.2922-0.6711-5.1252 0.3264-1.2071-0.3911-2.0811-1.9202-2.3395-0.6947-0.11737-1.6188-0.56909-2.0535-1.0038-0.671-0.67097-0.7972-1.1146-0.8349-2.935-0.038-1.8274-0.191-4.4985-0.3004-5.2385-0.017-0.11765-0.5109-0.51011-1.0967-0.87214s-1.2171-0.99202-1.403-1.4c-0.3788-0.83144-0.2607-5.0076 0.236-8.3396 0.313-2.0999 0.2942-2.2233-0.4812-3.1447-0.4438-0.52747-0.8888-1.2851-0.9888-1.6835-0.192-0.76524 0.5772-4.167 1.3085-5.7862 1.8782-4.1588 1.7799-4.32-2.6351-4.32h-3.1982l-1.9103 2.16c-1.0507 1.188-2.1876 2.5049-2.5266 2.9265-4.6414 5.7731-15.598 16.767-20.156 20.225-6.7314 5.1068-10.067 6.9433-13.132 7.2295l-2.0375 0.19026-1.4383-1.3258c-1.5989-1.4738-1.7169-1.5029-3.5326-0.87084-1.2231 0.42583-2.7915 0.60326-4.7386 0.53607-0.9251-0.0319-2.5718-1.5682-4.1238-3.8474-0.7186-1.0552-0.7966-1.0839-3.032-1.1134-1.9643-0.0259-2.4133-0.14189-3.12-0.80604-0.4541-0.42668-0.8256-0.88828-0.8256-1.0258s-0.324-0.74253-0.72-1.3445-0.864-1.3337-1.04-1.6261c-0.1923-0.31946-0.8945-0.59552-1.76-0.69182-0.792-0.0881-1.8905-0.30421-2.4413-0.48018-1.2333-0.39407-2.2417-1.4126-1.7187-1.7358 0.2595-0.16037 0.233-0.37281-0.094-0.75177-0.5718-0.6631-1.1861-2.4614-1.1861-3.4723 0-0.58678-0.2838-0.8857-1.2-1.2637-1.9066-0.78668-3.3585-2.0175-3.1809-2.6965 0.085-0.32433-0.093-1.0635-0.3942-1.6427-0.3559-0.68331-0.5334-1.7068-0.5057-2.9153 0.04-1.7374-0.018-1.8935-0.8582-2.3282-0.4956-0.25625-0.901-0.63088-0.901-0.8325s-0.252-0.64538-0.56-0.98613-0.5775-1.1441-0.5988-1.7852c-0.021-0.64111-0.2974-1.8709-0.6135-2.7329-0.4943-1.3479-0.519-1.751-0.1769-2.88 0.2188-0.722 0.4012-1.5287 0.4053-1.7927 0.019-1.2211-0.4997-4.045-0.8162-4.4445-0.4525-0.5712-0.3088-1.6174 0.4312-3.1388 0.4488-0.92266 0.5085-1.3612 0.2507-1.8428-0.186-0.3476-0.4039-1.9329-0.4842-3.523l-0.146-2.891 1.1137-1.4478c0.6126-0.79631 1.6408-1.7316 2.2849-2.0785 1.0772-0.58007 1.1658-0.73507 1.1038-1.9311-0.037-0.71522 0.043-1.4782 0.1769-1.6955 0.1343-0.2173 0.1023-0.56879-0.071-0.78108-1.0254-1.2551 0.7631-4.2081 3.3374-5.5106 1.7672-0.89411 1.7738-0.90291 1.5291-2.0467-0.3138-1.4674-0.297-2.2734 0.1006-4.8061 0.2633-1.6779 0.5059-2.2209 1.3148-2.9437 0.9625-0.85996 3.6516-1.8738 4.9964-1.8838 1.128-8e-3 1.3015-0.39539 1.3171-2.9383 0.012-1.855 0.1498-2.6119 0.56-3.0652 0.2997-0.33109 0.5448-0.98876 0.5448-1.4615 0-1.883 3.628-2.8365 7.6234-2.0034 1.2627 0.26328 6.22 1.874 11.016 3.5794s9.7284 3.4463 10.96 3.8687c1.232 0.42239 4.184 1.4714 6.56 2.331 7.156 2.5892 17.34 5.8108 18.986 6.006 1.4623 0.17344 6.6353-0.41487 7.4926-0.8521 0.6489-0.33096-0.2665-1.339-2.6965-2.9694-1.2004-0.80538-2.4474-1.7569-2.7709-2.1144-0.8019-0.88605-1.2485-3.0096-0.8521-4.0521 0.2819-0.74161 0.1667-0.96781-1.1088-2.1758-1.7123-1.6216-3.6898-5.0391-3.6898-6.3766 0-0.62288-0.3493-1.3649-0.9816-2.085-0.8825-1.0051-0.9674-1.284-0.8417-2.7622 0.095-1.1166-0.052-2.1577-0.4582-3.2443-0.7913-2.1168-0.7569-2.7172 0.2401-4.1864 0.7351-1.0832 0.7948-1.3569 0.4838-2.217-0.1952-0.53967-0.3008-1.753-0.2347-2.6962 0.071-1.0103-0.062-2.1515-0.3237-2.7774-0.2442-0.58437-0.444-1.6248-0.444-2.312 0-1.0709 0.2058-1.4392 1.44-2.5769 0.792-0.73004 1.44-1.4741 1.44-1.6535s-0.2714-0.86042-0.6031-1.5134c-0.7793-1.5339-1.5605-4.6162-1.8254-7.2018-0.242-2.3614 0.4053-4.2063 1.6792-4.7868 0.8816-0.40167 0.9184-0.85966 0.2252-2.7987-0.2831-0.792-0.5515-2.592-0.5964-4-0.045-1.408-0.1879-3.223-0.3177-4.0334-0.3198-1.997 0.4386-3.5688 2.228-4.6175 0.7405-0.434 1.5773-0.78909 1.8595-0.78909 0.8715 0 0.8759-0.48383 0.016-1.7493-0.7472-1.0996-0.8057-1.4038-0.6102-3.1735 0.119-1.0765 0.3295-3.047 0.468-4.3788 0.1384-1.3318 0.4749-2.8689 0.7476-3.4156 0.4562-0.91456 0.4497-1.0702-0.082-1.9447-0.3179-0.52281-1.0962-1.3618-1.7295-1.8644-1.4019-1.1126-3.4823-4.0285-3.9624-5.5538-0.6278-1.9942-0.7961-4.3346-0.3707-5.1551 0.8857-1.7085 2.0931-3.4625 2.394-3.4778 0.176-9e-3 1.0927-0.80666 2.0371-1.7726 1.3415-1.372 1.6779-1.9136 1.5375-2.4753-0.099-0.39549-0.4036-1.5065-0.6772-2.4688-0.7208-2.5357-0.599-3.8434 0.731-7.8502 0.1753-0.528 0.4005-1.3364 0.5004-1.7965 0.1499-0.69058 0.322-0.8097 0.9864-0.68269 0.5787 0.11062 0.8048 0.01501 0.8048-0.34023 0-0.72802 1.5509-1.8205 2.5843-1.8205 0.4939 0 0.9646-0.108 1.046-0.24 0.081-0.132 0.3198-1.6794 0.5298-3.4388 0.4445-3.7248 0.6169-4.139 1.9099-4.5898 1.0622-0.37029 1.0519-1.1607-0.019-1.5008-0.5978-0.18975-0.8834-1.4306-0.3293-1.4306 0.1547 0 0.4538-0.41668 0.6647-0.92597 0.5448-1.3152 2.6827-2.0942 4.965-1.809l1.7098 0.21363-0.315-1.3793c-0.7571-3.3159 0.1361-10.48 1.6724-13.413 0.2208-0.42153 0.5066-0.98242 0.6353-1.2464 0.4002-0.82155 4.1738-0.51859 5.8617 0.4706 0.7597 0.44517 1.4869 0.8094 1.6161 0.8094 0.3409 0-0.073-3.0393-1.1113-8.16-1.0499-5.1775-1.0552-8.2036-0.018-10.548 0.5548-1.2543 0.7723-1.4523 1.5958-1.4523 1.7397 0 3.2136 1.8078 8.6946 10.665 1.8534 2.995 3.6839 5.3355 4.1728 5.3355 0.8058 0 0.2221-3.843-1.8121-11.929-1.6876-6.7083-2.3683-10.903-2.3709-14.611 0-4.4337 1.303-8.3404 2.7884-8.3404 1.3366 0 2.6336 2.8406 8.9862 19.68 4.4415 11.774 5.9984 15.132 6.6933 14.437 0.3776-0.37756 0.079-2.8031-0.7125-5.7813-0.8545-3.217-2.5623-10.894-3.0287-13.616-0.1659-0.968-0.4531-2.624-0.6382-3.68-0.5593-3.1916-0.7545-9.4124-0.3726-11.871 0.6458-4.1568 1.5662-6.5371 3.1341-8.105 1.4008-1.4008 1.4242-1.41 2.0358-0.79843 0.7615 0.76154 1.4354 3.3507 3.6998 14.215 2.5156 12.069 3.4289 16.111 5.6038 24.8 2.5666 10.254 3.0805 11.93 3.7718 12.3 1.3791 0.73802 1.7106-1.6195 0.8158-5.7993-0.2757-1.2875-0.6252-3.0609-0.7766-3.9409-1.5159-8.8057-1.8896-11.167-2.0508-12.96-0.1029-1.144-0.2961-3.304-0.4293-4.8-0.6278-7.0515 0.076-14.246 1.8466-18.88 0.8278-2.1666 1.3615-3.0292 2.6228-4.24 0.871-0.836 1.7101-1.52 1.8647-1.52 0.9172 0 1.4195 3.6022 3.0131 21.61 1.0114 11.429 3.1671 30.879 4.0066 36.15 0.3726 2.3393 1.2562 3.9471 1.3126 2.3886 0.086-2.3676-0.1-8.6194-0.3509-11.829-0.4731-6.0467-0.393-16.218 0.1529-19.418 1.2812-7.5085 3.4529-12.554 6.4026-14.874 0.8766-0.68957 0.9005-0.69106 1.3575-0.08508 0.3966 0.5258 0.4332 2.3171 0.2478 12.137-0.1195 6.336-0.265 12.24-0.3232 13.12-0.058 0.88-0.2781 9.088-0.4886 18.24-0.4123 17.927-0.1674 26.996 0.7539 27.918 0.397 0.39702 0.4834 0.31607 0.6507-0.60999 0.1061-0.58726 0.3422-3.2997 0.5247-6.0277 0.3613-5.4014 0.4068-5.8418 1.1396-11.04 0.8085-5.7356 1.6064-8.4231 2.9764-10.026 0.847-0.99065 0.9483-1.0284 1.4396-0.53714 0.4482 0.44821 0.5284 1.3233 0.5284 5.7625 0 4.556-0.1261 6.3383-0.7928 11.2-0.072 0.528-0.3609 2.76-0.6411 4.96s-0.6361 4.432-0.7908 4.96c-0.1548 0.528-0.3716 1.536-0.4819 2.24-0.1104 0.704-0.5457 2.936-0.9675 4.96-0.4219 2.024-1.0084 4.976-1.3035 6.56-0.295 1.584-0.895 4.32-1.3332 6.08-0.7765 3.1188-0.7862 3.3008-0.3816 7.1695 0.3341 3.1961 0.3391 5.16 0.026 10.08-0.4596 7.2121-0.9788 10.057-3.4222 18.75-0.2721 0.968-0.638 3.416-0.8131 5.44s-0.5947 5.264-0.9324 7.2c-1.1665 6.6884-1.4178 10.873-1.4318 23.84-0.012 11.289 0.047 12.813 0.5524 14.261 0.944 2.7029 4.0317 5.121 8.2446 6.4568 3.8236 1.2123 9.088 2.6037 11.829 3.1266 6.3462 1.2104 10.867 3.2581 15.259 6.9111 1.0387 0.86399 2.193 1.5518 2.6119 1.5563 0.4128 4e-3 1.136 0.28256 1.607 0.61798 0.4711 0.33542 1.7173 0.85177 2.7694 1.1474 3.2258 0.90649 6.5872 2.1005 8.781 3.1191 4.2444 1.9707 9.6782 6.0798 9.1564 6.9242-0.126 0.20374-1.0528 0.28198-2.356 0.1989-4.3756-0.27896-13.414-0.58275-15.428-0.51858-1.144 0.0364-3.36 0.0591-4.9245 0.0504-2.5479-0.0142-6.06 0.66388-6.5955 1.2735-0.088 0.10018-0.808 0.36676-1.6 0.5924s-1.9753 0.68916-2.6294 1.03c-0.6542 0.34088-2.5982 1.0611-4.32 1.6004-4.6021 1.4416-6.5167 2.2228-7.7706 3.1705-1.784 1.3484-4.1667 2.8819-4.4778 2.8819-0.702 0-2.5622 1.3963-2.5622 1.9232 0 1.0676 7.126 16.626 9.0856 19.837 0.5908 0.968 1.3295 2.264 1.6415 2.88s1.0335 1.696 1.6031 2.4c0.5697 0.704 1.5925 2.1673 2.2728 3.2517 0.6803 1.0844 3.1041 4.7564 5.3862 8.16 6.8234 10.177 12.011 21.102 12.011 25.295 0 1.6919 0.2669 2.2288 5.6943 11.453 3.7857 6.4339 6.855 10.951 12.841 18.897 2.8296 3.7562 5.1447 7.0266 5.1447 7.2678 0 0.54505-0.7989 0.3367-3.1855-0.83085-2.9821-1.4588-5.7682-4.761-8.8201-10.454-3.2581-6.0775-4.2603-7.3564-4.7549-6.0675-0.4175 1.0878 3.9877 13.054 7.0612 19.182 3.3291 6.6371 5.0327 9.4226 7.648 12.506 0.9522 1.1224 1.7311 2.1531 1.7309 2.2904-2e-4 0.13728-1.4042 0.24259-3.12 0.23398-2.3354-0.0118-3.3853-0.15673-4.1764-0.57686-2.4585-1.3057-4.504-4.2892-7.0815-10.329-1.3265-3.1084-2.0568-4.27-2.4421-3.8847-0.4916 0.49165 2.8455 13.008 6.488 24.333 1.7756 5.5211 2.3501 7.7033 2.0953 7.9581-0.4045 0.40445-2.6599-0.044-5.5067-1.0951-4.7081-1.7381-7.6369-7.2174-9.288-17.376-0.8348-5.136-1.2534-6.0052-3.0239-6.279-0.6737-0.10416-0.7014 0.42774-0.3294 6.3048 0.089 1.408 0.2964 5.008 0.4607 8s0.4575 7.888 0.6516 10.88 0.3079 6.52 0.2528 7.84c-0.093 2.2348-0.1513 2.4073-0.845 2.5055-1.0839 0.15353-4.0723-1.47-5.3896-2.928-1.4623-1.6186-2.1612-3.2293-2.9443-6.7859-0.5972-2.7119-1.691-10.167-2.1115-14.392-0.3395-3.4114-1.4172-4.9532-2.0568-2.9426-0.343 1.0784-1.3869 9.1672-1.949 15.103-0.3725 3.9339-1.3633 9.7763-1.8858 11.12-0.433 1.1135-1.4109 1.1528-2.9238 0.11738z" fill="#313131"/>
      <path id="path4549" d="m448.46 395.38c-1.0829-0.41629-2.6411-1.8694-3.4082-3.1782-1.3407-2.2878-1.7165-4.1395-2.0408-10.056-0.4058-7.4038-1.0609-10.85-2.0625-10.85-0.5298 0-2.1652 3.6612-3.2162 7.2-1.9792 6.6639-4.5249 8.5486-6.8645 5.0819-0.9447-1.3998-1.448-3.159-2.428-8.488-0.502-2.7298-0.9738-4.1583-1.4758-4.4685-0.1848-0.11421-0.849 0.36019-1.4759 1.0542-1.8585 2.0571-4.8491 3.1823-6.1103 2.2989-0.9902-0.69357-3.7432-5.0012-4.5128-7.0613-0.9733-2.605-1.3331-2.9292-3.0378-2.7371-2.3414 0.26393-3.4595-0.11952-5.1189-1.7555-0.8391-0.82723-2.3616-2.7474-3.3834-4.267l-1.8578-2.7629-1.6674-0.19747c-0.9172-0.10861-1.9304-0.43539-2.2517-0.72618-0.3213-0.29078-0.8116-0.44144-1.0895-0.33481-0.6397 0.24547-3.048-2.2816-4.0099-4.2076-0.3782-0.75734-0.794-2.1603-0.9239-3.1177-0.2205-1.6249-1.0114-3.031-1.7049-3.031-0.1656 0-0.7183-0.29712-1.2283-0.66022-0.51-0.36314-1.0701-0.57191-1.2449-0.46391-0.532 0.32883-3.1955-1.446-3.7346-2.4886-0.8569-1.657-0.4621-5.6729 0.8016-8.1537 1.1455-2.2489 1.1412-2.2749-0.8107-4.8736-2.0641-2.7481-3.303-4.8684-3.303-5.6532 0-1.4903-0.5421-2.0268-2.0481-2.0268-1.5657 0-3.0719-0.94684-3.0719-1.9312 0-0.33263-0.279-1.3662-0.62-2.2968s-0.7157-2.3646-0.8325-3.1866c-0.2296-1.6148-1.1023-2.8254-2.0368-2.8254-0.3214 0-0.9521-0.28924-1.4015-0.64276-1.0255-0.8067-2.309-5.784-1.9854-7.6994 0.2563-1.5174-0.4695-2.3515-2.3011-2.6443-2.0402-0.32624-2.2985-0.84828-2.4863-5.0249l-0.1648-3.6644-1.4832-1.3618c-1.285-1.1799-1.454-1.4793-1.2651-2.2421 0.1199-0.48421 0.2043-1.1684 0.1875-1.5204-0.092-1.9402 0.062-4.9612 0.3097-6.0723 0.2529-1.133 0.1784-1.4308-0.6804-2.72-0.7491-1.1246-0.9309-1.6976-0.8147-2.5677 0.2306-1.7262 0.8468-3.9312 1.2967-4.64 0.2235-0.352 0.6002-1.3458 0.8372-2.2084 0.4133-1.5037 0.4009-1.5928-0.2996-2.16-0.5939-0.48095-1.2887-0.5916-3.7148-0.5916h-2.9842l-6.2117 6.96c-9.7373 10.911-14.231 15.274-20.387 19.799-5.7244 4.2073-8.2911 5.532-11.236 5.799-1.7301 0.15688-1.9999 0.0957-2.7813-0.63062-0.4759-0.44239-1.2568-1.0526-1.7353-1.356-0.8244-0.52275-0.9471-0.52226-2.3393 9e-3 -0.8081 0.30862-2.3843 0.57425-3.5025 0.59027-2.3575 0.0338-3.0269-0.41388-4.8615-3.2508l-1.0863-1.68h-2.0493c-2.483 0-3.5025-0.3504-4.0651-1.397-0.2342-0.43593-0.7776-1.4561-1.2073-2.2671-0.804-1.5171-0.942-1.5913-3.5961-1.9347-1.6961-0.21939-3.4695-1.3614-2.7779-1.7888 0.3255-0.20117 0.2639-0.42337-0.277-0.99915-0.3826-0.40725-0.7945-1.3868-0.9153-2.1768-0.271-1.7718-0.5797-2.1747-2.2078-2.8816-1.3312-0.57795-3.1392-2.2348-2.4388-2.2348 0.4562 0 0.196-1.15-0.4344-1.92-0.2161-0.264-0.3985-1.3372-0.4054-2.3849-0.011-1.6663-0.121-1.9983-0.8794-2.6506-0.4768-0.41014-0.7909-0.94373-0.698-1.1858 0.1068-0.27839-0.1298-0.515-0.644-0.64407-0.7054-0.17705-0.7924-0.33954-0.6582-1.2293 0.098-0.65036-0.075-1.4796-0.4739-2.2675-0.497-0.98231-0.5837-1.5849-0.4144-2.88 0.3034-2.321 0.189-7.0575-0.1735-7.1845-0.4634-0.16229-0.3646-1.4903 0.2193-2.9496 0.4192-1.0477 0.4551-1.5444 0.1799-2.4865-0.3194-1.0931-0.4801-3.1459-0.4122-5.2644 0.033-1.014 2.1641-3.517 3.6492-4.285 0.8353-0.43192 0.9145-0.60323 0.7495-1.6204-0.1015-0.62559-0.032-1.4232 0.1552-1.7724 0.2471-0.46163 0.2312-0.83813-0.058-1.379-0.7574-1.4153 1.0166-3.8843 3.716-5.1716 1.3151-0.62711 1.5364-1.1485 1.0539-2.4829-0.2843-0.78601-0.2857-1.3891-0.01-2.5004 0.2028-0.80551 0.3687-1.888 0.3687-2.4056 0-0.68936 0.337-1.2456 1.2601-2.0795 1.1762-1.0626 1.9955-1.415 4.8199-2.0733l1.12-0.26101 0.2141-2.3809c0.1177-1.3095 0.5034-3.1729 0.8571-4.1409 0.5344-1.4628 0.8495-1.8568 1.8659-2.3332 2.0089-0.94167 5.8215-0.57777 10.343 0.98721 5.9934 2.0744 20.982 7.3662 24.623 8.6931 4.6115 1.6806 14.757 4.9807 17.297 5.6263 1.3102 0.33303 2.613 0.45625 3.52 0.33295 3.6305-0.49351 5.44-0.9181 5.44-1.2764 0-0.52365-1.7137-2.1016-3.84-3.5356-2.2351-1.5075-3.005-2.8988-2.7274-4.9287 0.1951-1.4274 0.1513-1.5357-1.1199-2.7656-1.7908-1.7326-3.5127-4.7159-3.5127-6.086 0-0.75672-0.2946-1.4272-0.96-2.1851-0.8441-0.96136-0.96-1.331-0.96-3.0614 0-1.0824-0.216-2.485-0.48-3.1168-0.697-1.6682-0.5943-2.8057 0.3552-3.9341 0.6209-0.7379 0.7739-1.1753 0.5961-1.7046-0.1315-0.39157-0.3583-1.936-0.5039-3.432-0.1457-1.496-0.3577-3.4191-0.471-4.2736-0.2027-1.5274-0.1803-1.5798 1.3277-3.1109l1.5338-1.5573-0.7052-1.5291c-1.3096-2.8394-2.2986-8.0272-1.862-9.7668 0.1076-0.42845 0.7011-1.2702 1.319-1.8706 1.2621-1.2264 1.3511-1.7167 0.6207-3.4219-0.2802-0.65434-0.5538-2.2697-0.6078-3.5897s-0.2029-3.0738-0.3308-3.8973-0.1445-1.8484-0.037-2.2776c0.26-1.0361 1.8658-2.5711 3.4254-3.2744 1.4372-0.64806 1.531-0.99931 0.5875-2.1988-0.7567-0.962-0.8385-2.2351-0.2798-4.352 0.209-0.792 0.4193-2.304 0.4672-3.36 0.048-1.056 0.2485-2.3254 0.4458-2.8208 0.5891-1.4789 0.4537-1.7882-1.8266-4.1733-1.202-1.2572-2.5213-2.7729-2.9318-3.368-0.7802-1.1313-1.5892-3.9894-1.5978-5.6451-0.01-1.0498 2.1245-4.9527 2.7027-4.9527 0.1926 0 0.588-0.252 0.8787-0.56s0.7187-0.71906 0.9511-0.91347c0.628-0.52537 1.8625-2.1468 1.8625-2.4463 0-0.14345-0.2089-0.76084-0.4643-1.372-0.9489-2.2711-0.9751-4.738-0.081-7.6012 0.4514-1.4449 0.9005-3.0035 0.998-3.4636 0.1466-0.69127 0.3171-0.80983 0.9822-0.68269 0.5787 0.11062 0.8048 0.01501 0.8048-0.34023 0-0.73666 1.5558-1.8205 2.6132-1.8205 1.0785 0 1.037 0.10314 1.5451-3.84 0.4651-3.6093 0.6571-4.0422 1.9154-4.3186 1.4199-0.31187 1.5088-0.7963 0.3236-1.7636l-1.0603-0.8654 0.9024-1.1832c1.1984-1.5711 2.7521-2.2127 4.8006-1.9823l1.6 0.17997v-5.0334c0-4.6656 0.062-5.2017 0.8541-7.3358 1.572-4.2378 1.4516-4.1052 3.6741-4.0452 1.3767 0.03716 2.4194 0.29317 3.5712 0.87682 0.8947 0.45338 1.6882 0.71776 1.7633 0.58751 0.235-0.40748-0.3695-4.5583-1.2349-8.4804-0.9796-4.44-0.9451-7.5451 0.1104-9.9313 1.3719-3.1013 3.0347-1.8546 8.0985 6.0724 4.1069 6.4289 5.9257 8.853 6.4156 8.5502 0.7095-0.43854-0.035-5.0589-2.134-13.248-1.5157-5.9123-1.9966-8.9522-2.0589-13.015-0.059-3.8149 0.5928-6.7979 1.7587-8.0553 1.528-1.6478 2.2295-0.4347 7.0031 12.11 7.3075 19.204 8.2962 21.44 9.4816 21.44 0.5852 0 0.2791-2.665-0.8014-6.9763-0.6042-2.411-1.4719-6.2557-1.9283-8.5437-0.4562-2.288-1.0676-5.312-1.3584-6.72-0.7865-3.8074-0.7698-12.346 0.03-15.52 0.7597-3.0134 1.4941-4.49 2.7655-5.5597 2.0789-1.7493 1.4984-3.6411 7.549 24.6 1.0923 5.0981 4.4592 18.731 5.8355 23.629 0.7526 2.6782 1.0302 3.0079 2.1163 2.5131 0.6907-0.31472 0.8087-0.57875 0.8087-1.8102 0-0.79297-0.3473-3.1361-0.7718-5.2069-0.4244-2.0708-0.9368-4.7731-1.1386-6.0051s-0.571-3.464-0.8205-4.96c-0.2495-1.496-0.6905-5.24-0.9798-8.32-1.0661-11.346 0.4504-20.138 4.1868-24.274 1.351-1.4954 1.9792-1.6567 2.3624-0.60645 0.4146 1.1365 1.1155 7.6376 2.4581 22.8 1.0331 11.666 3.8167 35.2 4.3202 36.524 0.1689 0.44425 0.4862 0.74785 0.7051 0.67466 0.4627-0.15468 0.4822-4.7469 0.081-19.137-0.2677-9.6079-0.1233-11.81 1.1256-17.166 1.1204-4.8045 4.8161-11.346 6.1542-10.892 0.5022 0.17006 0.463 16.11-0.085 34.477-0.4146 13.902-0.4847 30.483-0.1441 34.117 0.156 1.665 0.3881 2.483 0.8141 2.8685 0.5636 0.51009 0.6112 0.49804 0.8803-0.22299 0.2834-0.75918 0.5162-3.142 0.8716-8.9222 0.2313-3.7601 1.2796-11.356 1.9168-13.889 0.5817-2.3117 2.0418-5.1102 2.7349-5.242 0.4207-0.07995 0.5453 0.34546 0.702 2.3969 0.2536 3.3198 0.028 6.9282-0.9274 14.814-0.7089 5.8537-3.7896 22.364-5.5775 29.892-0.5764 2.4266-0.6213 3.1119-0.3282 5.001 1.0403 6.705-0.2175 20.384-2.5439 27.667-0.9452 2.9589-1.5319 6.119-1.724 9.2862-0.096 1.5874-0.3939 4.03-0.6613 5.4278-1.0941 5.7185-1.5322 12.586-1.572 24.646-0.034 10.353 0.03 12.062 0.5093 13.609 0.6925 2.2344 2.7179 4.3315 5.6522 5.8526 2.3919 1.2398 9.3304 3.3223 14.599 4.3816 4.2103 0.84651 7.1615 1.7269 9.1346 2.725 2.1999 1.1128 6.1073 3.792 7.1615 4.9103 0.5481 0.58152 1.4101 1.081 2.08 1.2053 0.6291 0.11675 1.4319 0.39233 1.7839 0.61242s1.936 0.78052 3.52 1.2454c3.5097 1.03 7.5036 2.5683 9.44 3.6358 3.6539 2.0144 7.2679 4.8745 6.9037 5.4637-0.1811 0.29318-8.5812 0.12274-13.304-0.26993-1.848-0.15366-3.792-0.21435-4.32-0.13487-0.528 0.0795-2.5181 0.1439-4.4224 0.14315-2.2094-9.6e-4 -3.9465 0.16729-4.8 0.46466-0.7357 0.25632-1.5896 0.46813-1.8976 0.47069-0.308 3e-3 -0.56 0.11973-0.56 0.26038 0 0.30782-1.892 1.0243-2.7049 1.0243-0.3188 0-1.0541 0.2933-1.6341 0.65177s-3.004 1.2867-5.3867 2.0628c-4.9451 1.6107-5.0615 1.6651-7.6699 3.5853-1.0616 0.78149-2.6791 1.7752-3.5945 2.2083-0.9154 0.43306-1.827 0.98335-2.0258 1.2229-0.5487 0.6611-0.031 2.0542 3.8159 10.269 0.7418 1.584 1.7796 3.816 2.3063 4.96 1.4865 3.2286 4.7251 8.912 6.3254 11.1 0.7966 1.0893 1.8904 2.6733 2.4308 3.52 0.5403 0.84673 2.8172 4.2755 5.0596 7.6195 6.4175 9.5698 12.422 22.309 11.934 25.319-0.1834 1.1301 0.011 1.5627 3.0679 6.8408 6.2942 10.866 8.1565 13.706 14.444 22.027 5.5168 7.3004 6.0511 8.0602 5.8263 8.285-0.3391 0.33907-2.6536-0.53332-4.2346-1.5961-2.7539-1.8512-5.6011-6.0055-10.415-15.196-0.9531-1.8198-1.8648-1.7088-1.8648 0.22691 0 0.71111 2.3786 7.7614 3.999 11.853 2.5808 6.5171 7.1508 14.889 10.23 18.742l2.0284 2.5378-2.8868 0.0925c-3.077 0.0986-4.5465-0.3608-6.2767-1.9621-0.9979-0.92371-3.2284-4.9359-4.7429-8.5316-0.6771-1.6078-1.5192-3.2355-1.8712-3.6172l-0.64-0.69392-0.099 1.0193c-0.1432 1.4748 3.6425 15.543 6.6523 24.72 0.8924 2.721 1.655 5.385 1.6946 5.92 0.067 0.89699 0 0.96489-0.8591 0.87251-2.0693-0.2225-5.7159-1.6487-7.3283-2.8661-1.3711-1.0351-1.8954-1.7308-2.8567-3.7908-1.4832-3.1778-2.6516-7.3235-3.2807-11.64-0.5935-4.0729-1.4981-6.1113-2.867-6.461-0.5191-0.13261-1.0044-0.18061-1.0783-0.10669-0.1723 0.17229 0.4282 11.462 1.2426 23.364 0.6283 9.1828 0.5894 11.909-0.1742 12.202-0.6331 0.24294-4.0718-1.4248-5.2342-2.5386-1.5828-1.5166-2.2517-3.0725-3.1012-7.214-0.7387-3.6009-1.0295-5.5842-1.8939-12.915-0.4199-3.5611-1.0711-5.1761-2.0141-4.9944-0.8371 0.16131-1.126 1.8509-2.1784 12.74-0.5622 5.818-1.6372 12.524-2.244 14-0.4181 1.0167-0.7683 1.1787-1.7404 0.80496z" fill="#313131"/>
      <path id="path4547" d="m447.98 394.92c-2.0165-1.1288-3.5081-3.3253-4.1508-6.1124-0.2535-1.0992-0.6038-4.5185-0.7785-7.5985-0.1748-3.08-0.4886-6.3906-0.6973-7.3569-0.4138-1.9161-1.1551-3.3016-1.6145-3.0177-0.5607 0.34653-1.8012 3.21-3.1337 7.2334-1.8712 5.6505-3.5243 7.6999-5.4008 6.6957-0.9161-0.49034-2.303-3.0158-2.6185-4.7681-0.5497-3.0541-1.5714-7.6141-1.899-8.4757-0.5345-1.4056-1.2475-1.4466-2.3857-0.13721-1.677 1.9292-4.6536 3.1146-5.8949 2.3474-0.4976-0.30755-3.0305-3.7174-3.4771-4.681-0.2039-0.44-0.8084-1.772-1.3432-2.96l-0.9724-2.16-1.8568-0.0237c-1.0213-0.0131-2.2169-0.0894-2.6569-0.16966-1.3687-0.2496-2.9528-1.8198-5.3234-5.2767-2.2202-3.2375-2.3231-3.3356-3.7111-3.5363-0.7851-0.11357-1.8744-0.43757-2.4206-0.72-0.5462-0.28246-1.1979-0.51353-1.4482-0.51353-0.6168 0-2.9011-2.5222-3.6968-4.0818-0.355-0.69597-0.7436-2.005-0.8635-2.909-0.1527-1.1512-0.4682-1.8938-1.053-2.4786-0.9346-0.93462-3.0702-2.1172-3.3386-1.8487-0.3265 0.32649-2.9927-1.4746-3.4497-2.3303-0.2768-0.51846-0.4483-1.7409-0.4378-3.1219 0.014-1.8776 0.1939-2.6344 1.04-4.3807 0.5625-1.1611 1.0227-2.2843 1.0227-2.496 0-0.21174-0.972-1.829-2.16-3.594-2.7961-4.1542-2.9496-4.4376-2.9553-5.4562-0.01-1.1817-0.792-1.8587-2.1875-1.8854-2.0378-0.0389-2.2878-0.29113-3.2845-3.3128-0.5129-1.5553-0.9329-3.1331-0.9332-3.5062 0-1.4216-1.0618-2.8332-2.5296-3.3663-1.2805-0.46506-1.4677-0.67391-2.0361-2.2721-0.3742-1.0519-0.6661-2.8335-0.7258-4.4282-0.1152-3.0821-0.4501-3.644-2.4877-4.1751-2.1593-0.5628-2.2854-0.7314-2.3495-3.1424-0.1028-3.8663-0.3952-5.667-0.9915-6.1072-1.545-1.1406-1.9993-1.7225-1.9993-2.561 0-0.49396 0.1574-1.0554 0.3497-1.2478 0.2528-0.25286 0.2486-0.53837-0.015-1.0314-0.2717-0.50756-0.2742-1.5064-0.01-3.9086 0.3506-3.1867 0.3452-3.2412-0.4409-4.3926-0.4377-0.64119-0.835-1.3818-0.8827-1.6458-0.124-0.68619 0.3708-3.6199 0.6747-4 0.1407-0.176 0.6509-1.4389 1.1338-2.8064 1.1834-3.351 0.9644-3.6175-3.1443-3.8265-1.6199-0.0824-3.2425-0.0414-3.6059 0.0911s-2.5234 2.3722-4.8 4.9771c-10.196 11.666-16.29 17.513-23.971 22.998-4.0954 2.9246-6.1503 3.9377-8.9645 4.4198l-2.0395 0.34935-1.4551-1.3412c-1.612-1.4859-1.8963-1.5445-4.1601-0.85773-1.6755 0.50826-4.5733 0.6293-5.2206 0.21806-0.2153-0.13678-1.1632-1.2506-2.1065-2.4751l-1.7151-2.2264-1.4898 0.10603c-2.3738 0.16895-3.5633-0.39269-4.6819-2.2106-0.5364-0.87177-0.9753-1.7164-0.9753-1.877 0-0.66475-1.7286-1.6184-2.9334-1.6184-0.686 0-1.7641-0.21602-2.396-0.48004-0.9991-0.41745-1.0937-0.54653-0.7255-0.99017 0.3589-0.43249 0.3232-0.59081-0.2345-1.04-0.7437-0.59901-1.0519-1.3131-1.2606-2.921-0.1762-1.357-0.2983-1.4839-2.6074-2.7103-1.6541-0.87845-1.8317-1.0713-1.7363-1.8844 0.061-0.52328-0.116-1.1513-0.42-1.4873-0.3753-0.41463-0.5263-1.1811-0.5263-2.6705 0-1.8723-0.083-2.1431-0.7959-2.6105-0.5666-0.37123-0.739-0.70071-0.5985-1.1434 0.1485-0.46815-0.01-0.69918-0.6241-0.93427-0.6361-0.24186-0.8215-0.53433-0.8215-1.2962 0-0.54109-0.1954-1.3726-0.4343-1.8479-0.7388-1.47-0.859-2.8824-0.3684-4.3276 0.3429-1.0099 0.3927-1.8218 0.1904-3.1019-0.1508-0.95365-0.2012-1.9239-0.1121-2.1562 0.089-0.23224-0.078-0.68689-0.3702-1.0104-0.4963-0.54845-0.496-0.67851 0-1.9295 0.4767-1.1914 0.4914-1.6575 0.1317-4.1674-0.2228-1.5543-0.3032-3.3687-0.1788-4.0321 0.2812-1.499 1.411-3.0117 3.0684-4.1085 1.1562-0.76518 1.2688-0.96351 1.2688-2.2359 0-0.86102 0.1871-1.5516 0.4881-1.8013 0.4374-0.36304 0.4374-0.46103 0-0.94438-0.2685-0.29663-0.4881-0.85156-0.4881-1.2332 0-0.84843 1.9928-3.1155 3.3359-3.795 1.8335-0.9276 2.0475-1.2597 1.6855-2.6157-0.4109-1.5396 0.3011-5.8893 1.1382-6.9536 0.6189-0.7867 3.1294-1.8431 5.2004-2.1883l1.28-0.21336 0.091-2.4344c0.05-1.3389 0.2927-2.8081 0.539-3.2649 0.2462-0.45674 0.5313-1.2238 0.6334-1.7046 0.3012-1.418 1.7878-2.0093 4.9764-1.9793 2.987 0.0281 2.841-0.0142 15.36 4.442 14.514 5.1664 17.022 6.0401 24.366 8.4891 9.8301 3.2782 10.644 3.4424 14.414 2.9087 3.3313-0.47149 3.7805-0.59778 3.7805-1.0628 0-0.48117-2.0142-2.2994-4.0277-3.6359-2.0379-1.3527-2.758-2.5314-2.6851-4.3952 0.081-2.0614 0.078-2.0681-1.4074-3.6661-1.9789-2.1293-3.3995-4.5712-3.3995-5.8443 0-0.72805-0.2796-1.359-0.88-1.9858-0.7693-0.80312-0.8704-1.1397-0.8032-2.6744 0.048-1.0982-0.1554-2.4168-0.5436-3.521-0.6847-1.9481-0.5281-2.8856 0.7009-4.1976 0.5737-0.6124 0.6172-0.83603 0.2987-1.535-0.205-0.45002-0.3728-1.7521-0.3728-2.8934 0-1.1414-0.216-2.5922-0.48-3.224-0.8049-1.9263-0.6283-2.7119 0.96-4.2706 0.792-0.77729 1.44-1.653 1.44-1.946s-0.2743-1.163-0.6095-1.9334c-0.3352-0.77038-0.9334-2.8697-1.3294-4.6651-0.6998-3.1732-0.7043-3.3055-0.159-4.7333 0.3085-0.80787 0.8947-1.6875 1.3025-1.9548 1.1038-0.72323 1.1788-1.2609 0.4749-3.4052-0.3845-1.1713-0.6395-2.8118-0.6395-4.1143 0-1.1915-0.1472-2.5535-0.3271-3.0266-0.7728-2.0325 0.6886-4.4295 3.4435-5.6481 0.7499-0.33175 1.3636-0.70701 1.3636-0.83392s-0.36-0.76053-0.8-1.408c-0.9387-1.3815-0.9669-1.7739-0.2946-4.1015 0.2779-0.96236 0.4876-2.4698 0.466-3.3499-0.022-0.88008 0.1806-2.2237 0.4495-2.9858 0.62-1.7572 0.3339-2.3624-2.3706-5.0141-2.76-2.7061-3.5458-4.1697-3.749-6.9819-0.1187-1.6424-0.038-2.5263 0.2836-3.0981 1.2257-2.1808 1.9523-3.201 2.2867-3.2106 0.4677-0.0135 1.3688-0.79126 2.6754-2.3091 1.0267-1.1926 1.0269-1.1936 0.5411-2.5567-1.0299-2.8898-1.1107-4.212-0.4097-6.708 1.5417-5.4893 1.4291-5.2227 2.1597-5.1154 0.4364 0.06407 0.6819-0.0721 0.6819-0.37821 0-0.62058 1.6005-1.754 2.8218-1.9983 0.8561-0.17122 0.9766-0.34598 1.1567-1.6774 0.1106-0.81744 0.3489-2.2063 0.5296-3.0863s0.3922-1.9128 0.4701-2.2951c0.092-0.45117 0.5331-0.82436 1.2572-1.0633 0.6136-0.20252 1.2038-0.51078 1.3115-0.68503 0.2428-0.39299-0.7711-1.5565-1.3565-1.5565-0.6131 0-0.5332-0.55688 0.2348-1.6354 0.9504-1.3346 2.317-1.9301 4.5705-1.9912 1.7716-0.04809 1.9541-0.11611 1.8603-0.69332-0.057-0.352-0.096-2.4728-0.086-4.7129 0.019-4.2102 0.2814-5.4778 1.9334-9.3296l0.67-1.5625 2.1532 0.15795c1.3724 0.10068 2.5957 0.40839 3.3738 0.84863 0.6713 0.37988 1.3718 0.59724 1.5566 0.48303 0.4511-0.27876 0.1209-3.0575-1.0032-8.4446-0.7674-3.6778-0.8624-4.6631-0.6385-6.6278 0.2996-2.6308 1.0462-4.4598 1.9355-4.7421 0.369-0.11711 0.9927 0.07957 1.5812 0.49857 0.8684 0.61841 3.9047 4.9864 7.0277 10.11 1.555 2.5512 4.0853 5.5612 4.6747 5.5612 0.4085 0 0.457-0.3104 0.2876-1.84-0.3126-2.8232-0.7493-4.9855-1.9223-9.52-1.8987-7.3399-2.4201-10.474-2.4666-14.828-0.046-4.2831 0.3127-6.2804 1.4015-7.8094 0.906-1.2724 1.7248-1.1325 2.5224 0.43097 0.7722 1.5137 5.5345 13.561 6.9835 17.666 1.7912 5.0748 5.205 13.167 5.9939 14.207 0.9492 1.2523 1.7281 1.0975 1.7189-0.34163 0-0.55317-0.3625-2.3738-0.7978-4.0458-0.8768-3.3684-2.1594-9.0439-2.7118-12-0.1974-1.056-0.5704-3-0.8291-4.32-0.5936-3.0293-1.0394-7.8216-0.8971-9.6436 0.3195-4.0917 0.4932-5.3989 0.9705-7.305 0.559-2.2319 1.0325-3.1691 2.3099-4.5714 1.762-1.9344 2.003-1.3971 4.3507 9.7013 3.396 16.054 3.7838 17.774 6.1266 27.179 2.7064 10.864 3.5091 13.753 3.9421 14.186 0.1995 0.19943 0.6001 0.11924 1.126-0.22538 0.7423-0.48636 0.816-0.73045 0.8117-2.6876 0-1.1839-0.2084-3.0166-0.4573-4.0726-1.2216-5.182-2.5433-14.126-3.1633-21.406-0.3599-4.2248-0.3624-5.7966-0.015-9.28 0.4438-4.4489 1.2493-8.0695 2.3213-10.434 0.8424-1.858 3.4163-4.7539 3.8387-4.319 0.3696 0.38062 1.0295 5.8525 1.9681 16.319 1.0392 11.589 3.7644 36.53 4.4827 41.026 0.5536 3.4654 1.2833 4.6358 1.9618 3.1466 0.2876-0.63108 0.2818-2.7418-0.025-9.0391-0.7028-14.446-0.483-21.822 0.8086-27.134 0.534-2.1964 2.1595-6.1902 3.1909-7.84 0.9112-1.4577 2.6189-3.0606 2.9294-2.7496 0.2593 0.25973 0.2144 13.186-0.076 21.95-1.0893 32.842-0.9927 47.83 0.3176 49.278 0.8918 0.98538 1.3652 0.28338 1.5754-2.3358 1.0689-13.319 1.7983-18.821 2.9703-22.404 0.5743-1.7559 1.9021-3.5261 2.4095-3.2125 0.8083 0.49953-0.2681 15.544-1.6902 23.625-0.84 4.7726-3.8892 19.794-4.5229 22.28-0.6735 2.643-0.6845 2.9269-0.2797 7.2418 0.7872 8.39-0.2518 17.251-3.3239 28.35-0.4297 1.5522-0.8731 4.2162-0.9855 5.92s-0.4218 4.2498-0.6875 5.6578c-1.1126 5.8941-1.4214 10.385-1.5999 23.264-0.1635 11.797-0.1267 13.243 0.3903 15.353 0.5051 2.0608 0.7678 2.5264 2.2784 4.037 1.1281 1.1282 2.4946 2.0665 4.0275 2.7657 2.5571 1.1663 10.076 3.3576 14.32 4.1738 3.7393 0.719 6.8685 1.6725 8.9747 2.7347 2.5807 1.3015 5.5572 3.3435 6.9399 4.761 1.0469 1.0732 1.7736 1.4124 5.5254 2.579 9.4387 2.9349 12.707 4.4218 16.4 7.4605 2.6241 2.1593 2.3616 2.2905-4 1.9993-8.8363-0.40439-18.201-0.4619-19.76-0.12133-0.792 0.17304-1.872 0.39485-2.4 0.4929-0.528 0.0981-1.1941 0.38289-1.4803 0.63298-0.2862 0.25008-1.0782 0.54104-1.76 0.64658-0.6818 0.10553-1.8157 0.52362-2.5197 0.92909s-3.3029 1.3998-5.7753 2.2096c-3.4227 1.1211-4.9117 1.7876-6.24 2.7934-0.9596 0.72653-2.6807 1.8152-3.8247 2.4193-2.8509 1.5054-2.9706 1.6271-2.7764 2.8236 0.1873 1.1544 2.1812 5.5808 6.3269 14.046 3.0887 6.3067 4.3047 8.5013 6.1446 11.09 0.6682 0.94034 1.8264 2.6457 2.5737 3.7897s2.7244 4.096 4.3935 6.56c4.8532 7.1646 5.9545 9.1139 9.5363 16.879 2.0039 4.3446 2.9214 7.1519 2.9214 8.9389 0 1.2887 0.2693 2.1192 1.3168 4.0609 0.7242 1.3425 1.426 2.5849 1.5596 2.7609s1.3619 2.264 2.7296 4.64c2.9047 5.0462 6.4996 10.52 9.8049 14.929 1.292 1.7235 2.5651 3.4539 2.8291 3.8453s1.524 2.0758 2.8 3.7432c1.276 1.6674 2.32 3.115 2.32 3.2171 0 0.37174-1.0288 0.17008-2.4609-0.48231-3.5291-1.6076-7.2557-6.6518-11.86-16.052-0.821-1.6764-1.5077-1.9273-2.0454-0.7473-0.2921 0.64135-0.1214 1.4708 1.0044 4.88 3.5258 10.677 8.1439 20.236 12.684 26.255 1.1209 1.4861 2.0379 2.7628 2.0379 2.8371 0 0.0743-1.1785 0.13507-2.6189 0.13507-4.5425 0-6.5152-1.5759-9.2672-7.4033-2.8102-5.9508-3.3095-6.8359-3.9199-6.949-0.5454-0.10109-0.5839 0.0272-0.3844 1.28 0.3909 2.4553 4.3021 16.544 6.4397 23.197 2.0693 6.4399 2.2816 7.3183 1.8307 7.5735-0.3749 0.21219-4.5965-0.89571-5.8411-1.5329-2.0435-1.0462-3.4034-2.3557-4.3936-4.2306-1.1969-2.2663-2.8654-7.4201-3.2727-10.109-0.6859-4.5291-0.9924-5.8456-1.6845-7.236-0.5994-1.204-0.9257-1.5013-1.8459-1.6817-0.6148-0.12057-1.1467-0.19033-1.1819-0.15507-0.082 0.0824 0.7257 14.255 1.3428 23.55 0.6066 9.1366 0.6113 11.347 0.025 11.833-0.3548 0.29443-0.8936 0.17481-2.506-0.55629-4.5233-2.051-5.4024-4.2846-7.1466-18.158-0.8801-7.0012-1.338-8.5359-2.6018-8.7203-0.8935-0.1304-1.1516 1.0894-2.018 9.5383-0.7917 7.7196-2.0638 16.034-2.6358 17.228-0.4614 0.96259-1.076 1.1602-1.9999 0.64307z" fill="#313131"/>
      <path id="path4545" d="m446.94 393.83c-1.2072-0.95139-2.4329-2.9441-2.936-4.7731-0.1937-0.704-0.4908-3.728-0.6602-6.72-0.4591-8.1064-1.2645-11.68-2.6323-11.68-0.7407 0-1.9455 2.5076-3.4634 7.2086-1.2042 3.7295-1.558 4.4839-2.6604 5.6714-1.951 2.1015-4.2856 0.16781-4.7191-3.9086-0.121-1.1377-0.3794-2.1217-0.5742-2.1866-0.1948-0.0649-0.3542-0.38999-0.3542-0.72231 0-1.4812-1.1091-5.4388-1.7491-6.2415l-0.7045-0.88352-1.3977 1.3564c-1.6205 1.5726-2.5816 2.1233-4.2537 2.437-1.1254 0.21114-1.2871 0.13572-2.5138-1.1726-1.1394-1.2151-3.7812-6.049-3.7812-6.9186 0-0.16838-0.3531-0.68716-0.7848-1.1529-0.6909-0.74554-1.0292-0.84672-2.831-0.84672-2.1281 0-2.2245-0.0458-4.4596-2.115-0.4814-0.44573-1.1245-1.2322-1.429-1.7477-0.3045-0.51549-0.6751-0.93728-0.8235-0.93728-0.1485 0-0.1809-0.144-0.072-0.32 0.1087-0.176 0.048-0.32-0.1349-0.32-0.183 0-0.8689-0.71818-1.5242-1.596-1.1762-1.5754-2.0666-2.0605-4.9405-2.6916-0.9377-0.20589-2.9578-2.119-3.6777-3.4829-0.2585-0.48976-0.592-0.81501-0.7412-0.72282-0.3713 0.22947-1.3015-1.8081-1.3015-2.851 0-1.8482-1.9379-4.0811-3.9123-4.5081-0.5763-0.12461-1.725-0.56781-2.5528-0.98496-1.258-0.63386-1.5401-0.94509-1.7184-1.8954-0.3707-1.9758 0.022-4.4106 1.0728-6.6567 0.8021-1.714 0.9454-2.3133 0.7045-2.9469-0.299-0.78643-2.4189-4.0822-3.9849-6.1952-0.4673-0.63059-0.8089-1.5218-0.8089-2.1104 0-1.3425-0.8967-2.1135-2.6938-2.316-0.7918-0.0892-1.631-0.39623-1.8648-0.68216-0.4803-0.58746-1.6477-4.1537-2.1873-6.6822-0.3938-1.8452-1.4254-2.9577-2.7424-2.9577-0.5569 0-0.8796-0.28-1.1985-1.04-0.9962-2.3739-1.2791-3.7163-1.2276-5.8259 0.065-2.687-0.2768-3.1792-2.7015-3.8841-1.9636-0.57082-1.9012-0.42473-2.1752-5.09l-0.1879-3.2-1.4331-1.28c-1.5127-1.3511-1.753-2.1504-0.9224-3.0682 0.4265-0.4713 0.4408-0.67524 0.091-1.3052-0.4501-0.81182-0.4089-3.7182 0.071-4.9793 0.4884-1.2846 0.3373-1.989-0.705-3.286-0.8035-0.99981-0.9647-1.4472-0.8296-2.3012 0.2537-1.603 0.869-3.8732 1.1512-4.2476 0.4361-0.57844 1.3722-3.9635 1.2588-4.5521-0.1887-0.97976-1.5426-1.3711-4.743-1.3709-1.672 1e-4 -3.189 0.10597-3.3709 0.23528-0.1821 0.1293-2.8677 3.1151-5.9681 6.6351-7.5899 8.617-14.593 15.486-19.49 19.118-6.3826 4.7332-10.049 6.6421-12.757 6.6421-0.8142 0-3.1979-1.4368-3.6813-2.2189-0.2978-0.48187-1.4984-0.42324-2.8437 0.13886-0.6318 0.264-1.9977 0.48-3.0353 0.48-1.8576 0-1.9079-0.0242-3.2903-1.5797-0.772-0.86882-1.6917-1.9526-2.0437-2.4085-0.5697-0.73772-0.8901-0.83704-2.9146-0.90343-2.6726-0.0877-3.0441-0.32935-4.2854-2.7884-1.1279-2.2343-1.5464-2.586-3.2681-2.7461-2.7246-0.25343-3.1494-0.43269-2.946-1.2432 0.1273-0.50746 0-0.87498-0.4164-1.1746-0.731-0.52978-1.5074-2.3353-1.2701-2.9536 0.2766-0.72084-0.5409-1.5751-2.465-2.5757-1.5454-0.80371-1.7944-1.0606-1.7944-1.8513 0-0.50491-0.2316-1.2715-0.5147-1.7036-0.2905-0.4433-0.5384-1.5537-0.569-2.5488-0.038-1.2248-0.2437-1.9832-0.6745-2.4832-0.3411-0.39596-0.5822-1.0177-0.5358-1.3816 0.057-0.44604-0.1812-0.78275-0.7308-1.0331-0.4916-0.22403-0.8152-0.6345-0.8152-1.0342 0-0.36452-0.2303-1.108-0.5117-1.6522-0.5132-0.9924-0.5379-1.499-0.3561-7.2987 0.073-2.3333-0.016-3.1739-0.3825-3.616-0.4113-0.49573-0.4171-0.71879-0.042-1.6 0.4765-1.1182 0.4876-1.4912 0.1781-5.984-0.2487-3.609 0.088-4.3842 2.7271-6.2802 1.5226-1.0939 1.6232-1.2507 1.5401-2.4014-0.049-0.67708 0.086-1.4055 0.2988-1.6188 0.4679-0.46791 0.515-1.5397 0.068-1.5397-0.5383 0-0.3568-1.3049 0.3379-2.429 0.3619-0.5855 1.4427-1.5136 2.4019-2.0623 1.7218-0.98509 2.6476-2.0256 2.1024-2.3626-0.4728-0.29219-0.6668-1.9742-0.3586-3.1087 0.161-0.59255 0.3505-1.6205 0.4212-2.2843 0.2193-2.0604 1.7144-3.1927 5.1331-3.8876l1.9621-0.39882 0.16-2.3733c0.091-1.3505 0.3922-2.7871 0.6989-3.3334 0.2964-0.528 0.6256-1.3655 0.7314-1.8611 0.2969-1.3901 1.9234-1.9253 5.2845-1.7389 2.9523 0.16373 3.1742 0.22937 14.885 4.403 4.048 1.4427 8.152 2.886 9.12 3.2074 0.968 0.3214 2.984 1.0388 4.48 1.5941 4.8486 1.8 18.678 6.3081 20.53 6.6927 1.4776 0.30674 2.3419 0.28104 4.7961-0.14262 1.6465-0.28423 3.1276-0.64838 3.2912-0.80922 0.537-0.52778-0.4322-1.6998-2.8972-3.5036-3.4019-2.4894-3.4355-2.5391-3.4627-5.1246l-0.023-2.221-1.6286-1.6881c-2.0848-2.1611-3.1518-3.9555-3.061-5.1478 0.047-0.60995-0.2329-1.338-0.7977-2.0785-0.7152-0.93757-0.9018-1.5812-1.0523-3.6289-0.1006-1.3691-0.361-2.6673-0.5787-2.8851-0.6871-0.68708-0.4518-2.3347 0.5263-3.6849 0.8447-1.1661 0.8881-1.3543 0.516-2.2393-0.2235-0.53143-0.4108-1.8162-0.4163-2.855 0-1.0388-0.1882-2.4734-0.4059-3.188-0.5421-1.7796-0.1796-2.9085 1.3966-4.3493 1.3019-1.1901 1.3231-1.2424 0.9153-2.2648-1.1185-2.8042-2.2903-7.3841-2.2887-8.9458 0-1.2596 0.449-2.2343 1.5197-3.3081 1.2344-1.2379 1.4079-2.0618 0.7876-3.7404-0.2789-0.75478-0.6178-2.5243-0.753-3.9323s-0.3396-3.1764-0.4542-3.9298c-0.2758-1.8129 0.6972-3.2722 2.9799-4.4695 1.8543-0.97252 2.0322-1.4677 0.999-2.7812-0.5541-0.70441-0.6484-1.147-0.5036-2.3632 0.098-0.82302 0.355-1.9284 0.5711-2.4564s0.4152-1.896 0.4424-3.04c0.027-1.144 0.1666-2.6122 0.3098-3.2627 0.255-1.1589 0.2092-1.2361-2.2767-3.84-2.873-3.0094-3.795-4.6901-4.0978-7.47-0.203-1.8626-0.1661-1.9988 1.017-3.7588 0.6752-1.0044 1.7356-2.1714 2.3565-2.5933 0.6208-0.42189 1.5445-1.3668 2.0525-2.0999l0.9236-1.3328-0.5355-1.5013c-1.1463-3.2133-0.9229-6.1542 0.6587-8.671 0.2661-0.42333 0.5092-1.2153 0.5402-1.76 0.043-0.75718 0.1904-0.96682 0.6249-0.89057 0.3522 0.0618 0.6324-0.14547 0.737-0.5451 0.2029-0.77598 1.4967-1.6735 2.7951-1.9391 0.8958-0.18321 0.9679-0.31882 1.3384-2.5177 0.2154-1.2782 0.5534-2.519 0.7511-2.7573 0.1978-0.23827 0.3375-0.55637 0.3105-0.70689-0.2165-1.2057 0.1017-1.7489 1.3066-2.231 1.543-0.61738 1.6047-1.1021 0.2732-2.1443l-1.0069-0.78799 0.7135-1.0021c1.0001-1.4044 2.6639-2.0415 4.6865-1.7944l1.6263 0.19866-0.093-4.0963c-0.1086-4.7509 0.219-6.8704 1.474-9.5363 0.4971-1.056 0.9854-2.172 1.0853-2.48 0.1-0.308 0.467-0.56 0.8158-0.56 1.1493 0 4.014 0.71435 4.657 1.1613 0.3472 0.24129 0.968 0.43871 1.3796 0.43871 0.7083 0 0.7374-0.08152 0.5435-1.52-0.192-1.4236-1.1543-6.6369-1.7578-9.5227-0.3707-1.7724-0.093-5.4811 0.5335-7.1227 0.363-0.95128 0.7562-1.4243 1.2963-1.5599 1.2676-0.31813 2.0877 0.6211 6.3266 7.2452 4.4008 6.877 6.0229 8.96 6.9775 8.96 0.6966 0-0.1283-5.5248-1.8458-12.363-1.9094-7.6022-2.5956-12.533-2.2873-16.437 0.231-2.9252 0.6471-4.4651 1.4993-5.5484 0.7591-0.96505 1.251-0.86079 2.0113 0.42633 0.6146 1.0405 5.3856 13.083 7.1637 18.082 1.0433 2.9332 1.8568 4.9793 4.4399 11.168 0.967 2.3168 2.4413 4.2225 2.9996 3.8774 0.6352-0.39254 0.3159-3.0198-1.0751-8.8453-0.7722-3.2341-1.643-7.2482-1.9353-8.9202-0.2922-1.672-0.6589-3.544-0.8149-4.16-0.1559-0.616-0.4544-3.064-0.6632-5.44-0.3223-3.6679-0.3042-4.8272 0.1205-7.68 0.652-4.38 1.3206-6.3581 2.6334-7.7911 1.252-1.3666 1.6536-1.4471 2.0478-0.41025 0.2518 0.6623 2.9567 12.866 3.8394 17.321 0.861 4.3466 2.4661 11.388 3.6106 15.84 0.7014 2.728 1.5442 6.112 1.873 7.52 1.346 5.7628 2.7067 10.182 3.2384 10.516 0.4297 0.27002 0.7186 0.18032 1.36-0.42222 0.9913-0.93129 1.0641-2.451 0.2995-6.2535-0.2831-1.408-0.5776-2.92-0.6544-3.36-1.9134-10.962-1.7393-9.722-2.3367-16.64-0.1901-2.2-0.4142-4.648-0.4981-5.44-0.084-0.792 0-2.304 0.1802-3.36 0.183-1.056 0.4007-2.9817 0.4838-4.2794 0.083-1.2977 0.242-2.5067 0.3533-2.6867 0.1112-0.18002 0.3866-1.2063 0.612-2.2806 0.6865-3.2732 1.1921-4.3951 2.7439-6.0883 0.819-0.89374 1.569-1.547 1.6667-1.4516 0.2962 0.28922 1.0937 7.0104 1.9538 16.467 1.5963 17.549 4.3192 41.035 4.9762 42.919 0.4288 1.2302 1.5224 1.9602 1.8107 1.2087 0.1112-0.28966 0.086-3.7849-0.057-7.7672-0.4134-11.56-0.3824-21.013 0.079-24.041 0.4853-3.186 1.3167-6.7443 1.6823-7.2 0.1411-0.176 0.4212-0.93525 0.6222-1.6872 0.4857-1.8165 2.3634-4.9792 3.3336-5.6149 0.769-0.50385 0.7784-0.49702 0.9383 0.67656 0.089 0.65205 0.1099 3.8495 0.047 7.1055-0.4367 22.552-0.5334 26.826-0.6256 27.68-0.3208 2.9704-0.4669 24.114-0.1974 28.581 0.3227 5.3486 0.706 6.7792 1.8166 6.7792 0.7152 0 1.011-1.1044 1.2449-4.6481 0.6049-9.165 1.5908-16.616 2.6244-19.832 0.5858-1.8227 1.6262-3.68 2.0615-3.68 0.3642 0 0.3578 7.9208-0.01 11.2-0.8704 7.7783-1.5608 12.112-3.416 21.44-1.1375 5.72-2.3651 11.552-2.728 12.96-0.6161 2.3903-0.6331 2.8097-0.2575 6.3282 0.4187 3.9227 0.2636 11.013-0.346 15.812-0.3284 2.5853-1.6863 8.709-2.8606 12.9-0.3698 1.32-0.8824 4.56-1.139 7.2-0.2567 2.64-0.6124 5.304-0.7905 5.92-0.8777 3.0354-1.4031 11.85-1.4211 23.84-0.016 10.632 0.051 12.383 0.5321 13.936 0.8842 2.8534 2.7488 4.8103 6.3282 6.6413 1.9037 0.97382 10.246 3.4044 14.505 4.2265 5.589 1.0786 8.1529 2.0258 11.743 4.3387 2.9641 1.9095 4.1528 3.0976 4.1528 4.1509 0 1.0558 2.511 3.6665 3.5265 3.6665 0.5717 0 0.6088-0.0883 0.2887-0.68639-0.202-0.37751-0.68-0.98951-1.0623-1.36-0.3822-0.37048-0.5531-0.56561-0.3799-0.43361 0.1733 0.132 0.7083 0.24 1.1889 0.24 1.2526 0 9.6548 2.6586 12.438 3.9357 1.9288 0.88496 5.43 3.1711 6.3124 4.1218l0.7124 0.76745-0.7124 0.12937c-0.7611 0.13822-3.6436 0.13359-16.552-0.0266-7.1679-0.089-8.3535-0.0323-9.7521 0.46621-0.8757 0.31212-1.7468 0.69586-1.9359 0.85275-0.189 0.1569-0.9757 0.38632-1.7481 0.50984-0.7724 0.12351-1.8503 0.52716-2.3952 0.89699-0.545 0.36984-2.0659 1.0127-3.3798 1.4286-5.4246 1.7171-7.1105 2.4279-8.8829 3.745-1.0249 0.76162-2.719 1.8207-3.7647 2.3534-2.88 1.4673-3.1213 1.7157-2.853 2.9372 0.2167 0.98654 1.7103 4.3939 5.1034 11.642 0.8239 1.76 1.7335 3.704 2.0214 4.32s1.0938 2.128 1.791 3.36c0.6971 1.232 1.4273 2.5439 1.6226 2.9153 0.1953 0.37143 0.9638 1.5234 1.7079 2.56 0.744 1.0366 2.6467 3.8287 4.2281 6.2047 1.5815 2.376 3.6501 5.472 4.597 6.88 3.765 5.5984 6.488 10.824 9.2895 17.826 1.0882 2.72 1.4708 4.1095 1.4708 5.3412 0 1.9031 0.07 2.0586 3.7981 8.4425 1.5191 2.6012 3.1063 5.3372 3.5271 6.08 1.7485 3.0862 6.4537 9.9152 11.09 16.096 2.7197 3.6257 4.9449 6.7153 4.9449 6.8658s-0.828-0.0969-1.84-0.5497c-3.9137-1.7513-7.0726-5.9028-11.825-15.541-1.1136-2.2584-1.6698-2.6012-2.4392-1.5028-0.6155 0.87878-0.2523 2.4247 2.1383 9.1028 3.1965 8.929 8.8767 19.798 12.342 23.615 1.093 1.2041 0.5519 1.5178-2.3763 1.3773-3.941-0.18908-5.5168-1.6008-8.2937-7.4307-3.1879-6.6924-3.1817-6.6818-3.8663-6.6818-0.5344 0-0.6258 0.1847-0.5541 1.12 0.1613 2.1036 2.9111 12.198 6.2157 22.818 1.7052 5.48 2.1796 7.389 1.9046 7.6641-0.2751 0.27504-0.984 0.1848-2.8462-0.36236-3.699-1.0868-5.4655-2.3273-6.8922-4.8395-1.1944-2.1032-2.6835-6.9889-3.4137-11.2-0.351-2.024-0.8005-4.2492-0.9991-4.945-0.424-1.486-2.1831-3.375-3.143-3.375-0.6252 0-0.6716 0.17248-0.6673 2.48 0 2.3381 0.2361 6.8698 0.9612 18.8 0.7054 11.606 0.7299 13.08 0.228 13.739-0.4614 0.6056-0.5053 0.60637-2.0019 0.0348-1.7217-0.65751-3.7969-2.3885-4.5049-3.7578-0.5077-0.98164-1.6124-5.9088-1.8515-8.2572-0.081-0.79145-0.3101-2.447-0.5101-3.679-0.2001-1.232-0.5535-3.7804-0.7854-5.6632-0.4562-3.7049-1.1869-5.469-2.3346-5.6362-0.407-0.0593-0.8067 0.13431-0.9909 0.48-0.4776 0.89635-1.037 4.971-1.8368 13.379-0.6808 7.157-1.4604 11.593-2.2632 12.88-0.5836 0.93523-1.3105 0.90528-2.5947-0.10688zm-74.271-309.74c0-0.43059-0.9279-0.97945-1.1989-0.70842-0.2793 0.27933 0.5046 1.2516 0.9023 1.1191 0.1628-0.05426 0.2963-0.23906 0.2966-0.41066z" fill="#313131"/>
      <path id="path4543" d="m446.96 392.92c-1.0301-1.209-2.0377-3.6313-2.2334-5.3691-0.1052-0.93466-0.3215-1.9533-0.4807-2.2636-0.1592-0.31033-0.4316-2.6863-0.6054-5.28-0.4182-6.2425-0.7801-7.9681-1.9074-9.0954-1.7927-1.7927-2.2875-1.2172-4.4986 5.2322-1.7222 5.0238-2.7524 6.8702-4.0088 7.1856-0.694 0.17418-1.027 3e-3 -1.9525-1.008-0.9912-1.0819-1.0902-1.346-0.8865-2.364 0.3637-1.8173 0.2673-2.5862-0.4175-3.331-0.3514-0.38227-0.9511-1.847-1.3326-3.255-0.6695-2.4705-1.606-4-2.4491-4-0.2224 0-0.8757 0.4304-1.4516 0.95645-1.3044 1.1914-3.4722 2.2316-4.4751 2.1473-0.749-0.0629-2.1972-1.2392-2.1972-1.7846 0-0.15443-0.2177-0.46147-0.4837-0.68227-0.2661-0.2208-0.7734-0.99444-1.1274-1.7192-1.0305-2.1097-2.3321-4.2644-3.1068-5.1433-0.6044-0.68566-0.9944-0.8144-2.4671-0.8144-1.4863 0-1.8688-0.12899-2.545-0.85827-0.4377-0.47203-0.7224-0.97706-0.6326-1.1222 0.09-0.14522-0.062-0.3504-0.3372-0.456-0.2932-0.11248-0.5003-0.5728-0.5003-1.1119 0-0.61923-0.3679-1.2988-1.1256-2.079-0.9186-0.94595-1.2786-1.1207-1.9576-0.95027-1.1193 0.28093-1.9623-0.52326-2.4093-2.2985-0.3131-1.2431-0.4452-1.389-1.1898-1.3132-0.4607 0.0469-0.9891 0.19267-1.1743 0.32397-0.9232 0.65456-2.6782-0.91184-2.8581-2.551-0.1068-0.97264-2.5277-3.3193-3.1701-3.0728-0.2591 0.0994-0.7354-0.67904-1.3327-2.178-1.1231-2.8185-1.4063-3.1393-2.9394-3.3294-0.6735-0.0836-1.5522-0.4914-2.016-0.93572-0.4521-0.43315-1.1331-0.78758-1.5133-0.78758-1.725 0-1.7944-3.6543-0.1337-7.0346l1.0193-2.0746-0.7024-1.7654c-0.3862-0.97098-1.0701-2.267-1.5196-2.8802-1.6463-2.2454-2.6726-4.034-3.0322-5.2846-0.3725-1.2955-0.4281-1.3386-3.6678-2.8458-1.0262-0.47743-2.2743-2.9658-2.5661-5.116-0.2838-2.0911-1.3808-3.84-2.8479-4.5403-0.5919-0.28253-1.191-0.88135-1.3622-1.3615-0.168-0.4714-0.5205-1.2393-0.7834-1.7065-0.3043-0.54097-0.4778-1.7102-0.4778-3.2201 0-2.1739-0.073-2.4389-0.88-3.1918-0.484-0.45155-1.456-1.083-2.16-1.4032-0.704-0.32021-1.3758-0.72251-1.4929-0.89401s-0.3144-1.7993-0.4383-3.6173c-0.2248-3.2985-0.2279-3.3081-1.467-4.5472-1.2693-1.2693-1.5402-2.1706-0.8575-2.8532 0.2951-0.2951 0.298-0.62535 0.013-1.424-0.3528-0.98742-0.3056-1.6974 0.3839-5.7652 0.1112-0.65571-0.09-1.1583-0.7736-1.9374-0.508-0.5786-1.0125-1.4061-1.1211-1.8388-0.2337-0.9312 0.5935-4.339 1.2303-5.0682 0.2451-0.28062 0.5264-0.94222 0.6252-1.4702 0.099-0.528 0.279-1.3664 0.4007-1.8631 0.2803-1.145-0.3236-2.3095-1.4251-2.7479-1.4705-0.58526-6.1419-0.54564-7.2884 0.0618-0.5561 0.29465-1.0601 0.67218-1.12 0.83894-0.06 0.16677-0.7584 0.9978-1.5524 1.8467-0.7939 0.84894-2.0879 2.3355-2.8756 3.3035-0.7876 0.968-1.5152 1.832-1.6168 1.92s-1.3425 1.456-2.7575 3.04c-4.2316 4.7369-11.334 11.515-14.515 13.852-0.7874 0.57851-2.5117 1.8442-3.8317 2.8126-3.2787 2.4054-6.5112 3.9682-8.6546 4.1844-1.6362 0.16501-1.8392 0.10395-3.2462-0.97637-1.5849-1.217-2.7014-1.426-4.3183-0.80831-0.4955 0.18926-1.7649 0.34326-2.8209 0.34224l-1.92-2e-3 -4.2462-4.6436-2.1272-0.22017c-2.3534-0.24359-3.0954-0.7167-4.0466-2.5804-0.855-1.6753-2.3033-2.7656-4.0147-3.0222-1.304-0.19555-1.5774-0.38724-2.3985-1.682-0.5097-0.80373-0.9273-1.7571-0.9279-2.1187 0-1.0704-1.1573-2.6511-2.8004-3.8315-1.6645-1.1958-2.4008-2.6962-2.8285-5.7639-0.121-0.86793-0.4992-2.0512-0.8404-2.6295-0.3412-0.57829-0.5345-1.1903-0.4296-1.3601 0.1049-0.16975-0.071-0.49848-0.3897-0.73053-1.4728-1.0704-2.8096-5.2451-2.2744-7.102 0.1586-0.54996 0.3529-2.1841 0.4318-3.6315 0.1155-2.1195 0.044-2.731-0.3677-3.1428-0.4483-0.44828-0.4606-0.72236-0.1-2.2267 0.3083-1.2852 0.3283-2.1825 0.08-3.5772-0.7968-4.4696-0.3616-5.8558 2.497-7.9541 1.4495-1.064 1.583-1.2724 1.583-2.4696 0-0.76014 0.2187-1.5491 0.5222-1.8846 0.4831-0.5338 0.4822-0.638-0.012-1.392-0.4886-0.74578-0.4915-0.90446-0.034-1.8692 0.2801-0.5902 1.0846-1.3972 1.8276-1.8332 0.7301-0.42843 1.7249-1.1802 2.2109-1.6706 0.7865-0.79387 0.8463-0.99813 0.545-1.8624-0.1903-0.54596-0.2437-1.626-0.1219-2.4683 0.119-0.8237 0.276-1.9853 0.349-2.5813s0.3645-1.3399 0.6479-1.6531c0.5655-0.62483 3.0997-1.6706 5.1026-2.1057 1.4163-0.30762 1.6514-0.81101 1.7244-3.6916 0.021-0.82174 0.2482-1.9017 0.5051-2.4 0.2571-0.49826 0.5432-1.2837 0.636-1.7454 0.3791-1.8874 5.1132-2.3075 9.4568-0.83921 2.6472 0.89488 13.318 4.6377 21.28 7.4644 7.4192 2.6338 18.688 6.402 21.539 7.2027 1.9014 0.5339 2.9701 0.65071 4.7009 0.51376 3.0883-0.24438 5.6-0.83466 5.6-1.3161 0-0.45978-2.0855-3.266-3.04-4.0907-0.352-0.30413-1.0882-0.77132-1.636-1.0382-1.4583-0.71057-1.7795-1.2514-1.759-2.962 0.027-2.2329-0.6228-4.2752-1.485-4.669-0.396-0.18086-0.72-0.45294-0.72-0.60463 0-0.15168-0.576-0.90067-1.28-1.6644-0.7786-0.84461-1.28-1.7007-1.28-2.1851 0-0.84433-0.4299-2.3482-1.124-3.932-0.2314-0.528-0.5256-1.68-0.6539-2.56s-0.4308-2.164-0.6723-2.8534c-0.4951-1.413-0.3375-2.2094 0.6776-3.4242 0.6362-0.76141 0.6747-1.0233 0.4232-2.88-0.1521-1.1233-0.4315-2.8344-0.6209-3.8024-0.7528-3.8477-0.7795-3.6634 0.7741-5.3389 0.9763-1.053 1.5024-1.9465 1.6611-2.8211 0.1278-0.704 0.3811-1.46 0.5629-1.68 0.2303-0.27875 0.2216-0.4-0.029-0.4-0.1976 0-0.3232-0.1296-0.2792-0.288s-0.046-0.29368-0.1999-0.30062c-0.377-0.017-2.37-4.1141-2.6222-5.3905-0.2612-1.3224 0.3079-3.008 1.3418-3.9738 0.9824-0.91772 1.7203-2.2585 1.7203-3.1257 0-0.44033 0.2895-0.69406 0.96-0.84132 0.528-0.11597 0.96-0.39583 0.96-0.62193 0-0.25793 0.3874-0.39747 1.04-0.37457 0.572 0.0201 1.0616-0.1075 1.088-0.2835 0.026-0.176-0.099-0.27811-0.2793-0.22692-0.1809 0.0515-0.238-0.13941-0.1277-0.42674 0.1293-0.33714 0.059-0.46825-0.2008-0.37308-0.2201 0.0807-0.3642 0.30874-0.3202 0.50674s-0.136 0.36-0.4 0.36-0.48-0.216-0.48-0.48c0-0.46191-0.357-0.61279-1.1949-0.50506-0.2421 0.0311-0.3233-0.17081-0.2098-0.52209 0.1563-0.48382 0.1297-0.49825-0.1712-0.0928-0.3119 0.42022-0.4118 0.40739-0.8023-0.10301-0.4315-0.56402-0.4518-0.56402-0.6224 0-0.097 0.32065-0.1234 0.15492-0.059-0.3683 0.071-0.57284-0.1883-1.5552-0.6515-2.4694-0.4231-0.83493-0.7687-1.8468-0.7681-2.2487 0-1.2641 1.1951-2.7579 3.0292-3.793 1.8452-1.0414 2.1056-1.5866 1.2795-2.6788-0.6416-0.84824-0.6268-2.7388 0.021-2.7388 0.4036 0 0.4255-0.1228 0.1227-0.68852-0.312-0.58311-0.2908-0.65874 0.1385-0.49398 0.2789 0.107 0.6019 0.0411 0.7178-0.14655 0.2824-0.45686 0.3866-2.831 0.1243-2.831-0.521 0-0.8719-2.2638-0.5702-3.6783 0.4155-1.948-0.07-2.9219-2.7922-5.6017-2.3944-2.3571-3.3319-4.1549-3.4386-6.5939-0.065-1.4783 0.041-1.8033 0.8663-2.6649 0.5169-0.53968 0.8092-0.98124 0.6495-0.98124s0.6019-0.828 1.6926-1.84c2.6676-2.4754 3.4861-4.7067 2.3181-6.32-0.1274-0.176-0.3203-1.0006-0.4287-1.8326-0.1641-1.2592-0.1-1.5647 0.384-1.8236 0.3196-0.17105 0.8924-0.2296 1.2729-0.13011 0.5114 0.13373 0.6917 0.0371 0.6917-0.37067 0-0.3588 0.1678-0.48718 0.48-0.36736 0.3602 0.13823 0.48-0.0528 0.48-0.76576 0-1.3057 0.015-1.3824 0.3469-1.7823 0.367-0.4423 0.4209-1.6579 0.1167-2.6353-0.1902-0.6113-0.1224-0.73648 0.3719-0.68634 0.3324 0.0337 0.9271-0.0423 1.3214-0.16886 0.5687-0.18258 0.6764-0.39172 0.5209-1.0114-0.1344-0.53554 0-1.002 0.4375-1.4835 0.3485-0.38626 0.8332-1.1703 1.0773-1.7423 0.244-0.572 0.6208-1.04 0.8373-1.04 0.5962 0 1.3289-1.6572 1.4727-3.3313 0.082-0.94943 0.3774-1.7578 0.8129-2.2213 0.8759-0.93241 0.8608-1.2102-0.1155-2.1274-1.8577-1.7452-0.1075-3.36 3.6416-3.36h1.7216l0.096-4.64c0.099-4.7573 0.5674-7.1927 1.5784-8.2037 0.2761-0.27614 0.6762-1.1531 0.889-1.9488 0.2128-0.79568 0.5736-1.5184 0.8019-1.6059 0.4802-0.18426 4.2061 0.79718 4.7735 1.2574 0.2103 0.17059 0.7143 0.2631 1.12 0.20559 0.6961-0.09868 0.7319-0.22164 0.6367-2.1846-0.055-1.144-0.3863-3.304-0.7351-4.8-0.7899-3.3871-1.0678-5.9533-0.6714-6.1984 0.1882-0.1163 0.1772-0.65611-0.029-1.4294-0.4117-1.5426 0.1976-4.0225 1.1528-4.6915 1.1915-0.83453 1.9511-0.0019 6.5678 7.1993 0.6206 0.968 1.3823 2.048 1.6928 2.4s0.5942 0.784 0.6304 0.96c0.126 0.61235 1.5067 2.5687 2.7666 3.92 0.9625 1.0323 1.5059 1.36 2.2556 1.36 0.6861 0 1.0459 0.18395 1.1788 0.60272 0.1812 0.57072 1.9316 2.5973 2.2434 2.5973 0.08 0 0.2925-0.27386 0.4717-0.60859 0.2817-0.52647 0.2293-0.58827-0.3888-0.45798-0.6308 0.13299-0.6489 0.10873-0.1544-0.20731 0.8076-0.51617 0.7133-1.0707-0.1074-0.63145-0.3671 0.19645-0.7511 0.27352-0.8534 0.17126-0.1022-0.10226-0.013-0.18593 0.1998-0.18593 0.2121 0-0.196-0.58757-0.907-1.3057-0.711-0.71814-1.3584-1.6181-1.4386-2-0.08-0.38186-0.4244-2.3503-0.7649-4.3743s-0.939-4.832-1.33-6.24c-1.5146-5.4536-1.9483-8.0453-2.129-12.723-0.1354-3.5084-0.081-4.8459 0.2132-5.2 0.2413-0.29073 0.2656-0.47667 0.062-0.47667-0.4626 0 0.162-2.1808 0.8896-3.1057 0.5263-0.66911 0.5918-0.67987 1.0042-0.16504 0.795 0.99231 1.2774 2.0204 2.717 5.7907 0.7813 2.046 1.5532 4.0081 1.7155 4.3601 0.4081 0.88521 1.6254 4.0685 3.3652 8.8 0.8089 2.2 1.7527 4.6104 2.0972 5.3565 0.3445 0.74608 0.6263 1.4317 0.6263 1.5235 0 0.09184 0.2761 0.7774 0.6134 1.5235 0.3374 0.74608 0.8911 2.0045 1.2305 2.7965s1.0852 1.8948 1.6574 2.4507c1.1075 1.076 2.4273 1.6502 2.1536 0.9369-0.086-0.22312-0.046-0.58339 0.088-0.8006 0.1343-0.21721-0.015-1.5091-0.3325-2.871-0.3171-1.3618-0.643-2.827-0.7242-3.2561-0.081-0.42902-0.3098-1.1981-0.5079-1.7091-0.1981-0.51098-0.3913-1.807-0.4294-2.88-0.038-1.073-0.2479-2.1398-0.4662-2.3707-0.4416-0.46706-0.4579-2.9402-0.019-2.9402 0.1533 0 0.1099-0.31559-0.097-0.70131-0.6961-1.3007-0.8426-2.3204-0.3824-2.6618 0.5223-0.38751 0.054-2.0628-0.9342-3.3431-0.5999-0.77713-0.599-0.78913 0.072-1.0373 0.3733-0.13809 0.5847-0.40328 0.4697-0.58932-0.1469-0.23765-0.3303-0.23762-0.6167 9.3e-5 -0.3165 0.26265-0.3735 0.15957-0.255-0.46073 0.084-0.43949 0.2803-0.72025 0.4362-0.62391 0.441 0.27256 0.3305-0.56476-0.2118-1.6047-0.3749-0.71886-0.4406-1.4567-0.2773-3.1137 0.1177-1.1944 0.3235-2.1039 0.4574-2.0211 0.2746 0.16973 0.6166-1.6749 0.3584-1.9331-0.3526-0.35258-0.3615-1.4666-0.01-1.2494 0.2484 0.15354 0.2872-0.08993 0.129-0.81003-0.265-1.2069 0.078-3.9375 0.4648-3.6986 0.1462 0.0904 0.3513-0.0583 0.4558-0.33043 0.1207-0.3146 0.06-0.41424-0.168-0.27362-0.2151 0.13294-0.2996 0.04383-0.2117-0.22338 0.08-0.2445 0.5855-0.48836 1.1226-0.54192 0.9031-0.09005 0.9931-0.0058 1.1976 1.12 0.1217 0.66956 0.4125 1.7934 0.6464 2.4974s1.0147 4.232 1.7351 7.84c2.1133 10.584 4.2306 19.582 7.2284 30.72 0.4026 1.496 0.9883 3.728 1.3014 4.96 0.5545 2.182 1.1997 3.36 1.8403 3.36 0.1737 0 0.7475-0.45178 1.2752-1.004 0.9541-0.99834 0.9584-1.0194 0.7597-3.76-0.1099-1.5158-0.342-3.2449-0.5158-3.8425-0.4329-1.4885-1.385-6.7853-1.3432-7.4735 0.019-0.308 0.051-0.74 0.071-0.96s-0.1076-1.1168-0.2847-1.9928c-0.1977-0.97787-0.2088-1.8043-0.029-2.1406 0.1756-0.32805 0.1765-0.61986 0-0.7275-0.16-0.09885-0.2096-0.49011-0.1104-0.86946 0.099-0.37934 0.05-0.6088-0.1101-0.5099-0.3349 0.20739-0.3313-1.8225 0-2.8824 0.1409-0.44405-0.035-1.4524-0.4634-2.6597-0.6517-1.8356-0.6592-1.9673-0.1343-2.3511 0.3787-0.27692 0.504-0.67853 0.393-1.2594-0.1246-0.65185-0.07-0.77545 0.2326-0.5245 0.2175 0.18058 0.6186 0.2427 0.8913 0.13806 0.5705-0.21891 0.9993-1.1008 0.5353-1.1008-0.1705 0-0.3099-0.1525-0.3099-0.33889s0.18-0.23075 0.4-0.09857c0.3031 0.18212 0.3151 0.12858 0.05-0.22111-0.4843-0.63782-0.8238-1.6526-0.4823-1.4416 0.4342 0.26837 1.0276-0.63636 0.8023-1.2234-0.1107-0.28855-0.034-0.72598 0.17-0.97207 0.2543-0.30636 0.2656-0.51282 0.036-0.65481-0.4632-0.28629-0.4217-0.80925 0.064-0.81126 0.2436-1e-3 0.4302-0.52474 0.4771-1.3393 0.042-0.73571 0.191-1.419 0.3303-1.5183 0.2779-0.19836 0.3335-2.6439 0.066-2.9007-0.092-0.088 0.088-0.664 0.3995-1.28 0.5656-1.1186 0.7511-0.87267 0.5765 0.76407-0.035 0.33224 0.09 0.69963 0.2792 0.81644 0.301 0.18604 0.4836 1.3156 1.1667 7.2195 0.3437 2.9697 0.8409 7.66 1.2722 12 1.1713 11.787 3.2818 29.465 3.7208 31.167 0.3668 1.4216 1.4795 3.0734 2.0705 3.0734 0.9113 0 0.9945-1.572 0.6071-11.474l-0.2423-6.1937 0.6763 0.21464c0.5558 0.17642 0.6393 0.11121 0.4686-0.36628-0.1142-0.31951-0.3164-0.72492-0.4492-0.90092-0.2979-0.39476-0.6294-3.2431-0.4037-3.4688 0.09-0.09022 0.2223-1.2186 0.2936-2.5076 0.1768-3.1987 0.1885-3.2779 0.5164-3.493 0.1589-0.1042 0.3653-0.8962 0.4587-1.76 0.093-0.8638 0.3027-1.6188 0.4649-1.6779 0.1622-0.05903 0.2135-0.23903 0.114-0.4-0.1-0.16097-0.045-0.29267 0.1217-0.29267 0.1664 0 0.3638-0.41707 0.4386-0.92682 0.098-0.6705 0.02-0.88228-0.2836-0.76576-0.2645 0.10148-0.4198-0.08837-0.4198-0.51318 0-0.37083 0.1594-0.67424 0.3543-0.67424 0.1948 0 0.2713-0.216 0.17-0.48s-0.038-0.48 0.1398-0.48c0.1782 0 0.3006-0.18 0.2721-0.4-0.1639-1.2617 0.056-1.84 0.6981-1.84 0.4457 0 0.6161-0.15149 0.5027-0.44703-0.1134-0.29534 0.1193-0.50292 0.6857-0.61174 0.4716-0.09059 0.8935-0.1293 0.9376-0.08601 0.071 0.06917 0.098 2.3471 0.05 4.1848-0.01 0.352-0.017 4.672-0.016 9.6 2e-4 4.928-0.064 9.968-0.1431 11.2-0.079 1.232-0.1739 9.584-0.2113 18.56-0.072 17.379-0.01 18.244 1.4569 19.62 0.6347 0.59632 0.8269 0.63733 1.3149 0.28054 0.4851-0.35471 0.6618-1.5106 1.1687-7.6463 0.7402-8.9578 1.2158-12.131 2.4363-16.254 0.2865-0.968 0.7151-1.9709 0.9524-2.2286 0.4649-0.50497 0.4833-0.35711 0.5542 4.4686 0.044 3.0211-0.5972 8.8828-1.7514 16-1.032 6.364-3.7342 19.52-4.4728 21.776-0.6046 1.847-0.648 2.4335-0.4135 5.5838 0.7684 10.324-0.1326 20.208-2.5963 28.48-0.9633 3.2346-1.3923 5.5665-1.766 9.6-0.1631 1.76-0.5865 5.0574-0.9409 7.3275-0.9882 6.3296-1.3736 14.112-1.23 24.832 0.1097 8.183 0.2214 10.036 0.6909 11.47 0.9222 2.8165 3.9824 5.6785 7.6008 7.1086 2.5625 1.0127 8.9015 2.79 13.171 3.6928 6.4262 1.3588 10.719 2.991 12.702 4.8294 0.4382 0.40637 0.8842 0.73886 0.9911 0.73886 0.1068 0 0.4933 0.2593 0.8587 0.57623 0.5866 0.50875 0.6428 0.81794 0.4798 2.64-0.1192 1.3321-0.3736 2.2339-0.7176 2.5438-0.7299 0.65719-1.0133 1.5298-0.5507 1.6954 0.2516 0.0901 0.1363 0.40457-0.338 0.9213-0.7556 0.8233-0.9422 1.5433-0.4 1.5433 0.176 0 0.32 0.1525 0.32 0.33889 0 0.18638-0.1305 0.25818-0.2901 0.15955-0.1596-0.0986-0.2174 0.0989-0.1285 0.43898 0.1832 0.7007 1.1473 1.1966 1.3198 0.6789 0.062-0.18717 0.2463-0.25823 0.4086-0.15791 0.5137 0.31749-0.4368 0.92115-2.5898 1.6447-1.144 0.38446-2.584 0.8701-3.2 1.0792s-2.056 0.8418-3.2 1.406-3.8014 1.5827-5.9054 2.2634c-3.0481 0.98618-4.4336 1.6472-6.8187 3.253-1.6462 1.1084-3.1072 2.0153-3.2465 2.0153-0.1394 0-0.8649 0.44301-1.6124 0.98448-1.272 0.92145-1.3454 1.0572-1.1459 2.1205 0.3945 2.1029 8.1358 18.301 10.619 22.22 3.0617 4.8314 4.7745 7.4106 6.2695 9.4404 0.836 1.1351 1.52 2.1236 1.52 2.1968 0 0.0731 1.2936 2.0689 2.8747 4.435 5.313 7.9511 10.216 18.544 10.421 22.512 0.082 1.5927 0.3747 2.5174 1.469 4.64 0.7516 1.458 1.6024 2.9389 1.8906 3.2909s1.0543 1.6057 1.7024 2.7859c0.6481 1.1803 1.3005 2.2215 1.4499 2.3138 0.1494 0.0923 0.6747 0.99866 1.1673 2.014 0.8766 1.8069 4.8155 7.7898 7.8518 11.926 0.8398 1.144 1.9334 2.6333 2.4303 3.3095 0.4969 0.67623 1.514 1.9137 2.2603 2.7498 0.7462 0.83616 1.2828 1.5944 1.1922 1.6849-0.091 0.0905 0.055 0.34672 0.3232 0.56935 0.2682 0.22265 0.4764 0.63917 0.4625 0.9256-0.016 0.33472-0.083 0.37718-0.1874 0.11885-0.089-0.22112-0.3001-0.31671-0.4688-0.21242-0.6618 0.40899-5.0544-3.3839-5.9541-5.1412-0.2716-0.5304-0.5817-1.0364-0.6891-1.1244-0.1075-0.088-0.4598-0.63523-0.7829-1.216-2.3006-4.1348-3.1858-5.8065-3.5921-6.784-0.8642-2.0789-1.2801-2.715-1.8468-2.8242-0.7662-0.14755-1.4126 0.44685-1.6471 1.5148-0.2286 1.0407 2.2085 8.6636 4.4401 13.889 2.6936 6.3063 7.2922 14.798 9.3612 17.285 1.3928 1.6748 0.8381 2.2622-1.7501 1.8531-3.2283-0.51033-5.4924-2.6794-7.5549-7.2376-2.926-6.4666-3.6106-7.4294-4.5877-6.4523-0.3883 0.38836-0.3816 0.80266 0.048 2.9718 0.2745 1.3863 0.8035 3.6005 1.1756 4.9205 0.372 1.32 1.1724 4.272 1.7786 6.56 1.172 4.4232 2.5849 9.1097 3.8695 12.835 0.4315 1.2514 0.737 2.6914 0.6789 3.2-0.089 0.77913-0.2316 0.90861-0.9056 0.82185-1.4148-0.18214-3.9705-1.5253-4.8953-2.5727-0.2116-0.23962-0.7834-0.86544-1.2708-1.3908-0.4874-0.52528-0.9148-1.3012-0.9498-1.7243-0.035-0.42307-0.1763-0.76925-0.3139-0.76925s-0.2502-0.47581-0.2502-1.0573c0-0.6193-0.3881-1.6694-0.9367-2.5345-0.5152-0.81241-1.0119-1.8846-1.1038-2.3826-0.271-1.4701-0.5784-2.3455-0.8235-2.3455-0.1261 0-0.2411-0.18-0.2556-0.4-0.077-1.1715-1.1498-5.3154-1.6732-6.4642-0.3319-0.72871-0.9746-1.6959-1.428-2.1494-0.6784-0.6784-1.0083-0.7864-1.8618-0.60937l-1.0374 0.2151 0.021 2.5439c0.019 2.2803 0.1662 5.4728 1.012 21.904 0.1313 2.552 0.2407 5.792 0.243 7.2v2.56l-0.9692 0.095c-1.2975 0.12713-3.0688-1.2624-3.9964-3.135-1.58-3.1896-1.5838-3.1997-1.1795-3.2049 0.2413-3e-3 0.2656-0.0927 0.065-0.24-0.3831-0.28147-0.5498-3.2751-0.1823-3.2751 0.141 0 0.151-0.576 0.022-1.28-0.1287-0.704-0.1638-1.28-0.078-1.28 0.086 0 0.01-0.18-0.1757-0.4-0.1826-0.22-0.3445-0.544-0.3598-0.72-0.015-0.176-0.2401-1.0504-0.4996-1.9431-0.2595-0.89268-0.4531-2.1208-0.4302-2.7291 0.023-0.60832-0.1246-1.4165-0.3277-1.7959-0.4649-0.86864-0.4764-1.476-0.023-1.1956 0.1906 0.11776 0.1127-0.23795-0.1731-0.7905-0.2857-0.55254-0.4392-1.1344-0.3412-1.2931 0.098-0.15865 0.038-0.37504-0.1329-0.48083-0.1712-0.10579-0.2211-0.42739-0.1108-0.71462 0.1494-0.38951 0.085-0.45261-0.254-0.24832-0.3879 0.23382-0.3901 0.19465-0.015-0.26749 0.3784-0.46656 0.3674-0.54144-0.08-0.54144-0.2856 0-0.8072-0.288-1.1592-0.64s-1.0664-0.64-1.5876-0.64c-0.8653 0-0.9917 0.14586-1.4553 1.68-0.521 1.724-0.9197 4.7325-1.2615 9.52-0.1069 1.496-0.2644 3.512-0.3502 4.48-0.1979 2.2342-1.4347 9.5419-1.7666 10.438-0.3624 0.9786-1.7255 1.1518-2.4424 0.31031zm-1.6964-26.748c-0.6204-0.40093-0.96-0.40093-0.96 0 0 0.176 0.324 0.31779 0.72 0.3151 0.5822-4e-3 0.6281-0.0643 0.24-0.3151zm0.7557-0.8c-0.1013-0.264-0.025-0.48 0.17-0.48 0.1949 0 0.3543-0.12 0.3543-0.26666 0-0.14668-0.216-0.26668-0.48-0.26668-0.482 0-0.6656 0.88112-0.2667 1.28 0.3423 0.34224 0.4202 0.24876 0.2224-0.26666zm-0.7557-1.6c0-0.264-0.1395-0.48-0.31-0.48s-0.2271 0.216-0.1257 0.48c0.1013 0.264 0.2407 0.48 0.3099 0.48 0.069 0 0.1258-0.216 0.1258-0.48zm1.84-1.7355c0.22-0.0134 0.4-0.24048 0.4-0.50448s0.18-0.48458 0.4-0.49018c0.6603-0.017 1.534-0.83164 1.6746-1.562 0.073-0.37673 0.013-0.61145-0.1324-0.5216-0.1454 0.0898-0.3448-0.23907-0.4432-0.73094-0.1067-0.53395-0.4992-1.0403-0.974-1.2566-0.7003-0.31904-0.8584-0.26595-1.324 0.44458-0.2908 0.44377-0.698 0.74192-0.9048 0.66252-0.2677-0.10268-0.3628 0.46727-0.3298 1.9749 0.026 1.1656 0.062 2.1425 0.08 2.1709 0.019 0.0285 0.2856 4e-3 0.5936-0.0555 0.308-0.0589 0.74-0.11821 0.96-0.13168zm-86.514-117.33c0.2848-0.7421 0.2383-1.0938-0.1446-1.0938-0.1864 0-0.2499 0.144-0.1412 0.32 0.2807 0.45407-0.9134 0.39853-1.376-0.064-0.2986-0.29867-0.384-0.26664-0.384 0.1441 0 0.99707 1.7072 1.576 2.0458 0.69373zm6.1142-0.13383c-0.1087-0.176-0.3692-0.3178-0.5788-0.3151-0.229 3e-3 -0.1896 0.12871 0.099 0.3151 0.6147 0.39729 0.7255 0.39729 0.48 0zm-2.7413-77.325c0.076-0.0691-0.05-0.30319-0.28-0.52025-0.332-0.31301-0.449-0.31191-0.5653 5e-3 -0.081 0.22-0.2941 0.4-0.4742 0.4-0.1802 0-0.2448-0.216-0.1434-0.48 0.1013-0.264 0.06-0.48-0.091-0.48-0.4615 0-0.6374 0.85889-0.2543 1.242 0.3114 0.31144 1.3905 0.21179 1.8087-0.16704zm-4.4587-0.43492c0-0.176-0.216-0.32-0.48-0.32s-0.48 0.144-0.48 0.32 0.216 0.32 0.48 0.32 0.48-0.144 0.48-0.32zm2.1534-0.83333c-0.1063-0.10634-0.3823-0.1177-0.6134-0.0252-0.2552 0.10215-0.1794 0.17798 0.1934 0.19333 0.3373 0.0139 0.5263-0.0617 0.42-0.16807zm6.8066-62.197c0-0.17047-0.216-0.22707-0.48-0.12576s-0.48 0.24079-0.48 0.30996c0 0.0692 0.216 0.12576 0.48 0.12576s0.48-0.13948 0.48-0.30996zm6.2313-19.636c0.6681-0.6681 0.624-0.75765-0.3913-0.79504-0.484-0.01782-1.4751-0.12401-2.2025-0.23596-1.6531-0.25443-2.1504 0.3138-1.0435 1.1923 0.8941 0.70955 2.8533 0.62268 3.6373-0.16128zm4.7413 0.10496c-0.1619-0.619-1.874-1.3512-2.4334-1.0407-0.4492 0.24935 0.7664 1.3189 1.6541 1.4553 0.4657 0.07155 0.8693 0.15167 0.8968 0.17804 0.027 0.02637-0.025-0.24031-0.1175-0.59261zm39.919-39.345c-1.2334-1.5573-2.376-1.8576-1.2957-0.3405 0.7152 1.0044 1.9496 2.0069 2.1833 1.7731 0.076-0.07583-0.3236-0.72052-0.8876-1.4326zm60.395 192.77c-0.1113-0.11139-3.2725-0.23315-7.0247-0.27058l-6.8222-0.0681-0.2535-1.4208c-0.1394-0.78146-0.3754-1.8076-0.5244-2.2802-0.3575-1.1336 0.1084-1.2937 2.3794-0.81731 1.2813 0.26874 1.94 0.2773 2.3355 0.0303 0.3285-0.20516 0.837-0.23815 1.2598-0.0817 0.3899 0.14425 1.2522 0.32917 1.9161 0.41095 0.6639 0.0818 1.4342 0.23747 1.7119 0.346 0.2776 0.10852 0.9213 0.0389 1.4305-0.15462 0.7532-0.2864 0.9936-0.25903 1.2904 0.14693 0.4632 0.63342 0.7416 0.6276 1.4691-0.0307 0.3501-0.31686 0.5852-0.38113 0.5852-0.16 0 0.20328-0.1525 0.3696-0.3389 0.3696s-0.2385 0.16249-0.1157 0.36109c0.1527 0.24709 0.3148 0.19727 0.5135-0.15777 0.2603-0.46518 0.366-0.46931 1.0213-0.04 0.4019 0.26339 0.8505 0.37039 0.9966 0.23777 0.1462-0.13261 0.1622-0.0611 0.036 0.15888-0.2206 0.38341 0.1332 0.53564 0.9929 0.42726 0.212-0.0267 0.716 0.2355 1.12 0.58269 0.4041 0.3472 1.0901 0.9361 1.5245 1.3087 0.6074 0.52104 0.6919 0.73783 0.3662 0.93916-0.5056 0.31246-5.5786 0.45294-5.869 0.16253zm-14.763-0.94031c-0.1014-0.264-0.045-0.48 0.1257-0.48 0.1705 0 0.31 0.216 0.31 0.48s-0.057 0.48-0.1258 0.48c-0.069 0-0.2086-0.216-0.3099-0.48zm6.9157-5.0318c-0.396-0.19029-0.72-0.60966-0.72-0.93191 0-0.55862 0.052-0.5609 1.1259-0.049 0.6193 0.29531 1.0783 0.67998 1.02 0.85482-0.1575 0.47271-0.6196 0.51356-1.4259 0.12608zm-124.3-73.747c0.2311-0.0924 0.5071-0.0811 0.6134 0.0252 0.1063 0.10634-0.083 0.18197-0.42 0.16807-0.3728-0.0154-0.4486-0.0912-0.1934-0.19333zm85.206-116.89c-0.2331-0.14403-0.3702-0.41247-0.3047-0.59652 0.077-0.21551 0.3251-0.18266 0.6981 0.09227 0.6382 0.47041 0.2847 0.92338-0.3934 0.50425zm-31.546-19.216c0.1088-0.176 0.2613-0.32 0.3389-0.32 0.078 0 0.1411 0.144 0.1411 0.32s-0.1525 0.32-0.3388 0.32c-0.1864 0-0.2499-0.144-0.1412-0.32z" fill="#1f1f1f"/>
     </g>
    </g>
   </g>
  </g>
 </g>
</svg>
