<?xml version="1.0" encoding="UTF-8" standalone="no"?>
<!-- Created with Inkscape (http://www.inkscape.org/) -->

<svg
   xmlns:dc="http://purl.org/dc/elements/1.1/"
   xmlns:cc="http://creativecommons.org/ns#"
   xmlns:rdf="http://www.w3.org/1999/02/22-rdf-syntax-ns#"
   xmlns:svg="http://www.w3.org/2000/svg"
   xmlns="http://www.w3.org/2000/svg"
   xmlns:sodipodi="http://sodipodi.sourceforge.net/DTD/sodipodi-0.dtd"
   xmlns:inkscape="http://www.inkscape.org/namespaces/inkscape"
   width="57.504269mm"
   height="99.818207mm"
   viewBox="0 0 57.504269 99.818207"
   version="1.1"
   id="svg5551"
   inkscape:version="0.92.1 r"
   sodipodi:docname="rook_asymmetric2.svg">
  <defs
     id="defs5545" />
  <sodipodi:namedview
     id="base"
     pagecolor="#ffffff"
     bordercolor="#666666"
     borderopacity="1.0"
     inkscape:pageopacity="0.0"
     inkscape:pageshadow="2"
     inkscape:zoom="0.35"
     inkscape:cx="-524.18766"
     inkscape:cy="231.49"
     inkscape:document-units="mm"
     inkscape:current-layer="layer1"
     showgrid="false"
     fit-margin-top="0"
     fit-margin-left="0"
     fit-margin-right="0"
     fit-margin-bottom="0"
     inkscape:window-width="1920"
     inkscape:window-height="1046"
     inkscape:window-x="0"
     inkscape:window-y="0"
     inkscape:window-maximized="1" />
  <metadata
     id="metadata5548">
    <rdf:RDF>
      <cc:Work
         rdf:about="">
        <dc:format>image/svg+xml</dc:format>
        <dc:type
           rdf:resource="http://purl.org/dc/dcmitype/StillImage" />
        <dc:title></dc:title>
      </cc:Work>
    </rdf:RDF>
  </metadata>
  <g
     inkscape:label="Layer 1"
     inkscape:groupmode="layer"
     id="layer1"
     transform="translate(-101.27168,-110.26352)">
    <g
       id="g4633"
       transform="matrix(0.26458333,0,0,0.26458333,28.351081,105.32806)">
      <g
         id="g4622">
        <g
           id="g4612">
          <g
             id="g4603">
            <path
               inkscape:connector-curvature="0"
               id="path4551"
               d="m 447.49747,395.17109 c -1.9295,-1.32061 -3.4993,-3.95072 -4.1288,-6.91738 -0.2054,-0.968 -0.5142,-4.28 -0.6862,-7.36 -0.3326,-5.95568 -0.5744,-7.68992 -1.2468,-8.94042 -0.4191,-0.77955 -0.4205,-0.77862 -1.2223,0.79888 -0.4414,0.86861 -1.3479,3.27018 -2.0144,5.33677 -2.0591,6.38477 -3.5065,8.304 -5.5983,7.42343 -2.0059,-0.84439 -3.3241,-3.96426 -4.3178,-10.21866 -0.2237,-1.408 -0.6057,-3.04026 -0.8488,-3.62723 l -0.4422,-1.06727 -1.2883,1.46365 c -1.9285,2.19082 -4.746,3.25479 -6.1591,2.32579 -1.0938,-0.71913 -3.6286,-4.64518 -4.7886,-7.41689 -0.7283,-1.74016 -1.2147,-2.51712 -1.5216,-2.43002 -0.2481,0.0704 -1.3587,0.10979 -2.468,0.0875 -1.8191,-0.0366 -2.1572,-0.15536 -3.4443,-1.21005 -0.785,-0.64323 -2.4057,-2.62659 -3.6015,-4.40749 l -2.1743,-3.23798 -1.6349,-0.16637 c -0.9027,-0.0919 -1.9128,-0.41782 -2.2552,-0.72774 -0.3616,-0.3272 -0.8448,-0.47517 -1.1585,-0.35479 -1.4904,0.57194 -5.3144,-5.5598 -5.3144,-8.52169 0,-0.78394 -0.2633,-1.11363 -1.52,-1.90275 -0.836,-0.52496 -1.7883,-0.95722 -2.1164,-0.96058 -1.0407,-0.0106 -3.0897,-1.3807 -3.8194,-2.55389 -0.5818,-0.93545 -0.704,-1.60483 -0.7032,-3.85219 0,-2.43507 0.1134,-2.95027 1.0746,-4.91827 l 1.0737,-2.19831 -1.0443,-1.48169 c -0.5744,-0.81495 -1.2848,-1.84173 -1.5787,-2.28173 -0.294,-0.44 -0.9916,-1.47155 -1.5504,-2.29232 -0.58,-0.85197 -1.0159,-1.90142 -1.0159,-2.44576 0,-1.02186 -0.4435,-1.34112 -1.8661,-1.34312 -1.2768,-0.002 -2.8862,-1.11547 -3.1054,-2.14887 -0.1038,-0.48946 -0.4542,-1.75393 -0.7787,-2.80993 -0.3244,-1.056 -0.6883,-2.496 -0.8085,-3.2 -0.2725,-1.59612 -0.6615,-2.08 -1.672,-2.08 -1.1799,0 -2.4695,-1.57896 -2.9175,-3.57192 -0.8008,-3.5627 -0.8963,-4.29224 -0.6711,-5.12515 0.3264,-1.20707 -0.3911,-2.08113 -1.9202,-2.33948 -0.6947,-0.11737 -1.6188,-0.56909 -2.0535,-1.00382 -0.671,-0.67097 -0.7972,-1.11455 -0.8349,-2.93503 -0.038,-1.82743 -0.191,-4.49853 -0.3004,-5.2385 -0.017,-0.11765 -0.5109,-0.51011 -1.0967,-0.87214 -0.5858,-0.36203 -1.2171,-0.99202 -1.403,-1.39996 -0.3788,-0.83144 -0.2607,-5.0076 0.236,-8.33963 0.313,-2.09988 0.2942,-2.22326 -0.4812,-3.14466 -0.4438,-0.52747 -0.8888,-1.28506 -0.9888,-1.68354 -0.192,-0.76524 0.5772,-4.16696 1.3085,-5.78617 1.8782,-4.15882 1.7799,-4.32 -2.6351,-4.32 h -3.1982 l -1.9103,2.16 c -1.0507,1.188 -2.1876,2.50494 -2.5266,2.92654 -4.6414,5.77309 -15.5977,16.76677 -20.1564,20.22526 -6.7314,5.10682 -10.0672,6.94332 -13.1315,7.22947 l -2.0375,0.19026 -1.4383,-1.32576 c -1.5989,-1.47381 -1.7169,-1.50293 -3.5326,-0.87084 -1.2231,0.42583 -2.7915,0.60326 -4.7386,0.53607 -0.9251,-0.0319 -2.5718,-1.56821 -4.1238,-3.84739 -0.7186,-1.05522 -0.7966,-1.08388 -3.032,-1.11335 -1.9643,-0.0259 -2.4133,-0.14189 -3.12,-0.80604 -0.4541,-0.42668 -0.8256,-0.88828 -0.8256,-1.02579 0,-0.13751 -0.324,-0.74253 -0.72,-1.3445 -0.396,-0.60197 -0.864,-1.33371 -1.04,-1.62608 -0.1923,-0.31946 -0.8945,-0.59552 -1.76,-0.69182 -0.792,-0.0881 -1.8905,-0.30421 -2.4413,-0.48018 -1.2333,-0.39407 -2.2417,-1.41258 -1.7187,-1.73585 0.2595,-0.16037 0.233,-0.37281 -0.094,-0.75177 -0.5718,-0.6631 -1.1861,-2.46142 -1.1861,-3.47231 0,-0.58678 -0.2838,-0.8857 -1.2,-1.26371 -1.9066,-0.78668 -3.3585,-2.01748 -3.1809,-2.6965 0.085,-0.32433 -0.093,-1.06354 -0.3942,-1.6427 -0.3559,-0.68331 -0.5334,-1.70683 -0.5057,-2.91531 0.04,-1.73744 -0.018,-1.89353 -0.8582,-2.32822 -0.4956,-0.25625 -0.901,-0.63088 -0.901,-0.8325 0,-0.20162 -0.252,-0.64538 -0.56,-0.98613 -0.308,-0.34075 -0.5775,-1.14409 -0.5988,-1.7852 -0.021,-0.64111 -0.2974,-1.87092 -0.6135,-2.73292 -0.4943,-1.34791 -0.519,-1.751 -0.1769,-2.88 0.2188,-0.722 0.4012,-1.52873 0.4053,-1.79273 0.019,-1.22107 -0.4997,-4.04498 -0.8162,-4.44449 -0.4525,-0.5712 -0.3088,-1.61744 0.4312,-3.13877 0.4488,-0.92266 0.5085,-1.36119 0.2507,-1.84279 -0.186,-0.3476 -0.4039,-1.93294 -0.4842,-3.52298 l -0.146,-2.89097 1.1137,-1.44782 c 0.6126,-0.79631 1.6408,-1.73164 2.2849,-2.07853 1.0772,-0.58007 1.1658,-0.73507 1.1038,-1.93109 -0.037,-0.71522 0.043,-1.4782 0.1769,-1.6955 0.1343,-0.2173 0.1023,-0.56879 -0.071,-0.78108 -1.0254,-1.25513 0.7631,-4.2081 3.3374,-5.51061 1.7672,-0.89411 1.7738,-0.90291 1.5291,-2.04667 -0.3138,-1.46742 -0.297,-2.27344 0.1006,-4.80612 0.2633,-1.6779 0.5059,-2.22091 1.3148,-2.94368 0.9625,-0.85996 3.6516,-1.87384 4.9964,-1.8838 1.128,-0.008 1.3015,-0.39539 1.3171,-2.93831 0.012,-1.85495 0.1498,-2.61186 0.56,-3.0652 0.2997,-0.33109 0.5448,-0.98876 0.5448,-1.46149 0,-1.88305 3.628,-2.83646 7.6234,-2.0034 1.2627,0.26328 6.22,1.87404 11.0162,3.57945 4.7962,1.70541 9.7284,3.44633 10.9604,3.86871 1.232,0.42239 4.184,1.47135 6.56,2.33103 7.156,2.58918 17.3399,5.81079 18.9855,6.00598 1.4623,0.17344 6.6353,-0.41487 7.4926,-0.8521 0.6489,-0.33096 -0.2665,-1.33904 -2.6965,-2.96938 -1.2004,-0.80538 -2.4474,-1.75688 -2.7709,-2.11445 -0.8019,-0.88605 -1.2485,-3.00965 -0.8521,-4.05208 0.2819,-0.74161 0.1667,-0.96781 -1.1088,-2.17576 -1.7123,-1.62165 -3.6898,-5.0391 -3.6898,-6.3766 0,-0.62288 -0.3493,-1.36487 -0.9816,-2.08498 -0.8825,-1.00512 -0.9674,-1.28395 -0.8417,-2.76224 0.095,-1.11661 -0.052,-2.15774 -0.4582,-3.24428 -0.7913,-2.11676 -0.7569,-2.71725 0.2401,-4.18642 0.7351,-1.08315 0.7948,-1.35686 0.4838,-2.21695 -0.1952,-0.53967 -0.3008,-1.75295 -0.2347,-2.69617 0.071,-1.01033 -0.062,-2.15148 -0.3237,-2.77742 -0.2442,-0.58437 -0.444,-1.62477 -0.444,-2.31201 0,-1.07093 0.2058,-1.43923 1.44,-2.57687 0.792,-0.73004 1.44,-1.47411 1.44,-1.6535 0,-0.17939 -0.2714,-0.86042 -0.6031,-1.51341 -0.7793,-1.53393 -1.5605,-4.61616 -1.8254,-7.20178 -0.242,-2.36135 0.4053,-4.20634 1.6792,-4.78678 0.8816,-0.40167 0.9184,-0.85966 0.2252,-2.79869 -0.2831,-0.792 -0.5515,-2.592 -0.5964,-4 -0.045,-1.408 -0.1879,-3.22304 -0.3177,-4.03343 -0.3198,-1.99696 0.4386,-3.56885 2.228,-4.61748 0.7405,-0.434 1.5773,-0.78909 1.8595,-0.78909 0.8715,0 0.8759,-0.48383 0.016,-1.74927 -0.7472,-1.09957 -0.8057,-1.40385 -0.6102,-3.17346 0.119,-1.0765 0.3295,-3.04697 0.468,-4.37882 0.1384,-1.33185 0.4749,-2.86889 0.7476,-3.41565 0.4562,-0.91456 0.4497,-1.07016 -0.082,-1.94466 -0.3179,-0.52281 -1.0962,-1.36177 -1.7295,-1.86436 -1.4019,-1.1126 -3.4823,-4.02852 -3.9624,-5.55379 -0.6278,-1.99424 -0.7961,-4.33463 -0.3707,-5.15513 0.8857,-1.70846 2.0931,-3.46248 2.394,-3.47785 0.176,-0.009 1.0927,-0.80666 2.0371,-1.7726 1.3415,-1.37197 1.6779,-1.91359 1.5375,-2.47534 -0.099,-0.39549 -0.4036,-1.50646 -0.6772,-2.46882 -0.7208,-2.53573 -0.599,-3.84338 0.731,-7.85025 0.1753,-0.528 0.4005,-1.33645 0.5004,-1.796549 0.1499,-0.690579 0.322,-0.809699 0.9864,-0.682694 0.5787,0.11062 0.8048,0.01501 0.8048,-0.340231 0,-0.728016 1.5509,-1.820531 2.5843,-1.820531 0.4939,0 0.9646,-0.108 1.046,-0.24 0.081,-0.132 0.3198,-1.679437 0.5298,-3.438752 0.4445,-3.724816 0.6169,-4.139043 1.9099,-4.589818 1.0622,-0.370291 1.0519,-1.160736 -0.019,-1.500812 -0.5978,-0.189748 -0.8834,-1.430628 -0.3293,-1.430628 0.1547,0 0.4538,-0.416685 0.6647,-0.925968 0.5448,-1.315245 2.6827,-2.094179 4.965,-1.809021 l 1.7098,0.213626 -0.315,-1.379319 c -0.7571,-3.315929 0.1361,-10.479859 1.6724,-13.412899 0.2208,-0.421529 0.5066,-0.982419 0.6353,-1.246419 0.4002,-0.821546 4.1738,-0.518592 5.8617,0.470602 0.7597,0.445168 1.4869,0.809398 1.6161,0.809398 0.3409,0 -0.073,-3.039312 -1.1113,-8.16 -1.0499,-5.177536 -1.0552,-8.203647 -0.018,-10.547746 0.5548,-1.254323 0.7723,-1.452253 1.5958,-1.452253 1.7397,0 3.2136,1.807821 8.6946,10.664521 1.8534,2.99502 3.6839,5.335478 4.1728,5.335478 0.8058,0 0.2221,-3.842966 -1.8121,-11.928834 -1.6876,-6.708336 -2.3683,-10.903431 -2.3709,-14.61072 0,-4.433664 1.303,-8.340445 2.7884,-8.340445 1.3366,0 2.6336,2.840586 8.9862,19.68 4.4415,11.773756 5.9984,15.131778 6.6933,14.436885 0.3776,-0.377564 0.079,-2.803091 -0.7125,-5.781334 -0.8545,-3.217002 -2.5623,-10.894284 -3.0287,-13.615551 -0.1659,-0.968 -0.4531,-2.624 -0.6382,-3.68 -0.5593,-3.191603 -0.7545,-9.412422 -0.3726,-11.871148 0.6458,-4.156792 1.5662,-6.537059 3.1341,-8.104987 1.4008,-1.400781 1.4242,-1.409966 2.0358,-0.798432 0.7615,0.761536 1.4354,3.350741 3.6998,14.214567 2.5156,12.068752 3.4289,16.110688 5.6038,24.799999 2.5666,10.254474 3.0805,11.930262 3.7718,12.300256 1.3791,0.738016 1.7106,-1.61952 0.8158,-5.799334 -0.2757,-1.287508 -0.6252,-3.060922 -0.7766,-3.940922 -1.5159,-8.805721 -1.8896,-11.167004 -2.0508,-12.959999 -0.1029,-1.144 -0.2961,-3.304 -0.4293,-4.8 -0.6278,-7.051523 0.076,-14.245653 1.8466,-18.88 0.8278,-2.166613 1.3615,-3.029247 2.6228,-4.240001 0.871,-0.836 1.7101,-1.52 1.8647,-1.52 0.9172,0 1.4195,3.602154 3.0131,21.609854 1.0114,11.429491 3.1671,30.878783 4.0066,36.150146 0.3726,2.33927 1.2562,3.947126 1.3126,2.388573 0.086,-2.367555 -0.1,-8.619351 -0.3509,-11.828573 -0.4731,-6.04671 -0.393,-16.218236 0.1529,-19.417999 1.2812,-7.508454 3.4529,-12.55353 6.4026,-14.873755 0.8766,-0.689566 0.9005,-0.691064 1.3575,-0.08508 0.3966,0.525797 0.4332,2.317116 0.2478,12.136838 -0.1195,6.336 -0.265,12.239999 -0.3232,13.119999 -0.058,0.88 -0.2781,9.088 -0.4886,18.24 -0.4123,17.92672 -0.1674,26.996422 0.7539,27.917732 0.397,0.39702 0.4834,0.31607 0.6507,-0.60999 0.1061,-0.58726 0.3422,-3.29974 0.5247,-6.027742 0.3613,-5.401402 0.4068,-5.84175 1.1396,-11.04 0.8085,-5.735555 1.6064,-8.423114 2.9764,-10.025613 0.847,-0.990646 0.9483,-1.028432 1.4396,-0.537142 0.4482,0.448211 0.5284,1.323341 0.5284,5.762457 0,4.555965 -0.1261,6.33832 -0.7928,11.200298 -0.072,0.528 -0.3609,2.76 -0.6411,4.96 -0.2802,2.2 -0.6361,4.431992 -0.7908,4.959992 -0.1548,0.528 -0.3716,1.536 -0.4819,2.24 -0.1104,0.704 -0.5457,2.936 -0.9675,4.96 -0.4219,2.024 -1.0084,4.976 -1.3035,6.56 -0.295,1.584 -0.895,4.32 -1.3332,6.08 -0.7765,3.11877 -0.7862,3.30076 -0.3816,7.16951 0.3341,3.19611 0.3391,5.16004 0.026,10.08001 -0.4596,7.21209 -0.9788,10.05685 -3.4222,18.75049 -0.2721,0.968 -0.638,3.416 -0.8131,5.44 -0.1751,2.024 -0.5947,5.264 -0.9324,7.2 -1.1665,6.68838 -1.4178,10.87275 -1.4318,23.84 -0.012,11.28852 0.047,12.81332 0.5524,14.26105 0.944,2.70287 4.0317,5.121 8.2446,6.45675 3.8236,1.2123 9.088,2.60373 11.8293,3.1266 6.3462,1.21045 10.867,3.25807 15.2587,6.91114 1.0387,0.86399 2.193,1.5518 2.6119,1.55634 0.4128,0.004 1.136,0.28256 1.607,0.61798 0.4711,0.33542 1.7173,0.85177 2.7694,1.14743 3.2258,0.90649 6.5872,2.10051 8.781,3.11911 4.2444,1.97073 9.6782,6.07983 9.1564,6.92416 -0.126,0.20374 -1.0528,0.28198 -2.356,0.1989 -4.3756,-0.27896 -13.4136,-0.58275 -15.4284,-0.51858 -1.144,0.0364 -3.36,0.0591 -4.9245,0.0504 -2.5479,-0.0142 -6.06,0.66388 -6.5955,1.27347 -0.088,0.10018 -0.808,0.36676 -1.6,0.5924 -0.792,0.22564 -1.9753,0.68916 -2.6294,1.03003 -0.6542,0.34088 -2.5982,1.06108 -4.32,1.60045 -4.6021,1.4416 -6.5167,2.2228 -7.7706,3.17054 -1.784,1.34836 -4.1667,2.88188 -4.4778,2.88188 -0.702,0 -2.5622,1.3963 -2.5622,1.92325 0,1.06765 7.126,16.62584 9.0856,19.83675 0.5908,0.968 1.3295,2.264 1.6415,2.88 0.312,0.616 1.0335,1.696 1.6031,2.4 0.5697,0.704 1.5925,2.16727 2.2728,3.2517 0.6803,1.08444 3.1041,4.75644 5.3862,8.16 6.8234,10.17661 12.0108,21.10163 12.0108,25.29545 0,1.69191 0.2669,2.22876 5.6943,11.45285 3.7857,6.43386 6.855,10.95066 12.841,18.89693 2.8296,3.75616 5.1447,7.02665 5.1447,7.26781 0,0.54505 -0.7989,0.3367 -3.1855,-0.83085 -2.9821,-1.45885 -5.7682,-4.76096 -8.8201,-10.45389 -3.2581,-6.07754 -4.2603,-7.35642 -4.7549,-6.06749 -0.4175,1.08778 3.9877,13.05447 7.0612,19.18186 3.3291,6.63712 5.0327,9.42259 7.648,12.5056 0.9522,1.12243 1.7311,2.15309 1.7309,2.2904 -2e-4,0.13728 -1.4042,0.24259 -3.12,0.23398 -2.3354,-0.0118 -3.3853,-0.15673 -4.1764,-0.57686 -2.4585,-1.30573 -4.504,-4.28922 -7.0815,-10.32912 -1.3265,-3.10839 -2.0568,-4.26999 -2.4421,-3.88471 -0.4916,0.49165 2.8455,13.00759 6.488,24.33332 1.7756,5.52112 2.3501,7.70326 2.0953,7.95814 -0.4045,0.40445 -2.6599,-0.044 -5.5067,-1.09507 -4.7081,-1.73811 -7.6369,-7.21738 -9.288,-17.37584 -0.8348,-5.136 -1.2534,-6.00525 -3.0239,-6.27901 -0.6737,-0.10416 -0.7014,0.42774 -0.3294,6.3048 0.089,1.408 0.2964,5.008 0.4607,8 0.1643,2.992 0.4575,7.888 0.6516,10.88 0.1941,2.992 0.3079,6.52 0.2528,7.84 -0.093,2.23482 -0.1513,2.40726 -0.845,2.50554 -1.0839,0.15353 -4.0723,-1.47005 -5.3896,-2.92804 -1.4623,-1.61865 -2.1612,-3.22934 -2.9443,-6.78588 -0.5972,-2.71191 -1.691,-10.1672 -2.1115,-14.39162 -0.3395,-3.41136 -1.4172,-4.95318 -2.0568,-2.94262 -0.343,1.07843 -1.3869,9.1672 -1.949,15.10262 -0.3725,3.93386 -1.3633,9.77632 -1.8858,11.12 -0.433,1.11354 -1.4109,1.1528 -2.9238,0.11738 z"
               style="fill:#313131;fill-opacity:1;stroke-width:0.31999999" />
            <path
               inkscape:connector-curvature="0"
               id="path4549"
               d="m 448.46327,395.37867 c -1.0829,-0.41629 -2.6411,-1.86938 -3.4082,-3.17824 -1.3407,-2.28784 -1.7165,-4.13952 -2.0408,-10.05638 -0.4058,-7.40378 -1.0609,-10.85034 -2.0625,-10.85034 -0.5298,0 -2.1652,3.66125 -3.2162,7.2 -1.9792,6.6639 -4.5249,8.54858 -6.8645,5.08192 -0.9447,-1.39978 -1.448,-3.15904 -2.428,-8.48797 -0.502,-2.72985 -0.9738,-4.1583 -1.4758,-4.46854 -0.1848,-0.11421 -0.849,0.36019 -1.4759,1.05421 -1.8585,2.05712 -4.8491,3.18227 -6.1103,2.29888 -0.9902,-0.69357 -3.7432,-5.00122 -4.5128,-7.06132 -0.9733,-2.60505 -1.3331,-2.92921 -3.0378,-2.73708 -2.3414,0.26393 -3.4595,-0.11952 -5.1189,-1.75549 -0.8391,-0.82723 -2.3616,-2.74736 -3.3834,-4.26695 l -1.8578,-2.76294 -1.6674,-0.19747 c -0.9172,-0.10861 -1.9304,-0.43539 -2.2517,-0.72618 -0.3213,-0.29078 -0.8116,-0.44144 -1.0895,-0.33481 -0.6397,0.24547 -3.048,-2.28157 -4.0099,-4.20759 -0.3782,-0.75734 -0.794,-2.16032 -0.9239,-3.11769 -0.2205,-1.62493 -1.0114,-3.03098 -1.7049,-3.03098 -0.1656,0 -0.7183,-0.29712 -1.2283,-0.66022 -0.51,-0.36314 -1.0701,-0.57191 -1.2449,-0.46391 -0.532,0.32883 -3.1955,-1.44601 -3.7346,-2.48861 -0.8569,-1.65702 -0.4621,-5.67289 0.8016,-8.15366 1.1455,-2.24886 1.1412,-2.27491 -0.8107,-4.8736 -2.0641,-2.74806 -3.303,-4.86845 -3.303,-5.65319 0,-1.49027 -0.5421,-2.02681 -2.0481,-2.02681 -1.5657,0 -3.0719,-0.94684 -3.0719,-1.93122 0,-0.33263 -0.279,-1.36618 -0.62,-2.29678 -0.341,-0.9306 -0.7157,-2.36455 -0.8325,-3.18657 -0.2296,-1.61484 -1.1023,-2.82543 -2.0368,-2.82543 -0.3214,0 -0.9521,-0.28924 -1.4015,-0.64276 -1.0255,-0.8067 -2.309,-5.78397 -1.9854,-7.69936 0.2563,-1.51737 -0.4695,-2.35146 -2.3011,-2.64434 -2.0402,-0.32624 -2.2985,-0.84828 -2.4863,-5.0249 l -0.1648,-3.66435 -1.4832,-1.36177 c -1.285,-1.1799 -1.454,-1.47934 -1.2651,-2.24214 0.1199,-0.48421 0.2043,-1.16838 0.1875,-1.52038 -0.092,-1.94018 0.062,-4.96123 0.3097,-6.07234 0.2529,-1.13304 0.1784,-1.43084 -0.6804,-2.72 -0.7491,-1.12462 -0.9309,-1.69759 -0.8147,-2.56766 0.2306,-1.72622 0.8468,-3.93124 1.2967,-4.64 0.2235,-0.352 0.6002,-1.34578 0.8372,-2.2084 0.4133,-1.50372 0.4009,-1.59281 -0.2996,-2.16 -0.5939,-0.48095 -1.2887,-0.5916 -3.7148,-0.5916 h -2.9842 l -6.2117,6.96 c -9.7373,10.91051 -14.2307,15.27424 -20.3869,19.79883 -5.7244,4.20727 -8.2911,5.53201 -11.2355,5.79899 -1.7301,0.15688 -1.9999,0.0957 -2.7813,-0.63062 -0.4759,-0.44239 -1.2568,-1.05261 -1.7353,-1.35605 -0.8244,-0.52275 -0.9471,-0.52226 -2.3393,0.009 -0.8081,0.30862 -2.3843,0.57425 -3.5025,0.59027 -2.3575,0.0338 -3.0269,-0.41388 -4.8615,-3.25085 l -1.0863,-1.68 h -2.0493 c -2.483,0 -3.5025,-0.3504 -4.0651,-1.39699 -0.2342,-0.43593 -0.7776,-1.45613 -1.2073,-2.26711 -0.804,-1.51708 -0.942,-1.59134 -3.5961,-1.93466 -1.6961,-0.21939 -3.4695,-1.36138 -2.7779,-1.78883 0.3255,-0.20117 0.2639,-0.42337 -0.277,-0.99915 -0.3826,-0.40725 -0.7945,-1.38683 -0.9153,-2.17685 -0.271,-1.7718 -0.5797,-2.17467 -2.2078,-2.88156 -1.3312,-0.57795 -3.1392,-2.23485 -2.4388,-2.23485 0.4562,0 0.196,-1.14996 -0.4344,-1.92 -0.2161,-0.264 -0.3985,-1.33721 -0.4054,-2.3849 -0.011,-1.6663 -0.121,-1.99831 -0.8794,-2.6506 -0.4768,-0.41014 -0.7909,-0.94373 -0.698,-1.18576 0.1068,-0.27839 -0.1298,-0.515 -0.644,-0.64407 -0.7054,-0.17705 -0.7924,-0.33954 -0.6582,-1.22934 0.098,-0.65036 -0.075,-1.47962 -0.4739,-2.26754 -0.497,-0.98231 -0.5837,-1.58488 -0.4144,-2.88 0.3034,-2.32104 0.189,-7.05748 -0.1735,-7.18446 -0.4634,-0.16229 -0.3646,-1.49026 0.2193,-2.94959 0.4192,-1.04766 0.4551,-1.5444 0.1799,-2.48647 -0.3194,-1.09311 -0.4801,-3.14589 -0.4122,-5.26442 0.033,-1.01403 2.1641,-3.51698 3.6492,-4.28498 0.8353,-0.43192 0.9145,-0.60323 0.7495,-1.62041 -0.1015,-0.62559 -0.032,-1.42319 0.1552,-1.77245 0.2471,-0.46163 0.2312,-0.83813 -0.058,-1.37895 -0.7574,-1.41534 1.0166,-3.88431 3.716,-5.17157 1.3151,-0.62711 1.5364,-1.14846 1.0539,-2.48289 -0.2843,-0.78601 -0.2857,-1.38912 -0.01,-2.50044 0.2028,-0.80551 0.3687,-1.88804 0.3687,-2.40563 0,-0.68936 0.337,-1.24555 1.2601,-2.07949 1.1762,-1.06265 1.9955,-1.41505 4.8199,-2.07326 l 1.12,-0.26101 0.2141,-2.38088 c 0.1177,-1.30949 0.5034,-3.17289 0.8571,-4.14089 0.5344,-1.46277 0.8495,-1.85681 1.8659,-2.33324 2.0089,-0.94167 5.8215,-0.57777 10.3429,0.98721 5.9934,2.07445 20.9822,7.36618 24.6232,8.69311 4.6115,1.68062 14.7569,4.98071 17.2968,5.62631 1.3102,0.33303 2.613,0.45625 3.52,0.33295 3.6305,-0.49351 5.44,-0.9181 5.44,-1.27642 0,-0.52365 -1.7137,-2.10155 -3.84,-3.53565 -2.2351,-1.50749 -3.005,-2.89875 -2.7274,-4.92868 0.1951,-1.42745 0.1513,-1.53568 -1.1199,-2.76559 -1.7908,-1.73259 -3.5127,-4.71592 -3.5127,-6.08602 0,-0.75672 -0.2946,-1.42723 -0.96,-2.1851 -0.8441,-0.96136 -0.96,-1.33101 -0.96,-3.06141 0,-1.08242 -0.216,-2.485 -0.48,-3.11684 -0.697,-1.66822 -0.5943,-2.80566 0.3552,-3.93413 0.6209,-0.7379 0.7739,-1.1753 0.5961,-1.70456 -0.1315,-0.39157 -0.3583,-1.93595 -0.5039,-3.43195 -0.1457,-1.496 -0.3577,-3.41911 -0.471,-4.27358 -0.2027,-1.52741 -0.1803,-1.57982 1.3277,-3.11087 l 1.5338,-1.55729 -0.7052,-1.52913 c -1.3096,-2.83943 -2.2986,-8.02721 -1.862,-9.76682 0.1076,-0.42845 0.7011,-1.27024 1.319,-1.87065 1.2621,-1.22639 1.3511,-1.71674 0.6207,-3.42194 -0.2802,-0.65434 -0.5538,-2.26972 -0.6078,-3.58972 -0.054,-1.32 -0.2029,-3.07379 -0.3308,-3.89731 -0.1279,-0.82352 -0.1445,-1.84843 -0.037,-2.27758 0.26,-1.0361 1.8658,-2.57107 3.4254,-3.27435 1.4372,-0.64806 1.531,-0.99931 0.5875,-2.19876 -0.7567,-0.962 -0.8385,-2.23506 -0.2798,-4.352 0.209,-0.792 0.4193,-2.304 0.4672,-3.36 0.048,-1.056 0.2485,-2.32537 0.4458,-2.82083 0.5891,-1.47888 0.4537,-1.78818 -1.8266,-4.17329 -1.202,-1.25724 -2.5213,-2.77286 -2.9318,-3.36805 -0.7802,-1.13126 -1.5892,-3.98938 -1.5978,-5.64512 -0.01,-1.04975 2.1245,-4.95272 2.7027,-4.95272 0.1926,0 0.588,-0.252 0.8787,-0.56 0.2907,-0.308 0.7187,-0.71906 0.9511,-0.91347 0.628,-0.52537 1.8625,-2.14683 1.8625,-2.44627 0,-0.14345 -0.2089,-0.76084 -0.4643,-1.37198 -0.9489,-2.27108 -0.9751,-4.738 -0.081,-7.60123 0.4514,-1.44487 0.9005,-3.00349 0.998,-3.463589 0.1466,-0.691274 0.3171,-0.809827 0.9822,-0.682694 0.5787,0.11062 0.8048,0.01501 0.8048,-0.340231 0,-0.736659 1.5558,-1.820531 2.6132,-1.820531 1.0785,0 1.037,0.103142 1.5451,-3.84 0.4651,-3.609309 0.6571,-4.042243 1.9154,-4.318608 1.4199,-0.311869 1.5088,-0.796301 0.3236,-1.763606 l -1.0603,-0.865396 0.9024,-1.183184 c 1.1984,-1.571113 2.7521,-2.212694 4.8006,-1.982281 l 1.6,0.179968 v -5.033447 c 0,-4.665561 0.062,-5.201718 0.8541,-7.335769 1.572,-4.237802 1.4516,-4.105181 3.6741,-4.045191 1.3767,0.03716 2.4194,0.293168 3.5712,0.876816 0.8947,0.453383 1.6882,0.717764 1.7633,0.587514 0.235,-0.407485 -0.3695,-4.558317 -1.2349,-8.480397 -0.9796,-4.439993 -0.9451,-7.545064 0.1104,-9.931324 1.3719,-3.101337 3.0347,-1.854556 8.0985,6.072371 4.1069,6.428905 5.9257,8.852966 6.4156,8.550243 0.7095,-0.438544 -0.035,-5.058944 -2.134,-13.247708 -1.5157,-5.912304 -1.9966,-8.952195 -2.0589,-13.014922 -0.059,-3.814915 0.5928,-6.797882 1.7587,-8.055334 1.528,-1.647847 2.2295,-0.434698 7.0031,12.110256 7.3075,19.204319 8.2962,21.439999 9.4816,21.439999 0.5852,0 0.2791,-2.665002 -0.8014,-6.976278 -0.6042,-2.411047 -1.4719,-6.255721 -1.9283,-8.543721 -0.4562,-2.288 -1.0676,-5.312 -1.3584,-6.72 -0.7865,-3.807379 -0.7698,-12.346064 0.03,-15.52 0.7597,-3.013407 1.4941,-4.490009 2.7655,-5.559748 2.0789,-1.749348 1.4984,-3.641106 7.549,24.599748 1.0923,5.098074 4.4592,18.731273 5.8355,23.629097 0.7526,2.678204 1.0302,3.007913 2.1163,2.513081 0.6907,-0.314717 0.8087,-0.578749 0.8087,-1.810224 0,-0.792973 -0.3473,-3.136061 -0.7718,-5.206861 -0.4244,-2.070803 -0.9368,-4.773094 -1.1386,-6.005094 -0.2018,-1.232 -0.571,-3.464 -0.8205,-4.959999 -0.2495,-1.496 -0.6905,-5.24 -0.9798,-8.32 -1.0661,-11.345655 0.4504,-20.137873 4.1868,-24.273555 1.351,-1.495397 1.9792,-1.656674 2.3624,-0.606446 0.4146,1.136468 1.1155,7.637576 2.4581,22.800001 1.0331,11.666364 3.8167,35.199973 4.3202,36.52429 0.1689,0.44425 0.4862,0.747847 0.7051,0.674656 0.4627,-0.154685 0.4822,-4.746851 0.081,-19.137168 -0.2677,-9.607855 -0.1233,-11.810463 1.1256,-17.166296 1.1204,-4.804464 4.8161,-11.345574 6.1542,-10.892447 0.5022,0.170056 0.463,16.110123 -0.085,34.476964 -0.4146,13.901706 -0.4847,30.482627 -0.1441,34.116715 0.156,1.66502 0.3881,2.48303 0.8141,2.8685 0.5636,0.51009 0.6112,0.49804 0.8803,-0.22299 0.2834,-0.75918 0.5162,-3.14197 0.8716,-8.922225 0.2313,-3.760141 1.2796,-11.35649 1.9168,-13.889082 0.5817,-2.311667 2.0418,-5.110224 2.7349,-5.241955 0.4207,-0.07995 0.5453,0.345459 0.702,2.396919 0.2536,3.31976 0.028,6.928163 -0.9274,14.814118 -0.7089,5.853712 -3.7896,22.364425 -5.5775,29.892495 -0.5764,2.42657 -0.6213,3.11191 -0.3282,5.001 1.0403,6.705 -0.2175,20.38421 -2.5439,27.66651 -0.9452,2.95891 -1.5319,6.11903 -1.724,9.28625 -0.096,1.58744 -0.3939,4.02996 -0.6613,5.42781 -1.0941,5.71848 -1.5322,12.58644 -1.572,24.64594 -0.034,10.35266 0.03,12.06228 0.5093,13.60949 0.6925,2.23437 2.7179,4.33151 5.6522,5.85257 2.3919,1.23985 9.3304,3.32229 14.5993,4.38163 4.2103,0.84651 7.1615,1.72691 9.1346,2.72501 2.1999,1.11281 6.1073,3.79196 7.1615,4.91028 0.5481,0.58152 1.4101,1.08101 2.08,1.20531 0.6291,0.11675 1.4319,0.39233 1.7839,0.61242 0.352,0.22009 1.936,0.78052 3.52,1.24541 3.5097,1.03005 7.5036,2.56831 9.44,3.63585 3.6539,2.01438 7.2679,4.87448 6.9037,5.46367 -0.1811,0.29318 -8.5812,0.12274 -13.3037,-0.26993 -1.848,-0.15366 -3.792,-0.21435 -4.32,-0.13487 -0.528,0.0795 -2.5181,0.1439 -4.4224,0.14315 -2.2094,-9.6e-4 -3.9465,0.16729 -4.8,0.46466 -0.7357,0.25632 -1.5896,0.46813 -1.8976,0.47069 -0.308,0.003 -0.56,0.11973 -0.56,0.26038 0,0.30782 -1.892,1.02428 -2.7049,1.02428 -0.3188,0 -1.0541,0.2933 -1.6341,0.65177 -0.58,0.35847 -3.004,1.28673 -5.3867,2.06279 -4.9451,1.6107 -5.0615,1.66514 -7.6699,3.58529 -1.0616,0.78149 -2.6791,1.77521 -3.5945,2.20826 -0.9154,0.43306 -1.827,0.98335 -2.0258,1.22288 -0.5487,0.6611 -0.031,2.05415 3.8159,10.26901 0.7418,1.584 1.7796,3.816 2.3063,4.96 1.4865,3.22858 4.7251,8.91205 6.3254,11.1005 0.7966,1.08928 1.8904,2.67328 2.4308,3.52 0.5403,0.84673 2.8172,4.2755 5.0596,7.6195 6.4175,9.56978 12.422,22.30946 11.9335,25.31923 -0.1834,1.13006 0.011,1.56268 3.0679,6.84077 6.2942,10.86646 8.1565,13.70646 14.4445,22.02739 5.5168,7.30042 6.0511,8.06023 5.8263,8.28503 -0.3391,0.33907 -2.6536,-0.53332 -4.2346,-1.59607 -2.7539,-1.8512 -5.6011,-6.0055 -10.4149,-15.19635 -0.9531,-1.81978 -1.8648,-1.70883 -1.8648,0.22691 0,0.71111 2.3786,7.76138 3.999,11.85309 2.5808,6.51706 7.1508,14.88944 10.2302,18.74224 l 2.0284,2.53776 -2.8868,0.0925 c -3.077,0.0986 -4.5465,-0.3608 -6.2767,-1.96214 -0.9979,-0.92371 -3.2284,-4.93594 -4.7429,-8.53162 -0.6771,-1.60777 -1.5192,-3.23549 -1.8712,-3.61715 l -0.64,-0.69392 -0.099,1.01933 c -0.1432,1.47475 3.6425,15.54285 6.6523,24.72032 0.8924,2.72105 1.655,5.38505 1.6946,5.92 0.067,0.89699 0,0.96489 -0.8591,0.87251 -2.0693,-0.2225 -5.7159,-1.64874 -7.3283,-2.86614 -1.3711,-1.03511 -1.8954,-1.73085 -2.8567,-3.79076 -1.4832,-3.17782 -2.6516,-7.32348 -3.2807,-11.63971 -0.5935,-4.07286 -1.4981,-6.11126 -2.867,-6.46096 -0.5191,-0.13261 -1.0044,-0.18061 -1.0783,-0.10669 -0.1723,0.17229 0.4282,11.46244 1.2426,23.36404 0.6283,9.18278 0.5894,11.90924 -0.1742,12.2023 -0.6331,0.24294 -4.0718,-1.42477 -5.2342,-2.53856 -1.5828,-1.51661 -2.2517,-3.07254 -3.1012,-7.21402 -0.7387,-3.60086 -1.0295,-5.58425 -1.8939,-12.91452 -0.4199,-3.56109 -1.0711,-5.17607 -2.0141,-4.9944 -0.8371,0.16131 -1.126,1.85091 -2.1784,12.73958 -0.5622,5.81795 -1.6372,12.52432 -2.244,14 -0.4181,1.0167 -0.7683,1.17866 -1.7404,0.80496 z"
               style="fill:#313131;fill-opacity:1;stroke-width:0.31999999" />
            <path
               inkscape:connector-curvature="0"
               id="path4547"
               d="m 447.98327,394.92459 c -2.0165,-1.12883 -3.5081,-3.32531 -4.1508,-6.11235 -0.2535,-1.0992 -0.6038,-4.51853 -0.7785,-7.59853 -0.1748,-3.08 -0.4886,-6.39059 -0.6973,-7.3569 -0.4138,-1.91606 -1.1551,-3.30163 -1.6145,-3.01769 -0.5607,0.34653 -1.8012,3.21005 -3.1337,7.23344 -1.8712,5.65049 -3.5243,7.6999 -5.4008,6.69568 -0.9161,-0.49034 -2.303,-3.01575 -2.6185,-4.76807 -0.5497,-3.05411 -1.5714,-7.61408 -1.899,-8.47568 -0.5345,-1.40563 -1.2475,-1.44665 -2.3857,-0.13721 -1.677,1.92921 -4.6536,3.11456 -5.8949,2.34745 -0.4976,-0.30755 -3.0305,-3.71744 -3.4771,-4.68102 -0.2039,-0.44 -0.8084,-1.772 -1.3432,-2.96 l -0.9724,-2.16 -1.8568,-0.0237 c -1.0213,-0.0131 -2.2169,-0.0894 -2.6569,-0.16966 -1.3687,-0.2496 -2.9528,-1.81984 -5.3234,-5.27674 -2.2202,-3.2375 -2.3231,-3.33555 -3.7111,-3.53629 -0.7851,-0.11357 -1.8744,-0.43757 -2.4206,-0.72 -0.5462,-0.28246 -1.1979,-0.51353 -1.4482,-0.51353 -0.6168,0 -2.9011,-2.52221 -3.6968,-4.08176 -0.355,-0.69597 -0.7436,-2.00503 -0.8635,-2.90903 -0.1527,-1.1512 -0.4682,-1.89382 -1.053,-2.47859 -0.9346,-0.93462 -3.0702,-2.11715 -3.3386,-1.8487 -0.3265,0.32649 -2.9927,-1.47456 -3.4497,-2.33034 -0.2768,-0.51846 -0.4483,-1.7409 -0.4378,-3.12186 0.014,-1.8776 0.1939,-2.63443 1.04,-4.3807 0.5625,-1.16106 1.0227,-2.28426 1.0227,-2.49597 0,-0.21174 -0.972,-1.82905 -2.16,-3.59405 -2.7961,-4.15417 -2.9496,-4.43763 -2.9553,-5.45615 -0.01,-1.1817 -0.792,-1.85868 -2.1875,-1.88535 -2.0378,-0.0389 -2.2878,-0.29113 -3.2845,-3.31285 -0.5129,-1.55528 -0.9329,-3.13309 -0.9332,-3.50622 0,-1.42161 -1.0618,-2.8332 -2.5296,-3.3663 -1.2805,-0.46506 -1.4677,-0.67391 -2.0361,-2.27213 -0.3742,-1.05192 -0.6661,-2.83346 -0.7258,-4.42816 -0.1152,-3.08207 -0.4501,-3.64405 -2.4877,-4.17511 -2.1593,-0.5628 -2.2854,-0.7314 -2.3495,-3.14241 -0.1028,-3.86627 -0.3952,-5.66699 -0.9915,-6.1072 -1.545,-1.1406 -1.9993,-1.72248 -1.9993,-2.56101 0,-0.49396 0.1574,-1.05545 0.3497,-1.24776 0.2528,-0.25286 0.2486,-0.53837 -0.015,-1.03144 -0.2717,-0.50756 -0.2742,-1.50642 -0.01,-3.90855 0.3506,-3.18666 0.3452,-3.24124 -0.4409,-4.39256 -0.4377,-0.64119 -0.835,-1.3818 -0.8827,-1.6458 -0.124,-0.68619 0.3708,-3.61989 0.6747,-4 0.1407,-0.176 0.6509,-1.4389 1.1338,-2.80643 1.1834,-3.35104 0.9644,-3.61752 -3.1443,-3.82652 -1.6199,-0.0824 -3.2425,-0.0414 -3.6059,0.0911 -0.3634,0.1325 -2.5234,2.3722 -4.8,4.97712 -10.1961,11.66643 -16.2898,17.51277 -23.9709,22.99801 -4.0954,2.92457 -6.1503,3.93771 -8.9645,4.41977 l -2.0395,0.34935 -1.4551,-1.3412 c -1.612,-1.48586 -1.8963,-1.54449 -4.1601,-0.85773 -1.6755,0.50826 -4.5733,0.6293 -5.2206,0.21806 -0.2153,-0.13678 -1.1632,-1.25057 -2.1065,-2.4751 l -1.7151,-2.22642 -1.4898,0.10603 c -2.3738,0.16895 -3.5633,-0.39269 -4.6819,-2.21061 -0.5364,-0.87177 -0.9753,-1.71642 -0.9753,-1.877 0,-0.66475 -1.7286,-1.61842 -2.9334,-1.61842 -0.686,0 -1.7641,-0.21602 -2.396,-0.48004 -0.9991,-0.41745 -1.0937,-0.54653 -0.7255,-0.99017 0.3589,-0.43249 0.3232,-0.59081 -0.2345,-1.03997 -0.7437,-0.59901 -1.0519,-1.31311 -1.2606,-2.92097 -0.1762,-1.357 -0.2983,-1.48393 -2.6074,-2.71027 -1.6541,-0.87845 -1.8317,-1.07127 -1.7363,-1.88435 0.061,-0.52328 -0.116,-1.15134 -0.42,-1.4873 -0.3753,-0.41463 -0.5263,-1.18106 -0.5263,-2.67053 0,-1.8723 -0.083,-2.1431 -0.7959,-2.61051 -0.5666,-0.37123 -0.739,-0.70071 -0.5985,-1.14345 0.1485,-0.46815 -0.01,-0.69918 -0.6241,-0.93427 -0.6361,-0.24186 -0.8215,-0.53433 -0.8215,-1.29615 0,-0.54109 -0.1954,-1.37265 -0.4343,-1.84792 -0.7388,-1.47003 -0.859,-2.88239 -0.3684,-4.32764 0.3429,-1.00989 0.3927,-1.8218 0.1904,-3.10188 -0.1508,-0.95365 -0.2012,-1.92393 -0.1121,-2.15617 0.089,-0.23224 -0.078,-0.68689 -0.3702,-1.01035 -0.4963,-0.54845 -0.496,-0.67851 0,-1.92953 0.4767,-1.1914 0.4914,-1.6575 0.1317,-4.16738 -0.2228,-1.55427 -0.3032,-3.36871 -0.1788,-4.03208 0.2812,-1.49895 1.411,-3.01167 3.0684,-4.1085 1.1562,-0.76518 1.2688,-0.96351 1.2688,-2.23593 0,-0.86102 0.1871,-1.55156 0.4881,-1.80134 0.4374,-0.36304 0.4374,-0.46103 0,-0.94438 -0.2685,-0.29663 -0.4881,-0.85156 -0.4881,-1.2332 0,-0.84843 1.9928,-3.11547 3.3359,-3.79503 1.8335,-0.9276 2.0475,-1.25972 1.6855,-2.61569 -0.4109,-1.53961 0.3011,-5.8893 1.1382,-6.95358 0.6189,-0.7867 3.1294,-1.84313 5.2004,-2.18834 l 1.28,-0.21336 0.091,-2.43442 c 0.05,-1.33893 0.2927,-2.80812 0.539,-3.26486 0.2462,-0.45674 0.5313,-1.22383 0.6334,-1.70462 0.3012,-1.41804 1.7878,-2.00929 4.9764,-1.97932 2.987,0.0281 2.841,-0.0142 15.36,4.44205 14.5144,5.16645 17.0218,6.04008 24.3655,8.48909 9.8301,3.27823 10.6435,3.44238 14.414,2.90872 3.3313,-0.47149 3.7805,-0.59778 3.7805,-1.06282 0,-0.48117 -2.0142,-2.29945 -4.0277,-3.63593 -2.0379,-1.35273 -2.758,-2.53141 -2.6851,-4.39518 0.081,-2.06136 0.078,-2.06809 -1.4074,-3.66614 -1.9789,-2.12932 -3.3995,-4.57125 -3.3995,-5.84427 0,-0.72805 -0.2796,-1.35902 -0.88,-1.98585 -0.7693,-0.80312 -0.8704,-1.13972 -0.8032,-2.67443 0.048,-1.09818 -0.1554,-2.4168 -0.5436,-3.52103 -0.6847,-1.94811 -0.5281,-2.88561 0.7009,-4.19765 0.5737,-0.6124 0.6172,-0.83603 0.2987,-1.53505 -0.205,-0.45002 -0.3728,-1.75207 -0.3728,-2.89344 0,-1.14138 -0.216,-2.59219 -0.48,-3.22403 -0.8049,-1.92628 -0.6283,-2.71188 0.96,-4.27064 0.792,-0.77729 1.44,-1.65297 1.44,-1.94595 0,-0.29298 -0.2743,-1.163 -0.6095,-1.93337 -0.3352,-0.77038 -0.9334,-2.86968 -1.3294,-4.66511 -0.6998,-3.17316 -0.7043,-3.30551 -0.159,-4.73329 0.3085,-0.80787 0.8947,-1.68752 1.3025,-1.95477 1.1038,-0.72323 1.1788,-1.26091 0.4749,-3.40521 -0.3845,-1.1713 -0.6395,-2.81175 -0.6395,-4.11432 0,-1.19147 -0.1472,-2.55346 -0.3271,-3.02664 -0.7728,-2.03248 0.6886,-4.42951 3.4435,-5.64811 0.7499,-0.33175 1.3636,-0.70701 1.3636,-0.83392 0,-0.12691 -0.36,-0.76053 -0.8,-1.40805 -0.9387,-1.38146 -0.9669,-1.77388 -0.2946,-4.10152 0.2779,-0.96236 0.4876,-2.46981 0.466,-3.3499 -0.022,-0.88008 0.1806,-2.22368 0.4495,-2.98576 0.62,-1.75725 0.3339,-2.36241 -2.3706,-5.01409 -2.76,-2.7061 -3.5458,-4.16971 -3.749,-6.98192 -0.1187,-1.64237 -0.038,-2.52634 0.2836,-3.09808 1.2257,-2.18076 1.9523,-3.20098 2.2867,-3.21065 0.4677,-0.0135 1.3688,-0.79126 2.6754,-2.30908 1.0267,-1.19265 1.0269,-1.19359 0.5411,-2.55668 -1.0299,-2.88975 -1.1107,-4.21203 -0.4097,-6.70803 1.5417,-5.489318 1.4291,-5.222701 2.1597,-5.11544 0.4364,0.06407 0.6819,-0.0721 0.6819,-0.378211 0,-0.620576 1.6005,-1.754016 2.8218,-1.998262 0.8561,-0.17122 0.9766,-0.345978 1.1567,-1.677386 0.1106,-0.81744 0.3489,-2.206256 0.5296,-3.086256 0.1807,-0.88 0.3922,-1.91281 0.4701,-2.295136 0.092,-0.451168 0.5331,-0.824365 1.2572,-1.063344 0.6136,-0.202518 1.2038,-0.510781 1.3115,-0.68503 0.2428,-0.392992 -0.7711,-1.55649 -1.3565,-1.55649 -0.6131,0 -0.5332,-0.55688 0.2348,-1.63543 0.9504,-1.334631 2.317,-1.930077 4.5705,-1.991248 1.7716,-0.04809 1.9541,-0.116109 1.8603,-0.693322 -0.057,-0.352 -0.096,-2.472813 -0.086,-4.712915 0.019,-4.210208 0.2814,-5.477751 1.9334,-9.329594 l 0.67,-1.562505 2.1532,0.157948 c 1.3724,0.100676 2.5957,0.408391 3.3738,0.848634 0.6713,0.379878 1.3718,0.597242 1.5566,0.483034 0.4511,-0.278759 0.1209,-3.05746 -1.0032,-8.444602 -0.7674,-3.677786 -0.8624,-4.663082 -0.6385,-6.627813 0.2996,-2.630797 1.0462,-4.459789 1.9355,-4.742055 0.369,-0.117107 0.9927,0.07957 1.5812,0.498573 0.8684,0.618406 3.9047,4.986362 7.0277,10.110076 1.555,2.551158 4.0853,5.561219 4.6747,5.561219 0.4085,0 0.457,-0.3104 0.2876,-1.84 -0.3126,-2.8232 -0.7493,-4.985488 -1.9223,-9.519999 -1.8987,-7.339933 -2.4201,-10.47424 -2.4666,-14.827632 -0.046,-4.283056 0.3127,-6.280418 1.4015,-7.809434 0.906,-1.272359 1.7248,-1.13246 2.5224,0.430967 0.7722,1.513657 5.5345,13.560694 6.9835,17.666019 1.7912,5.074832 5.205,13.166681 5.9939,14.207474 0.9492,1.252323 1.7281,1.097514 1.7189,-0.341632 0,-0.553168 -0.3625,-2.373763 -0.7978,-4.045763 -0.8768,-3.368384 -2.1594,-9.043935 -2.7118,-11.999999 -0.1974,-1.056 -0.5704,-3 -0.8291,-4.32 -0.5936,-3.029254 -1.0394,-7.821562 -0.8971,-9.643614 0.3195,-4.091746 0.4932,-5.398893 0.9705,-7.304955 0.559,-2.231916 1.0325,-3.169118 2.3099,-4.571432 1.762,-1.93439 2.003,-1.397146 4.3507,9.701257 3.396,16.053624 3.7838,17.774155 6.1266,27.178743 2.7064,10.864128 3.5091,13.752534 3.9421,14.185568 0.1995,0.199427 0.6001,0.119238 1.126,-0.225376 0.7423,-0.486362 0.816,-0.730448 0.8117,-2.687568 0,-1.183942 -0.2084,-3.016624 -0.4573,-4.072624 -1.2216,-5.182016 -2.5433,-14.126453 -3.1633,-21.406252 -0.3599,-4.224784 -0.3624,-5.796553 -0.015,-9.28 0.4438,-4.448927 1.2493,-8.069533 2.3213,-10.433748 0.8424,-1.858043 3.4163,-4.753941 3.8387,-4.318963 0.3696,0.380619 1.0295,5.852451 1.9681,16.318964 1.0392,11.588573 3.7644,36.529778 4.4827,41.026146 0.5536,3.465402 1.2833,4.635802 1.9618,3.146602 0.2876,-0.631079 0.2818,-2.741811 -0.025,-9.039143 -0.7028,-14.446275 -0.483,-21.821528 0.8086,-27.133605 0.534,-2.196378 2.1595,-6.190208 3.1909,-7.84 0.9112,-1.457696 2.6189,-3.060561 2.9294,-2.749626 0.2593,0.259726 0.2144,13.185629 -0.076,21.949625 -1.0893,32.841702 -0.9927,47.830055 0.3176,49.277875 0.8918,0.98538 1.3652,0.28338 1.5754,-2.3358 1.0689,-13.319291 1.7983,-18.821278 2.9703,-22.404318 0.5743,-1.755946 1.9021,-3.526099 2.4095,-3.212467 0.8083,0.499529 -0.2681,15.544377 -1.6902,23.625205 -0.84,4.77261 -3.8892,19.7937 -4.5229,22.28033 -0.6735,2.64298 -0.6845,2.92688 -0.2797,7.24178 0.7872,8.38996 -0.2518,17.25126 -3.3239,28.34962 -0.4297,1.55222 -0.8731,4.21622 -0.9855,5.92 -0.1124,1.70378 -0.4218,4.24978 -0.6875,5.65778 -1.1126,5.89406 -1.4214,10.38514 -1.5999,23.26382 -0.1635,11.79663 -0.1267,13.24331 0.3903,15.3533 0.5051,2.06081 0.7678,2.52642 2.2784,4.03696 1.1281,1.12818 2.4946,2.06651 4.0275,2.76569 2.5571,1.16629 10.0756,3.35765 14.3201,4.1738 3.7393,0.719 6.8685,1.67247 8.9747,2.73466 2.5807,1.30151 5.5572,3.34349 6.9399,4.761 1.0469,1.07321 1.7736,1.41243 5.5254,2.57902 9.4387,2.9349 12.7073,4.42181 16.4,7.46054 2.6241,2.1593 2.3616,2.29046 -4,1.99932 -8.8363,-0.40439 -18.2012,-0.4619 -19.76,-0.12133 -0.792,0.17304 -1.872,0.39485 -2.4,0.4929 -0.528,0.0981 -1.1941,0.38289 -1.4803,0.63298 -0.2862,0.25008 -1.0782,0.54104 -1.76,0.64658 -0.6818,0.10553 -1.8157,0.52362 -2.5197,0.92909 -0.704,0.40547 -3.3029,1.3998 -5.7753,2.20961 -3.4227,1.12107 -4.9117,1.78759 -6.24,2.79336 -0.9596,0.72653 -2.6807,1.81522 -3.8247,2.41932 -2.8509,1.50545 -2.9706,1.62713 -2.7764,2.82362 0.1873,1.15443 2.1812,5.58081 6.3269,14.04576 3.0887,6.3067 4.3047,8.50133 6.1446,11.0903 0.6682,0.94034 1.8264,2.6457 2.5737,3.7897 0.7473,1.144 2.7244,4.096 4.3935,6.56 4.8532,7.16457 5.9545,9.11386 9.5363,16.87929 2.0039,4.34463 2.9214,7.15194 2.9214,8.93886 0,1.28873 0.2693,2.11915 1.3168,4.06093 0.7242,1.3425 1.426,2.58492 1.5596,2.76092 0.1336,0.176 1.3619,2.264 2.7296,4.64 2.9047,5.04621 6.4996,10.51978 9.8049,14.92899 1.292,1.72352 2.5651,3.45392 2.8291,3.84528 0.264,0.39136 1.524,2.07581 2.8,3.7432 1.276,1.66736 2.32,3.11504 2.32,3.21706 0,0.37174 -1.0288,0.17008 -2.4609,-0.48231 -3.5291,-1.60764 -7.2557,-6.65184 -11.8595,-16.05222 -0.821,-1.67638 -1.5077,-1.92726 -2.0454,-0.7473 -0.2921,0.64135 -0.1214,1.47085 1.0044,4.88 3.5258,10.67655 8.1439,20.2361 12.6835,26.25511 1.1209,1.48611 2.0379,2.76281 2.0379,2.83712 0,0.0743 -1.1785,0.13507 -2.6189,0.13507 -4.5425,0 -6.5152,-1.5759 -9.2672,-7.40333 -2.8102,-5.95078 -3.3095,-6.83587 -3.9199,-6.94899 -0.5454,-0.10109 -0.5839,0.0272 -0.3844,1.28 0.3909,2.4553 4.3021,16.54394 6.4397,23.1969 2.0693,6.43993 2.2816,7.31833 1.8307,7.5735 -0.3749,0.21219 -4.5965,-0.89571 -5.8411,-1.53293 -2.0435,-1.04624 -3.4034,-2.35571 -4.3936,-4.23059 -1.1969,-2.26634 -2.8654,-7.42006 -3.2727,-10.1087 -0.6859,-4.52906 -0.9924,-5.8456 -1.6845,-7.23597 -0.5994,-1.204 -0.9257,-1.50128 -1.8459,-1.6817 -0.6148,-0.12057 -1.1467,-0.19033 -1.1819,-0.15507 -0.082,0.0824 0.7257,14.25549 1.3428,23.5504 0.6066,9.13664 0.6113,11.34662 0.025,11.83322 -0.3548,0.29443 -0.8936,0.17481 -2.506,-0.55629 -4.5233,-2.05098 -5.4024,-4.28461 -7.1466,-18.1585 -0.8801,-7.00115 -1.338,-8.53587 -2.6018,-8.72029 -0.8935,-0.1304 -1.1516,1.08941 -2.018,9.53834 -0.7917,7.71965 -2.0638,16.0343 -2.6358,17.22781 -0.4614,0.96259 -1.076,1.16022 -1.9999,0.64307 z"
               style="fill:#313131;fill-opacity:1;stroke-width:0.31999999" />
            <path
               inkscape:connector-curvature="0"
               id="path4545"
               d="m 446.94307,393.82683 c -1.2072,-0.95139 -2.4329,-2.94413 -2.936,-4.77312 -0.1937,-0.704 -0.4908,-3.728 -0.6602,-6.72 -0.4591,-8.10637 -1.2645,-11.68 -2.6323,-11.68 -0.7407,0 -1.9455,2.50765 -3.4634,7.20858 -1.2042,3.7295 -1.558,4.48393 -2.6604,5.67142 -1.951,2.10154 -4.2856,0.16781 -4.7191,-3.90861 -0.121,-1.13769 -0.3794,-2.12169 -0.5742,-2.18665 -0.1948,-0.0649 -0.3542,-0.38999 -0.3542,-0.72231 0,-1.48125 -1.1091,-5.43885 -1.7491,-6.2415 l -0.7045,-0.88352 -1.3977,1.35641 c -1.6205,1.57264 -2.5816,2.12327 -4.2537,2.43696 -1.1254,0.21114 -1.2871,0.13572 -2.5138,-1.17257 -1.1394,-1.21507 -3.7812,-6.04903 -3.7812,-6.91863 0,-0.16838 -0.3531,-0.68716 -0.7848,-1.15286 -0.6909,-0.74554 -1.0292,-0.84672 -2.831,-0.84672 -2.1281,0 -2.2245,-0.0458 -4.4596,-2.11501 -0.4814,-0.44573 -1.1245,-1.23219 -1.429,-1.74771 -0.3045,-0.51549 -0.6751,-0.93728 -0.8235,-0.93728 -0.1485,0 -0.1809,-0.144 -0.072,-0.32 0.1087,-0.176 0.048,-0.32 -0.1349,-0.32 -0.183,0 -0.8689,-0.71818 -1.5242,-1.59597 -1.1762,-1.57545 -2.0666,-2.06054 -4.9405,-2.69158 -0.9377,-0.20589 -2.9578,-2.11901 -3.6777,-3.48291 -0.2585,-0.48976 -0.592,-0.81501 -0.7412,-0.72282 -0.3713,0.22947 -1.3015,-1.8081 -1.3015,-2.85098 0,-1.84819 -1.9379,-4.08112 -3.9123,-4.50806 -0.5763,-0.12461 -1.725,-0.56781 -2.5528,-0.98496 -1.258,-0.63386 -1.5401,-0.94509 -1.7184,-1.89539 -0.3707,-1.97581 0.022,-4.41059 1.0728,-6.65674 0.8021,-1.71398 0.9454,-2.31331 0.7045,-2.94688 -0.299,-0.78643 -2.4189,-4.08217 -3.9849,-6.19523 -0.4673,-0.63059 -0.8089,-1.5218 -0.8089,-2.11041 0,-1.34253 -0.8967,-2.11348 -2.6938,-2.31603 -0.7918,-0.0892 -1.631,-0.39623 -1.8648,-0.68216 -0.4803,-0.58746 -1.6477,-4.15368 -2.1873,-6.6822 -0.3938,-1.8452 -1.4254,-2.95768 -2.7424,-2.95768 -0.5569,0 -0.8796,-0.28 -1.1985,-1.04 -0.9962,-2.37391 -1.2791,-3.71633 -1.2276,-5.82592 0.065,-2.68704 -0.2768,-3.17922 -2.7015,-3.8841 -1.9636,-0.57082 -1.9012,-0.42473 -2.1752,-5.08998 l -0.1879,-3.2 -1.4331,-1.28 c -1.5127,-1.35109 -1.753,-2.15038 -0.9224,-3.06818 0.4265,-0.4713 0.4408,-0.67524 0.091,-1.3052 -0.4501,-0.81182 -0.4089,-3.7182 0.071,-4.97928 0.4884,-1.28465 0.3373,-1.98895 -0.705,-3.28595 -0.8035,-0.99981 -0.9647,-1.44719 -0.8296,-2.30124 0.2537,-1.60296 0.869,-3.87321 1.1512,-4.24755 0.4361,-0.57844 1.3722,-3.96351 1.2588,-4.5521 -0.1887,-0.97976 -1.5426,-1.37108 -4.743,-1.37088 -1.672,1e-4 -3.189,0.10597 -3.3709,0.23528 -0.1821,0.1293 -2.8677,3.1151 -5.9681,6.6351 -7.5899,8.61704 -14.5928,15.4862 -19.4901,19.11788 -6.3826,4.73318 -10.0489,6.64212 -12.7566,6.64212 -0.8142,0 -3.1979,-1.4368 -3.6813,-2.21886 -0.2978,-0.48187 -1.4984,-0.42324 -2.8437,0.13886 -0.6318,0.264 -1.9977,0.48 -3.0353,0.48 -1.8576,0 -1.9079,-0.0242 -3.2903,-1.57966 -0.772,-0.86882 -1.6917,-1.95264 -2.0437,-2.4085 -0.5697,-0.73772 -0.8901,-0.83704 -2.9146,-0.90343 -2.6726,-0.0877 -3.0441,-0.32935 -4.2854,-2.78841 -1.1279,-2.23431 -1.5464,-2.58598 -3.2681,-2.74611 -2.7246,-0.25343 -3.1494,-0.43269 -2.946,-1.24316 0.1273,-0.50746 0,-0.87498 -0.4164,-1.17463 -0.731,-0.52978 -1.5074,-2.33529 -1.2701,-2.95362 0.2766,-0.72084 -0.5409,-1.57508 -2.465,-2.57571 -1.5454,-0.80371 -1.7944,-1.06064 -1.7944,-1.85126 0,-0.50491 -0.2316,-1.27151 -0.5147,-1.70355 -0.2905,-0.4433 -0.5384,-1.5537 -0.569,-2.54881 -0.038,-1.22475 -0.2437,-1.98318 -0.6745,-2.48322 -0.3411,-0.39596 -0.5822,-1.01769 -0.5358,-1.38161 0.057,-0.44604 -0.1812,-0.78275 -0.7308,-1.03314 -0.4916,-0.22403 -0.8152,-0.6345 -0.8152,-1.03421 0,-0.36452 -0.2303,-1.10802 -0.5117,-1.65224 -0.5132,-0.9924 -0.5379,-1.49901 -0.3561,-7.29873 0.073,-2.33334 -0.016,-3.1739 -0.3825,-3.61603 -0.4113,-0.49573 -0.4171,-0.71879 -0.042,-1.6 0.4765,-1.11816 0.4876,-1.49123 0.1781,-5.98397 -0.2487,-3.60896 0.088,-4.38418 2.7271,-6.2802 1.5226,-1.0939 1.6232,-1.25067 1.5401,-2.40137 -0.049,-0.67708 0.086,-1.40552 0.2988,-1.61875 0.4679,-0.46791 0.515,-1.53968 0.068,-1.53968 -0.5383,0 -0.3568,-1.30492 0.3379,-2.429 0.3619,-0.5855 1.4427,-1.51355 2.4019,-2.06233 1.7218,-0.98509 2.6476,-2.02559 2.1024,-2.36259 -0.4728,-0.29219 -0.6668,-1.97416 -0.3586,-3.10871 0.161,-0.59255 0.3505,-1.62047 0.4212,-2.28427 0.2193,-2.06042 1.7144,-3.19268 5.1331,-3.88759 l 1.9621,-0.39882 0.16,-2.37334 c 0.091,-1.35053 0.3922,-2.78707 0.6989,-3.33335 0.2964,-0.528 0.6256,-1.36549 0.7314,-1.86109 0.2969,-1.3901 1.9234,-1.92531 5.2845,-1.7389 2.9523,0.16373 3.1742,0.22937 14.8852,4.40301 4.048,1.44266 8.152,2.88598 9.12,3.20739 0.968,0.3214 2.984,1.03876 4.48,1.59412 4.8486,1.79995 18.6776,6.30807 20.5302,6.69268 1.4776,0.30674 2.3419,0.28104 4.7961,-0.14262 1.6465,-0.28423 3.1276,-0.64838 3.2912,-0.80922 0.537,-0.52778 -0.4322,-1.6998 -2.8972,-3.50357 -3.4019,-2.4894 -3.4355,-2.53909 -3.4627,-5.12465 l -0.023,-2.22095 -1.6286,-1.6881 c -2.0848,-2.1611 -3.1518,-3.9555 -3.061,-5.14776 0.047,-0.60995 -0.2329,-1.33798 -0.7977,-2.07849 -0.7152,-0.93757 -0.9018,-1.58123 -1.0523,-3.62893 -0.1006,-1.36906 -0.361,-2.66734 -0.5787,-2.88506 -0.6871,-0.68708 -0.4518,-2.3347 0.5263,-3.6849 0.8447,-1.16606 0.8881,-1.35427 0.516,-2.23929 -0.2235,-0.53143 -0.4108,-1.81616 -0.4163,-2.85495 0,-1.0388 -0.1882,-2.47342 -0.4059,-3.18805 -0.5421,-1.77955 -0.1796,-2.90847 1.3966,-4.34928 1.3019,-1.19006 1.3231,-1.24238 0.9153,-2.2648 -1.1185,-2.80415 -2.2903,-7.38412 -2.2887,-8.94576 0,-1.25959 0.449,-2.23433 1.5197,-3.30807 1.2344,-1.23787 1.4079,-2.06185 0.7876,-3.74043 -0.2789,-0.75478 -0.6178,-2.52433 -0.753,-3.93233 -0.1352,-1.408 -0.3396,-3.1764 -0.4542,-3.92979 -0.2758,-1.81289 0.6972,-3.27223 2.9799,-4.46948 1.8543,-0.97252 2.0322,-1.46773 0.999,-2.78116 -0.5541,-0.70441 -0.6484,-1.14702 -0.5036,-2.36316 0.098,-0.82302 0.355,-1.92841 0.5711,-2.45641 0.2161,-0.528 0.4152,-1.896 0.4424,-3.04 0.027,-1.144 0.1666,-2.6122 0.3098,-3.26267 0.255,-1.15888 0.2092,-1.2361 -2.2767,-3.84 -2.873,-3.00937 -3.795,-4.69012 -4.0978,-7.46995 -0.203,-1.86261 -0.1661,-1.99876 1.017,-3.75884 0.6752,-1.00443 1.7356,-2.17141 2.3565,-2.5933 0.6208,-0.42189 1.5445,-1.36683 2.0525,-2.09987 l 0.9236,-1.3328 -0.5355,-1.50129 c -1.1463,-3.21331 -0.9229,-6.15419 0.6587,-8.671 0.2661,-0.42333 0.5092,-1.21533 0.5402,-1.75999 0.043,-0.75718 0.1904,-0.96682 0.6249,-0.890573 0.3522,0.0618 0.6324,-0.145469 0.737,-0.545098 0.2029,-0.775981 1.4967,-1.673517 2.7951,-1.939082 0.8958,-0.183212 0.9679,-0.318822 1.3384,-2.517699 0.2154,-1.27823 0.5534,-2.519001 0.7511,-2.757267 0.1978,-0.238266 0.3375,-0.556368 0.3105,-0.706893 -0.2165,-1.205689 0.1017,-1.748905 1.3066,-2.231021 1.543,-0.617385 1.6047,-1.102121 0.2732,-2.144262 l -1.0069,-0.787987 0.7135,-1.002055 c 1.0001,-1.404406 2.6639,-2.041456 4.6865,-1.794384 l 1.6263,0.19866 -0.093,-4.096317 c -0.1086,-4.750925 0.219,-6.870355 1.474,-9.536317 0.4971,-1.056 0.9854,-2.172 1.0853,-2.48 0.1,-0.308 0.467,-0.56 0.8158,-0.56 1.1493,0 4.014,0.714352 4.657,1.16129 0.3472,0.241289 0.968,0.43871 1.3796,0.43871 0.7083,0 0.7374,-0.08152 0.5435,-1.52 -0.192,-1.423619 -1.1543,-6.636851 -1.7578,-9.522662 -0.3707,-1.772372 -0.093,-5.481148 0.5335,-7.122662 0.363,-0.951283 0.7562,-1.424336 1.2963,-1.559917 1.2676,-0.318128 2.0877,0.621095 6.3266,7.245241 4.4008,6.877024 6.0229,8.96 6.9775,8.96 0.6966,0 -0.1283,-5.524816 -1.8458,-12.363077 -1.9094,-7.60218 -2.5956,-12.533357 -2.2873,-16.436922 0.231,-2.925225 0.6471,-4.465062 1.4993,-5.548408 0.7591,-0.965046 1.251,-0.860788 2.0113,0.42633 0.6146,1.040469 5.3856,13.083118 7.1637,18.082078 1.0433,2.933181 1.8568,4.979308 4.4399,11.168105 0.967,2.316761 2.4413,4.22246 2.9996,3.877369 0.6352,-0.392537 0.3159,-3.019782 -1.0751,-8.845286 -0.7722,-3.234102 -1.643,-7.248188 -1.9353,-8.920188 -0.2922,-1.672 -0.6589,-3.544 -0.8149,-4.16 -0.1559,-0.616 -0.4544,-3.064 -0.6632,-5.44 -0.3223,-3.667929 -0.3042,-4.827167 0.1205,-7.68 0.652,-4.379972 1.3206,-6.358079 2.6334,-7.791076 1.252,-1.36664 1.6536,-1.447092 2.0478,-0.410253 0.2518,0.6623 2.9567,12.865558 3.8394,17.321329 0.861,4.346624 2.4661,11.388352 3.6106,15.839999 0.7014,2.728 1.5442,6.112 1.873,7.52 1.346,5.762797 2.7067,10.18168 3.2384,10.515734 0.4297,0.270016 0.7186,0.18032 1.36,-0.422224 0.9913,-0.931286 1.0641,-2.451017 0.2995,-6.25351 -0.2831,-1.408 -0.5776,-2.92 -0.6544,-3.36 -1.9134,-10.962249 -1.7393,-9.722028 -2.3367,-16.639999 -0.1901,-2.2 -0.4142,-4.648 -0.4981,-5.44 -0.084,-0.792 0,-2.304 0.1802,-3.36 0.183,-1.056 0.4007,-2.981727 0.4838,-4.279392 0.083,-1.297666 0.242,-2.506682 0.3533,-2.686702 0.1112,-0.18002 0.3866,-1.206294 0.612,-2.280608 0.6865,-3.273159 1.1921,-4.395053 2.7439,-6.088323 0.819,-0.893737 1.569,-1.546956 1.6667,-1.451597 0.2962,0.289217 1.0937,7.010397 1.9538,16.466622 1.5963,17.548931 4.3192,41.034722 4.9762,42.919135 0.4288,1.23024 1.5224,1.960192 1.8107,1.208704 0.1112,-0.289658 0.086,-3.784922 -0.057,-7.767248 -0.4134,-11.560202 -0.3824,-21.012978 0.079,-24.040591 0.4853,-3.185971 1.3167,-6.744336 1.6823,-7.2 0.1411,-0.176 0.4212,-0.935248 0.6222,-1.687216 0.4857,-1.816502 2.3634,-4.97921 3.3336,-5.614886 0.769,-0.503847 0.7784,-0.497019 0.9383,0.67656 0.089,0.652048 0.1099,3.849542 0.047,7.105542 -0.4367,22.552063 -0.5334,26.826441 -0.6256,27.679999 -0.3208,2.970378 -0.4669,24.113757 -0.1974,28.580845 0.3227,5.34861 0.706,6.77915 1.8166,6.77915 0.7152,0 1.011,-1.10445 1.2449,-4.6481 0.6049,-9.165018 1.5908,-16.615809 2.6244,-19.831895 0.5858,-1.822698 1.6262,-3.68 2.0615,-3.68 0.3642,0 0.3578,7.920758 -0.01,11.2 -0.8704,7.778278 -1.5608,12.111875 -3.416,21.439995 -1.1375,5.72 -2.3651,11.552 -2.728,12.96 -0.6161,2.39034 -0.6331,2.80973 -0.2575,6.32821 0.4187,3.92268 0.2636,11.01336 -0.346,15.8121 -0.3284,2.58532 -1.6863,8.70897 -2.8606,12.8997 -0.3698,1.32 -0.8824,4.56 -1.139,7.2 -0.2567,2.64 -0.6124,5.304 -0.7905,5.92 -0.8777,3.03543 -1.4031,11.84999 -1.4211,23.84 -0.016,10.6322 0.051,12.38316 0.5321,13.93611 0.8842,2.8534 2.7488,4.81026 6.3282,6.64126 1.9037,0.97382 10.2456,3.40444 14.5053,4.22648 5.589,1.07857 8.1529,2.02583 11.7433,4.33874 2.9641,1.90949 4.1528,3.09764 4.1528,4.15093 0,1.05584 2.511,3.66648 3.5265,3.66648 0.5717,0 0.6088,-0.0883 0.2887,-0.68639 -0.202,-0.37751 -0.68,-0.98951 -1.0623,-1.36 -0.3822,-0.37048 -0.5531,-0.56561 -0.3799,-0.43361 0.1733,0.132 0.7083,0.24 1.1889,0.24 1.2526,0 9.6548,2.65863 12.4381,3.93571 1.9288,0.88496 5.43,3.17112 6.3124,4.1218 l 0.7124,0.76745 -0.7124,0.12937 c -0.7611,0.13822 -3.6436,0.13359 -16.5524,-0.0266 -7.1679,-0.089 -8.3535,-0.0323 -9.7521,0.46621 -0.8757,0.31212 -1.7468,0.69586 -1.9359,0.85275 -0.189,0.1569 -0.9757,0.38632 -1.7481,0.50984 -0.7724,0.12351 -1.8503,0.52716 -2.3952,0.89699 -0.545,0.36984 -2.0659,1.01271 -3.3798,1.42861 -5.4246,1.7171 -7.1105,2.42788 -8.8829,3.74495 -1.0249,0.76162 -2.719,1.82066 -3.7647,2.35342 -2.88,1.46734 -3.1213,1.7157 -2.853,2.93718 0.2167,0.98654 1.7103,4.39394 5.1034,11.64235 0.8239,1.76 1.7335,3.704 2.0214,4.32 0.2879,0.616 1.0938,2.128 1.791,3.36 0.6971,1.232 1.4273,2.54389 1.6226,2.91531 0.1953,0.37143 0.9638,1.52343 1.7079,2.56 0.744,1.03658 2.6467,3.82869 4.2281,6.20469 1.5815,2.376 3.6501,5.472 4.597,6.88 3.765,5.59839 6.488,10.8236 9.2895,17.82583 1.0882,2.72001 1.4708,4.10948 1.4708,5.34117 0,1.90314 0.07,2.05855 3.7981,8.44249 1.5191,2.60123 3.1063,5.33723 3.5271,6.08001 1.7485,3.08618 6.4537,9.9152 11.0899,16.09562 2.7197,3.62569 4.9449,6.71532 4.9449,6.86582 0,0.1505 -0.828,-0.0969 -1.84,-0.5497 -3.9137,-1.75126 -7.0726,-5.90284 -11.8248,-15.54124 -1.1136,-2.25844 -1.6698,-2.60119 -2.4392,-1.50285 -0.6155,0.87878 -0.2523,2.4247 2.1383,9.10285 3.1965,8.92905 8.8767,19.7976 12.342,23.61513 1.093,1.20413 0.5519,1.51776 -2.3763,1.37731 -3.941,-0.18908 -5.5168,-1.60083 -8.2937,-7.43068 -3.1879,-6.69239 -3.1817,-6.68176 -3.8663,-6.68176 -0.5344,0 -0.6258,0.1847 -0.5541,1.12 0.1613,2.10355 2.9111,12.1983 6.2157,22.81779 1.7052,5.48003 2.1796,7.38902 1.9046,7.66409 -0.2751,0.27504 -0.984,0.1848 -2.8462,-0.36236 -3.699,-1.08682 -5.4655,-2.32727 -6.8922,-4.83952 -1.1944,-2.10317 -2.6835,-6.9889 -3.4137,-11.2 -0.351,-2.024 -0.8005,-4.24925 -0.9991,-4.945 -0.424,-1.48595 -2.1831,-3.375 -3.143,-3.375 -0.6252,0 -0.6716,0.17248 -0.6673,2.48 0,2.33808 0.2361,6.86985 0.9612,18.8 0.7054,11.60582 0.7299,13.08044 0.228,13.73913 -0.4614,0.6056 -0.5053,0.60637 -2.0019,0.0348 -1.7217,-0.65751 -3.7969,-2.38852 -4.5049,-3.75776 -0.5077,-0.98164 -1.6124,-5.90877 -1.8515,-8.25716 -0.081,-0.79145 -0.3101,-2.447 -0.5101,-3.679 -0.2001,-1.232 -0.5535,-3.78045 -0.7854,-5.6632 -0.4562,-3.7049 -1.1869,-5.46896 -2.3346,-5.63623 -0.407,-0.0593 -0.8067,0.13431 -0.9909,0.48 -0.4776,0.89635 -1.037,4.97095 -1.8368,13.37943 -0.6808,7.15699 -1.4604,11.59347 -2.2632,12.88 -0.5836,0.93523 -1.3105,0.90528 -2.5947,-0.10688 z M 372.67187,84.085705 c 0,-0.430592 -0.9279,-0.979446 -1.1989,-0.708416 -0.2793,0.279331 0.5046,1.251629 0.9023,1.119072 0.1628,-0.05426 0.2963,-0.239056 0.2966,-0.410656 z"
               style="fill:#313131;fill-opacity:1;stroke-width:0.31999999" />
            <path
               inkscape:connector-curvature="0"
               id="path4543"
               d="m 446.95967,392.92216 c -1.0301,-1.20903 -2.0377,-3.63127 -2.2334,-5.36909 -0.1052,-0.93466 -0.3215,-1.95328 -0.4807,-2.26365 -0.1592,-0.31033 -0.4316,-2.68633 -0.6054,-5.28 -0.4182,-6.24249 -0.7801,-7.96806 -1.9074,-9.09539 -1.7927,-1.79274 -2.2875,-1.21725 -4.4986,5.23222 -1.7222,5.02375 -2.7524,6.87021 -4.0088,7.18557 -0.694,0.17418 -1.027,0.003 -1.9525,-1.00803 -0.9912,-1.08192 -1.0902,-1.34602 -0.8865,-2.36403 0.3637,-1.81728 0.2673,-2.58615 -0.4175,-3.33104 -0.3514,-0.38227 -0.9511,-1.84701 -1.3326,-3.25501 -0.6695,-2.47046 -1.606,-4 -2.4491,-4 -0.2224,0 -0.8757,0.4304 -1.4516,0.95645 -1.3044,1.19139 -3.4722,2.23155 -4.4751,2.14729 -0.749,-0.0629 -2.1972,-1.23916 -2.1972,-1.78457 0,-0.15443 -0.2177,-0.46147 -0.4837,-0.68227 -0.2661,-0.2208 -0.7734,-0.99444 -1.1274,-1.71917 -1.0305,-2.10973 -2.3321,-4.26445 -3.1068,-5.14333 -0.6044,-0.68566 -0.9944,-0.8144 -2.4671,-0.8144 -1.4863,0 -1.8688,-0.12899 -2.545,-0.85827 -0.4377,-0.47203 -0.7224,-0.97706 -0.6326,-1.12224 0.09,-0.14522 -0.062,-0.3504 -0.3372,-0.456 -0.2932,-0.11248 -0.5003,-0.5728 -0.5003,-1.11191 0,-0.61923 -0.3679,-1.29881 -1.1256,-2.07904 -0.9186,-0.94595 -1.2786,-1.1207 -1.9576,-0.95027 -1.1193,0.28093 -1.9623,-0.52326 -2.4093,-2.29846 -0.3131,-1.24314 -0.4452,-1.38903 -1.1898,-1.31325 -0.4607,0.0469 -0.9891,0.19267 -1.1743,0.32397 -0.9232,0.65456 -2.6782,-0.91184 -2.8581,-2.55098 -0.1068,-0.97264 -2.5277,-3.31926 -3.1701,-3.07277 -0.2591,0.0994 -0.7354,-0.67904 -1.3327,-2.17804 -1.1231,-2.81853 -1.4063,-3.1393 -2.9394,-3.32944 -0.6735,-0.0836 -1.5522,-0.4914 -2.016,-0.93572 -0.4521,-0.43315 -1.1331,-0.78758 -1.5133,-0.78758 -1.725,0 -1.7944,-3.6543 -0.1337,-7.03459 l 1.0193,-2.07456 -0.7024,-1.76544 c -0.3862,-0.97098 -1.0701,-2.26704 -1.5196,-2.88016 -1.6463,-2.24535 -2.6726,-4.03402 -3.0322,-5.28464 -0.3725,-1.29548 -0.4281,-1.33857 -3.6678,-2.84581 -1.0262,-0.47743 -2.2743,-2.96579 -2.5661,-5.11596 -0.2838,-2.09112 -1.3808,-3.83997 -2.8479,-4.54028 -0.5919,-0.28253 -1.191,-0.88135 -1.3622,-1.36147 -0.168,-0.4714 -0.5205,-1.23931 -0.7834,-1.70646 -0.3043,-0.54097 -0.4778,-1.71019 -0.4778,-3.22013 0,-2.17392 -0.073,-2.43893 -0.88,-3.19177 -0.484,-0.45155 -1.456,-1.08299 -2.16,-1.40319 -0.704,-0.32021 -1.3758,-0.72251 -1.4929,-0.89401 -0.1171,-0.1715 -0.3144,-1.79928 -0.4383,-3.61729 -0.2248,-3.29846 -0.2279,-3.30812 -1.467,-4.54721 -1.2693,-1.26931 -1.5402,-2.17059 -0.8575,-2.85324 0.2951,-0.2951 0.298,-0.62535 0.013,-1.424 -0.3528,-0.98742 -0.3056,-1.69745 0.3839,-5.76519 0.1112,-0.65571 -0.09,-1.15831 -0.7736,-1.93741 -0.508,-0.5786 -1.0125,-1.40607 -1.1211,-1.83882 -0.2337,-0.9312 0.5935,-4.33896 1.2303,-5.06815 0.2451,-0.28062 0.5264,-0.94222 0.6252,-1.47022 0.099,-0.528 0.279,-1.36639 0.4007,-1.86309 0.2803,-1.14502 -0.3236,-2.30951 -1.4251,-2.74792 -1.4705,-0.58526 -6.1419,-0.54564 -7.2884,0.0618 -0.5561,0.29465 -1.0601,0.67218 -1.12,0.83894 -0.06,0.16677 -0.7584,0.9978 -1.5524,1.84673 -0.7939,0.84894 -2.0879,2.33553 -2.8756,3.30353 -0.7876,0.968 -1.5152,1.832 -1.6168,1.92 -0.1016,0.088 -1.3425,1.456 -2.7575,3.04 -4.2316,4.73693 -11.3339,11.51473 -14.5149,13.85185 -0.7874,0.57851 -2.5117,1.84416 -3.8317,2.81255 -3.2787,2.40537 -6.5112,3.9682 -8.6546,4.18437 -1.6362,0.16501 -1.8392,0.10395 -3.2462,-0.97637 -1.5849,-1.21696 -2.7014,-1.42595 -4.3183,-0.80831 -0.4955,0.18926 -1.7649,0.34326 -2.8209,0.34224 l -1.92,-0.002 -2.1231,-2.32181 -2.1231,-2.32181 -2.1272,-0.22017 c -2.3534,-0.24359 -3.0954,-0.7167 -4.0466,-2.58043 -0.855,-1.67528 -2.3033,-2.76556 -4.0147,-3.02219 -1.304,-0.19555 -1.5774,-0.38724 -2.3985,-1.68203 -0.5097,-0.80373 -0.9273,-1.75714 -0.9279,-2.11868 0,-1.07035 -1.1573,-2.6511 -2.8004,-3.83153 -1.6645,-1.19584 -2.4008,-2.69621 -2.8285,-5.76386 -0.121,-0.86793 -0.4992,-2.05119 -0.8404,-2.62947 -0.3412,-0.57829 -0.5345,-1.19031 -0.4296,-1.36007 0.1049,-0.16975 -0.071,-0.49848 -0.3897,-0.73053 -1.4728,-1.07035 -2.8096,-5.24506 -2.2744,-7.10196 0.1586,-0.54996 0.3529,-2.18414 0.4318,-3.63151 0.1155,-2.11953 0.044,-2.73105 -0.3677,-3.14279 -0.4483,-0.44828 -0.4606,-0.72236 -0.1,-2.22672 0.3083,-1.28521 0.3283,-2.18248 0.08,-3.57721 -0.7968,-4.46958 -0.3616,-5.85575 2.497,-7.95414 1.4495,-1.06405 1.583,-1.27236 1.583,-2.46962 0,-0.76014 0.2187,-1.54911 0.5222,-1.88455 0.4831,-0.5338 0.4822,-0.638 -0.012,-1.39195 -0.4886,-0.74578 -0.4915,-0.90446 -0.034,-1.86923 0.2801,-0.5902 1.0846,-1.39715 1.8276,-1.83324 0.7301,-0.42843 1.7249,-1.18022 2.2109,-1.67064 0.7865,-0.79387 0.8463,-0.99813 0.545,-1.86235 -0.1903,-0.54596 -0.2437,-1.626 -0.1219,-2.46834 0.119,-0.8237 0.276,-1.9853 0.349,-2.58132 0.073,-0.59602 0.3645,-1.3399 0.6479,-1.65307 0.5655,-0.62483 3.0997,-1.67065 5.1026,-2.10571 1.4163,-0.30762 1.6514,-0.81101 1.7244,-3.69161 0.021,-0.82174 0.2482,-1.90174 0.5051,-2.4 0.2571,-0.49826 0.5432,-1.2837 0.636,-1.74542 0.3791,-1.88743 5.1132,-2.30753 9.4568,-0.83921 2.6472,0.89488 13.3176,4.63772 21.28,7.46435 7.4192,2.63379 18.6876,6.40197 21.5391,7.20268 1.9014,0.5339 2.9701,0.65071 4.7009,0.51376 3.0883,-0.24438 5.6,-0.83466 5.6,-1.31609 0,-0.45978 -2.0855,-3.26596 -3.04,-4.09072 -0.352,-0.30413 -1.0882,-0.77132 -1.636,-1.03822 -1.4583,-0.71057 -1.7795,-1.25136 -1.759,-2.96198 0.027,-2.23289 -0.6228,-4.27517 -1.485,-4.66897 -0.396,-0.18086 -0.72,-0.45294 -0.72,-0.60463 0,-0.15168 -0.576,-0.90067 -1.28,-1.66442 -0.7786,-0.84461 -1.28,-1.70066 -1.28,-2.1851 0,-0.84433 -0.4299,-2.34819 -1.124,-3.93196 -0.2314,-0.528 -0.5256,-1.68 -0.6539,-2.56 -0.1283,-0.88 -0.4308,-2.16401 -0.6723,-2.85335 -0.4951,-1.41304 -0.3375,-2.20943 0.6776,-3.42421 0.6362,-0.76141 0.6747,-1.02327 0.4232,-2.88 -0.1521,-1.12334 -0.4315,-2.83444 -0.6209,-3.80244 -0.7528,-3.8477 -0.7795,-3.66337 0.7741,-5.33891 0.9763,-1.05301 1.5024,-1.94648 1.6611,-2.82109 0.1278,-0.704 0.3811,-1.46 0.5629,-1.68 0.2303,-0.27875 0.2216,-0.4 -0.029,-0.4 -0.1976,0 -0.3232,-0.1296 -0.2792,-0.288 0.044,-0.1584 -0.046,-0.29368 -0.1999,-0.30062 -0.377,-0.017 -2.37,-4.11406 -2.6222,-5.39052 -0.2612,-1.32236 0.3079,-3.00804 1.3418,-3.9738 0.9824,-0.91772 1.7203,-2.25848 1.7203,-3.12574 0,-0.44033 0.2895,-0.69406 0.96,-0.84132 0.528,-0.11597 0.96,-0.39583 0.96,-0.62193 0,-0.25793 0.3874,-0.39747 1.04,-0.37457 0.572,0.0201 1.0616,-0.1075 1.088,-0.2835 0.026,-0.176 -0.099,-0.27811 -0.2793,-0.22692 -0.1809,0.0515 -0.238,-0.13941 -0.1277,-0.42674 0.1293,-0.33714 0.059,-0.46825 -0.2008,-0.37308 -0.2201,0.0807 -0.3642,0.30874 -0.3202,0.50674 0.044,0.198 -0.136,0.36 -0.4,0.36 -0.264,0 -0.48,-0.216 -0.48,-0.48 0,-0.46191 -0.357,-0.61279 -1.1949,-0.50506 -0.2421,0.0311 -0.3233,-0.17081 -0.2098,-0.52209 0.1563,-0.48382 0.1297,-0.49825 -0.1712,-0.0928 -0.3119,0.42022 -0.4118,0.40739 -0.8023,-0.10301 -0.4315,-0.56402 -0.4518,-0.56402 -0.6224,0 -0.097,0.32065 -0.1234,0.15492 -0.059,-0.3683 0.071,-0.57284 -0.1883,-1.55524 -0.6515,-2.46936 -0.4231,-0.83493 -0.7687,-1.84684 -0.7681,-2.24869 0,-1.26409 1.1951,-2.75789 3.0292,-3.79298 1.8452,-1.04139 2.1056,-1.58659 1.2795,-2.67882 -0.6416,-0.84824 -0.6268,-2.73884 0.021,-2.73884 0.4036,0 0.4255,-0.1228 0.1227,-0.68852 -0.312,-0.58311 -0.2908,-0.65874 0.1385,-0.49398 0.2789,0.107 0.6019,0.0411 0.7178,-0.14655 0.2824,-0.45686 0.3866,-2.83095 0.1243,-2.83095 -0.521,0 -0.8719,-2.26376 -0.5702,-3.67834 0.4155,-1.94805 -0.07,-2.92194 -2.7922,-5.60167 -2.3944,-2.35714 -3.3319,-4.15493 -3.4386,-6.59388 -0.065,-1.47833 0.041,-1.80329 0.8663,-2.66488 0.5169,-0.53968 0.8092,-0.98124 0.6495,-0.98124 -0.1597,0 0.6019,-0.828 1.6926,-1.84 2.6676,-2.47535 3.4861,-4.70668 2.3181,-6.32 -0.1274,-0.176 -0.3203,-1.00065 -0.4287,-1.83256 -0.1641,-1.25915 -0.1,-1.56467 0.384,-1.82358 0.3196,-0.17105 0.8924,-0.2296 1.2729,-0.13011 0.5114,0.13373 0.6917,0.0371 0.6917,-0.37067 0,-0.3588 0.1678,-0.48718 0.48,-0.36736 0.3602,0.13823 0.48,-0.0528 0.48,-0.76576 0,-1.30574 0.015,-1.38235 0.3469,-1.78232 0.367,-0.4423 0.4209,-1.6579 0.1167,-2.6353 -0.1902,-0.6113 -0.1224,-0.73648 0.3719,-0.68634 0.3324,0.0337 0.9271,-0.0423 1.3214,-0.16886 0.5687,-0.182579 0.6764,-0.391715 0.5209,-1.011373 -0.1344,-0.535545 0,-1.002032 0.4375,-1.483478 0.3485,-0.386256 0.8332,-1.170285 1.0773,-1.742285 0.244,-0.572 0.6208,-1.04 0.8373,-1.04 0.5962,0 1.3289,-1.657181 1.4727,-3.331261 0.082,-0.949427 0.3774,-1.75784 0.8129,-2.221321 0.8759,-0.93241 0.8608,-1.210202 -0.1155,-2.127418 -1.8577,-1.745174 -0.1075,-3.36 3.6416,-3.36 h 1.7216 l 0.096,-4.64 c 0.099,-4.757337 0.5674,-7.192745 1.5784,-8.20368 0.2761,-0.276144 0.6762,-1.153091 0.889,-1.948771 0.2128,-0.795683 0.5736,-1.518355 0.8019,-1.605939 0.4802,-0.184263 4.2061,0.797177 4.7735,1.257363 0.2103,0.170586 0.7143,0.263101 1.12,0.20559 0.6961,-0.09868 0.7319,-0.221638 0.6367,-2.184563 -0.055,-1.144 -0.3863,-3.304 -0.7351,-4.8 -0.7899,-3.387081 -1.0678,-5.953344 -0.6714,-6.198374 0.1882,-0.116304 0.1772,-0.656112 -0.029,-1.429415 -0.4117,-1.542642 0.1976,-4.022488 1.1528,-4.691538 1.1915,-0.834534 1.9511,-0.0019 6.5678,7.199327 0.6206,0.968 1.3823,2.048 1.6928,2.4 0.3105,0.352 0.5942,0.784 0.6304,0.96 0.126,0.612352 1.5067,2.568685 2.7666,3.92 0.9625,1.032323 1.5059,1.36 2.2556,1.36 0.6861,0 1.0459,0.183946 1.1788,0.602723 0.1812,0.570717 1.9316,2.597277 2.2434,2.597277 0.08,0 0.2925,-0.273865 0.4717,-0.608589 0.2817,-0.526473 0.2293,-0.588268 -0.3888,-0.457984 -0.6308,0.132986 -0.6489,0.10873 -0.1544,-0.207312 0.8076,-0.516166 0.7133,-1.070665 -0.1074,-0.631446 -0.3671,0.196451 -0.7511,0.273517 -0.8534,0.171258 -0.1022,-0.10226 -0.013,-0.185927 0.1998,-0.185927 0.2121,0 -0.196,-0.587568 -0.907,-1.305705 -0.711,-0.718138 -1.3584,-1.618138 -1.4386,-2 -0.08,-0.381863 -0.4244,-2.350295 -0.7649,-4.374295 -0.3405,-2.024 -0.939,-4.832 -1.33,-6.239999 -1.5146,-5.453606 -1.9483,-8.045273 -2.129,-12.723331 -0.1354,-3.508413 -0.081,-4.845939 0.2132,-5.2 0.2413,-0.29073 0.2656,-0.476669 0.062,-0.476669 -0.4626,0 0.162,-2.180849 0.8896,-3.10571 0.5263,-0.669113 0.5918,-0.679874 1.0042,-0.165038 0.795,0.992309 1.2774,2.020383 2.717,5.790684 0.7813,2.046035 1.5532,4.008064 1.7155,4.360064 0.4081,0.885207 1.6254,4.068461 3.3652,8.8 0.8089,2.2 1.7527,4.610431 2.0972,5.356511 0.3445,0.746083 0.6263,1.431651 0.6263,1.523488 0,0.09184 0.2761,0.777405 0.6134,1.523488 0.3374,0.74608 0.8911,2.004512 1.2305,2.796512 0.3394,0.792 1.0852,1.894832 1.6574,2.450736 1.1075,1.076003 2.4273,1.650151 2.1536,0.936896 -0.086,-0.223117 -0.046,-0.583389 0.088,-0.800598 0.1343,-0.21721 -0.015,-1.509139 -0.3325,-2.870954 -0.3171,-1.361811 -0.643,-2.827037 -0.7242,-3.256051 -0.081,-0.429018 -0.3098,-1.198102 -0.5079,-1.709082 -0.1981,-0.510976 -0.3913,-1.806976 -0.4294,-2.879999 -0.038,-1.07302 -0.2479,-2.139846 -0.4662,-2.370726 -0.4416,-0.467056 -0.4579,-2.940221 -0.019,-2.940221 0.1533,0 0.1099,-0.31559 -0.097,-0.701312 -0.6961,-1.300691 -0.8426,-2.320409 -0.3824,-2.661817 0.5223,-0.387511 0.054,-2.062788 -0.9342,-3.343095 -0.5999,-0.777129 -0.599,-0.789129 0.072,-1.037293 0.3733,-0.138089 0.5847,-0.40328 0.4697,-0.589315 -0.1469,-0.237648 -0.3303,-0.237622 -0.6167,9.3e-5 -0.3165,0.262646 -0.3735,0.159574 -0.255,-0.460733 0.084,-0.439488 0.2803,-0.720249 0.4362,-0.623913 0.441,0.272563 0.3305,-0.564756 -0.2118,-1.604743 -0.3749,-0.718864 -0.4406,-1.456739 -0.2773,-3.113713 0.1177,-1.194373 0.3235,-2.103885 0.4574,-2.021138 0.2746,0.169734 0.6166,-1.674858 0.3584,-1.933088 -0.3526,-0.352584 -0.3615,-1.46662 -0.01,-1.249381 0.2484,0.153536 0.2872,-0.08993 0.129,-0.810032 -0.265,-1.206944 0.078,-3.937549 0.4648,-3.698552 0.1462,0.0904 0.3513,-0.0583 0.4558,-0.330427 0.1207,-0.314599 0.06,-0.414242 -0.168,-0.273619 -0.2151,0.132938 -0.2996,0.04383 -0.2117,-0.22338 0.08,-0.244499 0.5855,-0.488362 1.1226,-0.541918 0.9031,-0.09005 0.9931,-0.0058 1.1976,1.12 0.1217,0.669557 0.4125,1.793376 0.6464,2.497376 0.2339,0.704 1.0147,4.232 1.7351,7.84 2.1133,10.583811 4.2306,19.582099 7.2284,30.719999 0.4026,1.496 0.9883,3.728 1.3014,4.96 0.5545,2.182007 1.1997,3.36 1.8403,3.36 0.1737,0 0.7475,-0.451782 1.2752,-1.003965 0.9541,-0.998339 0.9584,-1.019398 0.7597,-3.76 -0.1099,-1.515817 -0.342,-3.24494 -0.5158,-3.842496 -0.4329,-1.488518 -1.385,-6.785264 -1.3432,-7.473539 0.019,-0.308 0.051,-0.74 0.071,-0.96 0.02,-0.22 -0.1076,-1.116768 -0.2847,-1.992815 -0.1977,-0.977872 -0.2088,-1.804291 -0.029,-2.140579 0.1756,-0.328048 0.1765,-0.619859 0,-0.727504 -0.16,-0.09885 -0.2096,-0.490112 -0.1104,-0.869459 0.099,-0.379344 0.05,-0.608797 -0.1101,-0.509895 -0.3349,0.207392 -0.3313,-1.822454 0,-2.88239 0.1409,-0.444048 -0.035,-1.45241 -0.4634,-2.659686 -0.6517,-1.835584 -0.6592,-1.967255 -0.1343,-2.351056 0.3787,-0.276916 0.504,-0.678532 0.393,-1.259389 -0.1246,-0.651847 -0.07,-0.77545 0.2326,-0.524503 0.2175,0.180576 0.6186,0.242701 0.8913,0.138055 0.5705,-0.218909 0.9993,-1.100778 0.5353,-1.100778 -0.1705,0 -0.3099,-0.152499 -0.3099,-0.338886 0,-0.186387 0.18,-0.230746 0.4,-0.09857 0.3031,0.182122 0.3151,0.128579 0.05,-0.221114 -0.4843,-0.637824 -0.8238,-1.652611 -0.4823,-1.441571 0.4342,0.268368 1.0276,-0.636361 0.8023,-1.223373 -0.1107,-0.288547 -0.034,-0.72598 0.17,-0.97207 0.2543,-0.306358 0.2656,-0.512822 0.036,-0.65481 -0.4632,-0.286286 -0.4217,-0.809246 0.064,-0.811261 0.2436,-10e-4 0.4302,-0.524745 0.4771,-1.339308 0.042,-0.735708 0.191,-1.418961 0.3303,-1.518342 0.2779,-0.198355 0.3335,-2.643894 0.066,-2.900692 -0.092,-0.088 0.088,-0.664 0.3995,-1.28 0.5656,-1.118589 0.7511,-0.872671 0.5765,0.764069 -0.035,0.332238 0.09,0.699634 0.2792,0.816436 0.301,0.186037 0.4836,1.315634 1.1667,7.219495 0.3437,2.969674 0.8409,7.659962 1.2722,12 1.1713,11.786562 3.2818,29.46509 3.7208,31.16662 0.3668,1.421594 1.4795,3.073379 2.0705,3.073379 0.9113,0 0.9945,-1.572032 0.6071,-11.473715 l -0.2423,-6.193715 0.6763,0.21464 c 0.5558,0.176422 0.6393,0.111206 0.4686,-0.366285 -0.1142,-0.319507 -0.3164,-0.724925 -0.4492,-0.900925 -0.2979,-0.394755 -0.6294,-3.243101 -0.4037,-3.468787 0.09,-0.09022 0.2223,-1.21865 0.2936,-2.507626 0.1768,-3.198683 0.1885,-3.277855 0.5164,-3.493048 0.1589,-0.104205 0.3653,-0.896205 0.4587,-1.76 0.093,-0.863795 0.3027,-1.618835 0.4649,-1.677869 0.1622,-0.05903 0.2135,-0.239034 0.114,-0.4 -0.1,-0.160966 -0.045,-0.292669 0.1217,-0.292669 0.1664,0 0.3638,-0.417069 0.4386,-0.926822 0.098,-0.670503 0.02,-0.882279 -0.2836,-0.765763 -0.2645,0.101475 -0.4198,-0.08837 -0.4198,-0.513178 0,-0.370832 0.1594,-0.674237 0.3543,-0.674237 0.1948,0 0.2713,-0.216 0.17,-0.48 -0.1013,-0.264 -0.038,-0.48 0.1398,-0.48 0.1782,0 0.3006,-0.18 0.2721,-0.4 -0.1639,-1.261721 0.056,-1.84 0.6981,-1.84 0.4457,0 0.6161,-0.151488 0.5027,-0.447033 -0.1134,-0.295341 0.1193,-0.502925 0.6857,-0.611741 0.4716,-0.09059 0.8935,-0.129296 0.9376,-0.08601 0.071,0.06917 0.098,2.347114 0.05,4.184784 -0.01,0.352 -0.017,4.672 -0.016,9.599999 2e-4,4.928 -0.064,9.968 -0.1431,11.2 -0.079,1.232 -0.1739,9.584 -0.2113,18.56 -0.072,17.379063 -0.01,18.243823 1.4569,19.620103 0.6347,0.59632 0.8269,0.63733 1.3149,0.28054 0.4851,-0.35471 0.6618,-1.51062 1.1687,-7.646256 0.7402,-8.957811 1.2158,-12.131238 2.4363,-16.254387 0.2865,-0.968 0.7151,-1.970857 0.9524,-2.228573 0.4649,-0.504969 0.4833,-0.35711 0.5542,4.468573 0.044,3.021107 -0.5972,8.882768 -1.7514,16 -1.032,6.363963 -3.7342,19.519653 -4.4728,21.776183 -0.6046,1.84703 -0.648,2.43354 -0.4135,5.58381 0.7684,10.32395 -0.1326,20.20798 -2.5963,28.48001 -0.9633,3.23456 -1.3923,5.56652 -1.766,9.6 -0.1631,1.76 -0.5865,5.05738 -0.9409,7.32751 -0.9882,6.32962 -1.3736,14.11234 -1.23,24.83249 0.1097,8.18304 0.2214,10.03635 0.6909,11.47039 0.9222,2.81651 3.9824,5.67854 7.6008,7.10861 2.5625,1.01274 8.9015,2.79003 13.1711,3.69277 6.4262,1.35876 10.7194,2.99104 12.702,4.82937 0.4382,0.40637 0.8842,0.73886 0.9911,0.73886 0.1068,0 0.4933,0.2593 0.8587,0.57623 0.5866,0.50875 0.6428,0.81794 0.4798,2.64 -0.1192,1.33211 -0.3736,2.23394 -0.7176,2.54377 -0.7299,0.65719 -1.0133,1.5298 -0.5507,1.69543 0.2516,0.0901 0.1363,0.40457 -0.338,0.9213 -0.7556,0.8233 -0.9422,1.54327 -0.4,1.54327 0.176,0 0.32,0.1525 0.32,0.33889 0,0.18638 -0.1305,0.25818 -0.2901,0.15955 -0.1596,-0.0986 -0.2174,0.0989 -0.1285,0.43898 0.1832,0.7007 1.1473,1.19659 1.3198,0.6789 0.062,-0.18717 0.2463,-0.25823 0.4086,-0.15791 0.5137,0.31749 -0.4368,0.92115 -2.5898,1.64469 -1.144,0.38446 -2.584,0.8701 -3.2,1.07921 -0.616,0.20911 -2.056,0.8418 -3.2,1.40599 -1.144,0.56419 -3.8014,1.58274 -5.9054,2.26345 -3.0481,0.98618 -4.4336,1.64715 -6.8187,3.25295 -1.6462,1.10842 -3.1072,2.0153 -3.2465,2.0153 -0.1394,0 -0.8649,0.44301 -1.6124,0.98448 -1.272,0.92145 -1.3454,1.0572 -1.1459,2.1205 0.3945,2.1029 8.1358,18.30087 10.6194,22.22015 3.0617,4.83145 4.7745,7.41058 6.2695,9.44036 0.836,1.13507 1.52,2.12361 1.52,2.19676 0,0.0731 1.2936,2.06892 2.8747,4.43505 5.313,7.95112 10.2164,18.54404 10.4206,22.51181 0.082,1.59274 0.3747,2.51737 1.469,4.64 0.7516,1.45799 1.6024,2.93889 1.8906,3.29089 0.2882,0.352 1.0543,1.60567 1.7024,2.78592 0.6481,1.18029 1.3005,2.22147 1.4499,2.31382 0.1494,0.0923 0.6747,0.99866 1.1673,2.01405 0.8766,1.80688 4.8155,7.78976 7.8518,11.92621 0.8398,1.144 1.9334,2.63328 2.4303,3.3095 0.4969,0.67623 1.514,1.91367 2.2603,2.74983 0.7462,0.83616 1.2828,1.59437 1.1922,1.68489 -0.091,0.0905 0.055,0.34672 0.3232,0.56935 0.2682,0.22265 0.4764,0.63917 0.4625,0.9256 -0.016,0.33472 -0.083,0.37718 -0.1874,0.11885 -0.089,-0.22112 -0.3001,-0.31671 -0.4688,-0.21242 -0.6618,0.40899 -5.0544,-3.38394 -5.9541,-5.14125 -0.2716,-0.5304 -0.5817,-1.03635 -0.6891,-1.12435 -0.1075,-0.088 -0.4598,-0.63523 -0.7829,-1.21603 -2.3006,-4.13485 -3.1858,-5.80653 -3.5921,-6.78397 -0.8642,-2.07891 -1.2801,-2.71504 -1.8468,-2.82416 -0.7662,-0.14755 -1.4126,0.44685 -1.6471,1.51478 -0.2286,1.04071 2.2085,8.66359 4.4401,13.88852 2.6936,6.3063 7.2922,14.79769 9.3612,17.2854 1.3928,1.67482 0.8381,2.26221 -1.7501,1.85309 -3.2283,-0.51033 -5.4924,-2.67936 -7.5549,-7.23763 -2.926,-6.46662 -3.6106,-7.42938 -4.5877,-6.45226 -0.3883,0.38836 -0.3816,0.80266 0.048,2.97175 0.2745,1.3863 0.8035,3.60051 1.1756,4.92051 0.372,1.32 1.1724,4.272 1.7786,6.56 1.172,4.42317 2.5849,9.10966 3.8695,12.83517 0.4315,1.25136 0.737,2.69136 0.6789,3.2 -0.089,0.77913 -0.2316,0.90861 -0.9056,0.82185 -1.4148,-0.18214 -3.9705,-1.52528 -4.8953,-2.5727 -0.2116,-0.23962 -0.7834,-0.86544 -1.2708,-1.39075 -0.4874,-0.52528 -0.9148,-1.30122 -0.9498,-1.72432 -0.035,-0.42307 -0.1763,-0.76925 -0.3139,-0.76925 -0.1376,0 -0.2502,-0.47581 -0.2502,-1.05734 0,-0.6193 -0.3881,-1.66935 -0.9367,-2.53447 -0.5152,-0.81241 -1.0119,-1.88461 -1.1038,-2.38265 -0.271,-1.47008 -0.5784,-2.34554 -0.8235,-2.34554 -0.1261,0 -0.2411,-0.18 -0.2556,-0.4 -0.077,-1.17149 -1.1498,-5.31536 -1.6732,-6.46419 -0.3319,-0.72871 -0.9746,-1.69591 -1.428,-2.14938 -0.6784,-0.6784 -1.0083,-0.7864 -1.8618,-0.60937 l -1.0374,0.2151 0.021,2.5439 c 0.019,2.28026 0.1662,5.47284 1.012,21.90394 0.1313,2.552 0.2407,5.792 0.243,7.2 v 2.56 l -0.9692,0.095 c -1.2975,0.12713 -3.0688,-1.26237 -3.9964,-3.13501 -1.58,-3.1896 -1.5838,-3.19974 -1.1795,-3.2049 0.2413,-0.003 0.2656,-0.0927 0.065,-0.24 -0.3831,-0.28147 -0.5498,-3.2751 -0.1823,-3.2751 0.141,0 0.151,-0.576 0.022,-1.28 -0.1287,-0.704 -0.1638,-1.28 -0.078,-1.28 0.086,0 0.01,-0.18 -0.1757,-0.4 -0.1826,-0.22 -0.3445,-0.544 -0.3598,-0.72 -0.015,-0.176 -0.2401,-1.0504 -0.4996,-1.9431 -0.2595,-0.89268 -0.4531,-2.1208 -0.4302,-2.72912 0.023,-0.60832 -0.1246,-1.41648 -0.3277,-1.79588 -0.4649,-0.86864 -0.4764,-1.47596 -0.023,-1.19558 0.1906,0.11776 0.1127,-0.23795 -0.1731,-0.7905 -0.2857,-0.55254 -0.4392,-1.13443 -0.3412,-1.29312 0.098,-0.15865 0.038,-0.37504 -0.1329,-0.48083 -0.1712,-0.10579 -0.2211,-0.42739 -0.1108,-0.71462 0.1494,-0.38951 0.085,-0.45261 -0.254,-0.24832 -0.3879,0.23382 -0.3901,0.19465 -0.015,-0.26749 0.3784,-0.46656 0.3674,-0.54144 -0.08,-0.54144 -0.2856,0 -0.8072,-0.288 -1.1592,-0.64 -0.352,-0.352 -1.0664,-0.64 -1.5876,-0.64 -0.8653,0 -0.9917,0.14586 -1.4553,1.68 -0.521,1.72403 -0.9197,4.73248 -1.2615,9.52 -0.1069,1.496 -0.2644,3.512 -0.3502,4.48 -0.1979,2.23418 -1.4347,9.54192 -1.7666,10.43814 -0.3624,0.9786 -1.7255,1.15178 -2.4424,0.31031 z m -1.6964,-26.74845 c -0.6204,-0.40093 -0.96,-0.40093 -0.96,0 0,0.176 0.324,0.31779 0.72,0.3151 0.5822,-0.004 0.6281,-0.0643 0.24,-0.3151 z m 0.7557,-0.8 c -0.1013,-0.264 -0.025,-0.48 0.17,-0.48 0.1949,0 0.3543,-0.12 0.3543,-0.26666 0,-0.14668 -0.216,-0.26668 -0.48,-0.26668 -0.482,0 -0.6656,0.88112 -0.2667,1.28 0.3423,0.34224 0.4202,0.24876 0.2224,-0.26666 z m -0.7557,-1.6 c 0,-0.264 -0.1395,-0.48 -0.31,-0.48 -0.1705,0 -0.2271,0.216 -0.1257,0.48 0.1013,0.264 0.2407,0.48 0.3099,0.48 0.069,0 0.1258,-0.216 0.1258,-0.48 z m 1.84,-1.73552 c 0.22,-0.0134 0.4,-0.24048 0.4,-0.50448 0,-0.264 0.18,-0.48458 0.4,-0.49018 0.6603,-0.017 1.534,-0.83164 1.6746,-1.56195 0.073,-0.37673 0.013,-0.61145 -0.1324,-0.5216 -0.1454,0.0898 -0.3448,-0.23907 -0.4432,-0.73094 -0.1067,-0.53395 -0.4992,-1.04026 -0.974,-1.25661 -0.7003,-0.31904 -0.8584,-0.26595 -1.324,0.44458 -0.2908,0.44377 -0.698,0.74192 -0.9048,0.66252 -0.2677,-0.10268 -0.3628,0.46727 -0.3298,1.97492 0.026,1.1656 0.062,2.14252 0.08,2.17094 0.019,0.0285 0.2856,0.004 0.5936,-0.0555 0.308,-0.0589 0.74,-0.11821 0.96,-0.13168 z m -86.5143,-117.33065 c 0.2848,-0.7421 0.2383,-1.09383 -0.1446,-1.09383 -0.1864,0 -0.2499,0.144 -0.1412,0.32 0.2807,0.45407 -0.9134,0.39853 -1.376,-0.064 -0.2986,-0.29867 -0.384,-0.26664 -0.384,0.1441 0,0.99707 1.7072,1.57599 2.0458,0.69373 z m 6.1142,-0.13383 c -0.1087,-0.176 -0.3692,-0.3178 -0.5788,-0.3151 -0.229,0.003 -0.1896,0.12871 0.099,0.3151 0.6147,0.39729 0.7255,0.39729 0.48,0 z m -2.7413,-77.32508 c 0.076,-0.0691 -0.05,-0.30319 -0.28,-0.52025 -0.332,-0.31301 -0.449,-0.31191 -0.5653,0.005 -0.081,0.22 -0.2941,0.4 -0.4742,0.4 -0.1802,0 -0.2448,-0.216 -0.1434,-0.48 0.1013,-0.264 0.06,-0.48 -0.091,-0.48 -0.4615,0 -0.6374,0.85889 -0.2543,1.24195 0.3114,0.31144 1.3905,0.21179 1.8087,-0.16704 z m -4.4587,-0.43492 c 0,-0.176 -0.216,-0.32 -0.48,-0.32 -0.264,0 -0.48,0.144 -0.48,0.32 0,0.176 0.216,0.32 0.48,0.32 0.264,0 0.48,-0.144 0.48,-0.32 z m 2.1534,-0.83333 c -0.1063,-0.10634 -0.3823,-0.1177 -0.6134,-0.0252 -0.2552,0.10215 -0.1794,0.17798 0.1934,0.19333 0.3373,0.0139 0.5263,-0.0617 0.42,-0.16807 z m 6.8066,-62.19664 c 0,-0.17047 -0.216,-0.22707 -0.48,-0.12576 -0.264,0.10131 -0.48,0.24079 -0.48,0.30996 0,0.0692 0.216,0.12576 0.48,0.12576 0.264,0 0.48,-0.13948 0.48,-0.30996 z m 6.2313,-19.635552 c 0.6681,-0.668105 0.624,-0.757648 -0.3913,-0.79504 -0.484,-0.01782 -1.4751,-0.124006 -2.2025,-0.235965 -1.6531,-0.254432 -2.1504,0.313799 -1.0435,1.192285 0.8941,0.709552 2.8533,0.622679 3.6373,-0.16128 z m 4.7413,0.104957 c -0.1619,-0.619005 -1.874,-1.351222 -2.4334,-1.040694 -0.4492,0.249353 0.7664,1.318876 1.6541,1.455264 0.4657,0.07155 0.8693,0.151673 0.8968,0.178044 0.027,0.02637 -0.025,-0.240307 -0.1175,-0.592614 z m 39.9191,-39.344684 c -1.2334,-1.557331 -2.376,-1.857587 -1.2957,-0.340505 0.7152,1.004416 1.9496,2.006899 2.1833,1.773145 0.076,-0.07583 -0.3236,-0.720521 -0.8876,-1.43264 z m 60.3953,192.765559 c -0.1113,-0.11139 -3.2725,-0.23315 -7.0247,-0.27058 l -6.8222,-0.0681 -0.2535,-1.42083 c -0.1394,-0.78146 -0.3754,-1.80758 -0.5244,-2.28025 -0.3575,-1.13364 0.1084,-1.29366 2.3794,-0.81731 1.2813,0.26874 1.94,0.2773 2.3355,0.0303 0.3285,-0.20516 0.837,-0.23815 1.2598,-0.0817 0.3899,0.14425 1.2522,0.32917 1.9161,0.41095 0.6639,0.0818 1.4342,0.23747 1.7119,0.346 0.2776,0.10852 0.9213,0.0389 1.4305,-0.15462 0.7532,-0.2864 0.9936,-0.25903 1.2904,0.14693 0.4632,0.63342 0.7416,0.6276 1.4691,-0.0307 0.3501,-0.31686 0.5852,-0.38113 0.5852,-0.16 0,0.20328 -0.1525,0.3696 -0.3389,0.3696 -0.1864,0 -0.2385,0.16249 -0.1157,0.36109 0.1527,0.24709 0.3148,0.19727 0.5135,-0.15777 0.2603,-0.46518 0.366,-0.46931 1.0213,-0.04 0.4019,0.26339 0.8505,0.37039 0.9966,0.23777 0.1462,-0.13261 0.1622,-0.0611 0.036,0.15888 -0.2206,0.38341 0.1332,0.53564 0.9929,0.42726 0.212,-0.0267 0.716,0.2355 1.12,0.58269 0.4041,0.3472 1.0901,0.9361 1.5245,1.30867 0.6074,0.52104 0.6919,0.73783 0.3662,0.93916 -0.5056,0.31246 -5.5786,0.45294 -5.869,0.16253 z m -14.7626,-0.94031 c -0.1014,-0.264 -0.045,-0.48 0.1257,-0.48 0.1705,0 0.31,0.216 0.31,0.48 0,0.264 -0.057,0.48 -0.1258,0.48 -0.069,0 -0.2086,-0.216 -0.3099,-0.48 z m 6.9157,-5.03181 c -0.396,-0.19029 -0.72,-0.60966 -0.72,-0.93191 0,-0.55862 0.052,-0.5609 1.1259,-0.049 0.6193,0.29531 1.0783,0.67998 1.02,0.85482 -0.1575,0.47271 -0.6196,0.51356 -1.4259,0.12608 z m -124.3001,-73.74679 c 0.2311,-0.0924 0.5071,-0.0811 0.6134,0.0252 0.1063,0.10634 -0.083,0.18197 -0.42,0.16807 -0.3728,-0.0154 -0.4486,-0.0912 -0.1934,-0.19333 z M 432.80897,41.0696 c -0.2331,-0.144032 -0.3702,-0.412467 -0.3047,-0.596521 0.077,-0.215507 0.3251,-0.182659 0.6981,0.09227 0.6382,0.470409 0.2847,0.923379 -0.3934,0.504249 z m -31.5458,-19.215895 c 0.1088,-0.176 0.2613,-0.32 0.3389,-0.32 0.078,0 0.1411,0.144 0.1411,0.32 0,0.176 -0.1525,0.32 -0.3388,0.32 -0.1864,0 -0.2499,-0.144 -0.1412,-0.32 z"
               style="fill:#1f1f1f;fill-opacity:1;stroke-width:0.31999999" />
          </g>
        </g>
      </g>
    </g>
  </g>
</svg>
