<?xml version="1.0" encoding="UTF-8"?>
<!-- Created with Inkscape (http://www.inkscape.org/) -->
<svg id="svg2" width="1920" height="384" version="1.1" viewBox="0 0 1920 384" xmlns="http://www.w3.org/2000/svg" xmlns:cc="http://creativecommons.org/ns#" xmlns:dc="http://purl.org/dc/elements/1.1/" xmlns:rdf="http://www.w3.org/1999/02/22-rdf-syntax-ns#">
 <metadata id="metadata8">
  <rdf:RDF>
   <cc:Work rdf:about="">
    <dc:format>image/svg+xml</dc:format>
    <dc:type rdf:resource="http://purl.org/dc/dcmitype/StillImage"/>
    <dc:title/>
   </cc:Work>
  </rdf:RDF>
 </metadata>
 <path id="path4552" d="m-3.389 192.94v-193.14h1925.5v386.28h-1925.5v-193.14z" fill="#06f1cc" stroke-width=".86268"/>
 <path id="path4550" d="m-3.389 235.24c1.1703-58.8-27.799-169.37 77.827-170.63 56.406 20.671 5.8247 61.914-20.582 75.721-13.491 69.582 126.7 39.777 77.863-19.987 37.225-68.048 65.659 37.502 116.32 33.855 76.065 23.485 160.64-26.878 136.71-95.934 21.518-95.736 143.14-53.531 221.19-58.517 303.03 1.8371 606.07-1.7089 909.09 0.83328 21.458 60.834 8.5537 170.3 119.02 164.57 53.68-0.61858 144.26-104.55 143.89-19.475 6.429 44.638 109.88 55.487 75.217 2.6082-56.954-29.208-18.844-121.95 44.271-68.482 61.22 60.783 2.1479 146.27 29.542 217.44 21.069 89.364-88.665 99.854-165.51 89.192-548.16-1.1927-1096.5 0.38107-1644.6-0.38278-85.233 18.632-146.76-12.718-120.29-88.949 0-20.622 0-41.245-2.28e-5 -61.867zm1779.5-82.869-0.043 1.9313zm-1779.2-79.319c3.3326-2.536-1.6543 4.2832 0 0z" fill="#0fe1c0" stroke-width=".86268"/>
 <path id="path4548" d="m-3.3746 271.1c-6.686-31.765-5.0959-124.93 42.79-58.252 79.587 38.893 164.68-33.012 250.91-14.511 83.33-8.3632 170.44-63.933 167.24-140.21-31.291-86.414 116.85-61.049 174.72-51.924 122.83 5.7962 245.27-12.029 368.14-7.266 97.027-3.0261 194.13 9.4919 290.72 7.8849 56.204-8.273 171.98-42.009 173.32 34.824-21.811 84.379 80.064 164.95 178.66 147.4 77.072 0.3035 151.13 63.875 227.08 25.386 30.084-32.537 59.957-30.543 49.581 14.037 2.5189 50.04 23.154 112.37-25.729 151.21-52.066 17.121-110.81 2.8635-165.84 6.4829-577.2-0.13923-1154.4-0.0516-1731.6-0.078 0.00453-38.325 0.00954-76.649 0.014393-114.97zm1464.8-227.42c4.1671-3.4371-1.0002 5.3899 0 0z" fill="#4cd9be" stroke-width=".86268"/>
 <path id="path4546" d="m-3.3487 338.98c2.384-80.782 124.92-56.156 182.92-35.835 84.938 4.1311 116.15-98.6 203.87-86.663 81.041 19.659 194.96-44.262 162.18-120.56-6.7877-75.585 104.25-67.392 164.82-60.92 88.578-12.5 177.67-55.798 271.33-36.082 85.99-14.854 160.61 35.162 243.05 44.447 74.613-46.011 177.56 12.864 144.69 86.333 19.408 73.209 122.74 100.26 201.58 88.383 75.322 19.698 133.64 131.33 220.71 68.756 56.768-22.217 165.58 11.316 126.45 74.133-41.28 42.956-116.94 29.899-174.4 24.786-69.622-6.6963-139.06 4.7897-209.06 0.53333-512.75-0.53751-1025.5-0.0389-1538.3-0.21699zm154.71-75.198c-12.768-47.007 61.867 6.6473 0 0zm1612.8 1.3852c-80.856-5.743 32.589-42.972 0 0zm156.69-49.645c-5.3722-5.5618 4.2261 0.44247 0 0zm-0.081-3.8193 1.1442-0.57783zm-1.4706-3.3301c-17.395-10.043 9.8745-13.073 0 0zm1.802-21.57 0.2475-3.3487 7e-4 -0.0113-0.2473 3.3487z" fill="#36d3be" stroke-width=".86268"/>
 <path id="path4544" d="m-0.56839 385.21c87.949-22.975 180.83-10.403 271.12-15.159 64.792-51.162 112.93-131.83 213.99-133.85 81.007-8.8502 135.6-72.694 109.26-138.16 27.794-74.591 143.27-1.3466 203.94-38.017 74.542-5.3319 138.21-92.572 212.79-41.676 64.954 42.231 145.15 56.252 225.41 46.501 46.958-1.8097 118.03-1.7127 84.836 51.07-14.009 65.829 48.897 124.69 126.94 121.16 78.229 19.515 142.27 67.475 187.67 123.33 67.412 34.235 193.42-9.3576 233.94 23.371-277.48 4.8077-555.08 0.49869-832.61 2.2797-345.76 0.11575-691.52 0.0435-1037.3-0.84294zm104.07-21.487c-15.92-13.568 19.193-1.0383 0 0zm-9.4006-10.606c-24.558-10.052 20.575-10.293 0 0z" fill="#00cfb2" stroke-width=".86268"/>
 <path id="path4542" d="m471.33 383.91c-3.9423-41.901-66.714-137.53 32.992-122.59 90.564 4.6056 164.38-70.738 126.96-142.86 37.72-66.944 132.32 7.5368 194.67-8.3519 72.286-9.0408 152.16-37.147 221.08-2.5426 72.973 27.693 184.12-43.97 232.35 0.79991-2.4616 51.095-1.308 126.71 70.408 142.83 73.809-23.43 165.28 36.813 109.73 101.09-67.671 61.081-175.56 25.805-261.56 31.397-241.29 4.4924-482.92 2e-3 -724.34 2.1227l-2.3108-1.9022z" fill="#00c8af" stroke-width=".86268"/>
 <path id="path4540" d="m609.15 385.29c1.7708-4.3302 1.7708 4.3302 0 0zm6.5345 0.0638c20.923-72.954 9.586-158.56 74.37-217.67 84.613-18.549 168.54 14.339 242.94 45.15 97.19 9.6132 175.41-77.335 274.98-47.062 68.705 35.941 95.962 122.87 83.36 185.53-46.702 60.688-135.3 29.892-204.82 33.981-156.94-0.73338-313.89 2.0849-470.83 0.0717zm145.95-105.65c53.263 16.313 116.32-67.429 26.924-49.556-23.397 5.3773-49.981 30.816-26.924 49.556zm398.94-3.9284c46.675-69.358-149.21-32.391-47.946-6.774 15.57 3.7649 31.558 7.5563 47.946 6.774zm-4.701-98.668c-0.4311-4.4747-2.2153 3.2667 0 0zm151.84 208.18c1.7708-4.3302 1.7708 4.3302 0 0zm-654.77-149.27c3.3052 1.7866-5.499 1.7266 0 0z" fill="#28c1a8" stroke-width=".86268"/>
 <path id="path4538" d="m658.51 385.36c-53.85-65.795 66.009-137.66 110.26-60.105 68.828 41.412 153.29-5.81 197.61-38.672 48.044 30.858 96.845 99.978 160.76 43.738 42.3-36.89 166.27-65.191 137.62 19.893-45.125 69.088-152.09 28.54-225.72 35.521-126.85-0.87385-253.71 1.9794-380.54-0.37433z" fill="#00bda0" stroke-width=".86268"/>
 <g id="g6166" transform="matrix(.90233 0 0 .95729 192.11 19.979)">
  <g id="g827" transform="translate(53.589 -401.89)" stroke-width=".89362">
   <path id="path4493" d="m770.96 699.2c-6.6774-1.0441-7.7815-1.4766-10.878-4.2617-1.3716-1.2335-2.7209-1.6191-4.4681-1.2768-4.286 0.83967-10.936-1.1151-14.448-4.2468-1.7858-1.5927-5.1722-3.6204-7.5252-4.5059-2.353-0.88556-5.2071-2.7141-6.3424-4.0633-1.1353-1.3493-3.3534-3.1198-4.929-3.9346-4.1263-2.1338-6.3441-4.638-6.3441-7.1634 0-1.2842-0.74134-2.5994-1.778-3.1542-0.97791-0.52337-2.3546-2.0667-3.0594-3.4296-2.1383-4.135 0.0809-7.0904 11.391-15.171 15.772-11.268 47.661-39.587 46.568-41.354-0.27737-0.4488-1.6328-0.81601-3.0119-0.81601-1.3792 0-3.5675-0.83369-4.8628-1.8526-2.961-2.3291-5.5844-1.9651-5.2079 0.72254 0.15057 1.0744-0.16353 2.7704-0.69791 3.7689-0.91977 1.7186-1.6161 1.7947-13.061 1.4273-6.6491-0.21336-13.453-0.838-15.119-1.3879-2.0122-0.66407-4.0403-0.72075-6.0395-0.16867-2.9325 0.80971-9.2712 0.21782-12.571-1.1736-0.90167-0.38028-3.7228-0.19169-6.2692 0.41923-4.2761 1.0258-5.1707 0.92913-11.71-1.266-4.975-1.67-8.0326-2.2157-10.284-1.8352-2.4061 0.40651-4.8691-0.13695-9.8851-2.1809-4.5928-1.8715-8.2166-2.7294-11.596-2.7449-5.2618-0.0243-11.55-2.3477-14.923-5.5135-1.4848-1.3939-2.5767-1.6903-4.4681-1.213-6.4677 1.6322-8.7932 1.4901-14.12-0.86254-2.949-1.3024-6.367-3.2923-7.5958-4.4219-1.2287-1.1297-3.8426-2.3232-5.8085-2.6523-1.966-0.32913-6.1056-1.4219-9.1992-2.4283-4.8533-1.5789-5.6939-2.1761-6.1296-4.3543-0.4551-2.2755-0.95785-2.5811-5.0988-3.099-9.271-1.1596-15.034-2.54-16.895-4.0468-1.8547-1.5018-1.8633-1.6102-0.3165-3.971 0.87461-1.3348 1.4048-2.6124 1.1783-2.8389-0.22658-0.22657-3.1179-0.83321-6.4252-1.3481-3.3073-0.5149-9.2479-2.1042-13.201-3.5318-3.9534-1.4276-7.3272-2.5957-7.4973-2.5957-0.17001 0-0.30928-0.82686-0.30928-1.8375 0-1.3185 1.1358-2.3399 4.0213-3.6163 2.2117-0.97836 4.0213-1.9507 4.0213-2.1608 0-1.2909-6.3334-3.2014-13.186-3.9777-7.8285-0.88683-23.808-4.9723-27.796-7.1068-4.6454-2.4862-1.5892-3.1906 14.917-3.4382 8.9292-0.13404 16.235-0.5733 16.235-0.97632 0-1.4438-5.9534-3.7431-14.298-5.5221-11.259-2.4003-30.778-8.5587-32.073-10.119-0.56718-0.68339-2.1281-1.4765-3.4686-1.7624-3.9687-0.84642-8.6477-4.1194-7.5122-5.2549 0.70076-0.70076 3.4176-0.31981 9.7257 1.3638 24.3 6.4853 52.988 10.711 52.988 7.8045 0-0.47255-1.709-1.2904-3.7979-1.8174-19.905-5.0224-40.775-14.318-48.479-21.592-1.4745-1.3923-5.4504-5.0822-8.8355-8.1997-3.385-3.1176-5.9955-6.1455-5.8011-6.7288 0.21157-0.6348 4.4757 1.6933 10.623 5.7998 17.096 11.421 33.327 18.325 54.503 23.185 15.063 3.4569 17.002 2.5649 3.7087-1.7064-15.827-5.0855-30.161-13.702-41.264-24.804-7.0393-7.0393-15.169-17.418-15.169-19.366 0-0.72124 4.8028 3.3191 10.673 8.9786 16.072 15.495 30.28 24.258 50.965 31.433 10.622 3.6842 17.063 4.1555 9.515 0.69634-2.3971-1.0986-4.7882-1.9975-5.3137-1.9975s-2.3845-0.94496-4.1311-2.0999c-1.7466-1.1549-5.1864-3.3748-7.6438-4.9329-6.17-3.9122-17.286-15.069-20.739-20.814-2.9316-4.8785-5.9547-11.472-5.2599-11.472 0.2129 0 2.4885 2.9154 5.0569 6.4788 9.8201 13.624 28.29 29.278 41.352 35.046 7.1427 3.1544 17.955 5.835 23.61 5.8535 2.8206 9e-3 8.894 1.0058 13.496 2.2147 8.6378 2.2688 37.655 4.7891 42.813 3.7185 2.2845-0.47417 8.155-0.16621 40.416 2.1194 7.1266 0.50494 16.376 1.6989 20.553 2.6532 7.9622 1.8188 16.726 3.2314 38.685 6.2354 14.436 1.9749 19.4 2.234 19.4 1.0128 0-0.43742 2.1985-3.0292 4.8856-5.7596 2.6871-2.7304 5.1245-6.0922 5.4166-7.4707 0.97194-4.5879 2.8296-6.9537 7.2309-9.2086 3.6792-1.8849 5.5934-2.2341 12.249-2.2341l6.1196 0.83334 4.6038 2.3919c5.175 5.8861 15.808 19.453 16.347 20.859 0.70419 1.8351 3.6945 1.7708 19.74-0.42419 21.959-3.004 30.723-4.4166 38.685-6.2354 4.1777-0.9543 13.427-2.1482 20.553-2.6532 32.261-2.2858 38.131-2.5936 40.416-2.1194 5.1579 1.0706 34.175-1.4496 42.813-3.7185 4.6024-1.2089 10.676-2.2055 13.496-2.2147 5.6555-0.0179 16.468-2.699 23.61-5.8535 13.062-5.7686 31.532-21.422 41.352-35.046 2.5683-3.5633 4.8439-6.4788 5.0568-6.4788 0.6949 0-2.3282 6.5937-5.2598 11.472-3.4527 5.7456-14.569 16.902-20.739 20.814-2.4575 1.5582-5.8972 3.778-7.6438 4.9329-1.7466 1.1549-3.6056 2.0999-4.1311 2.0999s-2.9167 0.89887-5.3137 1.9975c-7.5475 3.4592-1.1068 2.9878 9.515-0.69634 20.685-7.1745 34.893-15.938 50.965-31.433 5.8701-5.6595 10.673-9.6998 10.673-8.9786 0 1.9477-8.1295 12.327-15.169 19.366-11.103 11.103-25.436 19.719-41.264 24.804-13.293 4.2713-11.355 5.1633 3.7087 1.7064 21.176-4.8598 37.408-11.764 54.504-23.185 6.147-4.1065 10.411-6.4346 10.623-5.7998 0.1944 0.58329-2.4161 3.6113-5.8011 6.7288-3.385 3.1176-7.361 6.8074-8.8355 8.1997-7.7036 7.2742-28.574 16.569-48.479 21.592-2.0889 0.52704-3.7979 1.3449-3.7979 1.8174 0 2.9062 28.688-1.3192 52.988-7.8045 6.3082-1.6836 9.025-2.0645 9.7257-1.3638 1.1355 1.1355-3.5434 4.4084-7.5122 5.2549-1.3406 0.28589-2.9014 1.079-3.4686 1.7624-1.2952 1.5606-20.814 7.719-32.073 10.119-8.3446 1.779-14.298 4.0783-14.298 5.5221 0 0.40302 7.3057 0.84235 16.235 0.97632 16.506 0.24762 19.562 0.95205 14.917 3.4382-3.9883 2.1345-19.967 6.2199-27.796 7.1068-6.8522 0.77622-13.186 2.6868-13.186 3.9777 0 0.21 1.8096 1.1825 4.0213 2.1608 2.8855 1.2764 4.0213 2.2978 4.0213 3.6163 0 1.0106-0.1392 1.8375-0.3093 1.8375-0.17 0-3.5439 1.1681-7.4973 2.5957-3.9535 1.4276-9.894 3.0169-13.201 3.5318-3.3073 0.51491-6.1987 1.1216-6.4252 1.3481-0.2266 0.22655 0.3036 1.5041 1.1782 2.8389 1.5469 2.3608 1.5382 2.4691-0.3165 3.971-1.8608 1.5068-7.624 2.8873-16.895 4.0468-4.141 0.51792-4.6437 0.82349-5.0988 3.099-0.4356 2.1782-1.2763 2.7754-6.1296 4.3543-3.0936 1.0064-7.2332 2.0992-9.1992 2.4283-1.966 0.32913-4.5798 1.5227-5.8085 2.6523s-4.6468 3.1195-7.5958 4.4219c-5.327 2.3527-7.6525 2.4947-14.12 0.86254-1.8914-0.47733-2.9832-0.18096-4.4681 1.213-3.3723 3.1658-9.6608 5.4892-14.923 5.5135-3.3789 0.0157-7.0027 0.87342-11.595 2.7449-5.016 2.044-7.479 2.5874-9.8851 2.1809-2.2518-0.38043-5.3094 0.16532-10.284 1.8352-6.539 2.1951-7.4336 2.2918-11.71 1.266-2.5464-0.61086-5.3675-0.79954-6.2692-0.41926-3.2994 1.3915-9.6381 1.9834-12.571 1.1736-1.9992-0.55201-4.0273-0.49533-6.0395 0.16867-1.6662 0.54991-8.4697 1.1745-15.119 1.3879-11.445 0.36736-12.141 0.29127-13.061-1.4273-0.53435-0.99844-0.84842-2.6944-0.69793-3.7689 0.37648-2.6877-2.2469-3.0516-5.2079-0.72254-1.2954 1.019-3.4836 1.8526-4.8628 1.8526-1.3792 0-2.7346 0.36721-3.012 0.81603-1.0925 1.7677 30.796 30.086 46.568 41.354 11.311 8.0808 13.53 11.036 11.391 15.171-0.70477 1.3629-2.0815 2.9062-3.0594 3.4296-1.0366 0.55481-1.778 1.87-1.778 3.1542 0 2.5254-2.2178 5.0296-6.3441 7.1634-1.5756 0.81478-3.7936 2.5854-4.929 3.9346s-3.9894 3.1778-6.3424 4.0633c-2.353 0.88555-5.7393 2.9132-7.5252 4.5059-3.5114 3.1317-10.162 5.0864-14.448 4.2468-1.7569-0.3442-3.0889 0.0429-4.4681 1.2981-3.8858 3.5367-8.6168 4.6429-21.979 5.1396-6.9663 0.25893-10.381-0.67542-14.601-3.9953l-2.445-1.9234-2.9168 2.1569c-1.6042 1.1863-3.721 2.4804-4.704 2.8757-2.719 1.0936-13.543 1.0866-20.576-0.0134z" fill="#00a98f"/>
   <path id="path4489" d="m776.34 697.42c-21.027-4.6975-42.669-10.672-58.117-27.525-15.939-17.096 17.612-24.434 26.042-36.694 9.8989-10.463 43.587-30.002 11.891-33.312-7.6263 15.633-33.041 3.4759-47.972 4.4017-20.57 2.648-41.339-5.6809-60.999-10.597-14.592-3.801-33.076-6.4347-47.679-17.516-6.3548-7.3031-27.564-0.44793-21.624-13.962-9.9551-1.303-40.021-8.3096-14.851-11.989-11.187-10.171-29.614-5.6994-41.677-13.316 9.5892-1.1547 46.559 1.129 18.53-9.0367-8.298-2.5267-38.936-8.9047-34.137-11.718 13.389 0.9433 42.975 13.732 48.118 2.1141-14.203-4.017-46.588-15.174-47.859-21.172 17.056 6.64 45.155 21.694 58.943 14.39 11.348-1.4189 34.254 3.978 49.414 6.5089 38.221 4.5541 77.4 0.16644 114.98 10.239 17.925 0.82897 54.536 14.632 51.244 8.0298-14.218-4.3355 1.3349-17.279 6.6488-23.247 6.872-2.7695 12.567-6.9942 16.865 7.2775 5.8669 13.258 12.564-10.746 20.045 8.6745-23.598 16.812 14.442 0.91522 24.821 2.0688 29.697-3.9934 58.955-11.611 89.195-10.49 26.928 1.126 53.152-4.2053 79.555-8.147 11.66-2.7611 14.464-2.2522 20.235 2.0721 18.905-1.2413 44.086-13.99 56.222-16.987-11.783 13.554-45.228 12.031-49.444 25.157 13.017 3.5163 46.865-9.166 48.311-4.7496-11.055 6.4038-45.046 7.8497-43.469 17.682 7.4295 0.76167 41.012-0.26324 17.33 5.0254-11.321 1.3333-46.26 8.0001-19.919 14.245-11.519 5.818-29.993 3.99-28.356 15.928-19.015 1.9142-34.879 14.141-51.432 20.923-17.272-3.6351-33.329 10.956-52.291 10.688-17.914 4.911-36.16 2.1088-54.033 4.6302-11.058 4.2614-15.412-1.6824-20.928-7.1526-29.824 6.0084 8.0735 24.407 16.268 35.255 9.7841 11.498 40.545 19.656 22.613 36.576-16.156 15.029-35.972 21.384-56.527 25.548-14.09 4.3449-22.943-11.663-34.746 0.37237-3.7317 0.27931-7.4986 0.26658-11.215-0.19526zm13.876-167.6c5.7985-11.365-20.861 6.2249-1.4958 1.4143zm-240.41-24.528c-6.7175-4.7784 11.79 4.945 0 0zm496.73-0.0351c11.557-4.4494-7.1985 4.1745 0 0zm-502.09-2.199c-3.0511-3.1129 7.2108 3.3311 0 0zm507.58 0c6.9732-3.2063-2.7553 2.9938 0 0zm-516.96-4.5723c-19.001-11.292 17.739 8.4313 0 0zm522.32 2.3633c9.775-6.7134 17.92-7.82 1.9031-0.49866z" fill="#00967f"/>
  </g>
 </g>
</svg>
